<svg width="24" height="24" viewBox="0 0 24 24" fill="none" xmlns="http://www.w3.org/2000/svg">
<path d="M18.61 6.67982C18.2 6.67982 17.86 6.33982 17.86 5.92982V4.41982C17.86 3.81982 17.37 3.31982 16.76 3.31982H3.82999C3.22999 3.31982 2.72999 3.80982 2.72999 4.41982V5.92982C2.72999 6.33982 2.38999 6.67982 1.97999 6.67982C1.56999 6.67982 1.23999 6.33982 1.23999 5.92982V4.41982C1.23999 2.98982 2.40999 1.81982 3.83999 1.81982H16.76C18.19 1.81982 19.36 2.97982 19.36 4.41982V5.92982C19.36 6.33982 19.02 6.67982 18.61 6.67982Z" fill="#1E1E1E"/>
<path d="M10.3 18.8498C9.89005 18.8498 9.55005 18.5098 9.55005 18.0998V3.31982C9.55005 2.90982 9.89005 2.56982 10.3 2.56982C10.71 2.56982 11.05 2.90982 11.05 3.31982V18.0998C11.05 18.5198 10.71 18.8498 10.3 18.8498Z" fill="#1E1E1E"/>
<path d="M12.4799 18.8501H6.8999C6.4899 18.8501 6.1499 18.5101 6.1499 18.1001C6.1499 17.6901 6.4899 17.3501 6.8999 17.3501H12.4799C12.8899 17.3501 13.2299 17.6901 13.2299 18.1001C13.2299 18.5101 12.8899 18.8501 12.4799 18.8501Z" fill="#1E1E1E"/>
<path d="M22.0099 13.2001C21.5999 13.2001 21.2599 12.8601 21.2599 12.4501V11.6501C21.2599 11.3401 20.9999 11.0801 20.6899 11.0801H13.6799C13.2699 11.0801 12.9299 10.7401 12.9299 10.3301C12.9299 9.92008 13.2699 9.58008 13.6799 9.58008H20.6899C21.8299 9.58008 22.7599 10.5101 22.7599 11.6501V12.4501C22.7599 12.8701 22.4299 13.2001 22.0099 13.2001Z" fill="#1E1E1E"/>
<path d="M16.0801 22.1801C15.6701 22.1801 15.3301 21.8401 15.3301 21.4301V10.8701C15.3301 10.4601 15.6701 10.1201 16.0801 10.1201C16.4901 10.1201 16.8301 10.4601 16.8301 10.8701V21.4301C16.8301 21.8401 16.4901 22.1801 16.0801 22.1801Z" fill="#1E1E1E"/>
<path d="M18.2199 22.1802H13.9399C13.5299 22.1802 13.1899 21.8402 13.1899 21.4302C13.1899 21.0202 13.5299 20.6802 13.9399 20.6802H18.2199C18.6299 20.6802 18.9699 21.0202 18.9699 21.4302C18.9699 21.8402 18.6299 22.1802 18.2199 22.1802Z" fill="#1E1E1E"/>
</svg>
