<svg width="48" height="49" viewBox="0 0 48 49" fill="none" xmlns="http://www.w3.org/2000/svg">
<path d="M32 4.5H16C10.48 4.5 6 8.98 6 14.5V34.5C6 40.02 10.48 44.5 16 44.5H32C37.52 44.5 42 40.02 42 34.5V14.5C42 8.98 37.52 4.5 32 4.5ZM17.72 37.76C17.34 38.14 16.84 38.34 16.32 38.34C15.78 38.34 15.28 38.14 14.9 37.76C14.52 37.38 14.3 36.88 14.3 36.34C14.3 35.82 14.52 35.3 14.9 34.92C15.08 34.74 15.3 34.6 15.54 34.5C16.04 34.3 16.58 34.3 17.08 34.5C17.2 34.54 17.32 34.6 17.42 34.68C17.54 34.74 17.64 34.84 17.72 34.92C18.1 35.3 18.32 35.82 18.32 36.34C18.32 36.88 18.1 37.38 17.72 37.76ZM14.3 28.34C14.3 28.08 14.36 27.82 14.46 27.58C14.56 27.32 14.7 27.12 14.9 26.92C15.36 26.46 16.06 26.24 16.7 26.38C16.82 26.4 16.96 26.44 17.08 26.5C17.2 26.54 17.32 26.6 17.42 26.68C17.54 26.74 17.64 26.84 17.72 26.92C17.9 27.12 18.06 27.32 18.16 27.58C18.26 27.82 18.3 28.08 18.3 28.34C18.3 28.88 18.1 29.38 17.72 29.76C17.34 30.14 16.84 30.34 16.32 30.34C16.04 30.34 15.78 30.28 15.54 30.18C15.3 30.08 15.08 29.94 14.9 29.76C14.52 29.38 14.3 28.88 14.3 28.34ZM25.72 37.76C25.54 37.94 25.32 38.08 25.08 38.18C24.84 38.28 24.58 38.34 24.3 38.34C23.78 38.34 23.28 38.14 22.9 37.76C22.52 37.38 22.3 36.88 22.3 36.34C22.3 36.2 22.32 36.08 22.34 35.94C22.38 35.82 22.42 35.7 22.46 35.58C22.52 35.46 22.58 35.34 22.64 35.22C22.72 35.12 22.8 35.02 22.9 34.92C23.08 34.74 23.3 34.6 23.54 34.5C24.28 34.2 25.16 34.36 25.72 34.92C26.1 35.3 26.3 35.82 26.3 36.34C26.3 36.88 26.1 37.38 25.72 37.76ZM25.72 29.76C25.34 30.14 24.84 30.34 24.3 30.34C23.78 30.34 23.28 30.14 22.9 29.76C22.52 29.38 22.3 28.88 22.3 28.34C22.3 27.82 22.52 27.3 22.9 26.92C23.64 26.18 24.98 26.18 25.72 26.92C25.9 27.12 26.06 27.32 26.16 27.58C26.26 27.82 26.3 28.08 26.3 28.34C26.3 28.88 26.1 29.38 25.72 29.76ZM18 21.42C15.94 21.42 14.24 19.74 14.24 17.66V15.66C14.24 13.6 15.92 11.9 18 11.9H30C32.06 11.9 33.76 13.58 33.76 15.66V17.66C33.76 19.72 32.08 21.42 30 21.42H18ZM33.72 37.76C33.34 38.14 32.84 38.34 32.3 38.34C32.04 38.34 31.78 38.28 31.54 38.18C31.3 38.08 31.08 37.94 30.9 37.76C30.52 37.38 30.32 36.88 30.32 36.34C30.32 35.82 30.52 35.3 30.9 34.92C31.44 34.36 32.34 34.2 33.08 34.5C33.32 34.6 33.54 34.74 33.72 34.92C34.1 35.3 34.3 35.82 34.3 36.34C34.3 36.88 34.1 37.38 33.72 37.76ZM34.16 29.1C34.06 29.34 33.92 29.56 33.72 29.76C33.34 30.14 32.84 30.34 32.3 30.34C31.78 30.34 31.28 30.14 30.9 29.76C30.52 29.38 30.3 28.88 30.3 28.34C30.3 27.82 30.52 27.3 30.9 26.92C31.64 26.18 32.98 26.18 33.72 26.92C34.1 27.3 34.32 27.82 34.32 28.34C34.32 28.6 34.26 28.86 34.16 29.1Z" fill="#045B62"/>
</svg>
