<svg width="48" height="48" viewBox="0 0 48 48" fill="none" xmlns="http://www.w3.org/2000/svg">
<path d="M34.5001 12H34.5085H34.5001ZM44.9579 9.00001H36.421L37.2573 5.65688L40.8498 4.43344C41.6139 4.17376 42.0685 3.36188 41.8482 2.58563C41.7922 2.39036 41.697 2.20851 41.5686 2.05112C41.4401 1.89372 41.2811 1.76406 41.101 1.66999C40.9209 1.57593 40.7236 1.51942 40.5211 1.5039C40.3185 1.48837 40.1149 1.51416 39.9226 1.57969L35.5164 3.07969C35.2791 3.16061 35.0658 3.29971 34.8962 3.48428C34.7265 3.66885 34.6058 3.89301 34.5451 4.13626L33.3292 9.00001H21.0423C20.2351 9.00001 19.5423 9.62063 19.502 10.4278C19.4922 10.6306 19.5237 10.8333 19.5946 11.0236C19.6655 11.2139 19.7742 11.3878 19.9143 11.5348C20.0544 11.6818 20.2228 11.7988 20.4095 11.8788C20.5961 11.9587 20.7971 12 21.0001 12H21.2579L21.3517 12.8119C21.3737 13.0015 21.4647 13.1763 21.6074 13.3032C21.75 13.4301 21.9342 13.5001 22.1251 13.5C25.7814 13.5 29.0307 14.5219 31.5114 16.455C32.8911 17.5181 34.0096 18.8826 34.7814 20.4441C35.2134 21.3224 35.5322 22.252 35.7301 23.2106C35.7695 23.3974 35.8801 23.5615 36.0385 23.6681C37.3139 24.5335 38.2547 25.8092 38.7046 27.2832C39.1545 28.7573 39.0864 30.3409 38.5117 31.7709C38.4448 31.9364 38.4398 32.1205 38.4976 32.2894C38.8297 33.2411 38.9996 34.242 39.0001 35.25C39.0001 37.3444 38.2876 39.3403 36.9939 40.8703C36.2604 41.7435 35.3377 42.4383 34.2957 42.9019C34.1155 42.9813 33.9737 43.1285 33.901 43.3116C33.5117 44.3259 32.9618 45.2711 32.2726 46.1109C32.2439 46.145 32.2255 46.1866 32.2196 46.2307C32.2137 46.2749 32.2205 46.3198 32.2392 46.3602C32.2579 46.4007 32.2877 46.4349 32.3252 46.459C32.3626 46.4831 32.4062 46.496 32.4507 46.4963H37.0642C38.1937 46.4916 39.2806 46.0643 40.1108 45.2984C40.9411 44.5326 41.4545 43.4836 41.5501 42.3581L44.7564 12H45.0001C45.2033 12.0002 45.4044 11.9592 45.5913 11.8793C45.7782 11.7995 45.9469 11.6825 46.0871 11.5355C46.2274 11.3884 46.3363 11.2144 46.4073 11.024C46.4783 10.8336 46.5099 10.6308 46.5001 10.4278C46.4607 9.62063 45.7651 9.00001 44.9579 9.00001Z" fill="#045B62"/>
<path d="M10.1897 30C10.4855 29.9986 10.7787 30.0559 11.0523 30.1685C11.3258 30.2812 11.5744 30.4469 11.7834 30.6562L13.2375 32.1103C13.2723 32.1452 13.3137 32.1728 13.3592 32.1917C13.4047 32.2106 13.4535 32.2203 13.5028 32.2203C13.5521 32.2203 13.6009 32.2106 13.6464 32.1917C13.6919 32.1728 13.7333 32.1452 13.7681 32.1103L15.2194 30.6562C15.4285 30.4469 15.677 30.2812 15.9505 30.1685C16.2241 30.0559 16.5173 29.9986 16.8131 30H35.2425C35.341 30.001 35.4387 29.9826 35.5301 29.9458C35.6215 29.909 35.7047 29.8546 35.775 29.7856C35.8454 29.7167 35.9015 29.6346 35.94 29.5439C35.9786 29.4533 35.999 29.356 36 29.2575V29.25C35.9989 28.3858 35.7 27.5485 35.1535 26.879C34.607 26.2096 33.8465 25.749 33 25.575C32.9231 22.7916 31.7812 20.4619 29.6709 18.825C27.7191 17.3025 25.1109 16.5 22.125 16.5H15.375C8.97938 16.5 4.64719 20.1347 4.5 25.575C3.65354 25.749 2.89297 26.2096 2.3465 26.879C1.80002 27.5485 1.50106 28.3858 1.5 29.25C1.5 29.4489 1.57902 29.6397 1.71967 29.7803C1.86032 29.921 2.05109 30 2.25 30H10.1897ZM17.4319 33C17.3334 32.9999 17.2358 33.0193 17.1447 33.0569C17.0537 33.0945 16.971 33.1497 16.9013 33.2194L14.8256 35.2959C14.474 35.6474 13.9972 35.8449 13.5 35.8449C13.0028 35.8449 12.526 35.6474 12.1744 35.2959L10.0988 33.2194C10.029 33.1497 9.94631 33.0945 9.85526 33.0569C9.76422 33.0193 9.66665 32.9999 9.56813 33H3.06188C2.70952 32.9984 2.36796 33.1215 2.09758 33.3474C1.8272 33.5734 1.64542 33.8877 1.58438 34.2347C1.52805 34.5702 1.49983 34.9098 1.5 35.25C1.5 38.1178 3.48094 40.4541 5.93063 40.5C6.15844 41.9175 6.70969 43.1981 7.53938 44.2003C8.76656 45.6825 10.5506 46.5 12.5625 46.5H24.9375C26.9494 46.5 28.7334 45.6825 29.9606 44.1984C30.7903 43.1963 31.3416 41.9156 31.5694 40.4981C34.0191 40.4541 36 38.1178 36 35.2481C36.0002 34.9079 35.9719 34.5683 35.9156 34.2328C35.8542 33.8861 35.6722 33.5723 35.4019 33.3467C35.1315 33.1212 34.7902 32.9984 34.4381 33H17.4319Z" fill="#045B62"/>
</svg>
