<svg width="48" height="48" viewBox="0 0 48 48" fill="none" xmlns="http://www.w3.org/2000/svg">
<path d="M16.5174 42.4935C17.8112 41.1994 18.5545 39.5474 18.7472 37.8403C19.0088 35.5689 18.2517 33.2148 16.5174 31.4802C15.485 30.4477 14.2187 29.7594 12.8835 29.4427C10.3371 28.7957 7.51535 29.4703 5.50572 31.4802C4.1155 32.8706 3.35845 34.6465 3.2621 36.4775C3.19328 37.2621 3.2621 38.0744 3.46857 38.8591C3.78515 40.1944 4.47338 41.461 5.50572 42.4935C8.54769 45.5359 13.4754 45.5359 16.5174 42.4935ZM13.9296 35.5551C14.728 35.5551 15.3887 36.2159 15.3887 37.0144C15.3749 37.8266 14.728 38.4736 13.9159 38.4874L12.4706 38.4736L12.4844 39.864C12.4706 40.6763 11.8237 41.3233 11.0115 41.3371C10.1994 41.3233 9.5525 40.6763 9.53874 39.864L9.5525 38.4736L8.10722 38.4874C7.29512 38.4736 6.64818 37.8266 6.63442 37.0143C6.64818 36.6151 6.81335 36.2572 7.07488 35.9956C7.33641 35.7341 7.69429 35.5689 8.09346 35.5551L9.5525 35.5551L9.5525 34.0408C9.5525 33.6278 9.71768 33.2698 9.9792 33.0083C10.2407 32.7467 10.5986 32.5815 11.0115 32.5815C11.8099 32.5815 12.4706 33.2423 12.4706 34.0408L12.4706 35.5551L13.9296 35.5551Z" fill="#045B62"/>
<path d="M30.1885 7.69177V15.09H27.2686V7.69177C27.2686 7.16611 26.8014 6.91301 26.4899 6.91301C26.3926 6.91301 26.2953 6.93248 26.198 6.97142L10.7614 12.7926C9.7297 13.182 9.06785 14.1554 9.06785 15.2652V16.5696C7.29644 17.8935 6.14795 20.0156 6.14795 22.4103V15.2652C6.14795 12.9484 7.56897 10.8847 9.7297 10.067L25.1857 4.2263C25.614 4.07055 26.0617 3.99268 26.4899 3.99268C28.4365 3.99268 30.1885 5.56966 30.1885 7.69177Z" fill="#045B62"/>
<path d="M43.1363 28.233V30.1799C43.1363 30.7055 42.7275 31.1338 42.1825 31.1533H39.3404C38.3087 31.1533 37.3744 30.394 37.2965 29.3816C37.2381 28.7781 37.4717 28.2135 37.861 27.8241C38.2114 27.4542 38.6981 27.2595 39.2236 27.2595H42.163C42.7275 27.279 43.1363 27.7073 43.1363 28.233Z" fill="#045B62"/>
<path d="M39.2013 25.2122H41.1868C42.2574 25.2122 43.1334 24.3361 43.1334 23.2653V22.4087C43.1334 18.3786 39.8436 15.0884 35.8142 15.0884H13.4672C11.8126 15.0884 10.2942 15.6335 9.06785 16.568C7.29644 17.8919 6.14795 20.014 6.14795 22.4087V25.8742C6.14795 26.614 6.92659 27.0812 7.62737 26.8476C8.71746 26.4777 9.86596 26.283 11.0145 26.283C16.9127 26.283 21.7208 31.0918 21.7208 36.9909C21.7208 38.3927 21.3509 39.9307 20.7669 41.2935C20.4555 41.9944 20.9421 42.8316 21.7013 42.8316H35.8142C39.8436 42.8316 43.1334 39.5413 43.1334 35.5113V35.1414C43.1334 34.0706 42.2574 33.1945 41.1868 33.1945H39.4933C37.6245 33.1945 35.8336 32.0458 35.347 30.2352C34.9577 28.7556 35.4249 27.3149 36.3982 26.3803C37.1184 25.6405 38.1112 25.2122 39.2013 25.2122ZM28.5339 24.8228H18.8009C18.0028 24.8228 17.3409 24.1609 17.3409 23.3627C17.3409 22.5644 18.0028 21.9025 18.8009 21.9025H28.5339C29.332 21.9025 29.9938 22.5644 29.9938 23.3627C29.9938 24.1609 29.332 24.8228 28.5339 24.8228Z" fill="#045B62"/>
</svg>
