<svg width="48" height="48" viewBox="0 0 48 48" fill="none" xmlns="http://www.w3.org/2000/svg">
<path d="M29.7 7.9001V15.5001H26.7V7.9001C26.7 7.3601 26.22 7.1001 25.9 7.1001C25.8 7.1001 25.7 7.1201 25.6 7.1601L9.74 13.1401C8.68 13.5401 8 14.5401 8 15.6801V17.0201C6.18 18.3801 5 20.5601 5 23.0201V15.6801C5 13.3001 6.46 11.1801 8.68 10.3401L24.56 4.3401C25 4.1801 25.46 4.1001 25.9 4.1001C27.9 4.1001 29.7 5.7201 29.7 7.9001Z" fill="#045B62"/>
<path d="M43 29V31C43 31.54 42.58 31.98 42.02 32H39.1C38.04 32 37.08 31.22 37 30.18C36.94 29.56 37.18 28.98 37.58 28.58C37.94 28.2 38.44 28 38.98 28H42C42.58 28.02 43 28.46 43 29Z" fill="#045B62"/>
<path d="M10 30C8.12 30 6.38 30.66 5 31.76C3.16 33.22 2 35.48 2 38C2 39.5 2.42 40.92 3.16 42.12C4.54 44.44 7.08 46 10 46C12.02 46 13.86 45.26 15.26 44C15.88 43.48 16.42 42.84 16.84 42.12C17.58 40.92 18 39.5 18 38C18 33.58 14.42 30 10 30ZM6.84 36.92C6.26 36.34 6.26 35.38 6.84 34.8C7.44 34.22 8.38 34.22 8.98 34.8L10.02 35.86L11.02 34.84C11.62 34.26 12.56 34.26 13.16 34.84C13.74 35.44 13.74 36.38 13.16 36.98L12.14 37.98L13.2 39.02C13.78 39.62 13.78 40.56 13.2 41.16C12.9 41.44 12.52 41.58 12.14 41.58C11.76 41.58 11.38 41.44 11.08 41.16L10.02 40.1L8.92 41.2C8.62 41.5 8.24 41.64 7.86 41.64C7.48 41.64 7.1 41.5 6.8 41.2C6.22 40.62 6.22 39.66 6.8 39.08L7.9 37.98L6.84 36.92Z" fill="#045B62"/>
<path d="M38.96 25.9H41C42.1 25.9 43 25 43 23.9V23.02C43 18.88 39.62 15.5 35.48 15.5H12.52C10.82 15.5 9.26 16.06 8 17.02C6.18 18.38 5 20.56 5 23.02V26.58C5 27.34 5.8 27.82 6.52 27.58C7.64 27.2 8.82 27 10 27C16.06 27 21 31.94 21 38C21 39.44 20.62 41.02 20.02 42.42C19.7 43.14 20.2 44 20.98 44H35.48C39.62 44 43 40.62 43 36.48V36.1C43 35 42.1 34.1 41 34.1H39.26C37.34 34.1 35.5 32.92 35 31.06C34.6 29.54 35.08 28.06 36.08 27.1C36.82 26.34 37.84 25.9 38.96 25.9ZM28 25.5H18C17.18 25.5 16.5 24.82 16.5 24C16.5 23.18 17.18 22.5 18 22.5H28C28.82 22.5 29.5 23.18 29.5 24C29.5 24.82 28.82 25.5 28 25.5Z" fill="#045B62"/>
</svg>
