<svg width="48" height="49" viewBox="0 0 48 49" fill="none" xmlns="http://www.w3.org/2000/svg">
<path d="M28.7 4.5H19.3C17.22 4.5 15.52 6.18 15.52 8.26V10.14C15.52 12.22 17.2 13.9 19.28 13.9H28.7C30.78 13.9 32.46 12.22 32.46 10.14V8.26C32.48 6.18 30.78 4.5 28.7 4.5Z" fill="#045B62"/>
<path d="M34.48 10.14C34.48 13.32 31.88 15.92 28.7 15.92H19.3C16.12 15.92 13.52 13.32 13.52 10.14C13.52 9.01996 12.32 8.31996 11.32 8.83996C8.49996 10.34 6.57996 13.32 6.57996 16.74V35.56C6.57996 40.48 10.6 44.5 15.52 44.5H32.48C37.4 44.5 41.42 40.48 41.42 35.56V16.74C41.42 13.32 39.5 10.34 36.68 8.83996C35.68 8.31996 34.48 9.01996 34.48 10.14ZM24.76 34.4H16C15.18 34.4 14.5 33.72 14.5 32.9C14.5 32.08 15.18 31.4 16 31.4H24.76C25.58 31.4 26.26 32.08 26.26 32.9C26.26 33.72 25.58 34.4 24.76 34.4ZM30 26.4H16C15.18 26.4 14.5 25.72 14.5 24.9C14.5 24.08 15.18 23.4 16 23.4H30C30.82 23.4 31.5 24.08 31.5 24.9C31.5 25.72 30.82 26.4 30 26.4Z" fill="#045B62"/>
</svg>
