<svg width="48" height="48" viewBox="0 0 48 48" fill="none" xmlns="http://www.w3.org/2000/svg">
<path d="M15.5 7V4C15.5 3.18 14.82 2.5 14 2.5C13.18 2.5 12.5 3.18 12.5 4V7.12C13 7.06 13.46 7 14 7H15.5Z" fill="#045B62"/>
<path d="M31.5 7.12V4C31.5 3.18 30.82 2.5 30 2.5C29.18 2.5 28.5 3.18 28.5 4V7H30C30.54 7 31 7.06 31.5 7.12Z" fill="#045B62"/>
<path d="M42.58 29.94C41.04 28.72 39.1 28 37 28C34.9 28 32.92 28.74 31.38 29.98C29.3 31.62 28 34.18 28 37C28 38.68 28.48 40.3 29.3 41.62C29.94 42.66 30.76 43.58 31.74 44.28C33.22 45.36 35.02 46 37 46C39.28 46 41.34 45.16 42.92 43.76C43.62 43.18 44.22 42.46 44.7 41.64C45.52 40.3 46 38.68 46 37C46 34.14 44.66 31.58 42.58 29.94ZM37 41.28C37 38.92 35.08 37 32.72 37C35.08 37 37 35.08 37 32.72C37 35.08 38.92 37 41.28 37C38.92 37 37 38.92 37 41.28Z" fill="#045B62"/>
<path d="M31.5 7.12V10C31.5 10.82 30.82 11.5 30 11.5C29.18 11.5 28.5 10.82 28.5 10V7H15.5V10C15.5 10.82 14.82 11.5 14 11.5C13.18 11.5 12.5 10.82 12.5 10V7.12C6.6 7.66 4 11.46 4 17V34C4 40 7 44 14 44H22.26C23.78 44 24.8 42.3 24.42 40.82C24.14 39.74 24 38.62 24 37.5C24 33.34 25.86 29.5 29.08 26.96C31.42 25.06 34.42 24 37.5 24H37.58C38.84 24 40 23.08 40 21.82V17C40 11.46 37.4 7.66 31.5 7.12ZM18 33.5H14C13.18 33.5 12.5 32.82 12.5 32C12.5 31.18 13.18 30.5 14 30.5H18C18.82 30.5 19.5 31.18 19.5 32C19.5 32.82 18.82 33.5 18 33.5ZM24 23.5H14C13.18 23.5 12.5 22.82 12.5 22C12.5 21.18 13.18 20.5 14 20.5H24C24.82 20.5 25.5 21.18 25.5 22C25.5 22.82 24.82 23.5 24 23.5Z" fill="#045B62"/>
</svg>
