<svg width="48" height="49" viewBox="0 0 48 49" fill="none" xmlns="http://www.w3.org/2000/svg">
<path d="M18 4.5C12.76 4.5 8.5 8.76 8.5 14C8.5 19.14 12.52 23.3 17.76 23.48C17.92 23.46 18.08 23.46 18.2 23.48C18.24 23.48 18.26 23.48 18.3 23.48C18.32 23.48 18.32 23.48 18.34 23.48C23.46 23.3 27.48 19.14 27.5 14C27.5 8.76 23.24 4.5 18 4.5Z" fill="#045B62"/>
<path d="M28.1599 28.8C22.5799 25.08 13.4799 25.08 7.85992 28.8C5.31992 30.5 3.91992 32.8 3.91992 35.26C3.91992 37.72 5.31992 40 7.83992 41.68C10.6399 43.56 14.3199 44.5 17.9999 44.5C21.6799 44.5 25.3599 43.56 28.1599 41.68C30.6799 39.98 32.0799 37.7 32.0799 35.22C32.0599 32.76 30.6799 30.48 28.1599 28.8Z" fill="#045B62"/>
<path d="M39.98 15.18C40.3 19.06 37.54 22.46 33.72 22.92C33.7 22.92 33.7 22.92 33.68 22.92H33.62C33.5 22.92 33.38 22.92 33.28 22.96C31.34 23.06 29.56 22.44 28.22 21.3C30.28 19.46 31.46 16.7 31.22 13.7C31.08 12.08 30.52 10.6 29.68 9.33996C30.44 8.95996 31.32 8.71996 32.22 8.63996C36.14 8.29996 39.64 11.22 39.98 15.18Z" fill="#045B62"/>
<path d="M43.98 33.6801C43.82 35.6201 42.58 37.3001 40.5 38.4401C38.5 39.5401 35.98 40.0601 33.48 40.0001C34.92 38.7001 35.76 37.0801 35.92 35.3601C36.12 32.8801 34.94 30.5001 32.58 28.6001C31.24 27.5401 29.68 26.7001 27.98 26.0801C32.4 24.8001 37.96 25.6601 41.38 28.4201C43.22 29.9001 44.16 31.7601 43.98 33.6801Z" fill="#045B62"/>
</svg>
