<svg width="48" height="48" viewBox="0 0 48 48" fill="none" xmlns="http://www.w3.org/2000/svg">
<path d="M40.4199 15.6399L25.0199 24.5599C24.3999 24.9199 23.6199 24.9199 22.9799 24.5599L7.57994 15.6399C6.47994 14.9999 6.19994 13.4999 7.03994 12.5599C7.61994 11.8999 8.27994 11.3599 8.97994 10.9799L19.8199 4.97988C22.1399 3.67988 25.8999 3.67988 28.2199 4.97988L39.0599 10.9799C39.7599 11.3599 40.4199 11.9199 40.9999 12.5599C41.7999 13.4999 41.5199 14.9999 40.4199 15.6399Z" fill="#045B62"/>
<path d="M22.86 28.28V41.92C22.86 43.44 21.32 44.44 19.96 43.78C15.84 41.76 8.89996 37.98 8.89996 37.98C6.45996 36.6 4.45996 33.12 4.45996 30.26V19.94C4.45996 18.36 6.11996 17.36 7.47996 18.14L21.86 26.48C22.46 26.86 22.86 27.54 22.86 28.28Z" fill="#045B62"/>
<path d="M25.1399 28.28V41.92C25.1399 43.44 26.6799 44.44 28.0399 43.78C32.1599 41.76 39.0999 37.98 39.0999 37.98C41.5399 36.6 43.5399 33.12 43.5399 30.26V19.94C43.5399 18.36 41.8799 17.36 40.5199 18.14L26.1399 26.48C25.5399 26.86 25.1399 27.54 25.1399 28.28Z" fill="#045B62"/>
</svg>
