<svg width="48" height="49" viewBox="0 0 48 49" fill="none" xmlns="http://www.w3.org/2000/svg">
<path d="M7 10.6201V38.3801C7 39.2001 6.32 39.8801 5.5 39.8801C4.68 39.8801 4 39.2001 4 38.3801V10.6201C4 9.80012 4.68 9.12012 5.5 9.12012C6.32 9.12012 7 9.80012 7 10.6201Z" fill="#045B62"/>
<path d="M44 10.6201V38.3801C44 39.2001 43.32 39.8801 42.5 39.8801C41.68 39.8801 41 39.2001 41 38.3801V10.6201C41 9.80012 41.68 9.12012 42.5 9.12012C43.32 9.12012 44 9.80012 44 10.6201Z" fill="#045B62"/>
<path d="M16 43H32C35.32 43 38 40.32 38 37V12C38 8.68 35.32 6 32 6H16C12.68 6 10 8.68 10 12V37C10 40.32 12.68 43 16 43Z" fill="#045B62"/>
</svg>
