<svg width="20" height="20" viewBox="0 0 20 20" fill="none" xmlns="http://www.w3.org/2000/svg">
<path d="M16.8416 6.51686L10.4249 10.2335C10.1666 10.3835 9.8416 10.3835 9.57494 10.2335L3.15827 6.51686C2.69993 6.2502 2.58327 5.6252 2.93327 5.23353C3.17493 4.95853 3.44993 4.73353 3.7416 4.5752L8.25827 2.0752C9.22494 1.53353 10.7916 1.53353 11.7583 2.0752L16.2749 4.5752C16.5666 4.73353 16.8416 4.96686 17.0833 5.23353C17.4166 5.6252 17.2999 6.2502 16.8416 6.51686Z" fill="#045B62"/>
<path d="M9.52507 11.7836V17.4669C9.52507 18.1002 8.8834 18.5169 8.31673 18.2419C6.60006 17.4002 3.7084 15.8252 3.7084 15.8252C2.69173 15.2502 1.8584 13.8002 1.8584 12.6086V8.30856C1.8584 7.65023 2.55007 7.23356 3.11673 7.55856L9.1084 11.0336C9.3584 11.1919 9.52507 11.4752 9.52507 11.7836Z" fill="#045B62"/>
<path d="M10.4751 11.7836V17.4669C10.4751 18.1002 11.1168 18.5169 11.6834 18.2419C13.4001 17.4002 16.2918 15.8252 16.2918 15.8252C17.3084 15.2502 18.1418 13.8002 18.1418 12.6086V8.30856C18.1418 7.65023 17.4501 7.23356 16.8834 7.55856L10.8918 11.0336C10.6418 11.1919 10.4751 11.4752 10.4751 11.7836Z" fill="#045B62"/>
</svg>
