<svg width="15" height="20" viewBox="0 0 15 20" fill="none" xmlns="http://www.w3.org/2000/svg">
<path d="M8.92037 13.8575H4.9581C4.96846 13.0511 5.04097 12.3566 5.17564 11.7742C5.32066 11.1828 5.5641 10.6496 5.90594 10.1747C6.25814 9.69982 6.72429 9.22939 7.30438 8.76344C7.79125 8.3871 8.21596 8.02867 8.57852 7.68817C8.94108 7.34767 9.22595 6.99821 9.43313 6.63979C9.64031 6.2724 9.7439 5.8647 9.7439 5.41667C9.7439 4.89695 9.65067 4.46685 9.46421 4.12634C9.28811 3.77688 9.01878 3.51254 8.65622 3.33333C8.30401 3.15412 7.85858 3.06452 7.31992 3.06452C6.87449 3.06452 6.46014 3.14964 6.07686 3.31989C5.69358 3.48118 5.37764 3.73208 5.12902 4.07258C4.89077 4.41308 4.76646 4.86111 4.7561 5.41667H0.25C0.281077 4.18907 0.607381 3.17652 1.22891 2.37903C1.8608 1.57258 2.70505 0.976703 3.76165 0.591398C4.81826 0.197133 6.00435 0 7.31992 0C8.77016 0 10.0132 0.206093 11.0491 0.61828C12.085 1.02151 12.8775 1.61738 13.4265 2.40591C13.9755 3.18548 14.25 4.1353 14.25 5.25538C14.25 6.03495 14.0739 6.72939 13.7217 7.33871C13.3695 7.93907 12.9085 8.4991 12.3388 9.01882C11.7691 9.53853 11.1423 10.0762 10.4587 10.6317C9.8682 11.0887 9.46421 11.5681 9.24667 12.0699C9.03949 12.5717 8.93073 13.1676 8.92037 13.8575ZM4.49195 18.0108C4.49195 17.4373 4.71985 16.9624 5.17564 16.586C5.63143 16.2007 6.2426 16.0081 7.00916 16.0081C7.76535 16.0081 8.37135 16.2007 8.82714 16.586C9.29329 16.9624 9.52636 17.4373 9.52636 18.0108C9.52636 18.5663 9.29329 19.0367 8.82714 19.422C8.37135 19.8073 7.76535 20 7.00916 20C6.2426 20 5.63143 19.8073 5.17564 19.422C4.71985 19.0367 4.49195 18.5663 4.49195 18.0108Z" fill="white"/>
</svg>
