<svg width="25" height="24" viewBox="0 0 25 24" fill="none" xmlns="http://www.w3.org/2000/svg">
<path d="M9.34193 15.0816L19.3957 5.44898C19.7081 5.14966 20.1058 5 20.5886 5C21.0714 5 21.469 5.14966 21.7814 5.44898C22.0938 5.7483 22.25 6.12925 22.25 6.59184C22.25 7.05442 22.0938 7.43537 21.7814 7.73469L10.5348 18.5102C10.1939 18.8367 9.79634 19 9.34193 19C8.88752 19 8.48991 18.8367 8.1491 18.5102L3.71861 14.2653C3.4062 13.966 3.25 13.585 3.25 13.1224C3.25 12.6599 3.4062 12.2789 3.71861 11.9796C4.03102 11.6803 4.42862 11.5306 4.91143 11.5306C5.39424 11.5306 5.79185 11.6803 6.10426 11.9796L9.34193 15.0816Z" fill="white"/>
</svg>
