<svg width="25" height="20" viewBox="0 0 25 20" fill="none" xmlns="http://www.w3.org/2000/svg">
<g clip-path="url(#clip0_405_9449)">
<path d="M2.55 0.376465C1.55625 0.376465 0.75 1.18471 0.75 2.18092V14.2106C0.75 15.2068 1.55625 16.0151 2.55 16.0151H3.15C3.15 18.0075 4.7625 19.624 6.75 19.624C8.7375 19.624 10.35 18.0075 10.35 16.0151H15.15C15.15 18.0075 16.7625 19.624 18.75 19.624C20.7375 19.624 22.35 18.0075 22.35 16.0151H23.55C24.2138 16.0151 24.75 15.4775 24.75 14.8121C24.75 14.1467 24.2138 13.6091 23.55 13.6091V9.29724C23.55 8.65816 23.2987 8.0454 22.8488 7.59429L19.95 4.68836C19.5 4.23725 18.8888 3.98538 18.2513 3.98538H16.35V2.18092C16.35 1.18471 15.5438 0.376465 14.55 0.376465H2.55ZM16.35 6.39132H18.2513L21.15 9.29724V10.0002H16.35V6.39132ZM8.55 16.0151C8.55 17.0113 7.74375 17.8195 6.75 17.8195C5.75625 17.8195 4.95 17.0113 4.95 16.0151C4.95 15.0189 5.75625 14.2106 6.75 14.2106C7.74375 14.2106 8.55 15.0189 8.55 16.0151ZM18.75 17.8195C17.7563 17.8195 16.95 17.0113 16.95 16.0151C16.95 15.0189 17.7563 14.2106 18.75 14.2106C19.7438 14.2106 20.55 15.0189 20.55 16.0151C20.55 17.0113 19.7438 17.8195 18.75 17.8195Z" fill="white"/>
</g>
<defs>
<clipPath id="clip0_405_9449">
<rect width="24" height="19.2475" fill="white" transform="translate(0.75 0.376465)"/>
</clipPath>
</defs>
</svg>
