<svg width="24" height="24" viewBox="0 0 24 24" fill="none" xmlns="http://www.w3.org/2000/svg">
<path d="M12 22.5C17.799 22.5 22.5 17.799 22.5 12C22.5 6.201 17.799 1.5 12 1.5C6.201 1.5 1.5 6.201 1.5 12C1.5 17.799 6.201 22.5 12 22.5Z" fill="#F9C23C"/>
<circle cx="12" cy="12" r="8" fill="#D3883E" fill-opacity="0.5"/>
<path d="M7.23462 14.2223V8.58228H9.81062C10.44 8.58228 10.9253 8.73428 11.2666 9.03828C11.608 9.34228 11.7786 9.76628 11.7786 10.3103C11.7786 10.7316 11.6693 11.0836 11.4506 11.3663C11.2373 11.6436 10.9306 11.8329 10.5306 11.9343C10.8133 12.0196 11.0453 12.2249 11.2266 12.5503L12.1386 14.2223H10.7706L9.79462 12.4223C9.71462 12.2783 9.61595 12.1796 9.49862 12.1263C9.38129 12.0676 9.24262 12.0383 9.08262 12.0383H8.47462V14.2223H7.23462ZM8.47462 11.1423H9.58662C10.2533 11.1423 10.5866 10.8756 10.5866 10.3423C10.5866 9.81428 10.2533 9.55028 9.58662 9.55028H8.47462V11.1423Z" fill="#F9C23C"/>
<path d="M12.7009 15.6623V10.2943H13.8849V10.8783C13.9916 10.6756 14.1543 10.5156 14.3729 10.3983C14.5969 10.2756 14.8476 10.2143 15.1249 10.2143C15.4663 10.2143 15.7649 10.2969 16.0209 10.4623C16.2823 10.6276 16.4849 10.8623 16.6289 11.1663C16.7729 11.4703 16.8449 11.8329 16.8449 12.2543C16.8449 12.6756 16.7729 13.0409 16.6289 13.3503C16.4849 13.6543 16.2823 13.8916 16.0209 14.0623C15.7649 14.2276 15.4663 14.3103 15.1249 14.3103C14.8636 14.3103 14.6236 14.2543 14.4049 14.1423C14.1916 14.0303 14.0263 13.8809 13.9089 13.6943V15.6623H12.7009ZM14.7649 13.4063C15.0209 13.4063 15.2289 13.3129 15.3889 13.1263C15.5489 12.9396 15.6289 12.6489 15.6289 12.2543C15.6289 11.8649 15.5489 11.5796 15.3889 11.3983C15.2289 11.2116 15.0209 11.1183 14.7649 11.1183C14.5036 11.1183 14.2929 11.2116 14.1329 11.3983C13.9729 11.5796 13.8929 11.8649 13.8929 12.2543C13.8929 12.6489 13.9729 12.9396 14.1329 13.1263C14.2929 13.3129 14.5036 13.4063 14.7649 13.4063Z" fill="#F9C23C"/>
</svg>
