<svg width="25" height="25" viewBox="0 0 25 25" fill="none" xmlns="http://www.w3.org/2000/svg">
<path d="M2.75 13.11H19.75" stroke="#1E1E1E" stroke-width="1.5" stroke-miterlimit="10" stroke-linecap="round" stroke-linejoin="round"/>
<path d="M19.75 10.78V17.93C19.72 20.78 18.94 21.5 15.97 21.5H6.53003C3.51003 21.5 2.75 20.7501 2.75 17.7701V10.78C2.75 8.08005 3.38 7.21005 5.75 7.07005C5.99 7.06005 6.25003 7.05005 6.53003 7.05005H15.97C18.99 7.05005 19.75 7.80005 19.75 10.78Z" stroke="#1E1E1E" stroke-width="1.5" stroke-linecap="round" stroke-linejoin="round"/>
<path d="M22.75 7.23V14.22C22.75 16.92 22.12 17.79 19.75 17.93V10.78C19.75 7.8 18.99 7.05 15.97 7.05H6.53003C6.25003 7.05 5.99 7.06 5.75 7.07C5.78 4.22 6.56003 3.5 9.53003 3.5H18.97C21.99 3.5 22.75 4.25 22.75 7.23Z" stroke="#1E1E1E" stroke-width="1.5" stroke-linecap="round" stroke-linejoin="round"/>
<path d="M6 18.3101H7.71997" stroke="#1E1E1E" stroke-width="1.5" stroke-miterlimit="10" stroke-linecap="round" stroke-linejoin="round"/>
<path d="M9.85986 18.3101H13.2999" stroke="#1E1E1E" stroke-width="1.5" stroke-miterlimit="10" stroke-linecap="round" stroke-linejoin="round"/>
</svg>
