<svg width="25" height="25" viewBox="0 0 25 25" fill="none" xmlns="http://www.w3.org/2000/svg">
<path d="M6.98 20.2C7.8 19.32 9.05 19.39 9.77 20.35L10.78 21.7C11.59 22.77 12.9 22.77 13.71 21.7L14.72 20.35C15.44 19.39 16.69 19.32 17.51 20.2C19.29 22.1 20.74 21.47 20.74 18.81V7.54C20.75 3.51 19.81 2.5 16.03 2.5H8.47C4.69 2.5 3.75 3.51 3.75 7.54V18.8C3.75 21.47 5.21 22.09 6.98 20.2Z" stroke="#1E1E1E" stroke-width="1.5" stroke-linecap="round" stroke-linejoin="round"/>
<path d="M8.34607 11.5H8.35505" stroke="#1E1E1E" stroke-width="2" stroke-linecap="round" stroke-linejoin="round"/>
<path d="M11.1484 11.5H16.6484" stroke="#1E1E1E" stroke-width="1.5" stroke-linecap="round" stroke-linejoin="round"/>
<path d="M8.34607 7.5H8.35505" stroke="#1E1E1E" stroke-width="2" stroke-linecap="round" stroke-linejoin="round"/>
<path d="M11.1484 7.5H16.6484" stroke="#1E1E1E" stroke-width="1.5" stroke-linecap="round" stroke-linejoin="round"/>
</svg>
