<svg width="25" height="25" viewBox="0 0 25 25" fill="none" xmlns="http://www.w3.org/2000/svg">
<path d="M22.25 12.5V17.5C22.25 20.5 20.25 22.5 17.25 22.5H7.25C4.25 22.5 2.25 20.5 2.25 17.5V12.5C2.25 9.78 3.89 7.88 6.44 7.56C6.7 7.52 6.97 7.5 7.25 7.5H17.25C17.51 7.5 17.76 7.50999 18 7.54999C20.58 7.84999 22.25 9.76 22.25 12.5Z" stroke="#045B62" stroke-width="1.5" stroke-linecap="round" stroke-linejoin="round"/>
<path d="M18.0014 7.55C17.7614 7.51 17.5114 7.50001 17.2514 7.50001H7.25141C6.97141 7.50001 6.70141 7.52001 6.44141 7.56001C6.58141 7.28001 6.78141 7.02001 7.02141 6.78001L10.2714 3.52C11.6414 2.16 13.8614 2.16 15.2314 3.52L16.9814 5.29002C17.6214 5.92002 17.9614 6.72 18.0014 7.55Z" stroke="#045B62" stroke-width="1.5" stroke-linecap="round" stroke-linejoin="round"/>
<path d="M22.25 13H19.25C18.15 13 17.25 13.9 17.25 15C17.25 16.1 18.15 17 19.25 17H22.25" stroke="#045B62" stroke-width="1.5" stroke-linecap="round" stroke-linejoin="round"/>
</svg>
