<svg width="198" height="190" viewBox="0 0 198 190" fill="none" xmlns="http://www.w3.org/2000/svg">
<g style="mix-blend-mode:luminosity" clip-path="url(#clip0_415_12521)">
<path d="M41.3981 72.2364C38.9239 54.7048 25.6771 48.9821 29.324 37.7378C35.9499 17.3007 85.9039 17.178 94.0539 17.1338C120.508 17.0553 163.42 16.9326 181.012 47.3182C189.117 61.3209 177.281 69.64 182.462 105.297C185.535 126.46 189.959 129.017 187.776 138.357C181.18 166.549 132.849 177.519 125.922 179.094C74.3395 190.8 9.13953 174.481 4.19114 147.948C-0.217882 124.213 46.3069 106.995 41.3981 72.2364Z" fill="#E3EEFF"/>
<path d="M17.7299 125.42C14.8598 119.226 0.237322 87.6279 13.8652 68.4031C21.7826 57.2422 31.7289 60.7417 51.0622 48.2802C77.3827 31.3131 73.716 15.2932 92.6287 5.63911C117.786 -7.21995 160.001 2.95441 172.337 25.7621C184.263 47.8139 159.803 66.0571 171.348 98.5925C180.052 123.074 198.227 124.929 197.921 140.757C197.47 163.585 159.145 186.525 124.491 189.632C77.2838 193.867 34.4406 161.504 17.7299 125.42Z" fill="#C4DBFB"/>
<path d="M194.464 104.06C195.157 99.8272 192.259 95.8389 187.991 95.1518C183.724 94.4647 179.702 97.3391 179.01 101.572C178.317 105.805 181.215 109.793 185.483 110.48C189.75 111.167 193.771 108.293 194.464 104.06Z" fill="#C4DBFB"/>
<path d="M28.9417 29.1761C29.4891 26.8756 28.0527 24.5706 25.7333 24.0276C23.4139 23.4847 21.0899 24.9094 20.5425 27.2099C19.995 29.5103 21.4315 31.8154 23.7509 32.3584C26.0703 32.9013 28.3943 31.4766 28.9417 29.1761Z" fill="#C4DBFB"/>
<path d="M19.0608 53.7429C23.3843 53.7429 26.8891 50.2666 26.8891 45.9784C26.8891 41.6902 23.3843 38.2139 19.0608 38.2139C14.7373 38.2139 11.2324 41.6902 11.2324 45.9784C11.2324 50.2666 14.7373 53.7429 19.0608 53.7429Z" fill="#C4DBFB"/>
<path d="M23.8409 34.2679C26.224 34.2679 28.1559 32.3517 28.1559 29.9881C28.1559 27.6244 26.224 25.7083 23.8409 25.7083C21.4578 25.7083 19.5259 27.6244 19.5259 29.9881C19.5259 32.3517 21.4578 34.2679 23.8409 34.2679Z" fill="#C4DBFB"/>
<path d="M25.6475 159.369C28.0306 159.369 29.9625 157.453 29.9625 155.089C29.9625 152.725 28.0306 150.809 25.6475 150.809C23.2644 150.809 21.3325 152.725 21.3325 155.089C21.3325 157.453 23.2644 159.369 25.6475 159.369Z" fill="#C4DBFB"/>
<path d="M197.874 85.9678C198.422 83.6674 196.985 81.3623 194.666 80.8194C192.347 80.2764 190.023 81.7011 189.475 84.0016C188.928 86.3021 190.364 88.6071 192.683 89.1501C195.003 89.6931 197.327 88.2683 197.874 85.9678Z" fill="#C4DBFB"/>
<path d="M20.7979 131.467L22.4259 129.852C22.5946 129.675 22.687 129.439 22.6834 129.195C22.6798 128.951 22.5806 128.718 22.4067 128.546C22.2328 128.373 21.998 128.275 21.7522 128.271C21.5063 128.268 21.2687 128.36 21.0898 128.527L19.4618 130.142L17.8338 128.527C17.6566 128.351 17.4161 128.251 17.165 128.251C16.914 128.25 16.6731 128.349 16.4953 128.524C16.3174 128.7 16.2173 128.939 16.2168 129.188C16.2163 129.437 16.3156 129.676 16.4928 129.852L18.1208 131.467L16.4977 133.082C16.4095 133.168 16.3394 133.271 16.2916 133.385C16.2437 133.499 16.2191 133.621 16.2191 133.744C16.2191 133.867 16.2437 133.989 16.2916 134.103C16.3394 134.217 16.4095 134.32 16.4977 134.407C16.675 134.582 16.9152 134.681 17.1658 134.681C17.4163 134.681 17.6566 134.582 17.8338 134.407L19.4618 132.797L21.0849 134.407C21.1732 134.494 21.2781 134.564 21.3936 134.611C21.5091 134.658 21.6329 134.682 21.7579 134.682C21.8821 134.683 22.0053 134.659 22.1201 134.612C22.2348 134.564 22.3389 134.495 22.4259 134.407C22.5142 134.32 22.5842 134.217 22.6321 134.103C22.6799 133.989 22.7045 133.867 22.7045 133.744C22.7045 133.621 22.6799 133.499 22.6321 133.385C22.5842 133.271 22.5142 133.168 22.4259 133.082L20.7979 131.467Z" fill="#3A81F3"/>
<path d="M188.905 121.68L190.533 120.065C190.71 119.889 190.809 119.65 190.809 119.401C190.809 119.152 190.708 118.913 190.531 118.738C190.353 118.562 190.112 118.463 189.861 118.464C189.61 118.464 189.369 118.564 189.192 118.74L187.564 120.355L185.936 118.74C185.757 118.573 185.52 118.481 185.274 118.485C185.028 118.488 184.793 118.587 184.619 118.759C184.445 118.932 184.346 119.164 184.342 119.408C184.339 119.652 184.431 119.888 184.6 120.065L186.228 121.68L184.6 123.295C184.512 123.381 184.442 123.485 184.394 123.598C184.346 123.712 184.321 123.834 184.321 123.957C184.321 124.081 184.346 124.203 184.394 124.316C184.442 124.43 184.512 124.533 184.6 124.62C184.687 124.708 184.791 124.778 184.906 124.825C185.02 124.872 185.144 124.896 185.268 124.895C185.393 124.895 185.517 124.871 185.632 124.824C185.748 124.777 185.853 124.708 185.941 124.62L187.564 123.01L189.192 124.62C189.369 124.796 189.609 124.894 189.86 124.894C190.111 124.894 190.351 124.796 190.528 124.62C190.616 124.533 190.686 124.43 190.734 124.316C190.782 124.203 190.807 124.081 190.807 123.957C190.807 123.834 190.782 123.712 190.734 123.598C190.686 123.485 190.616 123.381 190.528 123.295L188.905 121.68Z" fill="#3A81F3"/>
<path d="M154.286 5.80613L155.993 4.27482C156.16 4.10274 156.254 3.8746 156.257 3.63634C156.261 3.39808 156.173 3.16739 156.012 2.99071C155.85 2.81403 155.628 2.70448 155.388 2.68411C155.149 2.66375 154.911 2.73407 154.722 2.88094L153.014 4.41716L151.471 2.72388C151.387 2.63236 151.287 2.55798 151.175 2.505C151.062 2.45201 150.941 2.42146 150.817 2.41508C150.693 2.4087 150.569 2.42661 150.452 2.46781C150.334 2.50901 150.227 2.57267 150.134 2.65517C150.042 2.73767 149.967 2.83739 149.914 2.94864C149.86 3.05988 149.83 3.18047 149.823 3.30353C149.817 3.42658 149.835 3.54969 149.876 3.66581C149.918 3.78194 149.982 3.88882 150.065 3.98034L151.609 5.67852L149.907 7.20492C149.814 7.287 149.738 7.38656 149.684 7.49784C149.631 7.60911 149.6 7.72989 149.593 7.85315C149.587 7.97642 149.605 8.09973 149.647 8.21594C149.689 8.33214 149.754 8.43893 149.838 8.5301C149.92 8.62231 150.02 8.69718 150.133 8.75029C150.245 8.80339 150.367 8.83366 150.491 8.8393C150.615 8.84601 150.739 8.82821 150.856 8.78693C150.974 8.74565 151.081 8.68171 151.174 8.59881L152.881 7.0675L154.42 8.76077C154.592 8.94306 154.827 9.05362 155.078 9.06998C155.265 9.07774 155.45 9.03071 155.609 8.93478C155.769 8.83884 155.897 8.69825 155.977 8.53061C156.057 8.36297 156.085 8.17572 156.058 7.9923C156.031 7.80887 155.95 7.63743 155.825 7.49941L154.286 5.80613Z" fill="#3A81F3"/>
<path d="M23.8907 79.0193L25.5187 77.4046C25.6958 77.2282 25.7951 76.9892 25.7947 76.7403C25.7942 76.4913 25.694 76.2527 25.5162 76.077C25.3384 75.9012 25.0974 75.8028 24.8464 75.8032C24.5954 75.8037 24.3548 75.903 24.1777 76.0794L22.5496 77.6942L20.9216 76.0745C20.7427 75.9071 20.5052 75.8155 20.2593 75.8191C20.0134 75.8226 19.7786 75.9211 19.6047 76.0935C19.4309 76.266 19.3316 76.4989 19.328 76.7427C19.3244 76.9866 19.4168 77.2223 19.5856 77.3997L21.2136 79.0144L19.5856 80.6292C19.4097 80.8056 19.311 81.0437 19.311 81.2917C19.311 81.5398 19.4097 81.7779 19.5856 81.9543C19.7636 82.1303 20.0047 82.229 20.2561 82.229C20.5074 82.229 20.7485 82.1303 20.9266 81.9543L22.5496 80.3445L24.1777 81.9543C24.3565 82.1217 24.5941 82.2133 24.84 82.2098C25.0859 82.2062 25.3206 82.1077 25.4945 81.9353C25.6684 81.7628 25.7677 81.53 25.7713 81.2861C25.7748 81.0422 25.6825 80.8066 25.5137 80.6292L23.8907 79.0193Z" fill="#3A81F3"/>
<path d="M6.16042 123.422C6.24296 123.554 6.29778 123.701 6.32158 123.855C6.34539 124.008 6.3377 124.165 6.29898 124.316C6.25006 124.517 6.14825 124.701 6.00394 124.85C5.85962 124.999 5.67797 125.108 5.47754 125.165L1.51883 126.318C1.319 126.375 1.10748 126.38 0.905445 126.331C0.703409 126.281 0.517944 126.18 0.36762 126.038C0.217296 125.895 0.107387 125.716 0.0488922 125.518C-0.00960267 125.32 -0.0146331 125.11 0.0343119 124.909L1.02399 120.914C1.07331 120.713 1.17542 120.528 1.31999 120.378C1.46457 120.228 1.64648 120.119 1.84734 120.061C2.04819 120.003 2.26087 119.999 2.46386 120.049C2.66685 120.099 2.85295 120.201 3.00335 120.345L5.99713 123.187C6.06149 123.258 6.11637 123.337 6.16042 123.422ZM0.954713 125.317C0.965687 125.335 0.978998 125.351 0.994301 125.366C1.02522 125.397 1.06428 125.419 1.10711 125.43C1.14993 125.44 1.19483 125.438 1.23678 125.425L5.19549 124.276C5.23821 124.264 5.27693 124.241 5.30772 124.209C5.33851 124.177 5.36028 124.138 5.37083 124.095C5.38138 124.052 5.38033 124.007 5.36779 123.965C5.35524 123.923 5.33165 123.885 5.2994 123.854L2.30563 121.017C2.27443 120.987 2.23547 120.964 2.1928 120.954C2.15013 120.943 2.10528 120.943 2.0629 120.955C2.02052 120.967 1.98214 120.99 1.95174 121.022C1.92133 121.053 1.9 121.093 1.88996 121.135L0.90028 125.125C0.897306 125.161 0.902438 125.196 0.915291 125.23C0.928145 125.263 0.948393 125.293 0.974511 125.317H0.954713Z" fill="#F9C067"/>
<path d="M61.4143 5.39882C61.4967 5.53176 61.5514 5.67973 61.5752 5.83399C61.599 5.98826 61.5914 6.14569 61.5528 6.29699C61.5058 6.49803 61.4052 6.68286 61.2616 6.83221C61.118 6.98156 60.9366 7.08995 60.7363 7.14608L56.7776 8.29456C56.5778 8.35194 56.3663 8.35624 56.1642 8.30705C55.9622 8.25785 55.7767 8.15688 55.6264 8.01425C55.4761 7.87161 55.3662 7.69231 55.3077 7.4943C55.2492 7.29628 55.2442 7.0865 55.2931 6.88595L56.2828 2.89572C56.3323 2.6945 56.4343 2.50971 56.5784 2.35983C56.7226 2.20996 56.9039 2.10027 57.1042 2.04172C57.3041 1.98241 57.5163 1.97706 57.719 2.02624C57.9217 2.07542 58.1075 2.17733 58.2572 2.32148L61.2262 5.16323C61.297 5.23503 61.36 5.31399 61.4143 5.39882ZM56.2086 7.31295C56.2195 7.33378 56.2347 7.35215 56.2531 7.36694C56.2846 7.39719 56.3237 7.41859 56.3663 7.42894C56.4089 7.43929 56.4535 7.43822 56.4956 7.42584L60.4543 6.27245C60.497 6.26108 60.5359 6.23856 60.5669 6.20722C60.5978 6.17589 60.6198 6.13688 60.6304 6.09428C60.641 6.05168 60.6399 6.00703 60.6272 5.96499C60.6145 5.92296 60.5907 5.88506 60.5582 5.85527L57.5644 3.01351C57.5316 2.98367 57.4917 2.96261 57.4484 2.95231C57.4051 2.942 57.3599 2.9428 57.317 2.95461C57.2746 2.96717 57.2363 2.99056 57.2059 3.02243C57.1755 3.05431 57.1541 3.09354 57.1438 3.13621L56.1541 7.12645C56.1496 7.15958 56.1521 7.19328 56.1615 7.22539C56.1709 7.2575 56.1869 7.28733 56.2086 7.31295Z" fill="#F9C067"/>
<path d="M188.702 166.702C188.563 166.818 188.399 166.902 188.222 166.945C188.045 166.989 187.861 166.991 187.683 166.953C187.505 166.915 187.338 166.836 187.196 166.723C187.053 166.611 186.939 166.468 186.861 166.304L185.099 162.584C185.011 162.397 184.974 162.19 184.992 161.985C185.009 161.779 185.081 161.581 185.2 161.412C185.318 161.242 185.48 161.107 185.668 161.019C185.857 160.931 186.065 160.893 186.272 160.91L190.404 161.259C190.612 161.275 190.812 161.346 190.983 161.464C191.155 161.582 191.291 161.743 191.38 161.931C191.468 162.118 191.505 162.325 191.487 162.531C191.468 162.737 191.395 162.935 191.275 163.104L188.91 166.476C188.852 166.561 188.782 166.637 188.702 166.702ZM186.01 161.892L185.965 161.941C185.943 161.979 185.932 162.022 185.932 162.066C185.932 162.11 185.943 162.153 185.965 162.191L187.727 165.912C187.746 165.952 187.775 165.986 187.811 166.011C187.848 166.036 187.891 166.051 187.935 166.054C187.978 166.058 188.022 166.05 188.062 166.031C188.101 166.012 188.134 165.982 188.158 165.946L190.528 162.574C190.551 162.537 190.563 162.495 190.563 162.451C190.563 162.408 190.551 162.366 190.528 162.329C190.511 162.289 190.482 162.254 190.447 162.229C190.411 162.204 190.369 162.189 190.325 162.186L186.193 161.838C186.16 161.834 186.127 161.837 186.096 161.847C186.065 161.856 186.035 161.871 186.01 161.892Z" fill="#F9C067"/>
<path d="M188.563 62.4157C188.518 62.5647 188.442 62.703 188.341 62.822C188.24 62.941 188.115 63.0382 187.975 63.1077C187.79 63.2023 187.583 63.2468 187.375 63.2364C187.168 63.2261 186.966 63.1613 186.792 63.0488L183.328 60.8206C183.153 60.7082 183.011 60.5522 182.916 60.3682C182.822 60.1843 182.777 59.9788 182.788 59.7724C182.798 59.566 182.863 59.366 182.976 59.1925C183.089 59.019 183.247 58.878 183.432 58.7837L187.119 56.9039C187.304 56.8097 187.512 56.7657 187.72 56.7762C187.928 56.7867 188.13 56.8514 188.305 56.9639C188.48 57.0763 188.622 57.2325 188.717 57.4167C188.812 57.6009 188.856 57.8066 188.846 58.0132L188.638 62.1163C188.628 62.2192 188.603 62.3201 188.563 62.4157ZM183.714 59.7506C183.713 59.7735 183.713 59.7964 183.714 59.8193C183.713 59.8632 183.723 59.9068 183.744 59.9455C183.764 59.9843 183.795 60.0169 183.833 60.0402L187.297 62.2684C187.335 62.2904 187.379 62.302 187.423 62.302C187.467 62.302 187.511 62.2904 187.549 62.2684C187.588 62.2495 187.621 62.2203 187.645 62.184C187.669 62.1476 187.682 62.1055 187.683 62.0623L187.89 57.9543C187.892 57.9109 187.882 57.8678 187.862 57.8292C187.843 57.7906 187.813 57.7576 187.777 57.7334C187.738 57.7124 187.695 57.7013 187.65 57.7013C187.606 57.7013 187.563 57.7124 187.524 57.7334L183.838 59.6083C183.779 59.638 183.735 59.689 183.714 59.7506Z" fill="#F9C067"/>
<g clip-path="url(#clip1_415_12521)">
<path d="M34.4777 75.4583C29.4847 77.0806 26.7562 82.4374 28.3789 87.4318C30.0017 92.4262 35.3578 95.1561 40.3508 93.5338L153.086 56.904C158.079 55.2817 160.807 49.9249 159.184 44.9305C157.562 39.9361 152.206 37.2062 147.213 38.8285L34.4777 75.4583Z" fill="#9A5F3B"/>
<path d="M42.6657 92.7816L162.121 53.9683L159.439 45.7145L48.2354 81.8467C43.6779 83.3276 41.1845 88.2228 42.6657 92.7816Z" fill="#FFFAD1"/>
<path d="M139.844 18.7188L138.165 13.5503L98.5386 27.533C97.946 28.0305 97.3364 28.5496 96.688 29.0974C94.9156 30.532 93.0412 32.369 90.9996 34.3084C89.9645 35.2467 88.9809 36.3929 87.935 37.4952C87.4168 38.0487 86.8889 38.6216 86.3536 39.1968C85.8161 39.7647 85.3213 40.415 84.8002 41.0338C82.6943 43.4917 80.6393 46.2541 78.6651 49.1668C77.7248 50.6681 76.7194 52.1424 75.8292 53.7238C75.3888 54.517 74.9485 55.3101 74.5105 56.1105C74.0629 56.906 73.6322 57.7041 73.2494 58.5508C72.4671 60.2175 71.6343 61.8524 70.9793 63.5901L69.9514 66.1552C69.6408 67.0266 69.3566 67.9054 69.0605 68.7721C67.8713 72.2484 67.0481 75.8144 66.3825 79.2971C66.1207 81.0595 65.7869 82.7731 65.6484 84.4954C65.5575 85.3516 65.4643 86.2005 65.3928 87.0423C65.3455 87.8844 65.2981 88.7264 65.2533 89.5515C65.1916 90.3741 65.1855 91.1947 65.1842 92.0057C65.1829 92.8167 65.1624 93.6179 65.171 94.4097C65.2363 95.9936 65.2465 97.5312 65.3849 99.0191C65.5749 101.999 65.9811 104.78 66.4013 107.308C67.302 112.377 68.4708 116.443 69.4321 119.229C70.3788 122.019 71.1011 123.526 71.1011 123.526C71.1011 123.526 70.8215 121.875 70.6694 118.987C70.5029 116.104 70.4929 111.974 70.9805 107.129C71.2545 104.712 71.5974 102.113 72.1774 99.4285C72.4216 98.0811 72.8058 96.7203 73.1348 95.3373C73.3209 94.6508 73.5361 93.9549 73.7368 93.2637C73.9351 92.5653 74.143 91.8717 74.3968 91.1713C74.6361 90.4756 74.8754 89.7798 75.1196 89.0745C75.3927 88.3838 75.6657 87.6932 75.9437 86.9929C76.4609 85.5969 77.1612 84.2458 77.7748 82.8747C79.1392 80.1842 80.6023 77.5259 82.322 75.065L83.5932 73.2234L84.9626 71.4623C85.8282 70.2741 86.8522 69.2031 87.7967 68.1097C88.2594 67.5581 88.7676 67.0478 89.2781 66.5449C89.7791 66.037 90.2824 65.5364 90.7784 65.0381C91.7728 64.0489 92.8727 63.1619 93.8689 62.2523C95.9742 60.5088 98.0567 58.9173 100.142 57.5575C100.664 57.2115 101.139 56.8482 101.665 56.5409C102.189 56.2263 102.7 55.9237 103.205 55.6234C104.225 55.0351 105.137 54.4097 106.13 53.9346C108.063 52.9453 110.758 51.7567 112.414 51.0742L119.682 64.6275L139.827 18.7163L139.844 18.7188Z" fill="#C99B36"/>
<path d="M138.164 13.5503L89.2254 8.30394L96.8517 22.3668C96.2591 22.8643 95.6495 23.3834 95.001 23.9312C93.2286 25.3658 91.3543 27.2028 89.3126 29.1422C88.2776 30.0804 87.294 31.2267 86.2481 32.3289C85.7323 32.8898 85.2019 33.4554 84.6667 34.0305C84.1291 34.5985 83.6344 35.2488 83.1133 35.8675C81.0074 38.3254 78.9523 41.0879 76.9782 44.0005C76.0378 45.5019 75.0325 46.9762 74.1422 48.5576C73.7019 49.3508 73.2616 50.1439 72.8236 50.9443C72.376 51.7398 71.9453 52.5379 71.5625 53.3846C70.7801 55.0513 69.9474 56.6862 69.2924 58.4239L68.2644 60.989C67.9538 61.8604 67.6697 62.7392 67.3736 63.6059C66.1843 67.0822 65.3612 70.6481 64.6955 74.1309C64.4337 75.8933 64.0999 77.6069 63.9615 79.3292C63.8706 80.1854 63.7774 81.0343 63.7059 81.8761C63.6585 82.7181 63.6112 83.5602 63.5664 84.3853C63.5047 85.2079 63.4985 86.0285 63.4973 86.8395C63.496 87.6505 63.4755 88.4517 63.484 89.2435C63.5494 90.8274 63.5595 92.365 63.698 93.8529C63.8879 96.8329 64.2942 99.6142 64.7144 102.142C65.6151 107.211 66.7839 111.277 67.7451 114.063C68.6919 116.853 69.4141 118.36 69.4141 118.36C69.4141 118.36 69.1345 116.709 68.9825 113.821C68.8159 110.938 68.8059 106.808 69.2936 101.962C69.5675 99.546 69.9104 96.9467 70.4904 94.2622C70.7346 92.9149 71.1189 91.5541 71.4478 90.1711C71.634 89.4846 71.8492 88.7887 72.0498 88.0975C72.2481 87.3991 72.456 86.7055 72.7099 86.0051C72.9492 85.3093 73.1885 84.6136 73.4327 83.9083C73.7057 83.2176 73.9788 82.527 74.2567 81.8267C74.774 80.4307 75.4743 79.0796 76.0879 77.7085C77.4523 75.018 78.9153 72.3597 80.6351 69.8988L81.9062 68.0572L83.2757 66.2961C84.1413 65.1079 85.1653 64.0368 86.1098 62.9434C86.5725 62.3918 87.0806 61.8816 87.5912 61.3786C88.0921 60.8708 88.5954 60.3702 89.0915 59.8719C90.0859 58.8827 91.1857 57.9956 92.182 57.0861C94.2873 55.3426 96.3698 53.7511 98.4553 52.3913C98.9768 52.0453 99.4525 51.682 99.9785 51.3747C100.502 51.0601 101.014 50.7575 101.518 50.4572C102.538 49.8689 103.45 49.2435 104.443 48.7683C106.376 47.7791 108.082 46.8315 109.728 46.1441L117.148 59.8168L138.14 13.5501L138.164 13.5503Z" fill="#F7CA41"/>
<path d="M28.3882 87.4607L54.659 168.314C56.2818 173.308 61.6379 176.038 66.6309 174.416L179.366 137.786C184.359 136.164 187.087 130.807 185.465 125.813L162.121 53.9681L40.3506 93.5337C35.3721 95.1513 30.0207 92.4358 28.3882 87.4607Z" fill="#B06C45"/>
<path d="M173.161 79.5496L159.481 83.9945C153.806 85.8385 150.918 92.6057 153.031 99.1086L154.152 102.56C156.265 109.063 162.579 112.84 168.254 110.996L181.934 106.551C184.489 105.721 185.787 102.679 184.836 99.7517L179.505 83.3447C178.554 80.4175 175.715 78.7196 173.161 79.5496Z" fill="#9A5F3B"/>
<path d="M171.267 96.9831C172.241 99.9812 170.6 103.203 167.603 104.177C164.606 105.151 161.384 103.509 160.41 100.511C159.436 97.5127 161.077 94.2909 164.074 93.317C167.072 92.3431 170.293 93.985 171.267 96.9831Z" fill="#FFFAD1"/>
</g>
</g>
<defs>
<clipPath id="clip0_415_12521">
<rect width="198" height="190" fill="white"/>
</clipPath>
<clipPath id="clip1_415_12521">
<rect width="145" height="151" fill="white" transform="translate(10.9341 33.7424) rotate(-18)"/>
</clipPath>
</defs>
</svg>
