<svg width="245" height="208" viewBox="0 0 245 208" fill="none" xmlns="http://www.w3.org/2000/svg">
<g style="mix-blend-mode:luminosity" clip-path="url(#clip0_415_11661)">
<path d="M47.1978 73.7572C44.6758 55.8566 31.1732 50.0133 34.8906 38.5323C41.6444 17.665 92.5629 17.5397 100.87 17.4946C127.835 17.4144 171.576 17.2891 189.507 48.3145C197.769 62.6119 185.704 71.1062 190.985 107.514C194.117 129.123 198.627 131.734 196.402 141.27C189.679 170.056 140.415 181.256 133.353 182.865C80.7752 194.817 14.3164 178.154 9.27252 151.063C4.77838 126.828 52.2014 109.248 47.1978 73.7572Z" fill="#E3EEFF"/>
<path d="M20.2735 112.213C18.0957 106.671 7.00061 78.3994 17.341 61.1985C23.3486 51.2125 30.8955 54.3436 45.5651 43.1939C65.5364 28.013 62.7541 13.6796 77.1046 5.04176C96.1935 -6.46361 128.225 2.63968 137.585 23.0463C146.634 42.7767 128.075 59.0994 136.834 88.2098C143.439 110.114 157.23 111.774 156.997 125.936C156.655 146.36 127.575 166.885 101.281 169.665C65.4613 173.455 32.9531 144.498 20.2735 112.213Z" fill="#C4DBFB"/>
<path d="M34.5004 29.7905C35.0584 27.4416 33.5942 25.088 31.2301 24.5336C28.8659 23.9792 26.497 25.4339 25.939 27.7828C25.3811 30.1317 26.8452 32.4853 29.2094 33.0397C31.5736 33.5941 33.9424 32.1394 34.5004 29.7905Z" fill="#C4DBFB"/>
<path d="M24.4292 54.8743C28.8361 54.8743 32.4087 51.3248 32.4087 46.9463C32.4087 42.5678 28.8361 39.0183 24.4292 39.0183C20.0222 39.0183 16.4497 42.5678 16.4497 46.9463C16.4497 51.3248 20.0222 54.8743 24.4292 54.8743Z" fill="#C4DBFB"/>
<path d="M29.3016 34.9893C31.7307 34.9893 33.6999 33.0329 33.6999 30.6194C33.6999 28.206 31.7307 26.2495 29.3016 26.2495C26.8725 26.2495 24.9033 28.206 24.9033 30.6194C24.9033 33.0329 26.8725 34.9893 29.3016 34.9893Z" fill="#C4DBFB"/>
<path d="M31.1424 162.724C33.5716 162.724 35.5407 160.767 35.5407 158.354C35.5407 155.941 33.5716 153.984 31.1424 153.984C28.7133 153.984 26.7441 155.941 26.7441 158.354C26.7441 160.767 28.7133 162.724 31.1424 162.724Z" fill="#C4DBFB"/>
<path d="M206.694 87.7775C207.252 85.4286 205.788 83.075 203.424 82.5206C201.06 81.9663 198.691 83.421 198.133 85.7699C197.575 88.1188 199.039 90.4724 201.403 91.0268C203.767 91.5812 206.136 90.1264 206.694 87.7775Z" fill="#C4DBFB"/>
<path d="M26.1993 134.234L27.8588 132.586C28.0308 132.404 28.1249 132.164 28.1213 131.915C28.1176 131.666 28.0164 131.428 27.8392 131.252C27.662 131.076 27.4226 130.975 27.172 130.972C26.9214 130.968 26.6792 131.062 26.4969 131.232L24.8375 132.881L23.178 131.232C22.9974 131.052 22.7522 130.951 22.4963 130.95C22.2405 130.95 21.9949 131.051 21.8136 131.23C21.6324 131.409 21.5303 131.653 21.5298 131.907C21.5293 132.161 21.6305 132.405 21.8111 132.586L23.4705 134.234L21.8161 135.883C21.7262 135.972 21.6547 136.077 21.606 136.193C21.5573 136.309 21.5322 136.434 21.5322 136.56C21.5322 136.685 21.5573 136.81 21.606 136.926C21.6547 137.042 21.7262 137.148 21.8161 137.236C21.9968 137.415 22.2417 137.516 22.4971 137.516C22.7524 137.516 22.9974 137.415 23.178 137.236L24.8375 135.592L26.4919 137.236C26.5819 137.326 26.6888 137.396 26.8066 137.445C26.9243 137.493 27.0505 137.517 27.1778 137.517C27.3045 137.518 27.43 137.493 27.547 137.445C27.664 137.397 27.77 137.326 27.8588 137.236C27.9487 137.148 28.0202 137.042 28.0689 136.926C28.1177 136.81 28.1428 136.685 28.1428 136.56C28.1428 136.434 28.1177 136.309 28.0689 136.193C28.0202 136.077 27.9487 135.972 27.8588 135.883L26.1993 134.234Z" fill="#3A81F3"/>
<path d="M197.552 124.242L199.212 122.593C199.392 122.413 199.493 122.169 199.493 121.915C199.492 121.661 199.39 121.417 199.209 121.237C199.028 121.058 198.782 120.958 198.526 120.958C198.27 120.958 198.025 121.06 197.845 121.24L196.185 122.889L194.526 121.24C194.343 121.069 194.101 120.976 193.851 120.979C193.6 120.983 193.361 121.083 193.183 121.259C193.006 121.436 192.905 121.673 192.901 121.922C192.898 122.171 192.992 122.412 193.164 122.593L194.823 124.242L193.164 125.891C193.074 125.979 193.002 126.084 192.954 126.201C192.905 126.317 192.88 126.441 192.88 126.567C192.88 126.693 192.905 126.817 192.954 126.934C193.002 127.05 193.074 127.155 193.164 127.244C193.253 127.333 193.359 127.405 193.476 127.453C193.593 127.501 193.718 127.525 193.845 127.524C193.972 127.525 194.098 127.5 194.216 127.452C194.334 127.404 194.441 127.333 194.531 127.244L196.185 125.6L197.845 127.244C198.025 127.423 198.27 127.524 198.526 127.524C198.781 127.524 199.026 127.423 199.206 127.244C199.296 127.155 199.368 127.05 199.417 126.934C199.465 126.817 199.49 126.693 199.49 126.567C199.49 126.441 199.465 126.317 199.417 126.201C199.368 126.084 199.296 125.979 199.206 125.891L197.552 124.242Z" fill="#3A81F3"/>
<path d="M162.265 5.92833L164.005 4.36479C164.175 4.18908 164.271 3.95614 164.274 3.71286C164.278 3.46959 164.188 3.23404 164.024 3.05364C163.859 2.87324 163.632 2.76138 163.389 2.74059C163.145 2.71979 162.902 2.7916 162.709 2.94156L160.969 4.51012L159.395 2.78119C159.31 2.68774 159.208 2.6118 159.093 2.5577C158.979 2.5036 158.855 2.4724 158.729 2.46589C158.602 2.45937 158.476 2.47767 158.356 2.51973C158.237 2.56179 158.127 2.6268 158.033 2.71103C157.939 2.79527 157.863 2.89709 157.808 3.01068C157.754 3.12426 157.722 3.2474 157.716 3.37304C157.709 3.49868 157.728 3.62438 157.77 3.74295C157.812 3.86153 157.878 3.97065 157.963 4.0641L159.536 5.79804L157.801 7.35657C157.706 7.44037 157.629 7.54203 157.574 7.65565C157.519 7.76927 157.488 7.89258 157.481 8.01845C157.475 8.14431 157.493 8.27022 157.536 8.38887C157.579 8.50752 157.645 8.61655 157.73 8.70964C157.815 8.80379 157.917 8.88024 158.031 8.93447C158.146 8.98869 158.27 9.0196 158.396 9.02536C158.523 9.03221 158.65 9.01403 158.769 8.97188C158.889 8.92973 158.998 8.86444 159.092 8.7798L160.833 7.21625L162.401 8.94517C162.576 9.1313 162.816 9.24419 163.072 9.26089C163.262 9.26882 163.451 9.2208 163.614 9.12284C163.777 9.02488 163.907 8.88133 163.988 8.71016C164.07 8.53899 164.098 8.3478 164.071 8.16052C164.043 7.97324 163.961 7.79818 163.834 7.65725L162.265 5.92833Z" fill="#3A81F3"/>
<path d="M29.3521 80.683L31.0116 79.0342C31.1922 78.8542 31.2933 78.6102 31.2929 78.3559C31.2924 78.1017 31.1903 77.8581 31.009 77.6787C30.8278 77.4992 30.5822 77.3987 30.3263 77.3992C30.0705 77.3996 29.8253 77.5011 29.6447 77.6812L27.9852 79.3299L26.3258 77.6762C26.1434 77.5053 25.9013 77.4117 25.6506 77.4154C25.4 77.419 25.1607 77.5195 24.9835 77.6956C24.8062 77.8717 24.7051 78.1095 24.7014 78.3585C24.6977 78.6075 24.7919 78.8481 24.9639 79.0292L26.6233 80.678L24.9639 82.3267C24.7846 82.5068 24.6841 82.7499 24.6841 83.0032C24.6841 83.2566 24.7846 83.4997 24.9639 83.6798C25.1454 83.8594 25.3912 83.9603 25.6474 83.9603C25.9035 83.9603 26.1493 83.8594 26.3308 83.6798L27.9852 82.036L29.6447 83.6798C29.827 83.8507 30.0692 83.9442 30.3198 83.9406C30.5704 83.937 30.8097 83.8364 30.9869 83.6603C31.1642 83.4842 31.2654 83.2465 31.269 82.9975C31.2727 82.7485 31.1785 82.5079 31.0065 82.3267L29.3521 80.683Z" fill="#3A81F3"/>
<path d="M11.2798 126.021C11.364 126.156 11.4198 126.306 11.4441 126.463C11.4684 126.619 11.4605 126.779 11.4211 126.933C11.3712 127.138 11.2674 127.327 11.1203 127.479C10.9732 127.631 10.7881 127.742 10.5838 127.8L6.54862 128.978C6.34493 129.036 6.12933 129.041 5.92339 128.99C5.71746 128.94 5.52841 128.837 5.37519 128.691C5.22196 128.546 5.10993 128.363 5.05031 128.161C4.99068 127.958 4.98555 127.744 5.03544 127.539L6.04423 123.46C6.0945 123.254 6.19858 123.065 6.34594 122.912C6.49331 122.759 6.67873 122.648 6.88347 122.589C7.0882 122.53 7.30499 122.525 7.5119 122.576C7.71881 122.627 7.9085 122.732 8.0618 122.879L11.1134 125.78C11.179 125.853 11.2349 125.934 11.2798 126.021ZM5.97361 127.955C5.9848 127.974 5.99837 127.991 6.01397 128.005C6.04549 128.037 6.0853 128.06 6.12895 128.07C6.1726 128.081 6.21837 128.079 6.26112 128.066L10.2963 126.893C10.3398 126.88 10.3793 126.857 10.4107 126.824C10.442 126.792 10.4642 126.752 10.475 126.708C10.4857 126.664 10.4847 126.618 10.4719 126.575C10.4591 126.532 10.4351 126.493 10.4022 126.462L7.35061 123.565C7.31881 123.534 7.2791 123.511 7.2356 123.5C7.19211 123.489 7.14639 123.49 7.10319 123.502C7.06 123.514 7.02088 123.538 6.98989 123.57C6.9589 123.602 6.93715 123.642 6.92692 123.686L5.91813 127.76C5.9151 127.796 5.92033 127.832 5.93343 127.866C5.94653 127.9 5.96717 127.931 5.99379 127.955H5.97361Z" fill="#F9C067"/>
<path d="M67.6 5.51251C67.684 5.64825 67.7398 5.79934 67.764 5.95685C67.7883 6.11436 67.7805 6.27511 67.7412 6.42959C67.6932 6.63486 67.5907 6.82359 67.4443 6.97608C67.298 7.12857 67.1131 7.23925 66.909 7.29656L62.8738 8.46922C62.6701 8.5278 62.4545 8.5322 62.2486 8.48197C62.0427 8.43174 61.8536 8.32864 61.7004 8.183C61.5472 8.03736 61.4351 7.85429 61.3755 7.65211C61.3159 7.44992 61.3108 7.23572 61.3606 7.03096L62.3694 2.95672C62.4199 2.75126 62.5238 2.56258 62.6708 2.40955C62.8177 2.25653 63.0025 2.14452 63.2067 2.08474C63.4105 2.02418 63.6268 2.01872 63.8334 2.06893C64.04 2.11914 64.2293 2.22321 64.3819 2.37039L67.4083 5.27197C67.4805 5.34528 67.5447 5.4259 67.6 5.51251ZM62.2938 7.46695C62.3049 7.48821 62.3204 7.50697 62.3392 7.52207C62.3713 7.55296 62.4111 7.57481 62.4545 7.58538C62.498 7.59595 62.5434 7.59485 62.5863 7.58221L66.6215 6.40454C66.665 6.39293 66.7046 6.36993 66.7362 6.33794C66.7678 6.30594 66.7901 6.26612 66.801 6.22262C66.8118 6.17912 66.8107 6.13353 66.7977 6.09061C66.7848 6.04769 66.7605 6.009 66.7274 5.97857L63.6758 3.07699C63.6424 3.04652 63.6017 3.02502 63.5575 3.0145C63.5134 3.00398 63.4673 3.00479 63.4236 3.01685C63.3804 3.02968 63.3414 3.05356 63.3104 3.0861C63.2794 3.11864 63.2576 3.15871 63.2471 3.20227L62.2383 7.27651C62.2337 7.31034 62.2363 7.34475 62.2458 7.37754C62.2554 7.41033 62.2717 7.44078 62.2938 7.46695Z" fill="#F9C067"/>
<path d="M197.345 170.211C197.203 170.33 197.036 170.415 196.856 170.459C196.675 170.504 196.487 170.507 196.306 170.467C196.125 170.428 195.955 170.348 195.81 170.233C195.664 170.118 195.548 169.972 195.469 169.805L193.673 166.006C193.583 165.816 193.545 165.604 193.563 165.394C193.581 165.184 193.654 164.983 193.775 164.81C193.896 164.637 194.061 164.498 194.253 164.408C194.445 164.318 194.657 164.28 194.868 164.298L199.08 164.653C199.292 164.67 199.496 164.743 199.67 164.863C199.845 164.984 199.984 165.148 200.074 165.339C200.165 165.531 200.202 165.742 200.184 165.953C200.165 166.163 200.09 166.365 199.968 166.538L197.557 169.98C197.498 170.067 197.427 170.145 197.345 170.211ZM194.601 165.3L194.556 165.35C194.533 165.389 194.521 165.433 194.521 165.478C194.521 165.523 194.533 165.567 194.556 165.605L196.351 169.404C196.37 169.445 196.4 169.48 196.437 169.506C196.474 169.531 196.518 169.546 196.563 169.549C196.607 169.554 196.652 169.545 196.692 169.526C196.732 169.507 196.766 169.477 196.79 169.439L199.206 165.996C199.229 165.959 199.242 165.915 199.242 165.871C199.242 165.827 199.229 165.784 199.206 165.746C199.188 165.705 199.16 165.67 199.123 165.644C199.087 165.618 199.044 165.603 198.999 165.6L194.788 165.245C194.754 165.241 194.721 165.244 194.689 165.254C194.657 165.263 194.627 165.279 194.601 165.3Z" fill="#F9C067"/>
<path d="M197.204 63.7295C197.157 63.8817 197.08 64.0228 196.977 64.1443C196.874 64.2658 196.747 64.3651 196.604 64.4361C196.415 64.5327 196.204 64.5781 195.993 64.5675C195.781 64.5569 195.576 64.4909 195.398 64.376L191.867 62.1008C191.689 61.9861 191.544 61.8268 191.448 61.639C191.351 61.4511 191.306 61.2413 191.316 61.0306C191.327 60.8199 191.394 60.6157 191.509 60.4385C191.624 60.2613 191.784 60.1173 191.973 60.0211L195.731 58.1017C195.92 58.0055 196.132 57.9605 196.344 57.9713C196.556 57.982 196.762 58.0481 196.94 58.1629C197.119 58.2777 197.264 58.4372 197.36 58.6252C197.457 58.8133 197.502 59.0234 197.491 59.2343L197.279 63.4238C197.27 63.5289 197.244 63.6319 197.204 63.7295ZM192.261 61.0083C192.259 61.0317 192.259 61.0551 192.261 61.0785C192.259 61.1233 192.27 61.1678 192.291 61.2074C192.312 61.2469 192.343 61.2803 192.382 61.304L195.913 63.5792C195.952 63.6016 195.996 63.6134 196.041 63.6134C196.086 63.6134 196.131 63.6016 196.17 63.5792C196.21 63.5599 196.244 63.53 196.268 63.4929C196.292 63.4558 196.305 63.4128 196.306 63.3687L196.518 59.1742C196.519 59.1299 196.51 59.0859 196.489 59.0465C196.469 59.007 196.439 58.9733 196.402 58.9487C196.362 58.9272 196.318 58.9159 196.273 58.9159C196.228 58.9159 196.184 58.9272 196.145 58.9487L192.387 60.863C192.327 60.8933 192.282 60.9455 192.261 61.0083Z" fill="#F9C067"/>
</g>
<g style="mix-blend-mode:luminosity">
<path d="M149.812 149.89C140.032 148.791 137.24 142.862 137.24 142.862L123.87 89.2363L119.457 90.3659L115.031 91.4401L128.401 145.066C128.401 145.066 128.711 151.613 120.601 157.173C112.481 162.736 97.086 170.994 103.015 179.679C108.888 188.299 134.33 183.543 142.119 181.65C142.119 181.65 142.184 181.634 142.211 181.627C142.239 181.62 142.276 181.611 142.304 181.604C150.068 179.609 174.767 171.873 175.905 161.505C177.054 151.056 159.583 150.992 149.812 149.89Z" fill="#363636"/>
<path d="M211.452 35.3975C198.129 27.3216 155.251 29.5155 106.432 41.6873C57.6139 53.859 17.9867 72.3928 10.5427 85.8131L7.53872 84.0238L9.44121 91.6543C12.7838 105.061 61.6272 104.427 118.537 90.2381C175.448 76.0488 218.871 53.6774 215.528 40.271L213.697 32.9266L211.442 35.3998L211.452 35.3975Z" fill="#424242"/>
<path d="M116.899 83.6696C173.809 69.4805 217.234 47.1136 213.893 33.7117C210.551 20.3099 161.708 20.9481 104.799 35.1372C47.8896 49.3263 4.46415 71.6932 7.80561 85.095C11.1471 98.4969 59.99 97.8587 116.899 83.6696Z" fill="#5B5B5B"/>
<g clip-path="url(#clip1_415_11661)">
<rect x="136.563" y="21.8425" width="68" height="68" rx="34" fill="#D8D8D8"/>
<path d="M170.78 74.7219C170.024 74.7219 169.391 74.4659 168.881 73.954C168.369 73.4439 168.113 72.8111 168.113 72.0557V58.7248H154.782C154.027 58.7248 153.393 58.4688 152.881 57.9569C152.371 57.4468 152.116 56.814 152.116 56.0586C152.116 55.3032 152.371 54.6695 152.881 54.1576C153.393 53.6474 154.027 53.3924 154.782 53.3924H168.113V40.0615C168.113 39.306 168.369 38.6724 168.881 38.1605C169.391 37.6503 170.024 37.3953 170.78 37.3953C171.535 37.3953 172.169 37.6503 172.681 38.1605C173.191 38.6724 173.446 39.306 173.446 40.0615V53.3924H186.777C187.532 53.3924 188.165 53.6474 188.675 54.1576C189.187 54.6695 189.443 55.3032 189.443 56.0586C189.443 56.814 189.187 57.4468 188.675 57.9569C188.165 58.4688 187.532 58.7248 186.777 58.7248H173.446V72.0557C173.446 72.8111 173.191 73.4439 172.681 73.954C172.169 74.4659 171.535 74.7219 170.78 74.7219Z" fill="#424242"/>
<rect x="136.563" y="21.8425" width="68" height="68" rx="34" fill="#989898"/>
<path d="M186.786 44.9788C186.749 44.9788 186.692 44.9788 186.636 44.9788C176.698 43.9831 166.779 43.6074 156.953 44.6031L153.121 44.9788C152.332 45.0539 151.637 44.4903 151.561 43.7013C151.486 42.9123 152.05 42.236 152.82 42.1608L156.653 41.7851C166.647 40.7706 176.773 41.1651 186.918 42.1608C187.688 42.236 188.252 42.9311 188.176 43.7013C188.12 44.434 187.5 44.9788 186.786 44.9788Z" fill="white"/>
<path d="M163.304 43.0817C163.229 43.0817 163.154 43.0817 163.06 43.0629C162.308 42.9314 161.782 42.1987 161.914 41.4472L162.327 38.9862C162.628 37.1827 163.041 34.6841 167.418 34.6841H172.34C176.736 34.6841 177.15 37.2766 177.431 39.005L177.845 41.4472C177.976 42.2175 177.45 42.9502 176.699 43.0629C175.928 43.1944 175.196 42.6684 175.083 41.9169L174.67 39.4747C174.407 37.8402 174.35 37.5209 172.359 37.5209H167.437C165.446 37.5209 165.408 37.7839 165.126 39.4559L164.694 41.8981C164.581 42.5932 163.98 43.0817 163.304 43.0817Z" fill="white"/>
<path d="M175.91 75.0751H163.849C157.292 75.0751 157.029 71.4493 156.822 68.5186L155.601 49.6006C155.545 48.8303 156.146 48.154 156.916 48.0977C157.705 48.0601 158.363 48.6425 158.419 49.4127L159.64 68.3308C159.847 71.1863 159.922 72.2572 163.849 72.2572H175.91C179.855 72.2572 179.93 71.1863 180.118 68.3308L181.339 49.4127C181.395 48.6425 182.072 48.0601 182.842 48.0977C183.612 48.154 184.213 48.8116 184.157 49.6006L182.936 68.5186C182.729 71.4493 182.466 75.0751 175.91 75.0751Z" fill="white"/>
<path d="M172.996 64.7428H166.741C165.97 64.7428 165.332 64.104 165.332 63.3338C165.332 62.5635 165.97 61.9248 166.741 61.9248H172.996C173.767 61.9248 174.405 62.5635 174.405 63.3338C174.405 64.104 173.767 64.7428 172.996 64.7428Z" fill="white"/>
<path d="M174.575 57.2281H165.182C164.412 57.2281 163.773 56.5894 163.773 55.8191C163.773 55.0489 164.412 54.4102 165.182 54.4102H174.575C175.345 54.4102 175.984 55.0489 175.984 55.8191C175.984 56.5894 175.345 57.2281 174.575 57.2281Z" fill="white"/>
</g>
</g>
<defs>
<clipPath id="clip0_415_11661">
<rect width="201.823" height="194" fill="white" transform="translate(5)"/>
</clipPath>
<clipPath id="clip1_415_11661">
<rect x="136.563" y="21.8425" width="68" height="68" rx="34" fill="white"/>
</clipPath>
</defs>
</svg>
