<svg width="198" height="190" viewBox="0 0 198 190" fill="none" xmlns="http://www.w3.org/2000/svg">
<g style="mix-blend-mode:luminosity" clip-path="url(#clip0_415_12225)">
<path d="M41.3981 72.2364C38.9239 54.7048 25.6771 48.9821 29.324 37.7378C35.9499 17.3007 85.9039 17.178 94.0539 17.1338C120.508 17.0553 163.42 16.9326 181.012 47.3182C189.117 61.3209 177.281 69.64 182.462 105.297C185.535 126.46 189.959 129.017 187.776 138.357C181.18 166.549 132.849 177.519 125.922 179.094C74.3395 190.8 9.13953 174.481 4.19114 147.948C-0.217882 124.213 46.3069 106.995 41.3981 72.2364Z" fill="#E3EEFF"/>
<path d="M17.7299 125.42C14.8598 119.226 0.237322 87.6279 13.8652 68.4031C21.7826 57.2422 31.7289 60.7417 51.0622 48.2802C77.3827 31.3131 73.716 15.2932 92.6287 5.63911C117.786 -7.21995 160.001 2.95441 172.337 25.7621C184.263 47.8139 159.803 66.0571 171.348 98.5925C180.052 123.074 198.227 124.929 197.921 140.757C197.47 163.585 159.145 186.525 124.491 189.632C77.2838 193.867 34.4406 161.504 17.7299 125.42Z" fill="#C4DBFB"/>
<path d="M194.464 104.06C195.157 99.8272 192.259 95.8389 187.991 95.1518C183.724 94.4647 179.702 97.3391 179.01 101.572C178.317 105.805 181.215 109.793 185.483 110.48C189.75 111.167 193.771 108.293 194.464 104.06Z" fill="#C4DBFB"/>
<path d="M28.9417 29.1761C29.4891 26.8756 28.0527 24.5706 25.7333 24.0276C23.4139 23.4847 21.0899 24.9094 20.5425 27.2099C19.995 29.5103 21.4315 31.8154 23.7509 32.3584C26.0703 32.9013 28.3943 31.4766 28.9417 29.1761Z" fill="#C4DBFB"/>
<path d="M19.0608 53.7429C23.3843 53.7429 26.8891 50.2666 26.8891 45.9784C26.8891 41.6902 23.3843 38.2139 19.0608 38.2139C14.7373 38.2139 11.2324 41.6902 11.2324 45.9784C11.2324 50.2666 14.7373 53.7429 19.0608 53.7429Z" fill="#C4DBFB"/>
<path d="M23.8409 34.2679C26.224 34.2679 28.1559 32.3517 28.1559 29.9881C28.1559 27.6244 26.224 25.7083 23.8409 25.7083C21.4578 25.7083 19.5259 27.6244 19.5259 29.9881C19.5259 32.3517 21.4578 34.2679 23.8409 34.2679Z" fill="#C4DBFB"/>
<path d="M25.6475 159.369C28.0306 159.369 29.9625 157.453 29.9625 155.089C29.9625 152.725 28.0306 150.809 25.6475 150.809C23.2644 150.809 21.3325 152.725 21.3325 155.089C21.3325 157.453 23.2644 159.369 25.6475 159.369Z" fill="#C4DBFB"/>
<path d="M197.874 85.9678C198.422 83.6674 196.985 81.3623 194.666 80.8194C192.347 80.2764 190.023 81.7011 189.475 84.0016C188.928 86.3021 190.364 88.6071 192.683 89.1501C195.003 89.6931 197.327 88.2683 197.874 85.9678Z" fill="#C4DBFB"/>
<path d="M20.7979 131.467L22.4259 129.852C22.5946 129.675 22.687 129.439 22.6834 129.195C22.6798 128.951 22.5806 128.718 22.4067 128.546C22.2328 128.373 21.998 128.275 21.7522 128.271C21.5063 128.268 21.2687 128.36 21.0898 128.527L19.4618 130.142L17.8338 128.527C17.6566 128.351 17.4161 128.251 17.165 128.251C16.914 128.25 16.6731 128.349 16.4953 128.524C16.3174 128.7 16.2173 128.939 16.2168 129.188C16.2163 129.437 16.3156 129.676 16.4928 129.852L18.1208 131.467L16.4977 133.082C16.4095 133.168 16.3394 133.271 16.2916 133.385C16.2437 133.499 16.2191 133.621 16.2191 133.744C16.2191 133.867 16.2437 133.989 16.2916 134.103C16.3394 134.217 16.4095 134.32 16.4977 134.407C16.675 134.582 16.9152 134.681 17.1658 134.681C17.4163 134.681 17.6566 134.582 17.8338 134.407L19.4618 132.797L21.0849 134.407C21.1732 134.494 21.2781 134.564 21.3936 134.611C21.5091 134.658 21.6329 134.682 21.7579 134.682C21.8821 134.683 22.0053 134.659 22.1201 134.612C22.2348 134.564 22.3389 134.495 22.4259 134.407C22.5142 134.32 22.5842 134.217 22.6321 134.103C22.6799 133.989 22.7045 133.867 22.7045 133.744C22.7045 133.621 22.6799 133.499 22.6321 133.385C22.5842 133.271 22.5142 133.168 22.4259 133.082L20.7979 131.467Z" fill="#3A81F3"/>
<path d="M188.905 121.68L190.533 120.065C190.71 119.889 190.809 119.65 190.809 119.401C190.809 119.152 190.708 118.913 190.531 118.738C190.353 118.562 190.112 118.463 189.861 118.464C189.61 118.464 189.369 118.564 189.192 118.74L187.564 120.355L185.936 118.74C185.757 118.573 185.52 118.481 185.274 118.485C185.028 118.488 184.793 118.587 184.619 118.759C184.445 118.932 184.346 119.164 184.342 119.408C184.339 119.652 184.431 119.888 184.6 120.065L186.228 121.68L184.6 123.295C184.512 123.381 184.442 123.485 184.394 123.598C184.346 123.712 184.321 123.834 184.321 123.957C184.321 124.081 184.346 124.203 184.394 124.316C184.442 124.43 184.512 124.533 184.6 124.62C184.687 124.708 184.791 124.778 184.906 124.825C185.02 124.872 185.144 124.896 185.268 124.895C185.393 124.895 185.517 124.871 185.632 124.824C185.748 124.777 185.853 124.708 185.941 124.62L187.564 123.01L189.192 124.62C189.369 124.796 189.609 124.894 189.86 124.894C190.111 124.894 190.351 124.796 190.528 124.62C190.616 124.533 190.686 124.43 190.734 124.316C190.782 124.203 190.807 124.081 190.807 123.957C190.807 123.834 190.782 123.712 190.734 123.598C190.686 123.485 190.616 123.381 190.528 123.295L188.905 121.68Z" fill="#3A81F3"/>
<path d="M154.286 5.80613L155.993 4.27482C156.16 4.10274 156.254 3.8746 156.257 3.63634C156.261 3.39808 156.173 3.16739 156.012 2.99071C155.85 2.81403 155.628 2.70448 155.388 2.68411C155.149 2.66375 154.911 2.73407 154.722 2.88094L153.014 4.41716L151.471 2.72388C151.387 2.63236 151.287 2.55798 151.175 2.505C151.062 2.45201 150.941 2.42146 150.817 2.41508C150.693 2.4087 150.569 2.42661 150.452 2.46781C150.334 2.50901 150.227 2.57267 150.134 2.65517C150.042 2.73767 149.967 2.83739 149.914 2.94864C149.86 3.05988 149.83 3.18047 149.823 3.30353C149.817 3.42658 149.835 3.54969 149.876 3.66581C149.918 3.78194 149.982 3.88882 150.065 3.98034L151.609 5.67852L149.907 7.20492C149.814 7.287 149.738 7.38656 149.684 7.49784C149.631 7.60911 149.6 7.72989 149.593 7.85315C149.587 7.97642 149.605 8.09973 149.647 8.21594C149.689 8.33214 149.754 8.43893 149.838 8.5301C149.92 8.62231 150.02 8.69718 150.133 8.75029C150.245 8.80339 150.367 8.83366 150.491 8.8393C150.615 8.84601 150.739 8.82821 150.856 8.78693C150.974 8.74565 151.081 8.68171 151.174 8.59881L152.881 7.0675L154.42 8.76077C154.592 8.94306 154.827 9.05362 155.078 9.06998C155.265 9.07774 155.45 9.03071 155.609 8.93478C155.769 8.83884 155.897 8.69825 155.977 8.53061C156.057 8.36297 156.085 8.17572 156.058 7.9923C156.031 7.80887 155.95 7.63743 155.825 7.49941L154.286 5.80613Z" fill="#3A81F3"/>
<path d="M23.8907 79.0193L25.5187 77.4046C25.6958 77.2282 25.7951 76.9892 25.7947 76.7403C25.7942 76.4913 25.694 76.2527 25.5162 76.077C25.3384 75.9012 25.0974 75.8028 24.8464 75.8032C24.5954 75.8037 24.3548 75.903 24.1777 76.0794L22.5496 77.6942L20.9216 76.0745C20.7427 75.9071 20.5052 75.8155 20.2593 75.8191C20.0134 75.8226 19.7786 75.9211 19.6047 76.0935C19.4309 76.266 19.3316 76.4989 19.328 76.7427C19.3244 76.9866 19.4168 77.2223 19.5856 77.3997L21.2136 79.0144L19.5856 80.6292C19.4097 80.8056 19.311 81.0437 19.311 81.2917C19.311 81.5398 19.4097 81.7779 19.5856 81.9543C19.7636 82.1303 20.0047 82.229 20.2561 82.229C20.5074 82.229 20.7485 82.1303 20.9266 81.9543L22.5496 80.3445L24.1777 81.9543C24.3565 82.1217 24.5941 82.2133 24.84 82.2098C25.0859 82.2062 25.3206 82.1077 25.4945 81.9353C25.6684 81.7628 25.7677 81.53 25.7713 81.2861C25.7748 81.0422 25.6825 80.8066 25.5137 80.6292L23.8907 79.0193Z" fill="#3A81F3"/>
<path d="M6.16042 123.422C6.24296 123.554 6.29778 123.701 6.32158 123.855C6.34539 124.008 6.3377 124.165 6.29898 124.316C6.25006 124.517 6.14825 124.701 6.00394 124.85C5.85962 124.999 5.67797 125.108 5.47754 125.165L1.51883 126.318C1.319 126.375 1.10748 126.38 0.905445 126.331C0.703409 126.281 0.517944 126.18 0.36762 126.038C0.217296 125.895 0.107387 125.716 0.0488922 125.518C-0.00960267 125.32 -0.0146331 125.11 0.0343119 124.909L1.02399 120.914C1.07331 120.713 1.17542 120.528 1.31999 120.378C1.46457 120.228 1.64648 120.119 1.84734 120.061C2.04819 120.003 2.26087 119.999 2.46386 120.049C2.66685 120.099 2.85295 120.201 3.00335 120.345L5.99713 123.187C6.06149 123.258 6.11637 123.337 6.16042 123.422ZM0.954713 125.317C0.965687 125.335 0.978998 125.351 0.994301 125.366C1.02522 125.397 1.06428 125.419 1.10711 125.43C1.14993 125.44 1.19483 125.438 1.23678 125.425L5.19549 124.276C5.23821 124.264 5.27693 124.241 5.30772 124.209C5.33851 124.177 5.36028 124.138 5.37083 124.095C5.38138 124.052 5.38033 124.007 5.36779 123.965C5.35524 123.923 5.33165 123.885 5.2994 123.854L2.30563 121.017C2.27443 120.987 2.23547 120.964 2.1928 120.954C2.15013 120.943 2.10528 120.943 2.0629 120.955C2.02052 120.967 1.98214 120.99 1.95174 121.022C1.92133 121.053 1.9 121.093 1.88996 121.135L0.90028 125.125C0.897306 125.161 0.902438 125.196 0.915291 125.23C0.928145 125.263 0.948393 125.293 0.974511 125.317H0.954713Z" fill="#F9C067"/>
<path d="M61.4143 5.39882C61.4967 5.53176 61.5514 5.67973 61.5752 5.83399C61.599 5.98826 61.5914 6.14569 61.5528 6.29699C61.5058 6.49803 61.4052 6.68286 61.2616 6.83221C61.118 6.98156 60.9366 7.08995 60.7363 7.14608L56.7776 8.29456C56.5778 8.35194 56.3663 8.35624 56.1642 8.30705C55.9622 8.25785 55.7767 8.15688 55.6264 8.01425C55.4761 7.87161 55.3662 7.69231 55.3077 7.4943C55.2492 7.29628 55.2442 7.0865 55.2931 6.88595L56.2828 2.89572C56.3323 2.6945 56.4343 2.50971 56.5784 2.35983C56.7226 2.20996 56.9039 2.10027 57.1042 2.04172C57.3041 1.98241 57.5163 1.97706 57.719 2.02624C57.9217 2.07542 58.1075 2.17733 58.2572 2.32148L61.2262 5.16323C61.297 5.23503 61.36 5.31399 61.4143 5.39882ZM56.2086 7.31295C56.2195 7.33378 56.2347 7.35215 56.2531 7.36694C56.2846 7.39719 56.3237 7.41859 56.3663 7.42894C56.4089 7.43929 56.4535 7.43822 56.4956 7.42584L60.4543 6.27245C60.497 6.26108 60.5359 6.23856 60.5669 6.20722C60.5978 6.17589 60.6198 6.13688 60.6304 6.09428C60.641 6.05168 60.6399 6.00703 60.6272 5.96499C60.6145 5.92296 60.5907 5.88506 60.5582 5.85527L57.5644 3.01351C57.5316 2.98367 57.4917 2.96261 57.4484 2.95231C57.4051 2.942 57.3599 2.9428 57.317 2.95461C57.2746 2.96717 57.2363 2.99056 57.2059 3.02243C57.1755 3.05431 57.1541 3.09354 57.1438 3.13621L56.1541 7.12645C56.1496 7.15958 56.1521 7.19328 56.1615 7.22539C56.1709 7.2575 56.1869 7.28733 56.2086 7.31295Z" fill="#F9C067"/>
<path d="M188.702 166.702C188.563 166.818 188.399 166.902 188.222 166.945C188.045 166.989 187.861 166.991 187.683 166.953C187.505 166.915 187.338 166.836 187.196 166.723C187.053 166.611 186.939 166.468 186.861 166.304L185.099 162.584C185.011 162.397 184.974 162.19 184.992 161.985C185.009 161.779 185.081 161.581 185.2 161.412C185.318 161.242 185.48 161.107 185.668 161.019C185.857 160.931 186.065 160.893 186.272 160.91L190.404 161.259C190.612 161.275 190.812 161.346 190.983 161.464C191.155 161.582 191.291 161.743 191.38 161.931C191.468 162.118 191.505 162.325 191.487 162.531C191.468 162.737 191.395 162.935 191.275 163.104L188.91 166.476C188.852 166.561 188.782 166.637 188.702 166.702ZM186.01 161.892L185.965 161.941C185.943 161.979 185.932 162.022 185.932 162.066C185.932 162.11 185.943 162.153 185.965 162.191L187.727 165.912C187.746 165.952 187.775 165.986 187.811 166.011C187.848 166.036 187.891 166.051 187.935 166.054C187.978 166.058 188.022 166.05 188.062 166.031C188.101 166.012 188.134 165.982 188.158 165.946L190.528 162.574C190.551 162.537 190.563 162.495 190.563 162.451C190.563 162.408 190.551 162.366 190.528 162.329C190.511 162.289 190.482 162.254 190.447 162.229C190.411 162.204 190.369 162.189 190.325 162.186L186.193 161.838C186.16 161.834 186.127 161.837 186.096 161.847C186.065 161.856 186.035 161.871 186.01 161.892Z" fill="#F9C067"/>
<path d="M188.563 62.4157C188.518 62.5647 188.442 62.703 188.341 62.822C188.24 62.941 188.115 63.0382 187.975 63.1077C187.79 63.2023 187.583 63.2468 187.375 63.2364C187.168 63.2261 186.966 63.1613 186.792 63.0488L183.328 60.8206C183.153 60.7082 183.011 60.5522 182.916 60.3682C182.822 60.1843 182.777 59.9788 182.788 59.7724C182.798 59.566 182.863 59.366 182.976 59.1925C183.089 59.019 183.247 58.878 183.432 58.7837L187.119 56.9039C187.304 56.8097 187.512 56.7657 187.72 56.7762C187.928 56.7867 188.13 56.8514 188.305 56.9639C188.48 57.0763 188.622 57.2325 188.717 57.4167C188.812 57.6009 188.856 57.8066 188.846 58.0132L188.638 62.1163C188.628 62.2192 188.603 62.3201 188.563 62.4157ZM183.714 59.7506C183.713 59.7735 183.713 59.7964 183.714 59.8193C183.713 59.8632 183.723 59.9068 183.744 59.9455C183.764 59.9843 183.795 60.0169 183.833 60.0402L187.297 62.2684C187.335 62.2904 187.379 62.302 187.423 62.302C187.467 62.302 187.511 62.2904 187.549 62.2684C187.588 62.2495 187.621 62.2203 187.645 62.184C187.669 62.1476 187.682 62.1055 187.683 62.0623L187.89 57.9543C187.892 57.9109 187.882 57.8678 187.862 57.8292C187.843 57.7906 187.813 57.7576 187.777 57.7334C187.738 57.7124 187.695 57.7013 187.65 57.7013C187.606 57.7013 187.563 57.7124 187.524 57.7334L183.838 59.6083C183.779 59.638 183.735 59.689 183.714 59.7506Z" fill="#F9C067"/>
<g opacity="0.26">
<path d="M162.554 20.8986C163.157 20.1165 164.518 20.4989 164.518 21.4547V173.421H164.501L159.919 167.46C159.49 166.904 158.575 166.904 158.146 167.46L154.433 172.274C154.004 172.83 153.089 172.83 152.66 172.274L148.953 167.466C148.524 166.91 147.609 166.91 147.18 167.466L143.484 172.274C143.055 172.83 142.14 172.83 141.711 172.274L137.998 167.46C137.569 166.904 136.654 166.904 136.225 167.46L132.506 172.274C132.078 172.83 131.162 172.83 130.734 172.274L127.038 167.466C126.609 166.91 125.694 166.91 125.265 167.466L121.569 172.274C121.141 172.83 120.225 172.83 119.797 172.274L116.078 167.46C115.649 166.904 114.734 166.904 114.305 167.46L110.592 172.274C110.163 172.83 109.248 172.83 108.819 172.274L105.123 167.466C104.694 166.91 103.779 166.91 103.35 167.466L99.6372 172.28C99.2085 172.836 98.2932 172.836 97.8645 172.28L94.157 167.472C93.7284 166.916 92.8131 166.916 92.3844 167.472L88.6711 172.286C88.2424 172.842 87.3272 172.842 86.8985 172.286L83.191 167.477C82.7623 166.921 81.847 166.921 81.4184 167.477L77.7051 172.291C77.2764 172.848 76.3611 172.848 75.9324 172.291L72.225 167.483C71.7963 166.927 70.881 166.927 70.4523 167.483L67.8745 170.832C67.272 171.614 65.9106 171.231 65.9106 170.275V19.5314C65.9106 19.1491 66.4552 18.9985 66.6985 19.3113L70.5102 24.2527C70.9389 24.8088 71.8542 24.8088 72.2829 24.2527L75.9788 19.4445C76.4075 18.8884 77.3227 18.8884 77.7514 19.4445L81.4705 24.2585C81.8992 24.8146 82.8145 24.8146 83.2431 24.2585L86.939 19.4503C87.3677 18.8942 88.283 18.8942 88.7117 19.4503L92.4249 24.2643C92.8536 24.8204 93.7689 24.8204 94.1976 24.2643L97.9051 19.4561C98.3338 18.9 99.249 18.9 99.6777 19.4561L103.391 24.2701C103.82 24.8262 104.735 24.8262 105.164 24.2701L108.877 19.4561C109.306 18.9 110.221 18.9 110.65 19.4561L114.357 24.2643C114.786 24.8204 115.701 24.8204 116.13 24.2643L119.843 19.4503C120.272 18.8942 121.187 18.8942 121.616 19.4503L125.312 24.2585C125.74 24.8146 126.655 24.8146 127.084 24.2585L130.797 19.4445C131.226 18.8884 132.141 18.8884 132.57 19.4445L136.278 24.2527C136.706 24.8088 137.622 24.8088 138.05 24.2527L141.763 19.4388C142.192 18.8826 143.107 18.8826 143.536 19.4388L147.244 24.2469C147.672 24.803 148.588 24.803 149.016 24.2469L152.73 19.433C153.158 18.8768 154.073 18.8768 154.502 19.433L158.21 24.2411C158.638 24.7972 159.554 24.7972 159.982 24.2411L162.56 20.8928L162.554 20.8986Z" fill="#151515"/>
<path d="M118.053 37.281H80.3984V41.591H118.053V37.281Z" fill="#151515"/>
<path d="M150.348 131.208H123.834C122.545 131.208 121.5 132.253 121.5 133.542V135.379C121.5 136.668 122.545 137.713 123.834 137.713H150.348C151.638 137.713 152.683 136.668 152.683 135.379V133.542C152.683 132.253 151.638 131.208 150.348 131.208Z" fill="#151515"/>
</g>
<g opacity="0.13">
<path d="M145.088 8.28718C145.586 7.35451 146.988 7.61519 147.11 8.66951L166.974 176.109H166.956L161.627 170.084C161.129 169.522 160.219 169.626 159.866 170.293L156.807 176.033C156.454 176.7 155.544 176.804 155.046 176.242L150.736 171.382C150.238 170.82 149.328 170.924 148.975 171.59L145.934 177.32C145.58 177.986 144.671 178.09 144.173 177.528L139.857 172.662C139.359 172.1 138.449 172.204 138.096 172.871L135.031 178.617C134.678 179.283 133.769 179.388 133.27 178.826L128.972 173.965C128.474 173.403 127.564 173.508 127.211 174.174L124.17 179.903C123.816 180.569 122.907 180.674 122.409 180.112L118.081 175.246C117.583 174.684 116.674 174.794 116.32 175.454L113.262 181.195C112.908 181.861 111.999 181.965 111.5 181.404L107.202 176.543C106.704 175.981 105.794 176.086 105.441 176.752L102.382 182.493C102.029 183.159 101.12 183.263 100.621 182.701L96.3114 177.835C95.8132 177.273 94.9037 177.377 94.5503 178.044L91.4916 183.784C91.1383 184.451 90.2288 184.555 89.7306 183.993L85.4206 179.127C84.9225 178.565 84.013 178.669 83.6596 179.335L80.6009 185.076C80.2475 185.742 79.3381 185.847 78.8399 185.285L74.5299 180.425C74.0317 179.863 73.1222 179.967 72.7689 180.633L70.6428 184.63C70.1447 185.563 68.7428 185.302 68.6211 184.248L48.9309 18.1641C48.8787 17.7471 49.4001 17.5095 49.684 17.8282L54.1156 22.8217C54.6138 23.3836 55.5233 23.2793 55.8766 22.6131L58.9179 16.8839C59.2713 16.2177 60.1808 16.1134 60.679 16.6754L65.0005 21.5414C65.4987 22.1034 66.4082 21.9933 66.7616 21.3329L69.8029 15.5979C70.1562 14.9317 71.0657 14.8274 71.5639 15.3893L75.8797 20.2554C76.3779 20.8173 77.2874 20.7073 77.6407 20.0469L80.6936 14.3118C81.047 13.6456 81.9565 13.5414 82.4547 14.1033L86.7704 18.9694C87.2686 19.5313 88.1781 19.427 88.5315 18.7608L91.5901 13.02C91.9435 12.3538 92.853 12.2496 93.3512 12.8115L97.6611 17.6775C98.1593 18.2395 99.0688 18.1352 99.4222 17.469L102.481 11.7282C102.834 11.062 103.744 10.9577 104.242 11.5196L108.54 16.3799C109.038 16.9418 109.948 16.8376 110.301 16.1714L113.36 10.4306C113.713 9.76438 114.623 9.6601 115.121 10.222L119.431 15.0881C119.929 15.65 120.839 15.5457 121.192 14.8795L124.251 9.13874C124.604 8.47255 125.514 8.36828 126.012 8.9302L130.322 13.7963C130.82 14.3582 131.729 14.2539 132.083 13.5877L135.141 7.84691C135.495 7.18073 136.404 7.07645 136.903 7.63837L141.212 12.4986C141.711 13.0606 142.62 12.9563 142.974 12.2901L145.1 8.29297L145.088 8.28718Z" fill="#151515"/>
<path d="M103.048 31.5668L65.6562 36.0056L66.2196 40.7515L103.611 36.3126L103.048 31.5668Z" fill="#151515"/>
<path d="M67.9785 54.3936L120.353 48.1836" stroke="#BBEBFF" stroke-width="0.579295" stroke-linecap="round" stroke-linejoin="round"/>
<path d="M67.0049 47.4419L138.779 38.9263" stroke="#BBEBFF" stroke-width="0.868942" stroke-linecap="round" stroke-linejoin="round"/>
<path d="M76.5054 127.564L148.286 119.049" stroke="#BBEBFF" stroke-width="0.868942" stroke-linecap="round" stroke-linejoin="round"/>
<path d="M69.0674 63.5926L121.447 57.3826" stroke="#BBEBFF" stroke-width="0.579295" stroke-linecap="round" stroke-linejoin="round"/>
<path d="M70.1621 72.7918L94.9385 69.8547" stroke="#BBEBFF" stroke-width="0.579295" stroke-linecap="round" stroke-linejoin="round"/>
<path d="M71.251 81.9911L113.835 76.9397" stroke="#BBEBFF" stroke-width="0.579295" stroke-linecap="round" stroke-linejoin="round"/>
<path d="M72.3462 91.1903L115.37 86.0867" stroke="#BBEBFF" stroke-width="0.579295" stroke-linecap="round" stroke-linejoin="round"/>
<path d="M73.4355 100.389L109.786 96.0793" stroke="#BBEBFF" stroke-width="0.579295" stroke-linecap="round" stroke-linejoin="round"/>
<path d="M74.5239 109.589L97.968 106.808" stroke="#BBEBFF" stroke-width="0.579295" stroke-linecap="round" stroke-linejoin="round"/>
<path d="M75.6191 118.788L111.524 114.53" stroke="#BBEBFF" stroke-width="0.579295" stroke-linecap="round" stroke-linejoin="round"/>
<path d="M80.6357 161.07L132.888 154.872" stroke="#BBEBFF" stroke-width="0.579295" stroke-linecap="round" stroke-linejoin="round"/>
<path d="M81.3481 167.113L108.001 163.95" stroke="#BBEBFF" stroke-width="0.579295" stroke-linecap="round" stroke-linejoin="round"/>
<path d="M128.59 47.2046L139.938 45.8606" stroke="#BBEBFF" stroke-width="0.579295" stroke-linecap="round" stroke-linejoin="round"/>
<path d="M129.679 56.4038L141.033 55.0598" stroke="#BBEBFF" stroke-width="0.579295" stroke-linecap="round" stroke-linejoin="round"/>
<path d="M131.886 65.4698L142.122 64.259" stroke="#BBEBFF" stroke-width="0.579295" stroke-linecap="round" stroke-linejoin="round"/>
<path d="M133.016 75.022L143.258 73.8113" stroke="#BBEBFF" stroke-width="0.579295" stroke-linecap="round" stroke-linejoin="round"/>
<path d="M134.979 83.7637L144.306 82.6572" stroke="#BBEBFF" stroke-width="0.579295" stroke-linecap="round" stroke-linejoin="round"/>
<path d="M137.517 92.7889L145.395 91.8562" stroke="#BBEBFF" stroke-width="0.579295" stroke-linecap="round" stroke-linejoin="round"/>
<path d="M141.41 101.658L146.49 101.056" stroke="#BBEBFF" stroke-width="0.579295" stroke-linecap="round" stroke-linejoin="round"/>
<path d="M139.799 111.176L147.579 110.255" stroke="#BBEBFF" stroke-width="0.579295" stroke-linecap="round" stroke-linejoin="round"/>
<path d="M147.401 131.248L121.072 134.373C119.791 134.525 118.877 135.686 119.029 136.967L119.329 139.498C119.481 140.778 120.642 141.693 121.923 141.541L148.252 138.415C149.532 138.263 150.447 137.102 150.295 135.822L149.995 133.291C149.843 132.01 148.681 131.096 147.401 131.248Z" fill="#151515"/>
</g>
<path d="M159.27 19.8269C159.872 19.0854 161.233 19.4504 161.233 20.3483V163.764H161.216L156.634 158.139C156.205 157.612 155.29 157.612 154.861 158.139L151.148 162.681C150.719 163.208 149.804 163.208 149.375 162.681L145.668 158.145C145.239 157.618 144.324 157.618 143.895 158.145L140.199 162.681C139.771 163.208 138.855 163.208 138.427 162.681L134.713 158.139C134.285 157.612 133.369 157.612 132.941 158.139L129.222 162.681C128.793 163.208 127.878 163.202 127.449 162.681L123.753 158.145C123.324 157.618 122.409 157.618 121.981 158.145L118.285 162.681C117.856 163.208 116.941 163.208 116.512 162.681L112.793 158.139C112.364 157.612 111.449 157.618 111.02 158.139L107.307 162.681C106.878 163.208 105.963 163.208 105.534 162.681L101.838 158.145C101.41 157.618 100.494 157.618 100.066 158.145L96.3525 162.687C95.9238 163.214 95.0085 163.214 94.5799 162.687L90.8724 158.145C90.4437 157.618 89.5284 157.618 89.0997 158.145L85.3865 162.687C84.9578 163.214 84.0425 163.214 83.6138 162.687L79.9063 158.145C79.4777 157.618 78.5624 157.618 78.1337 158.145L74.4204 162.687C73.9917 163.214 73.0765 163.214 72.6478 162.687L68.9403 158.145C68.5116 157.618 67.5963 157.618 67.1677 158.145L64.5898 161.308C63.9873 162.049 62.626 161.685 62.626 160.787V18.5351C62.626 18.1759 63.1705 18.0311 63.4138 18.3265L67.2256 22.9898C67.6543 23.517 68.5695 23.517 68.9982 22.9898L72.6941 18.454C73.1228 17.9268 74.0381 17.9268 74.4668 18.454L78.1858 22.9956C78.6145 23.5228 79.5298 23.517 79.9585 22.9956L83.6544 18.4598C84.083 17.9326 84.9983 17.9326 85.427 18.4598L89.1403 23.0014C89.569 23.5286 90.4843 23.5286 90.9129 23.0014L94.6204 18.4598C95.0491 17.9326 95.9644 17.9326 96.3931 18.4598L100.106 23.0014C100.535 23.5286 101.45 23.5286 101.879 23.0014L105.592 18.4598C106.021 17.9326 106.936 17.9326 107.365 18.4598L111.072 23.0014C111.501 23.5286 112.416 23.5286 112.845 23.0014L116.558 18.4598C116.987 17.9326 117.902 17.9326 118.331 18.4598L122.027 22.9956C122.456 23.5228 123.371 23.5228 123.799 22.9956L127.513 18.454C127.941 17.9268 128.857 17.9268 129.285 18.454L132.993 22.9956C133.422 23.5228 134.337 23.5228 134.766 22.9956L138.479 18.454C138.907 17.9268 139.823 17.9268 140.251 18.454L143.959 22.9956C144.388 23.5228 145.303 23.5228 145.732 22.9956L149.445 18.454C149.874 17.9268 150.789 17.9268 151.217 18.454L154.925 22.9956C155.354 23.5228 156.269 23.5228 156.698 22.9956L159.275 19.8327L159.27 19.8269Z" fill="#EDEDED"/>
<path d="M114.774 35.2881H77.1196V39.3547H114.774V35.2881Z" fill="#BBEBFF"/>
<path d="M77.2642 51.0452H130.009" stroke="#BBEBFF" stroke-width="0.579295" stroke-linecap="round" stroke-linejoin="round"/>
<path d="M77.1196 45.0728H149.398" stroke="#BBEBFF" stroke-width="0.868942" stroke-linecap="round" stroke-linejoin="round"/>
<path d="M77.1196 113.696H149.398" stroke="#BBEBFF" stroke-width="0.868942" stroke-linecap="round" stroke-linejoin="round"/>
<path d="M77.2642 58.9236H130.009" stroke="#BBEBFF" stroke-width="0.579295" stroke-linecap="round" stroke-linejoin="round"/>
<path d="M77.2642 66.8018H102.22" stroke="#BBEBFF" stroke-width="0.579295" stroke-linecap="round" stroke-linejoin="round"/>
<path d="M77.2642 74.686H120.149" stroke="#BBEBFF" stroke-width="0.579295" stroke-linecap="round" stroke-linejoin="round"/>
<path d="M77.2642 82.5645H120.595" stroke="#BBEBFF" stroke-width="0.579295" stroke-linecap="round" stroke-linejoin="round"/>
<path d="M77.2642 90.4429H113.876" stroke="#BBEBFF" stroke-width="0.579295" stroke-linecap="round" stroke-linejoin="round"/>
<path d="M77.2642 98.3213H100.876" stroke="#BBEBFF" stroke-width="0.579295" stroke-linecap="round" stroke-linejoin="round"/>
<path d="M77.2642 106.199H113.424" stroke="#BBEBFF" stroke-width="0.579295" stroke-linecap="round" stroke-linejoin="round"/>
<path d="M77.2642 142.417H129.887" stroke="#BBEBFF" stroke-width="0.579295" stroke-linecap="round" stroke-linejoin="round"/>
<path d="M77.2642 147.59H104.109" stroke="#BBEBFF" stroke-width="0.579295" stroke-linecap="round" stroke-linejoin="round"/>
<path d="M138.305 51.0452H149.735" stroke="#BBEBFF" stroke-width="0.579295" stroke-linecap="round" stroke-linejoin="round"/>
<path d="M138.305 58.9236H149.735" stroke="#BBEBFF" stroke-width="0.579295" stroke-linecap="round" stroke-linejoin="round"/>
<path d="M139.422 66.8018H149.734" stroke="#BBEBFF" stroke-width="0.579295" stroke-linecap="round" stroke-linejoin="round"/>
<path d="M139.422 74.9873H149.734" stroke="#BBEBFF" stroke-width="0.579295" stroke-linecap="round" stroke-linejoin="round"/>
<path d="M140.344 82.5645H149.735" stroke="#BBEBFF" stroke-width="0.579295" stroke-linecap="round" stroke-linejoin="round"/>
<path d="M141.798 90.4429H149.734" stroke="#BBEBFF" stroke-width="0.579295" stroke-linecap="round" stroke-linejoin="round"/>
<path d="M144.619 98.3213H149.734" stroke="#BBEBFF" stroke-width="0.579295" stroke-linecap="round" stroke-linejoin="round"/>
<path d="M141.896 106.199H149.734" stroke="#BBEBFF" stroke-width="0.579295" stroke-linecap="round" stroke-linejoin="round"/>
<path d="M147.064 123.926H120.549C119.26 123.926 118.215 124.971 118.215 126.261V127.732C118.215 129.021 119.26 130.067 120.549 130.067H147.064C148.353 130.067 149.398 129.021 149.398 127.732V126.261C149.398 124.971 148.353 123.926 147.064 123.926Z" fill="#BBEBFF"/>
<path d="M141.143 6.13211C141.642 5.19944 143.043 5.46012 143.171 6.50865L163.186 173.931H163.168L157.833 167.912C157.335 167.35 156.425 167.454 156.072 168.12L153.019 173.861C152.666 174.527 151.756 174.631 151.258 174.07L146.948 169.209C146.45 168.647 145.54 168.757 145.187 169.418L142.151 175.153C141.798 175.819 140.888 175.929 140.39 175.367L136.069 170.507C135.571 169.945 134.661 170.055 134.308 170.715L131.249 176.462C130.896 177.128 129.986 177.233 129.488 176.671L125.184 171.816C124.686 171.254 123.776 171.358 123.423 172.025L120.387 177.76C120.034 178.426 119.13 178.536 118.626 177.974L114.299 173.114C113.801 172.552 112.891 172.662 112.538 173.322L109.485 179.063C109.132 179.729 108.222 179.834 107.724 179.272L103.42 174.411C102.922 173.849 102.012 173.954 101.659 174.62L98.6058 180.361C98.2524 181.027 97.3429 181.131 96.8447 180.569L92.529 175.709C92.0308 175.147 91.1213 175.257 90.7679 175.918L87.715 181.658C87.3617 182.325 86.4522 182.429 85.954 181.867L81.6382 177.007C81.14 176.445 80.2305 176.555 79.8772 177.215L76.8243 182.956C76.4709 183.622 75.5614 183.726 75.0632 183.165L70.7533 178.304C70.2551 177.742 69.3456 177.852 68.9922 178.513L66.872 182.51C66.3738 183.443 64.9719 183.182 64.8445 182.133L45.0036 16.096C44.9515 15.6789 45.4729 15.4414 45.7567 15.76L50.1941 20.7477C50.6923 21.3096 51.6018 21.2053 51.9552 20.5392L54.9907 14.8041C55.344 14.138 56.2477 14.0279 56.7517 14.5898L61.0791 19.4501C61.5773 20.012 62.4867 19.9019 62.8401 19.2357L65.8814 13.5007C66.2348 12.8345 67.1443 12.7245 67.6425 13.2864L71.964 18.1467C72.4622 18.7086 73.3717 18.5985 73.7251 17.9381L76.7722 12.1973C77.1255 11.5311 78.0292 11.4211 78.5332 11.9888L82.8547 16.8491C83.3529 17.411 84.2624 17.3009 84.6158 16.6405L87.6687 10.8997C88.022 10.2335 88.9315 10.1292 89.4297 10.6912L93.7455 15.5514C94.2437 16.1134 95.1532 16.0033 95.5065 15.3429L98.5594 9.60208C98.9128 8.93589 99.8223 8.83162 100.32 9.39353L104.625 14.2538C105.123 14.8157 106.032 14.7115 106.386 14.0453L109.439 8.30446C109.792 7.63827 110.701 7.534 111.2 8.09591L115.515 12.9562C116.014 13.5181 116.923 13.408 117.276 12.7476L120.329 7.00684C120.683 6.34065 121.592 6.23638 122.09 6.7983L126.406 11.6586C126.904 12.2205 127.814 12.1104 128.167 11.45L131.22 5.70922C131.573 5.04303 132.483 4.93876 132.981 5.50067L137.291 10.361C137.789 10.9229 138.699 10.8128 139.052 10.1524L141.172 6.15528L141.143 6.13211Z" fill="white"/>
<path d="M163.185 173.931H163.168L157.833 167.912C157.334 167.35 156.425 167.46 156.072 168.126L153.019 173.867C152.665 174.527 151.756 174.637 151.258 174.075L146.948 169.215C146.449 168.653 145.54 168.763 145.187 169.429L142.145 175.159C141.798 175.825 140.888 175.935 140.39 175.373L136.069 170.513C135.565 169.951 134.661 170.055 134.307 170.721L131.249 176.468C130.895 177.134 129.986 177.238 129.488 176.676L125.184 171.822C124.685 171.254 123.776 171.364 123.423 172.031L120.381 177.766C120.034 178.432 119.124 178.536 118.626 177.974L114.293 173.114C113.795 172.552 112.891 172.662 112.538 173.322L109.485 179.069C109.131 179.729 108.222 179.839 107.724 179.277L103.42 174.417C102.916 173.855 102.012 173.965 101.658 174.626L98.6056 180.367C98.2522 181.033 97.3427 181.143 96.8445 180.581L92.5288 175.721C92.0306 175.159 91.1211 175.263 90.7735 175.929L87.7148 181.67C87.3615 182.336 86.4578 182.44 85.9596 181.879L81.6438 177.018C81.1456 176.456 80.2361 176.566 79.8828 177.227L76.8299 182.973C76.4765 183.634 75.5728 183.744 75.0688 183.182L70.7589 178.322C70.2607 177.76 69.3512 177.87 68.9978 178.53L66.8776 182.533C66.3794 183.466 64.9775 183.205 64.8501 182.151L63.1875 168.242L63.9522 166.799C64.3055 166.139 65.215 166.029 65.7132 166.591L70.029 171.451C70.5272 172.013 71.4309 171.909 71.7842 171.243L74.8429 165.502C75.1905 164.836 76.1 164.731 76.5982 165.293L80.9139 170.154C81.4121 170.716 82.3216 170.605 82.675 169.939L85.7279 164.198C86.0812 163.538 86.9849 163.428 87.4889 163.99L91.7931 168.85C92.2913 169.412 93.2008 169.302 93.5541 168.642L96.607 162.895C96.9604 162.235 97.8641 162.125 98.3623 162.686L102.695 167.547C103.194 168.109 104.103 168.004 104.451 167.338L107.492 161.603C107.845 160.937 108.755 160.827 109.253 161.395L113.557 166.249C114.055 166.811 114.965 166.707 115.318 166.041L118.377 160.294C118.73 159.628 119.634 159.524 120.138 160.085L124.459 164.946C124.958 165.508 125.867 165.398 126.215 164.731L129.256 159.002C129.609 158.336 130.519 158.226 131.017 158.788L135.327 163.648C135.825 164.21 136.735 164.1 137.088 163.44L140.141 157.699C140.494 157.033 141.404 156.923 141.902 157.484L147.237 163.509H147.255L128.903 9.99604L131.191 5.69188C131.544 5.0257 132.454 4.92142 132.952 5.48334L137.268 10.3436C137.766 10.9055 138.675 10.7955 139.029 10.1293L141.149 6.13215C141.641 5.19949 143.049 5.46017 143.171 6.50869L163.185 173.931Z" fill="#F7F7F7"/>
<path d="M64.0801 52.3078L116.448 46.0457" stroke="#00B4FF" stroke-width="0.579295" stroke-miterlimit="10"/>
<path d="M63.0952 45.3504L134.864 36.771" stroke="#00B4FF" stroke-width="0.579295" stroke-miterlimit="10"/>
<path d="M72.6709 125.467L144.44 116.888" stroke="#00B4FF" stroke-width="0.579295" stroke-miterlimit="10"/>
<path d="M65.1802 61.5068L117.548 55.2446" stroke="#00B4FF" stroke-width="0.579295" stroke-miterlimit="10"/>
<path d="M66.2808 70.7062L91.0514 67.7402" stroke="#00B4FF" stroke-width="0.579295" stroke-miterlimit="10"/>
<path d="M67.376 79.8997L109.954 74.8135" stroke="#00B4FF" stroke-width="0.579295" stroke-miterlimit="10"/>
<path d="M68.4766 89.0987L111.501 83.9546" stroke="#00B4FF" stroke-width="0.579295" stroke-miterlimit="10"/>
<path d="M69.5771 98.2981L105.922 93.9534" stroke="#00B4FF" stroke-width="0.579295" stroke-miterlimit="10"/>
<path d="M70.6782 107.497L94.1165 104.694" stroke="#00B4FF" stroke-width="0.579295" stroke-miterlimit="10"/>
<path d="M71.7788 116.696L107.678 112.404" stroke="#00B4FF" stroke-width="0.579295" stroke-miterlimit="10"/>
<path d="M76.8301 158.973L129.077 152.729" stroke="#00B4FF" stroke-width="0.579295" stroke-miterlimit="10"/>
<path d="M77.5488 165.01L104.202 161.823" stroke="#00B4FF" stroke-width="0.579295" stroke-miterlimit="10"/>
<path d="M124.686 45.0606L136.034 43.7051" stroke="#00B4FF" stroke-width="0.579295" stroke-miterlimit="10"/>
<path d="M125.781 54.2603L137.135 52.9048" stroke="#00B4FF" stroke-width="0.579295" stroke-miterlimit="10"/>
<path d="M127.993 63.3263L138.229 62.104" stroke="#00B4FF" stroke-width="0.579295" stroke-miterlimit="10"/>
<path d="M129.134 72.8786L139.37 71.6562" stroke="#00B4FF" stroke-width="0.579295" stroke-miterlimit="10"/>
<path d="M131.104 81.6144L140.431 80.4963" stroke="#00B4FF" stroke-width="0.579295" stroke-miterlimit="10"/>
<path d="M133.653 90.6398L141.531 89.6956" stroke="#00B4FF" stroke-width="0.579295" stroke-miterlimit="10"/>
<path d="M137.552 99.5028L142.632 98.8945" stroke="#00B4FF" stroke-width="0.579295" stroke-miterlimit="10"/>
<path d="M135.947 109.021L143.727 108.094" stroke="#00B4FF" stroke-width="0.579295" stroke-miterlimit="10"/>
<path d="M143.562 129.093L117.235 132.242C115.955 132.395 115.041 133.557 115.194 134.837L115.497 137.368C115.65 138.648 116.812 139.562 118.092 139.409L144.419 136.26C145.699 136.107 146.613 134.945 146.46 133.665L146.157 131.134C146.004 129.854 144.842 128.94 143.562 129.093Z" fill="#00B4FF"/>
<path d="M62.8865 40.3913C62.5641 40.4277 62.2696 40.4212 62.0029 40.372C61.7357 40.3182 61.4732 40.2032 61.2155 40.027C61.1499 39.9831 61.0974 39.9307 61.0579 39.8699C61.0184 39.8091 60.995 39.7464 60.9877 39.6819C60.9758 39.576 61.0022 39.4798 61.0671 39.3932C61.1361 39.3014 61.2281 39.2491 61.3432 39.2361C61.4307 39.2263 61.5121 39.2451 61.5874 39.2925C61.7785 39.4156 61.9634 39.5043 62.1421 39.5588C62.3254 39.6128 62.5437 39.6255 62.797 39.597C62.9674 39.5777 63.1211 39.5348 63.2582 39.468C63.3947 39.3967 63.5018 39.3123 63.5794 39.215C63.6565 39.113 63.6886 39.0044 63.6756 38.8893C63.6601 38.7512 63.6054 38.6384 63.5116 38.551C63.4178 38.4637 63.2821 38.3973 63.1044 38.3521C62.9262 38.3022 62.7038 38.2736 62.4372 38.2664C62.1843 38.2576 61.9594 38.227 61.7622 38.1745C61.5646 38.1175 61.3948 38.0387 61.2529 37.9381C61.1151 37.8324 61.0051 37.7049 60.923 37.5556C60.8403 37.4017 60.7879 37.2257 60.7655 37.0277C60.7318 36.7283 60.779 36.4642 60.9071 36.2352C61.0398 36.0057 61.2312 35.8209 61.4812 35.6808C61.7312 35.5407 62.0151 35.4528 62.3329 35.4169C62.6322 35.3832 62.9137 35.3981 63.1774 35.4617C63.4452 35.5201 63.6674 35.6093 63.8442 35.7293C63.9897 35.8202 64.0702 35.9347 64.0858 36.0729C64.0972 36.1742 64.0684 36.2707 63.9995 36.3624C63.9305 36.4541 63.8431 36.506 63.7372 36.5179C63.6681 36.5257 63.6036 36.512 63.5436 36.4767C63.4627 36.4206 63.3569 36.3719 63.2264 36.3306C63.0953 36.2848 62.9586 36.2512 62.8163 36.2299C62.6734 36.204 62.5422 36.1979 62.4224 36.2113C62.2244 36.2337 62.0592 36.2779 61.9267 36.3442C61.7989 36.4099 61.7054 36.4904 61.6461 36.5857C61.5869 36.6809 61.5638 36.7861 61.5768 36.9013C61.5923 37.0394 61.6445 37.1501 61.7331 37.2334C61.8259 37.3116 61.9514 37.3697 62.1096 37.4079C62.2672 37.4414 62.4543 37.4669 62.6708 37.4845C62.9529 37.504 63.2014 37.5367 63.4164 37.5824C63.636 37.6276 63.8211 37.6977 63.9718 37.7926C64.1219 37.883 64.2408 38.0071 64.3285 38.1651C64.4158 38.3185 64.4726 38.5127 64.4991 38.7475C64.5328 39.0469 64.479 39.3141 64.3376 39.5492C64.1962 39.7844 63.9962 39.9748 63.7374 40.1206C63.4833 40.2658 63.1997 40.3561 62.8865 40.3913ZM65.0099 36.4094L66.647 36.2249C66.7576 36.2125 66.8538 36.2389 66.9358 36.3043C67.0178 36.3697 67.065 36.4576 67.0775 36.5682C67.0894 36.6741 67.0627 36.768 66.9973 36.85C66.9314 36.9274 66.8432 36.9723 66.7327 36.9848L65.0955 37.1693C64.985 37.1817 64.8887 37.1553 64.8067 37.0899C64.7248 37.0245 64.6775 36.9366 64.6651 36.8261C64.6531 36.7201 64.6801 36.6285 64.746 36.5511C64.8114 36.4691 64.8994 36.4219 65.0099 36.4094ZM65.6517 35.4627C65.7714 35.4492 65.8728 35.4797 65.9558 35.5543C66.043 35.6238 66.0933 35.7184 66.1067 35.8381L66.4532 38.9121C66.4604 38.9766 66.4779 39.0282 66.5056 39.0671C66.5379 39.1054 66.5758 39.1314 66.6194 39.1452C66.6675 39.1584 66.7169 39.1622 66.7675 39.1565C66.8228 39.1502 66.8724 39.1353 66.9164 39.1117C66.9599 39.0835 67.0115 39.066 67.0714 39.0593C67.1359 39.052 67.1968 39.0755 67.2542 39.1296C67.3162 39.1832 67.3532 39.263 67.3651 39.3689C67.3797 39.4979 67.3202 39.6119 67.1868 39.7108C67.058 39.8093 66.913 39.8676 66.7518 39.8858C66.6551 39.8967 66.5461 39.902 66.4248 39.9016C66.3076 39.8962 66.1926 39.8695 66.08 39.8216C65.9714 39.7685 65.8753 39.6814 65.7917 39.5603C65.7081 39.4391 65.6536 39.2657 65.6281 39.04L65.2778 35.9315C65.2643 35.8118 65.2923 35.7084 65.3618 35.6213C65.4353 35.529 65.532 35.4762 65.6517 35.4627ZM68.6181 39.6754C68.4984 39.6889 68.395 39.661 68.3079 39.5915C68.2202 39.5174 68.1697 39.4205 68.1562 39.3008L67.8347 36.4479C67.8212 36.3281 67.8492 36.2247 67.9186 36.1376C67.9876 36.0459 68.0819 35.9933 68.2016 35.9798C68.3214 35.9663 68.4251 35.9966 68.5127 36.0706C68.5998 36.1401 68.6501 36.2347 68.6636 36.3544L68.7368 37.0038L68.6363 36.5464C68.6745 36.4302 68.728 36.3262 68.797 36.2345C68.87 36.1376 68.9541 36.0559 69.0492 35.9892C69.1437 35.9179 69.247 35.862 69.359 35.8214C69.4711 35.7807 69.5846 35.754 69.6998 35.741C69.8379 35.7254 69.9575 35.7516 70.0584 35.8195C70.1639 35.8869 70.2227 35.9735 70.2346 36.0795C70.2517 36.2314 70.225 36.3464 70.1545 36.4243C70.0835 36.4976 70.0019 36.5394 69.9098 36.5498C69.8223 36.5596 69.7399 36.5526 69.6626 36.5287C69.5899 36.5042 69.5075 36.4972 69.4154 36.5076C69.3325 36.5169 69.2496 36.5472 69.1668 36.5985C69.0881 36.6447 69.0165 36.7134 68.9522 36.8046C68.8924 36.8953 68.8466 37.0054 68.8145 37.1349C68.7866 37.2593 68.7819 37.4044 68.8006 37.5702L68.9851 39.2074C68.9986 39.3271 68.9709 39.4328 68.9019 39.5245C68.8325 39.6117 68.7379 39.662 68.6181 39.6754ZM73.5248 35.3799C73.6445 35.3664 73.7482 35.3967 73.8358 35.4707C73.9229 35.5402 73.9732 35.6348 73.9867 35.7545L74.1845 37.5091C74.2395 37.9973 74.1472 38.3994 73.9077 38.7156C73.6682 39.0317 73.2928 39.2186 72.7816 39.2762C72.2704 39.3338 71.8629 39.2352 71.559 38.9802C71.2597 38.7248 71.0826 38.353 71.0276 37.8649L70.8298 36.1103C70.8164 35.9906 70.8443 35.8871 70.9138 35.8C70.9828 35.7083 71.0771 35.6557 71.1968 35.6422C71.3166 35.6287 71.4202 35.659 71.5079 35.7331C71.595 35.8026 71.6453 35.8972 71.6588 36.0169L71.8565 37.7715C71.8882 38.0524 71.974 38.2549 72.1139 38.3791C72.2533 38.4986 72.4473 38.5444 72.696 38.5163C72.9493 38.4878 73.1306 38.3997 73.2398 38.2522C73.3486 38.1 73.3872 37.8835 73.3555 37.6025L73.1578 35.848C73.1443 35.7282 73.1723 35.6248 73.2417 35.5377C73.3107 35.446 73.405 35.3934 73.5248 35.3799ZM75.7367 38.8732C75.617 38.8867 75.5135 38.8587 75.4264 38.7892C75.3388 38.7152 75.2882 38.6183 75.2747 38.4985L74.7936 34.2295C74.7801 34.1098 74.8081 34.0064 74.8776 33.9192C74.9465 33.8275 75.0409 33.7749 75.1606 33.7614C75.2803 33.7479 75.384 33.7782 75.4716 33.8523C75.5588 33.9218 75.6091 34.0164 75.6226 34.1361L76.1037 38.4051C76.1172 38.5249 76.0894 38.6306 76.0205 38.7223C75.951 38.8094 75.8564 38.8597 75.7367 38.8732ZM77.5169 34.93C77.6228 34.918 77.7198 34.9514 77.808 35.0301C77.8961 35.1087 77.9449 35.1895 77.9542 35.2724C77.9667 35.383 77.9231 35.4928 77.8235 35.602L75.9599 37.7498L75.8179 36.8004L77.2277 35.0955C77.3054 34.9981 77.4017 34.9429 77.5169 34.93ZM78.0362 38.6071C77.9165 38.6205 77.81 38.5859 77.7167 38.5032L76.2862 37.2932L76.8494 36.6421L78.2454 37.8559C78.3433 37.9382 78.3987 38.0369 78.4117 38.152C78.4251 38.2717 78.388 38.3762 78.3001 38.4654C78.2163 38.5495 78.1283 38.5967 78.0362 38.6071Z" fill="#00B4FF"/>
</g>
<defs>
<clipPath id="clip0_415_12225">
<rect width="198" height="190" fill="white"/>
</clipPath>
</defs>
</svg>
