<svg width="245" height="213" viewBox="0 0 245 213" fill="none" xmlns="http://www.w3.org/2000/svg">
<g style="mix-blend-mode:luminosity" clip-path="url(#clip0_415_10388)">
<path d="M54.1978 73.7572C51.6758 55.8566 38.1732 50.0133 41.8906 38.5323C48.6444 17.665 99.5629 17.5397 107.87 17.4946C134.835 17.4144 178.576 17.2891 196.507 48.3145C204.769 62.6119 192.704 71.1062 197.985 107.514C201.117 129.123 205.627 131.734 203.402 141.27C196.679 170.056 147.415 181.256 140.353 182.865C87.7752 194.817 21.3164 178.154 16.2725 151.063C11.7784 126.828 59.2014 109.248 54.1978 73.7572Z" fill="#E3EEFF"/>
<path d="M27.2735 112.213C25.0957 106.671 14.0006 78.3994 24.341 61.1985C30.3486 51.2125 37.8955 54.3436 52.5651 43.1939C72.5364 28.013 69.7541 13.6796 84.1046 5.04176C103.193 -6.46361 135.225 2.63968 144.585 23.0463C153.634 42.7767 135.075 59.0994 143.834 88.2098C150.439 110.114 164.23 111.774 163.997 125.936C163.655 146.36 134.575 166.885 108.281 169.665C72.4613 173.455 39.9531 144.498 27.2735 112.213Z" fill="#C4DBFB"/>
<path d="M41.5004 29.7905C42.0584 27.4416 40.5942 25.088 38.2301 24.5336C35.8659 23.9792 33.497 25.4339 32.939 27.7828C32.3811 30.1317 33.8452 32.4853 36.2094 33.0397C38.5736 33.5941 40.9424 32.1394 41.5004 29.7905Z" fill="#C4DBFB"/>
<path d="M31.4292 54.8743C35.8361 54.8743 39.4087 51.3248 39.4087 46.9463C39.4087 42.5678 35.8361 39.0183 31.4292 39.0183C27.0222 39.0183 23.4497 42.5678 23.4497 46.9463C23.4497 51.3248 27.0222 54.8743 31.4292 54.8743Z" fill="#C4DBFB"/>
<path d="M36.3016 34.9893C38.7307 34.9893 40.6999 33.0329 40.6999 30.6194C40.6999 28.206 38.7307 26.2495 36.3016 26.2495C33.8725 26.2495 31.9033 28.206 31.9033 30.6194C31.9033 33.0329 33.8725 34.9893 36.3016 34.9893Z" fill="#C4DBFB"/>
<path d="M38.1424 162.724C40.5716 162.724 42.5407 160.767 42.5407 158.354C42.5407 155.941 40.5716 153.984 38.1424 153.984C35.7133 153.984 33.7441 155.941 33.7441 158.354C33.7441 160.767 35.7133 162.724 38.1424 162.724Z" fill="#C4DBFB"/>
<path d="M213.694 87.7775C214.252 85.4286 212.788 83.075 210.424 82.5206C208.06 81.9663 205.691 83.421 205.133 85.7699C204.575 88.1188 206.039 90.4724 208.403 91.0268C210.767 91.5812 213.136 90.1264 213.694 87.7775Z" fill="#C4DBFB"/>
<path d="M33.1993 134.234L34.8588 132.586C35.0308 132.404 35.1249 132.164 35.1213 131.915C35.1176 131.666 35.0164 131.428 34.8392 131.252C34.662 131.076 34.4226 130.975 34.172 130.972C33.9214 130.968 33.6792 131.062 33.4969 131.232L31.8375 132.881L30.178 131.232C29.9974 131.052 29.7522 130.951 29.4963 130.95C29.2405 130.95 28.9949 131.051 28.8136 131.23C28.6324 131.409 28.5303 131.653 28.5298 131.907C28.5293 132.161 28.6305 132.405 28.8111 132.586L30.4705 134.234L28.8161 135.883C28.7262 135.972 28.6547 136.077 28.606 136.193C28.5573 136.309 28.5322 136.434 28.5322 136.56C28.5322 136.685 28.5573 136.81 28.606 136.926C28.6547 137.042 28.7262 137.148 28.8161 137.236C28.9968 137.415 29.2417 137.516 29.4971 137.516C29.7524 137.516 29.9974 137.415 30.178 137.236L31.8375 135.592L33.4919 137.236C33.5819 137.326 33.6888 137.396 33.8066 137.445C33.9243 137.493 34.0505 137.517 34.1778 137.517C34.3045 137.518 34.43 137.493 34.547 137.445C34.664 137.397 34.77 137.326 34.8588 137.236C34.9487 137.148 35.0202 137.042 35.0689 136.926C35.1177 136.81 35.1428 136.685 35.1428 136.56C35.1428 136.434 35.1177 136.309 35.0689 136.193C35.0202 136.077 34.9487 135.972 34.8588 135.883L33.1993 134.234Z" fill="#3A81F3"/>
<path d="M204.552 124.242L206.212 122.593C206.392 122.413 206.493 122.169 206.493 121.915C206.492 121.661 206.39 121.417 206.209 121.237C206.028 121.058 205.782 120.958 205.526 120.958C205.27 120.958 205.025 121.06 204.845 121.24L203.185 122.889L201.526 121.24C201.343 121.069 201.101 120.976 200.851 120.979C200.6 120.983 200.361 121.083 200.183 121.259C200.006 121.436 199.905 121.673 199.901 121.922C199.898 122.171 199.992 122.412 200.164 122.593L201.823 124.242L200.164 125.891C200.074 125.979 200.002 126.084 199.954 126.201C199.905 126.317 199.88 126.441 199.88 126.567C199.88 126.693 199.905 126.817 199.954 126.934C200.002 127.05 200.074 127.155 200.164 127.244C200.253 127.333 200.359 127.405 200.476 127.453C200.593 127.501 200.718 127.525 200.845 127.524C200.972 127.525 201.098 127.5 201.216 127.452C201.334 127.404 201.441 127.333 201.531 127.244L203.185 125.6L204.845 127.244C205.025 127.423 205.27 127.524 205.526 127.524C205.781 127.524 206.026 127.423 206.206 127.244C206.296 127.155 206.368 127.05 206.417 126.934C206.465 126.817 206.49 126.693 206.49 126.567C206.49 126.441 206.465 126.317 206.417 126.201C206.368 126.084 206.296 125.979 206.206 125.891L204.552 124.242Z" fill="#3A81F3"/>
<path d="M169.265 5.92833L171.005 4.36479C171.175 4.18908 171.271 3.95614 171.274 3.71286C171.278 3.46959 171.188 3.23404 171.024 3.05364C170.859 2.87324 170.632 2.76138 170.389 2.74059C170.145 2.71979 169.902 2.7916 169.709 2.94156L167.969 4.51012L166.395 2.78119C166.31 2.68774 166.208 2.6118 166.093 2.5577C165.979 2.5036 165.855 2.4724 165.729 2.46589C165.602 2.45937 165.476 2.47767 165.356 2.51973C165.237 2.56179 165.127 2.6268 165.033 2.71103C164.939 2.79527 164.863 2.89709 164.808 3.01068C164.754 3.12426 164.722 3.2474 164.716 3.37304C164.709 3.49868 164.728 3.62438 164.77 3.74295C164.812 3.86153 164.878 3.97065 164.963 4.0641L166.536 5.79804L164.801 7.35657C164.706 7.44037 164.629 7.54203 164.574 7.65565C164.519 7.76927 164.488 7.89258 164.481 8.01845C164.475 8.14431 164.493 8.27022 164.536 8.38887C164.579 8.50752 164.645 8.61655 164.73 8.70964C164.815 8.80379 164.917 8.88024 165.031 8.93447C165.146 8.98869 165.27 9.0196 165.396 9.02536C165.523 9.03221 165.65 9.01403 165.769 8.97188C165.889 8.92973 165.998 8.86444 166.092 8.7798L167.833 7.21625L169.401 8.94517C169.576 9.1313 169.816 9.24419 170.072 9.26089C170.262 9.26882 170.451 9.2208 170.614 9.12284C170.777 9.02488 170.907 8.88133 170.988 8.71016C171.07 8.53899 171.098 8.3478 171.071 8.16052C171.043 7.97324 170.961 7.79818 170.834 7.65725L169.265 5.92833Z" fill="#3A81F3"/>
<path d="M36.3521 80.683L38.0116 79.0342C38.1922 78.8542 38.2933 78.6102 38.2929 78.3559C38.2924 78.1017 38.1903 77.8581 38.009 77.6787C37.8278 77.4992 37.5822 77.3987 37.3263 77.3992C37.0705 77.3996 36.8253 77.5011 36.6447 77.6812L34.9852 79.3299L33.3258 77.6762C33.1434 77.5053 32.9013 77.4117 32.6506 77.4154C32.4 77.419 32.1607 77.5195 31.9835 77.6956C31.8062 77.8717 31.7051 78.1095 31.7014 78.3585C31.6977 78.6075 31.7919 78.8481 31.9639 79.0292L33.6233 80.678L31.9639 82.3267C31.7846 82.5068 31.6841 82.7499 31.6841 83.0032C31.6841 83.2566 31.7846 83.4997 31.9639 83.6798C32.1454 83.8594 32.3912 83.9603 32.6474 83.9603C32.9035 83.9603 33.1493 83.8594 33.3308 83.6798L34.9852 82.036L36.6447 83.6798C36.827 83.8507 37.0692 83.9442 37.3198 83.9406C37.5704 83.937 37.8097 83.8364 37.9869 83.6603C38.1642 83.4842 38.2654 83.2465 38.269 82.9975C38.2727 82.7485 38.1785 82.5079 38.0065 82.3267L36.3521 80.683Z" fill="#3A81F3"/>
<path d="M18.2798 126.021C18.364 126.156 18.4198 126.306 18.4441 126.463C18.4684 126.619 18.4605 126.779 18.4211 126.933C18.3712 127.138 18.2674 127.327 18.1203 127.479C17.9732 127.631 17.7881 127.742 17.5838 127.8L13.5486 128.978C13.3449 129.036 13.1293 129.041 12.9234 128.99C12.7175 128.94 12.5284 128.837 12.3752 128.691C12.222 128.546 12.1099 128.363 12.0503 128.161C11.9907 127.958 11.9856 127.744 12.0354 127.539L13.0442 123.46C13.0945 123.254 13.1986 123.065 13.3459 122.912C13.4933 122.759 13.6787 122.648 13.8835 122.589C14.0882 122.53 14.305 122.525 14.5119 122.576C14.7188 122.627 14.9085 122.732 15.0618 122.879L18.1134 125.78C18.179 125.853 18.2349 125.934 18.2798 126.021ZM12.9736 127.955C12.9848 127.974 12.9984 127.991 13.014 128.005C13.0455 128.037 13.0853 128.06 13.129 128.07C13.1726 128.081 13.2184 128.079 13.2611 128.066L17.2963 126.893C17.3398 126.88 17.3793 126.857 17.4107 126.824C17.442 126.792 17.4642 126.752 17.475 126.708C17.4857 126.664 17.4847 126.618 17.4719 126.575C17.4591 126.532 17.4351 126.493 17.4022 126.462L14.3506 123.565C14.3188 123.534 14.2791 123.511 14.2356 123.5C14.1921 123.489 14.1464 123.49 14.1032 123.502C14.06 123.514 14.0209 123.538 13.9899 123.57C13.9589 123.602 13.9372 123.642 13.9269 123.686L12.9181 127.76C12.9151 127.796 12.9203 127.832 12.9334 127.866C12.9465 127.9 12.9672 127.931 12.9938 127.955H12.9736Z" fill="#F9C067"/>
<path d="M74.6 5.51251C74.684 5.64825 74.7398 5.79934 74.764 5.95685C74.7883 6.11436 74.7805 6.27511 74.7412 6.42959C74.6932 6.63486 74.5907 6.82359 74.4443 6.97608C74.298 7.12857 74.1131 7.23925 73.909 7.29656L69.8738 8.46922C69.6701 8.5278 69.4545 8.5322 69.2486 8.48197C69.0427 8.43174 68.8536 8.32864 68.7004 8.183C68.5472 8.03736 68.4351 7.85429 68.3755 7.65211C68.3159 7.44992 68.3108 7.23572 68.3606 7.03096L69.3694 2.95672C69.4199 2.75126 69.5238 2.56258 69.6708 2.40955C69.8177 2.25653 70.0025 2.14452 70.2067 2.08474C70.4105 2.02418 70.6268 2.01872 70.8334 2.06893C71.04 2.11914 71.2293 2.22321 71.3819 2.37039L74.4083 5.27197C74.4805 5.34528 74.5447 5.4259 74.6 5.51251ZM69.2938 7.46695C69.3049 7.48821 69.3204 7.50697 69.3392 7.52207C69.3713 7.55296 69.4111 7.57481 69.4545 7.58538C69.498 7.59595 69.5434 7.59485 69.5863 7.58221L73.6215 6.40454C73.665 6.39293 73.7046 6.36993 73.7362 6.33794C73.7678 6.30594 73.7901 6.26612 73.801 6.22262C73.8118 6.17912 73.8107 6.13353 73.7977 6.09061C73.7848 6.04769 73.7605 6.009 73.7274 5.97857L70.6758 3.07699C70.6424 3.04652 70.6017 3.02502 70.5575 3.0145C70.5134 3.00398 70.4673 3.00479 70.4236 3.01685C70.3804 3.02968 70.3414 3.05356 70.3104 3.0861C70.2794 3.11864 70.2576 3.15871 70.2471 3.20227L69.2383 7.27651C69.2337 7.31034 69.2363 7.34475 69.2458 7.37754C69.2554 7.41033 69.2717 7.44078 69.2938 7.46695Z" fill="#F9C067"/>
<path d="M204.345 170.211C204.203 170.33 204.036 170.415 203.856 170.459C203.675 170.504 203.487 170.507 203.306 170.467C203.125 170.428 202.955 170.348 202.81 170.233C202.664 170.118 202.548 169.972 202.469 169.805L200.673 166.006C200.583 165.816 200.545 165.604 200.563 165.394C200.581 165.184 200.654 164.983 200.775 164.81C200.896 164.637 201.061 164.498 201.253 164.408C201.445 164.318 201.657 164.28 201.868 164.298L206.08 164.653C206.292 164.67 206.496 164.743 206.67 164.863C206.845 164.984 206.984 165.148 207.074 165.339C207.165 165.531 207.202 165.742 207.184 165.953C207.165 166.163 207.09 166.365 206.968 166.538L204.557 169.98C204.498 170.067 204.427 170.145 204.345 170.211ZM201.601 165.3L201.556 165.35C201.533 165.389 201.521 165.433 201.521 165.478C201.521 165.523 201.533 165.567 201.556 165.605L203.351 169.404C203.37 169.445 203.4 169.48 203.437 169.506C203.474 169.531 203.518 169.546 203.563 169.549C203.607 169.554 203.652 169.545 203.692 169.526C203.732 169.507 203.766 169.477 203.79 169.439L206.206 165.996C206.229 165.959 206.242 165.915 206.242 165.871C206.242 165.827 206.229 165.784 206.206 165.746C206.188 165.705 206.16 165.67 206.123 165.644C206.087 165.618 206.044 165.603 205.999 165.6L201.788 165.245C201.754 165.241 201.721 165.244 201.689 165.254C201.657 165.263 201.627 165.279 201.601 165.3Z" fill="#F9C067"/>
<path d="M204.204 63.7295C204.157 63.8817 204.08 64.0228 203.977 64.1443C203.874 64.2658 203.747 64.3651 203.604 64.4361C203.415 64.5327 203.204 64.5781 202.993 64.5675C202.781 64.5569 202.576 64.4909 202.398 64.376L198.867 62.1008C198.689 61.9861 198.544 61.8268 198.448 61.639C198.351 61.4511 198.306 61.2413 198.316 61.0306C198.327 60.8199 198.394 60.6157 198.509 60.4385C198.624 60.2613 198.784 60.1173 198.973 60.0211L202.731 58.1017C202.92 58.0055 203.132 57.9605 203.344 57.9713C203.556 57.982 203.762 58.0481 203.94 58.1629C204.119 58.2777 204.264 58.4372 204.36 58.6252C204.457 58.8133 204.502 59.0234 204.491 59.2343L204.279 63.4238C204.27 63.5289 204.244 63.6319 204.204 63.7295ZM199.261 61.0083C199.259 61.0317 199.259 61.0551 199.261 61.0785C199.259 61.1233 199.27 61.1678 199.291 61.2074C199.312 61.2469 199.343 61.2803 199.382 61.304L202.913 63.5792C202.952 63.6016 202.996 63.6134 203.041 63.6134C203.086 63.6134 203.131 63.6016 203.17 63.5792C203.21 63.5599 203.244 63.53 203.268 63.4929C203.292 63.4558 203.305 63.4128 203.306 63.3687L203.518 59.1742C203.519 59.1299 203.51 59.0859 203.489 59.0465C203.469 59.007 203.439 58.9733 203.402 58.9487C203.362 58.9272 203.318 58.9159 203.273 58.9159C203.228 58.9159 203.184 58.9272 203.145 58.9487L199.387 60.863C199.327 60.8933 199.282 60.9455 199.261 61.0083Z" fill="#F9C067"/>
</g>
<g style="mix-blend-mode:luminosity">
<path d="M150.199 154.645C140.419 153.545 137.627 147.616 137.627 147.616L124.257 93.9907L119.844 95.1203L115.418 96.1945L128.788 149.82C128.788 149.82 129.098 156.368 120.987 161.928C112.868 167.49 97.4727 175.748 103.401 184.433C109.275 193.053 134.716 188.298 142.506 186.404C142.506 186.404 142.57 186.388 142.598 186.381C142.626 186.375 142.663 186.365 142.69 186.358C150.455 184.364 175.153 176.628 176.292 166.259C177.44 155.81 159.97 155.746 150.199 154.645Z" fill="#363636"/>
<path d="M211.855 40.2566C198.532 32.1807 155.654 34.3746 106.836 46.5464C58.0177 58.7182 18.3905 77.252 10.9465 90.6723L7.94253 88.883L9.84502 96.5134C13.1876 109.92 62.031 109.286 118.941 95.0972C175.851 80.9079 219.275 58.5365 215.932 45.1301L214.101 37.7857L211.846 40.2589L211.855 40.2566Z" fill="#424242"/>
<path d="M117.286 88.4242C174.196 74.2351 217.621 51.8682 214.28 38.4664C210.938 25.0645 162.095 25.7027 105.186 39.8918C48.2763 54.081 4.85087 76.4478 8.19233 89.8497C11.5338 103.252 60.3768 102.613 117.286 88.4242Z" fill="#5B5B5B"/>
<rect x="135.991" y="27.7065" width="68" height="68" rx="34" transform="rotate(-1.66952 135.991 27.7065)" fill="#989898"/>
<path d="M171.733 79.5668C170.978 79.5888 170.338 79.3514 169.813 78.8546C169.287 78.3596 169.012 77.7345 168.99 76.9794L168.602 63.6542L155.277 64.0426C154.522 64.0646 153.881 63.8272 153.354 63.3304C152.829 62.8354 152.556 62.2103 152.534 61.4552C152.512 60.7001 152.748 60.0593 153.243 59.5327C153.74 59.0079 154.366 58.7345 155.121 58.7125L168.447 58.3241L168.058 44.9988C168.036 44.2437 168.274 43.6028 168.77 43.0762C169.265 42.5515 169.891 42.2781 170.646 42.2561C171.401 42.234 172.042 42.4705 172.568 42.9655C173.093 43.4624 173.366 44.0883 173.388 44.8434L173.777 58.1687L187.102 57.7803C187.857 57.7583 188.497 57.9948 189.022 58.4899C189.548 58.9867 189.823 59.6126 189.845 60.3677C189.867 61.1228 189.629 61.7628 189.133 62.2876C188.638 62.8141 188.012 63.0884 187.257 63.1104L173.932 63.4988L174.32 76.8241C174.342 77.5792 174.106 78.2191 173.611 78.7439C173.114 79.2705 172.488 79.5448 171.733 79.5668Z" fill="white"/>
</g>
<defs>
<clipPath id="clip0_415_10388">
<rect width="201.823" height="194" fill="white" transform="translate(12)"/>
</clipPath>
</defs>
</svg>
