<svg width="238" height="189" viewBox="0 0 238 189" fill="none" xmlns="http://www.w3.org/2000/svg">
<g style="mix-blend-mode:luminosity">
<path d="M64.3303 74.7339C61.6868 56.0818 47.533 49.9933 51.4296 38.0303C58.5092 16.2869 131.448 82.5537 140.156 82.5067C168.421 82.4232 167.373 84.0278 186.169 116.356C194.829 131.253 209.516 71.9716 215.052 109.908C218.335 132.424 188.501 106.419 186.169 116.356C179.121 146.349 214.383 106 224 138.5C168.887 150.954 29.8633 183.513 24.5761 155.285C19.8652 130.032 69.5752 111.714 64.3303 74.7339Z" fill="#E3EEFF"/>
<path d="M37.643 129.263C34.9235 124.699 24.7302 103.645 37.643 89.4767C45.1449 81.2514 50.9074 81.5971 69.2263 72.4133C94.1657 59.9089 106.369 75.8705 124.289 68.7557C148.127 59.2788 175.185 99.0182 186.874 115.827C198.174 132.079 172.261 85.5144 183.2 109.492C191.448 127.534 208.669 128.902 208.379 140.567C238.873 118.662 236.339 113.851 221.357 122.681C196.843 137.129 170.613 150.442 142.158 150.318C90.7333 150.094 50.0491 150.099 37.643 129.263Z" fill="#C4DBFB"/>
<path d="M227.876 108.591C228.616 104.088 225.519 99.8444 220.96 99.1134C216.4 98.3824 212.103 101.44 211.363 105.944C210.623 110.447 213.719 114.69 218.279 115.421C222.839 116.152 227.135 113.094 227.876 108.591Z" fill="#C4DBFB"/>
<path d="M51.0211 28.921C51.606 26.4735 50.0712 24.0212 47.593 23.4435C45.1149 22.8658 42.6318 24.3816 42.0469 26.8291C41.4619 29.2766 42.9967 31.729 45.4749 32.3067C47.9531 32.8844 50.4362 31.3686 51.0211 28.921Z" fill="#C4DBFB"/>
<path d="M40.4639 55.0582C45.0834 55.0582 48.8282 51.3597 48.8282 46.7974C48.8282 42.2351 45.0834 38.5366 40.4639 38.5366C35.8444 38.5366 32.0996 42.2351 32.0996 46.7974C32.0996 51.3597 35.8444 55.0582 40.4639 55.0582Z" fill="#C4DBFB"/>
<path d="M45.5709 34.3384C48.1171 34.3384 50.1813 32.2998 50.1813 29.7851C50.1813 27.2703 48.1171 25.2317 45.5709 25.2317C43.0246 25.2317 40.9604 27.2703 40.9604 29.7851C40.9604 32.2998 43.0246 34.3384 45.5709 34.3384Z" fill="#C4DBFB"/>
<path d="M47.5015 167.436C50.0478 167.436 52.1119 165.397 52.1119 162.882C52.1119 160.367 50.0478 158.329 47.5015 158.329C44.9553 158.329 42.8911 160.367 42.8911 162.882C42.8911 165.397 44.9553 167.436 47.5015 167.436Z" fill="#C4DBFB"/>
<path d="M231.519 89.3422C232.104 86.8947 230.569 84.4423 228.091 83.8646C225.613 83.287 223.13 84.8028 222.545 87.2503C221.96 89.6978 223.495 92.1502 225.973 92.7278C228.451 93.3055 230.934 91.7897 231.519 89.3422Z" fill="#C4DBFB"/>
<path d="M42.3195 137.75L44.059 136.032C44.2393 135.843 44.338 135.592 44.3342 135.333C44.3303 135.073 44.2243 134.825 44.0385 134.642C43.8527 134.458 43.6018 134.354 43.3391 134.35C43.0764 134.346 42.8226 134.444 42.6315 134.622L40.892 136.34L39.1525 134.622C38.9632 134.434 38.7062 134.328 38.438 134.328C38.1698 134.327 37.9123 134.432 37.7223 134.619C37.5323 134.806 37.4253 135.06 37.4248 135.325C37.4243 135.59 37.5304 135.844 37.7197 136.032L39.4592 137.75L37.725 139.467C37.6307 139.56 37.5558 139.67 37.5047 139.791C37.4536 139.912 37.4273 140.041 37.4273 140.172C37.4273 140.304 37.4536 140.433 37.5047 140.554C37.5558 140.675 37.6307 140.785 37.725 140.877C37.9143 141.064 38.1711 141.169 38.4387 141.169C38.7064 141.169 38.9631 141.064 39.1525 140.877L40.892 139.165L42.6262 140.877C42.7205 140.971 42.8326 141.044 42.9561 141.095C43.0795 141.145 43.2118 141.17 43.3452 141.17C43.478 141.171 43.6096 141.146 43.7322 141.095C43.8549 141.045 43.966 140.971 44.059 140.877C44.1533 140.785 44.2282 140.675 44.2793 140.554C44.3304 140.433 44.3567 140.304 44.3567 140.172C44.3567 140.041 44.3304 139.912 44.2793 139.791C44.2282 139.67 44.1533 139.56 44.059 139.467L42.3195 137.75Z" fill="#3A81F3"/>
<path d="M221.936 127.337L223.675 125.619C223.864 125.432 223.97 125.178 223.97 124.913C223.969 124.648 223.862 124.394 223.672 124.207C223.482 124.02 223.225 123.915 222.957 123.916C222.689 123.916 222.432 124.022 222.242 124.21L220.503 125.928L218.763 124.21C218.572 124.032 218.318 123.934 218.056 123.938C217.793 123.942 217.542 124.046 217.356 124.23C217.17 124.413 217.064 124.661 217.061 124.921C217.057 125.18 217.155 125.431 217.336 125.619L219.075 127.337L217.336 129.055C217.241 129.148 217.167 129.257 217.115 129.378C217.064 129.499 217.038 129.629 217.038 129.76C217.038 129.891 217.064 130.021 217.115 130.142C217.167 130.263 217.241 130.373 217.336 130.465C217.429 130.559 217.54 130.633 217.663 130.683C217.785 130.733 217.917 130.759 218.05 130.758C218.183 130.758 218.315 130.733 218.439 130.683C218.562 130.632 218.674 130.559 218.769 130.465L220.503 128.753L222.242 130.465C222.432 130.652 222.688 130.757 222.956 130.757C223.224 130.757 223.48 130.652 223.67 130.465C223.764 130.373 223.839 130.263 223.89 130.142C223.941 130.021 223.967 129.891 223.967 129.76C223.967 129.629 223.941 129.499 223.89 129.378C223.839 129.257 223.764 129.148 223.67 129.055L221.936 127.337Z" fill="#3A81F3"/>
<path d="M184.946 4.05738L186.77 2.4282C186.948 2.24511 187.049 2.0024 187.052 1.74891C187.056 1.49542 186.962 1.24998 186.79 1.06201C186.618 0.874036 186.38 0.757483 186.124 0.735814C185.868 0.714145 185.614 0.788968 185.412 0.945223L183.588 2.57963L181.938 0.778127C181.849 0.680753 181.742 0.601621 181.622 0.545249C181.502 0.488877 181.372 0.45637 181.24 0.449582C181.107 0.442793 180.974 0.461857 180.849 0.505685C180.724 0.549514 180.609 0.617249 180.51 0.705023C180.412 0.792796 180.332 0.89889 180.275 1.01725C180.218 1.1356 180.185 1.2639 180.178 1.39482C180.171 1.52574 180.19 1.65671 180.235 1.78026C180.279 1.90381 180.348 2.01752 180.436 2.11489L182.086 3.92162L180.267 5.54558C180.168 5.6329 180.087 5.73883 180.03 5.85721C179.972 5.9756 179.939 6.1041 179.932 6.23525C179.925 6.36639 179.945 6.49759 179.99 6.62122C180.034 6.74485 180.104 6.85846 180.193 6.95545C180.281 7.05356 180.389 7.13322 180.508 7.18972C180.628 7.24622 180.758 7.27842 180.891 7.28442C181.024 7.29156 181.157 7.27262 181.282 7.2287C181.407 7.18478 181.522 7.11676 181.621 7.02856L183.445 5.39937L185.089 7.20087C185.273 7.39481 185.524 7.51244 185.792 7.52985C185.992 7.53811 186.189 7.48807 186.36 7.386C186.531 7.28393 186.668 7.13435 186.753 6.956C186.838 6.77764 186.868 6.57843 186.839 6.38328C186.811 6.18813 186.724 6.00573 186.591 5.85889L184.946 4.05738Z" fill="#3A81F3"/>
<path d="M45.6246 81.9497L47.3641 80.2318C47.5534 80.0441 47.6594 79.7899 47.6589 79.525C47.6585 79.2601 47.5514 79.0063 47.3614 78.8193C47.1714 78.6323 46.914 78.5276 46.6458 78.5281C46.3776 78.5286 46.1206 78.6343 45.9313 78.8219L44.1918 80.5399L42.4523 78.8167C42.2612 78.6386 42.0073 78.5412 41.7446 78.5449C41.4819 78.5487 41.231 78.6535 41.0453 78.837C40.8595 79.0204 40.7534 79.2682 40.7496 79.5276C40.7458 79.7871 40.8445 80.0378 41.0248 80.2266L42.7642 81.9445L41.0248 83.6625C40.8368 83.8502 40.7314 84.1035 40.7314 84.3674C40.7314 84.6314 40.8368 84.8847 41.0248 85.0723C41.215 85.2595 41.4726 85.3646 41.7412 85.3646C42.0097 85.3646 42.2673 85.2595 42.4576 85.0723L44.1918 83.3596L45.9313 85.0723C46.1224 85.2504 46.3762 85.3479 46.6389 85.3441C46.9016 85.3403 47.1525 85.2356 47.3383 85.0521C47.5241 84.8686 47.6301 84.6208 47.6339 84.3614C47.6378 84.1019 47.5391 83.8512 47.3588 83.6625L45.6246 81.9497Z" fill="#3A81F3"/>
<path d="M26.6803 129.191C26.7684 129.331 26.827 129.488 26.8525 129.651C26.8779 129.815 26.8697 129.981 26.8283 130.141C26.776 130.355 26.6673 130.551 26.5131 130.71C26.3589 130.869 26.1648 130.984 25.9506 131.045L21.7209 132.272C21.5074 132.333 21.2814 132.337 21.0655 132.285C20.8496 132.233 20.6515 132.125 20.4909 131.974C20.3303 131.822 20.2128 131.631 20.1503 131.42C20.0878 131.21 20.0824 130.987 20.1347 130.773L21.1922 126.523C21.2449 126.308 21.354 126.111 21.5084 125.952C21.6629 125.792 21.8573 125.676 22.0719 125.615C22.2865 125.553 22.5137 125.549 22.7306 125.602C22.9475 125.655 23.1463 125.764 23.307 125.917L26.5058 128.94C26.5746 129.016 26.6332 129.1 26.6803 129.191ZM21.1182 131.207C21.1299 131.226 21.1441 131.243 21.1605 131.259C21.1935 131.292 21.2352 131.315 21.281 131.326C21.3267 131.337 21.3747 131.336 21.4195 131.321L25.6493 130.1C25.6949 130.087 25.7363 130.062 25.7692 130.028C25.8021 129.994 25.8253 129.952 25.8366 129.907C25.8479 129.861 25.8468 129.814 25.8334 129.768C25.82 129.723 25.7947 129.683 25.7603 129.65L22.5616 126.632C22.5282 126.599 22.4866 126.576 22.441 126.564C22.3954 126.553 22.3475 126.553 22.3022 126.566C22.2569 126.579 22.2159 126.603 22.1834 126.637C22.151 126.671 22.1282 126.712 22.1174 126.758L21.06 131.003C21.0568 131.041 21.0623 131.078 21.076 131.114C21.0898 131.149 21.1114 131.181 21.1393 131.207H21.1182Z" fill="#F9C067"/>
<path d="M85.717 3.62359C85.805 3.76503 85.8635 3.92246 85.8889 4.08658C85.9143 4.25071 85.9062 4.4182 85.865 4.57917C85.8147 4.79306 85.7073 4.98971 85.5538 5.1486C85.4004 5.3075 85.2066 5.42282 84.9926 5.48254L80.7629 6.70442C80.5494 6.76547 80.3234 6.77005 80.1075 6.71771C79.8916 6.66537 79.6935 6.55795 79.5329 6.40619C79.3722 6.25444 79.2548 6.06368 79.1923 5.85301C79.1298 5.64234 79.1244 5.41915 79.1767 5.20578L80.2342 0.960502C80.2871 0.746419 80.396 0.549817 80.55 0.390367C80.7041 0.230916 80.8978 0.114208 81.1118 0.0519176C81.3254 -0.0111869 81.5522 -0.0168721 81.7687 0.0354482C81.9853 0.0877686 82.1838 0.1962 82.3437 0.349557L85.516 3.37295C85.5917 3.44934 85.659 3.53334 85.717 3.62359ZM80.1549 5.66007C80.1666 5.68223 80.1828 5.70178 80.2024 5.71751C80.2361 5.7497 80.2779 5.77247 80.3234 5.78348C80.3689 5.79449 80.4166 5.79335 80.4615 5.78017L84.6913 4.55306C84.7369 4.54097 84.7785 4.51701 84.8116 4.48367C84.8446 4.45033 84.8681 4.40883 84.8794 4.36351C84.8908 4.31818 84.8896 4.27068 84.876 4.22596C84.8624 4.18123 84.837 4.14092 84.8023 4.10922L81.6035 1.08582C81.5685 1.05408 81.5258 1.03167 81.4796 1.02071C81.4333 1.00975 81.385 1.01059 81.3392 1.02316C81.2939 1.03653 81.253 1.06141 81.2205 1.09532C81.188 1.12923 81.1651 1.17097 81.1541 1.21637L80.0967 5.46165C80.0919 5.4969 80.0946 5.53275 80.1046 5.56692C80.1146 5.60108 80.1317 5.63281 80.1549 5.66007Z" fill="#F9C067"/>
<path d="M226.586 183.515C226.531 183.33 226.52 183.133 226.553 182.942C226.585 182.75 226.661 182.568 226.774 182.41C226.888 182.252 227.035 182.122 227.205 182.03C227.376 181.938 227.565 181.887 227.757 181.88L232.137 181.729C232.357 181.722 232.575 181.773 232.768 181.878C232.961 181.982 233.124 182.136 233.238 182.324C233.353 182.512 233.417 182.728 233.423 182.95C233.428 183.172 233.376 183.392 233.272 183.588L231.173 187.49C231.069 187.687 230.914 187.852 230.726 187.97C230.538 188.088 230.323 188.154 230.103 188.161C229.882 188.169 229.664 188.117 229.471 188.012C229.277 187.906 229.116 187.751 229.002 187.562L226.718 183.815C226.659 183.722 226.614 183.622 226.586 183.515ZM232.425 182.915L232.396 182.851C232.369 182.813 232.331 182.783 232.289 182.764C232.246 182.746 232.199 182.739 232.152 182.745L227.772 182.895C227.725 182.896 227.679 182.91 227.639 182.935C227.599 182.96 227.566 182.996 227.544 183.038C227.522 183.079 227.511 183.125 227.513 183.172C227.515 183.219 227.529 183.264 227.555 183.302L229.837 187.054C229.864 187.092 229.9 187.122 229.942 187.14C229.984 187.158 230.031 187.164 230.077 187.158C230.123 187.158 230.169 187.145 230.208 187.12C230.248 187.096 230.28 187.061 230.302 187.019L232.4 183.117C232.417 183.087 232.428 183.053 232.433 183.019C232.437 182.984 232.435 182.949 232.425 182.915Z" fill="#F9C067"/>
<path d="M221.571 64.2848C221.522 64.4433 221.441 64.5904 221.333 64.717C221.225 64.8436 221.092 64.9471 220.942 65.021C220.744 65.1217 220.523 65.169 220.301 65.158C220.079 65.147 219.864 65.0781 219.678 64.9584L215.977 62.5877C215.79 62.4682 215.638 62.3022 215.537 62.1065C215.436 61.9108 215.388 61.6921 215.4 61.4726C215.411 61.253 215.48 61.0402 215.601 60.8556C215.722 60.671 215.89 60.521 216.088 60.4207L220.027 58.4208C220.225 58.3205 220.447 58.2736 220.669 58.2848C220.892 58.296 221.108 58.3649 221.295 58.4845C221.482 58.6041 221.634 58.7703 221.735 58.9662C221.836 59.1622 221.884 59.3811 221.872 59.6009L221.65 63.9662C221.64 64.0757 221.613 64.1831 221.571 64.2848ZM216.389 61.4494C216.388 61.4737 216.388 61.4981 216.389 61.5225C216.388 61.5692 216.399 61.6155 216.421 61.6568C216.443 61.698 216.476 61.7327 216.516 61.7575L220.217 64.1281C220.258 64.1515 220.305 64.1638 220.352 64.1638C220.399 64.1638 220.446 64.1515 220.487 64.1281C220.529 64.108 220.564 64.0769 220.589 64.0382C220.615 63.9996 220.629 63.9548 220.63 63.9088L220.852 59.5382C220.853 59.4921 220.843 59.4463 220.822 59.4051C220.801 59.364 220.769 59.329 220.73 59.3032C220.689 59.2808 220.642 59.2691 220.595 59.2691C220.548 59.2691 220.502 59.2808 220.46 59.3032L216.522 61.2979C216.459 61.3295 216.412 61.3839 216.389 61.4494Z" fill="#F9C067"/>
<g style="mix-blend-mode:luminosity">
<path d="M6.34668 39.1726C8.57755 38.0014 11.606 38.229 14.9411 40.1496C16.5371 41.088 18.0001 42.2343 19.2913 43.558C24.004 48.2876 27.3503 55.4318 27.3503 61.5492C27.3503 69.4373 32.9275 79.0185 39.7707 82.9653L52.191 90.0985L105.124 59.6895L92.7203 52.5508C85.866 48.6151 80.3 39.0228 80.3 31.1402C80.3 23.2576 74.7228 13.6764 67.8796 9.73512C64.5333 7.79778 61.4436 7.59239 59.2071 8.81364L58.9059 8.98017L41.4438 19.0221L38.6552 20.6042L6.34668 39.1726Z" fill="#B9B9B9"/>
<path d="M163.255 81.5836C163.194 81.5432 163.122 81.5217 163.048 81.5217C162.975 81.5217 162.903 81.5432 162.842 81.5836L161.319 82.4662C161.156 82.5759 161.021 82.7217 160.924 82.8922C160.828 83.0627 160.772 83.2532 160.762 83.4488V101.251L224.899 137.472L227.426 118.437L163.255 81.5836Z" fill="#263238"/>
<path d="M227.398 118.416C227.334 118.393 227.266 118.386 227.199 118.396C227.132 118.406 227.068 118.431 227.013 118.471L225.457 119.331C225.288 119.431 225.149 119.575 225.056 119.748L160.901 82.8828C160.999 82.7136 161.137 82.5707 161.303 82.4665L162.837 81.5894C162.898 81.5491 162.97 81.5276 163.043 81.5276C163.116 81.5276 163.188 81.5491 163.249 81.5894L227.398 118.416Z" fill="#455A64"/>
<path d="M227.013 118.465L225.457 119.331C225.294 119.44 225.158 119.586 225.061 119.756C224.964 119.927 224.909 120.118 224.899 120.313V137.455L227.576 138.976V118.776C227.582 118.432 227.325 118.287 227.013 118.465Z" fill="#37474F"/>
<path d="M224.905 137.472V138.643L220.895 140.42L156.724 103.538L160.734 101.251L224.905 137.472Z" fill="black"/>
<path d="M222.233 142.729L227.013 139.954C227.177 139.845 227.313 139.699 227.41 139.529C227.507 139.358 227.562 139.167 227.571 138.971L224.894 137.45C224.885 137.646 224.83 137.837 224.733 138.008C224.636 138.179 224.5 138.324 224.336 138.433L222.802 139.315C222.49 139.493 222.245 139.349 222.245 138.988L222.233 142.729Z" fill="#37474F"/>
<path d="M236.996 140.876C237.294 140.673 237.539 140.403 237.714 140.089C237.888 139.775 237.986 139.425 238 139.066V81.462C237.981 81.0918 237.874 80.7313 237.687 80.4101C237.501 80.0888 237.242 79.8159 236.929 79.6135L162.686 36.9477C162.376 36.7536 162.019 36.6473 161.653 36.6403C161.286 36.6333 160.925 36.7258 160.608 36.908C160.291 37.0902 160.029 37.355 159.852 37.6741C159.675 37.9931 159.588 38.3542 159.602 38.7185V96.3224C159.623 96.693 159.731 97.0536 159.918 97.3749C160.105 97.6961 160.365 97.9688 160.678 98.1709L234.938 140.837C235.255 141.001 235.606 141.09 235.963 141.097C236.32 141.104 236.674 141.028 236.996 140.876Z" fill="#BA68C8"/>
<path d="M235.993 82.6163V140.22C235.993 140.897 235.513 141.175 234.922 140.836L160.678 98.1705C160.366 97.9684 160.105 97.6957 159.918 97.3745C159.731 97.0532 159.623 96.6926 159.602 96.322V38.7181C159.602 38.0409 160.087 37.7633 160.678 38.1019L234.938 80.7678C235.248 80.972 235.504 81.2457 235.687 81.5668C235.87 81.888 235.975 82.2475 235.993 82.6163Z" fill="#BA68C8"/>
<path opacity="0.2" d="M238 81.4617V139.066C237.986 139.424 237.888 139.775 237.713 140.089C237.539 140.403 237.293 140.672 236.996 140.875C236.71 141.013 236.397 141.09 236.079 141.101C235.761 141.111 235.445 141.055 235.15 140.936C235.63 141.092 235.992 140.814 235.992 140.22V82.6108C235.978 82.2406 235.87 81.8799 235.68 81.5616L237.682 80.407C237.877 80.7255 237.987 81.0888 238 81.4617Z" fill="black"/>
<path d="M229.958 97.632V106.719C229.958 107.402 229.478 107.674 228.887 107.335L216.958 100.458C216.646 100.256 216.387 99.9836 216.201 99.6634C216.015 99.3432 215.907 98.9839 215.887 98.6145V89.544C215.887 88.8668 216.366 88.5892 216.958 88.9279L228.887 95.7835C229.199 95.9859 229.459 96.2588 229.645 96.58C229.831 96.9013 229.938 97.2617 229.958 97.632Z" fill="#455A64"/>
<path d="M213.998 90.4065L213.755 90.8247L231.844 101.228L232.087 100.81L213.998 90.4065Z" fill="white"/>
<path d="M226.182 97.5554H225.697V102.185H226.182V97.5554Z" fill="white"/>
<path d="M220.154 94.1072H219.668V98.7313H220.154V94.1072Z" fill="white"/>
<path d="M213.997 95.0484L213.754 95.4666L231.843 105.87L232.086 105.452L213.997 95.0484Z" fill="white"/>
<path d="M229.958 114.963V117.111C229.958 117.794 229.478 118.066 228.887 117.727L216.958 110.872C216.646 110.67 216.387 110.398 216.201 110.078C216.015 109.757 215.907 109.398 215.887 109.029V106.869C215.887 106.186 216.366 105.914 216.958 106.253L228.887 113.109C229.2 113.312 229.46 113.585 229.646 113.908C229.832 114.23 229.939 114.592 229.958 114.963Z" fill="#FAFAFA"/>
<path d="M213.187 105.332V107.491C213.187 108.168 212.708 108.446 212.117 108.107L200.187 101.251C199.875 101.049 199.615 100.776 199.429 100.455C199.243 100.134 199.136 99.7733 199.116 99.403V97.2491C199.116 96.5663 199.596 96.2888 200.187 96.633L212.117 103.489C212.428 103.69 212.687 103.962 212.873 104.283C213.059 104.603 213.167 104.962 213.187 105.332Z" fill="#FAFAFA"/>
<path d="M196.455 95.706V97.8654C196.455 98.5426 195.976 98.8202 195.385 98.4815L183.455 91.6259C183.143 91.4235 182.883 91.1506 182.697 90.8294C182.511 90.5081 182.404 90.1477 182.384 89.7774V87.618C182.384 86.9408 182.864 86.6632 183.455 87.0018L195.385 93.8575C195.696 94.0605 195.955 94.3336 196.141 94.6547C196.327 94.9758 196.435 95.3359 196.455 95.706Z" fill="#FAFAFA"/>
<path d="M179.725 86.0799V88.2448C179.725 88.9276 179.245 89.2052 178.654 88.861L166.724 82.0109C166.413 81.8076 166.154 81.5344 165.968 81.2134C165.782 80.8923 165.674 80.5324 165.653 80.1624V78.003C165.653 77.3258 166.133 77.0482 166.724 77.3868L178.654 84.2425C178.964 84.4437 179.223 84.7149 179.409 85.0341C179.595 85.3533 179.703 85.7115 179.725 86.0799Z" fill="#FAFAFA"/>
<path opacity="0.15" d="M172.306 88.6839L175.045 90.2548C175.231 90.3773 175.386 90.5415 175.498 90.7343C175.609 90.927 175.674 91.143 175.686 91.3651V92.1977C175.686 92.6029 175.396 92.7528 175.045 92.5641L172.306 91.0209C172.12 90.8987 171.964 90.7346 171.853 90.5418C171.742 90.3489 171.677 90.1328 171.665 89.9107V89.078C171.665 88.645 171.955 88.4785 172.306 88.6839Z" fill="black"/>
<path opacity="0.15" d="M166.278 85.22L169.01 86.791C169.199 86.9123 169.355 87.076 169.468 87.269C169.58 87.4619 169.645 87.6785 169.657 87.9012V88.7339C169.657 89.1447 169.367 89.289 169.01 89.1058L166.278 87.5349C166.09 87.4133 165.934 87.2494 165.823 87.0564C165.711 86.8634 165.648 86.6469 165.636 86.4246V85.592C165.636 85.1812 165.921 85.0147 166.278 85.22Z" fill="black"/>
<path opacity="0.15" d="M200.801 110.833L166.78 91.2704C166.189 90.9318 165.709 91.2038 165.709 91.8866V92.8858C165.729 93.2561 165.836 93.6165 166.022 93.9378C166.208 94.259 166.468 94.5319 166.78 94.7343L200.801 114.296C201.392 114.635 201.871 114.363 201.871 113.68V112.67C201.85 112.302 201.742 111.943 201.556 111.624C201.37 111.305 201.111 111.034 200.801 110.833Z" fill="black"/>
<path opacity="0.5" d="M237.683 80.4067L235.68 81.5835C235.498 81.26 235.237 80.9871 234.922 80.7897L160.673 38.1017C160.115 37.7964 159.691 37.9962 159.613 38.5458C159.628 38.1963 159.735 37.8569 159.923 37.5617C160.112 37.2664 160.375 37.0257 160.686 36.8637C160.998 36.7017 161.346 36.6241 161.697 36.6387C162.049 36.6533 162.39 36.7597 162.686 36.947L236.93 79.6129C237.246 79.8073 237.506 80.0811 237.683 80.4067Z" fill="#FAFAFA"/>
<path d="M222.066 121.512L215.719 124.948C215.613 125.188 215.556 125.447 215.552 125.709V145.909C215.548 145.97 215.557 146.03 215.577 146.088C215.597 146.145 215.628 146.197 215.669 146.242L151.532 109.4C151.474 109.36 151.428 109.306 151.398 109.242C151.369 109.179 151.357 109.108 151.364 109.039V88.8328C151.375 88.6373 151.43 88.4467 151.527 88.2762C151.624 88.1057 151.759 87.9599 151.922 87.8503L157.471 84.6528C157.53 84.6076 157.6 84.5807 157.674 84.5758C157.747 84.5708 157.82 84.588 157.884 84.6251L222.066 121.512Z" fill="#263238"/>
<path opacity="0.5" d="M222.071 121.507L163.416 87.7892L160.739 86.2515L157.912 84.6251C157.848 84.588 157.775 84.5708 157.701 84.5758C157.627 84.5807 157.557 84.6076 157.499 84.6528L151.95 87.8503C151.783 87.9537 151.646 88.0992 151.554 88.2721L215.725 124.943L222.071 121.507Z" fill="#37474F"/>
<path d="M215.72 124.949C215.612 125.192 215.553 125.454 215.547 125.72V145.921C215.547 146.281 215.803 146.426 216.105 146.248L222.239 142.729V121.879C222.248 121.808 222.237 121.737 222.207 121.672C222.178 121.608 222.131 121.552 222.072 121.512L215.72 124.949Z" fill="#37474F"/>
<path d="M216.177 146.193L216.394 146.087L217.337 145.532C218.249 144.404 218.747 143 218.748 141.552V124.483C218.743 124.108 218.697 123.736 218.608 123.372L218.101 123.65C218.157 123.92 218.187 124.195 218.19 124.471V141.552C218.088 143.286 217.375 144.929 216.177 146.193Z" fill="#263238"/>
<path d="M144.22 65.1966C142.056 63.4536 138.118 61.1943 135.698 59.8065C131.627 57.4584 116.407 48.7043 110.043 45.0461C109.16 44.6 108.183 44.3674 107.193 44.3674C106.203 44.3674 105.226 44.6 104.343 45.0461L52.4754 74.8667C51.6469 75.4061 50.9574 76.1317 50.4624 76.9851C49.9673 77.8384 49.6807 78.7956 49.6255 79.7794V111.004C49.6811 111.989 49.9679 112.947 50.4629 113.801C50.9578 114.655 51.6471 115.382 52.4754 115.923L157.8 176.507C158.684 176.951 159.66 177.182 160.65 177.182C161.64 177.182 162.616 176.951 163.5 176.507L215.368 146.698C216.197 146.154 216.886 145.423 217.379 144.565C217.872 143.706 218.156 142.745 218.207 141.758V124.161C218.211 123.302 218.014 122.453 217.633 121.683C217.252 120.912 216.696 120.24 216.009 119.72C204.108 110.721 147.678 67.9778 144.22 65.1966Z" fill="#455A64"/>
<path d="M218.207 141.758V124.677C218.206 124.333 218.165 123.991 218.084 123.656L160.505 156.691C160.591 157.045 160.638 157.408 160.645 157.773V174.843C160.645 176.508 159.585 177.235 158.213 176.68H158.252C158.38 176.736 158.508 176.786 158.642 176.83L158.899 176.908C159.038 176.947 159.178 176.98 159.323 177.008C159.468 177.035 159.512 177.041 159.607 177.058L160.037 177.113H160.36H160.767H161.13L161.498 177.085C161.632 177.085 161.766 177.041 161.899 177.013L162.212 176.958C162.357 176.919 162.502 176.869 162.641 176.825C162.781 176.78 162.808 176.78 162.887 176.747C163.069 176.676 163.246 176.592 163.416 176.497C163.444 176.487 163.47 176.474 163.494 176.458L215.362 146.649L216.11 146.227C217.34 145.047 218.088 143.455 218.207 141.758Z" fill="#37474F"/>
<path d="M86.6524 98.2873C96.379 106.103 147.176 144.362 158.431 152.832C159.123 153.35 159.685 154.02 160.073 154.791C160.46 155.562 160.661 156.412 160.661 157.273V174.843C160.661 176.647 159.379 177.385 157.812 176.508L52.4476 115.945C51.6193 115.404 50.93 114.678 50.435 113.824C49.9401 112.969 49.6533 112.012 49.5977 111.027V79.7799C49.5977 77.9758 50.8804 77.2375 52.4476 78.1423L78.1026 92.8861C80.5398 94.2794 84.4773 96.5387 86.6524 98.2873Z" fill="#263238"/>
<path d="M86.3401 88.167C88.7605 89.5548 92.698 91.8141 94.8787 93.5683C96.9839 95.2951 98.9805 97.149 100.857 99.1194C101.267 99.5164 101.793 99.7743 102.359 99.8561C102.925 99.9378 103.502 99.8393 104.009 99.5746L141.643 77.9253C141.865 77.8171 142.057 77.6566 142.203 77.4577C142.348 77.2588 142.443 77.0276 142.478 76.7841C142.513 76.5406 142.488 76.2922 142.405 76.0606C142.321 75.8289 142.183 75.6211 142 75.455C140.117 73.4849 138.115 71.6311 136.005 69.9039C133.835 68.1609 129.898 65.9071 127.477 64.5138C122.871 61.8603 117.7 58.8905 113.044 56.2204C112.499 55.948 111.899 55.8062 111.29 55.8062C110.68 55.8062 110.08 55.948 109.536 56.2204L71.9175 77.8586C70.9526 78.4137 70.9526 79.3186 71.9175 79.8737L86.3401 88.167Z" fill="#E0E0E0"/>
<path d="M109.536 58.008C110.08 57.7356 110.68 57.5938 111.29 57.5938C111.899 57.5938 112.499 57.7356 113.044 58.008C117.701 60.6781 122.871 63.6479 127.477 66.3014C129.898 67.6947 133.835 69.954 136.005 71.697C138.115 73.4241 140.117 75.2779 142 77.2482C142.068 77.3187 142.13 77.3949 142.184 77.4758C142.033 77.6695 141.843 77.8301 141.627 77.9476L103.992 99.5969C103.486 99.8616 102.908 99.9602 102.342 99.8784C101.776 99.7966 101.251 99.5388 100.841 99.1417C98.9638 97.1713 96.9672 95.3175 94.862 93.5906C92.6813 91.8365 88.7271 89.5772 86.3234 88.1894L71.9175 79.8738C71.8506 79.835 71.8004 79.7906 71.7446 79.7517C71.799 79.7066 71.8568 79.6658 71.9175 79.6296L109.536 58.008Z" fill="white"/>
<path d="M110.155 86.5516L98.8945 86.3795V81.9053L106.959 83.3597L106.853 65.5795L113.864 65.4685L110.155 86.5516Z" fill="#BA68C8"/>
<path d="M142.764 87.0349L143.138 85.4917L144.7 85.364L149.803 82.433C152.223 81.0452 155.43 81.3228 156.992 83.0492C157.323 83.4089 157.565 83.8403 157.7 84.3093L158.141 84.2704L157.745 85.908C157.57 86.4885 157.279 87.0282 156.892 87.4954C156.504 87.9625 156.026 88.3476 155.486 88.628L149.273 92.1919C148.768 92.4607 148.19 92.5621 147.623 92.4812C147.056 92.4003 146.53 92.1414 146.122 91.7422C145.14 90.6986 144.159 89.6161 143.177 88.517C142.99 88.3233 142.855 88.0865 142.783 87.8278C142.711 87.5691 142.704 87.2966 142.764 87.0349Z" fill="#BA68C8"/>
<path opacity="0.1" d="M142.764 87.0349L143.138 85.4917L144.7 85.364L149.803 82.433C152.223 81.0452 155.43 81.3228 156.992 83.0492C157.323 83.4089 157.565 83.8403 157.7 84.3093L158.141 84.2704L157.745 85.908C157.57 86.4885 157.279 87.0282 156.892 87.4954C156.504 87.9625 156.026 88.3476 155.486 88.628L149.273 92.1919C148.768 92.4607 148.19 92.5621 147.623 92.4812C147.056 92.4003 146.53 92.1414 146.122 91.7422C145.14 90.6986 144.159 89.6161 143.177 88.517C142.99 88.3233 142.855 88.0865 142.783 87.8278C142.711 87.5691 142.704 87.2966 142.764 87.0349Z" fill="black"/>
<path d="M149.608 90.6545L155.821 87.0851C158.247 85.6918 158.894 83.1993 157.332 81.5007C155.771 79.802 152.564 79.4967 150.143 80.8845L143.93 84.4539C143.707 84.566 143.514 84.729 143.366 84.9296C143.218 85.1302 143.119 85.3627 143.078 85.6083C143.038 85.8538 143.056 86.1055 143.131 86.3428C143.206 86.5801 143.337 86.7964 143.512 86.9741C144.494 88.0843 145.477 89.1594 146.462 90.1993C146.869 90.5989 147.394 90.8586 147.96 90.9405C148.526 91.0224 149.103 90.9222 149.608 90.6545Z" fill="#BA68C8"/>
<path d="M110.991 106.275L111.37 104.709L111.811 104.67C112.233 104.167 112.743 103.743 113.317 103.421L119.53 99.8519C120.031 99.5861 120.605 99.491 121.165 99.5813C121.725 99.6715 122.24 99.9421 122.631 100.352C123.596 101.434 124.561 102.5 125.525 103.532L126.401 103.46L126.005 105.087C125.88 105.494 125.6 105.837 125.224 106.041L119.011 109.611C116.585 111.004 113.311 110.782 111.761 109.056C111.411 108.692 111.158 108.247 111.024 107.762C110.889 107.276 110.878 106.765 110.991 106.275Z" fill="#BA68C8"/>
<path opacity="0.1" d="M110.991 106.275L111.37 104.709L111.811 104.67C112.233 104.167 112.743 103.743 113.317 103.421L119.53 99.8519C120.031 99.5861 120.605 99.491 121.165 99.5813C121.725 99.6715 122.24 99.9421 122.631 100.352C123.596 101.434 124.561 102.5 125.525 103.532L126.401 103.46L126.005 105.087C125.88 105.494 125.6 105.837 125.224 106.041L119.011 109.611C116.585 111.004 113.311 110.782 111.761 109.056C111.411 108.692 111.158 108.247 111.024 107.762C110.889 107.276 110.878 106.765 110.991 106.275Z" fill="black"/>
<path d="M119.363 108.057L125.576 104.487C125.797 104.378 125.988 104.217 126.132 104.018C126.277 103.819 126.371 103.588 126.406 103.345C126.441 103.102 126.416 102.854 126.334 102.623C126.251 102.392 126.114 102.184 125.933 102.017C124.951 100.968 123.975 99.8909 122.993 98.7917C122.603 98.3814 122.089 98.1098 121.529 98.0185C120.968 97.9273 120.394 98.0214 119.893 98.2866L113.68 101.856C111.259 103.249 110.528 105.792 112.096 107.507C113.663 109.222 116.942 109.444 119.363 108.057Z" fill="#BA68C8"/>
<path d="M126.541 96.5048L126.909 94.9782L128.102 94.9005L135.537 90.6261C136.163 90.2949 136.881 90.1769 137.581 90.2902C138.281 90.4034 138.924 90.7418 139.413 91.2534C140.156 92.0972 140.909 92.9243 141.671 93.7348C141.745 93.8166 141.812 93.9038 141.872 93.9957L142.614 93.9513L142.229 95.5444C142.161 95.8133 142.038 96.0651 141.867 96.2839C141.696 96.5028 141.481 96.6839 141.236 96.8156L133.267 101.39C132.638 101.727 131.917 101.855 131.209 101.755C130.502 101.656 129.845 101.333 129.335 100.835C128.582 100.024 127.823 99.1971 127.07 98.3533C126.836 98.1127 126.664 97.8179 126.572 97.4953C126.48 97.1728 126.469 96.8325 126.541 96.5048Z" fill="#BA68C8"/>
<path opacity="0.1" d="M126.541 96.5048L126.909 94.9782L128.102 94.9005L135.537 90.6261C136.163 90.2949 136.881 90.1769 137.581 90.2902C138.281 90.4034 138.924 90.7418 139.413 91.2534C140.156 92.0972 140.909 92.9243 141.671 93.7348C141.745 93.8166 141.812 93.9038 141.872 93.9957L142.614 93.9513L142.229 95.5444C142.161 95.8133 142.038 96.0651 141.867 96.2839C141.696 96.5028 141.481 96.6839 141.236 96.8156L133.267 101.39C132.638 101.727 131.917 101.855 131.209 101.755C130.502 101.656 129.845 101.333 129.335 100.835C128.582 100.024 127.823 99.1971 127.07 98.3533C126.836 98.1127 126.664 97.8179 126.572 97.4953C126.48 97.1728 126.469 96.8325 126.541 96.5048Z" fill="black"/>
<path d="M127.421 96.8047C128.174 97.6484 128.933 98.47 129.685 99.286C130.195 99.7843 130.852 100.107 131.56 100.207C132.267 100.307 132.988 100.179 133.617 99.8411L141.587 95.267C141.863 95.1303 142.101 94.9293 142.282 94.681C142.462 94.4328 142.58 94.1447 142.624 93.8414C142.668 93.5381 142.638 93.2286 142.537 92.9394C142.435 92.6502 142.264 92.3898 142.039 92.1806C141.286 91.3701 140.533 90.5153 139.78 89.6937C139.291 89.1821 138.648 88.8443 137.947 88.732C137.247 88.6197 136.529 88.7391 135.904 89.072L127.94 93.6461C127.659 93.7861 127.416 93.9903 127.23 94.242C127.045 94.4936 126.921 94.7854 126.871 95.0936C126.82 95.4018 126.844 95.7176 126.939 96.015C127.035 96.3124 127.2 96.583 127.421 96.8047Z" fill="#BA68C8"/>
<g opacity="0.75">
<path d="M149.608 90.6545L155.821 87.0851C158.247 85.6918 158.894 83.1993 157.332 81.5007C155.771 79.802 152.564 79.4967 150.143 80.8845L143.93 84.4539C143.707 84.566 143.514 84.729 143.366 84.9296C143.218 85.1302 143.119 85.3627 143.078 85.6083C143.038 85.8538 143.056 86.1055 143.131 86.3428C143.206 86.5801 143.337 86.7964 143.512 86.9741C144.494 88.0843 145.477 89.1594 146.462 90.1993C146.869 90.5989 147.394 90.8586 147.96 90.9405C148.526 91.0224 149.103 90.9222 149.608 90.6545Z" fill="white"/>
<path d="M119.363 108.057L125.576 104.487C125.797 104.378 125.988 104.217 126.132 104.018C126.277 103.82 126.371 103.589 126.406 103.346C126.441 103.103 126.416 102.855 126.334 102.623C126.251 102.392 126.114 102.184 125.933 102.017C124.951 100.968 123.975 99.8911 122.993 98.792C122.603 98.3816 122.089 98.11 121.529 98.0188C120.968 97.9275 120.394 98.0217 119.893 98.2868L113.68 101.856C111.259 103.25 110.528 105.792 112.096 107.507C113.663 109.223 116.942 109.445 119.363 108.057Z" fill="white"/>
<path d="M127.421 96.8049C128.174 97.6487 128.933 98.4702 129.685 99.2863C130.195 99.7845 130.852 100.107 131.56 100.207C132.267 100.307 132.988 100.179 133.617 99.8414L141.587 95.2672C141.863 95.1306 142.101 94.9295 142.282 94.6813C142.462 94.433 142.58 94.1449 142.624 93.8417C142.668 93.5384 142.638 93.2289 142.537 92.9397C142.435 92.6505 142.264 92.3901 142.039 92.1808C141.286 91.3704 140.533 90.5155 139.78 89.6939C139.291 89.1824 138.648 88.8446 137.947 88.7322C137.247 88.6199 136.529 88.7394 135.904 89.0722L127.94 93.6463C127.659 93.7864 127.416 93.9906 127.23 94.2422C127.045 94.4938 126.921 94.7857 126.871 95.0939C126.82 95.4021 126.844 95.7178 126.939 96.0153C127.035 96.3127 127.2 96.5833 127.421 96.8049Z" fill="white"/>
</g>
<path d="M139.507 113.935L137.868 113.974L133.278 110.488C132.873 110.21 132.399 110.046 131.908 110.015C131.417 109.984 130.926 110.086 130.489 110.311L123.473 114.335L121.27 114.391V116.178C121.28 116.357 121.331 116.532 121.42 116.688C121.509 116.844 121.634 116.977 121.783 117.077L127.494 121.418C127.9 121.695 128.373 121.858 128.864 121.89C129.355 121.921 129.845 121.819 130.283 121.596L138.866 116.667C139.048 116.581 139.202 116.448 139.314 116.282C139.426 116.116 139.491 115.923 139.502 115.723L139.507 113.935Z" fill="#BA68C8"/>
<path opacity="0.1" d="M139.507 113.935L137.868 113.974L133.278 110.488C132.873 110.21 132.399 110.046 131.908 110.015C131.417 109.984 130.926 110.086 130.489 110.311L123.473 114.335L121.27 114.391V116.178C121.28 116.357 121.331 116.532 121.42 116.688C121.509 116.844 121.634 116.977 121.783 117.077L127.494 121.418C127.9 121.695 128.373 121.858 128.864 121.89C129.355 121.921 129.845 121.819 130.283 121.596L138.866 116.667C139.048 116.581 139.202 116.448 139.314 116.282C139.426 116.116 139.491 115.923 139.502 115.723L139.507 113.935Z" fill="black"/>
<path d="M121.906 113.447L130.495 108.523C130.932 108.299 131.422 108.196 131.914 108.228C132.405 108.259 132.878 108.423 133.283 108.701L139.011 113.042C139.179 113.136 139.317 113.276 139.409 113.446C139.501 113.615 139.543 113.807 139.53 113.999C139.517 114.191 139.45 114.375 139.337 114.531C139.223 114.687 139.068 114.808 138.888 114.879L130.305 119.809C129.867 120.032 129.377 120.134 128.886 120.102C128.395 120.071 127.922 119.908 127.516 119.631L121.805 115.29C121.638 115.195 121.501 115.056 121.409 114.887C121.317 114.719 121.274 114.529 121.284 114.338C121.295 114.146 121.358 113.962 121.468 113.805C121.578 113.647 121.729 113.523 121.906 113.447Z" fill="#BA68C8"/>
<path opacity="0.75" d="M121.906 113.447L130.495 108.523C130.932 108.299 131.422 108.196 131.914 108.228C132.405 108.259 132.878 108.423 133.283 108.701L139.011 113.042C139.179 113.136 139.317 113.276 139.409 113.446C139.501 113.615 139.543 113.807 139.53 113.999C139.517 114.191 139.45 114.375 139.337 114.531C139.223 114.687 139.068 114.808 138.888 114.879L130.305 119.809C129.867 120.032 129.377 120.134 128.886 120.102C128.395 120.071 127.922 119.908 127.516 119.631L121.805 115.29C121.638 115.195 121.501 115.056 121.409 114.887C121.317 114.719 121.274 114.529 121.284 114.338C121.295 114.146 121.358 113.962 121.468 113.805C121.578 113.647 121.729 113.523 121.906 113.447Z" fill="white"/>
<path d="M173.031 139.376L171.392 139.42L166.802 135.928C166.396 135.651 165.923 135.488 165.432 135.457C164.941 135.426 164.451 135.527 164.013 135.751L156.992 139.781L154.789 139.831V141.618C154.797 141.798 154.848 141.973 154.937 142.129C155.026 142.285 155.151 142.418 155.302 142.518L161.013 146.859C161.418 147.137 161.891 147.3 162.382 147.332C162.873 147.363 163.364 147.261 163.801 147.036L172.362 142.09C172.544 142.003 172.698 141.869 172.809 141.702C172.92 141.535 172.983 141.341 172.992 141.141L173.031 139.376Z" fill="#BA68C8"/>
<path opacity="0.1" d="M173.031 139.376L171.392 139.42L166.802 135.928C166.396 135.651 165.923 135.488 165.432 135.457C164.941 135.426 164.451 135.527 164.013 135.751L156.992 139.781L154.789 139.831V141.618C154.797 141.798 154.848 141.973 154.937 142.129C155.026 142.285 155.151 142.418 155.302 142.518L161.013 146.859C161.418 147.137 161.891 147.3 162.382 147.332C162.873 147.363 163.364 147.261 163.801 147.036L172.362 142.09C172.544 142.003 172.698 141.869 172.809 141.702C172.92 141.535 172.983 141.341 172.992 141.141L173.031 139.376Z" fill="black"/>
<path d="M155.402 138.888L163.991 133.964C164.429 133.741 164.919 133.639 165.41 133.67C165.901 133.702 166.374 133.864 166.779 134.142L172.474 138.483C172.642 138.578 172.779 138.719 172.871 138.888C172.963 139.058 173.004 139.25 172.992 139.442C172.979 139.634 172.912 139.819 172.799 139.975C172.685 140.132 172.53 140.253 172.351 140.326L163.762 145.249C163.325 145.474 162.834 145.576 162.343 145.545C161.852 145.514 161.379 145.35 160.974 145.072L155.263 140.731C155.097 140.632 154.962 140.49 154.873 140.32C154.784 140.149 154.745 139.958 154.759 139.766C154.774 139.575 154.842 139.391 154.955 139.236C155.069 139.081 155.223 138.96 155.402 138.888Z" fill="#BA68C8"/>
<path opacity="0.75" d="M155.402 138.888L163.991 133.964C164.429 133.741 164.919 133.639 165.41 133.67C165.901 133.702 166.374 133.864 166.779 134.142L172.474 138.483C172.642 138.578 172.779 138.719 172.871 138.888C172.963 139.058 173.004 139.25 172.992 139.442C172.979 139.634 172.912 139.819 172.799 139.975C172.685 140.132 172.53 140.253 172.351 140.326L163.762 145.249C163.325 145.474 162.834 145.576 162.343 145.545C161.852 145.514 161.379 145.35 160.974 145.072L155.263 140.731C155.097 140.632 154.962 140.49 154.873 140.32C154.784 140.149 154.745 139.958 154.759 139.766C154.774 139.575 154.842 139.391 154.955 139.236C155.069 139.081 155.223 138.96 155.402 138.888Z" fill="white"/>
<path d="M150.673 122.417L149.033 122.456L144.443 118.97C144.038 118.692 143.565 118.528 143.074 118.496C142.583 118.464 142.093 118.564 141.654 118.787L134.633 122.817L132.402 122.873V124.66C132.413 124.839 132.464 125.013 132.553 125.169C132.642 125.325 132.766 125.459 132.915 125.559L138.665 129.878C139.07 130.156 139.543 130.32 140.034 130.352C140.525 130.385 141.015 130.284 141.454 130.061L150.037 125.132C150.218 125.046 150.373 124.913 150.485 124.747C150.597 124.581 150.662 124.388 150.673 124.188V122.417Z" fill="#BA68C8"/>
<path opacity="0.1" d="M150.673 122.417L149.033 122.456L144.443 118.97C144.038 118.692 143.565 118.528 143.074 118.496C142.583 118.464 142.093 118.564 141.654 118.787L134.633 122.817L132.402 122.873V124.66C132.413 124.839 132.464 125.013 132.553 125.169C132.642 125.325 132.766 125.459 132.915 125.559L138.665 129.878C139.07 130.156 139.543 130.32 140.034 130.352C140.525 130.385 141.015 130.284 141.454 130.061L150.037 125.132C150.218 125.046 150.373 124.913 150.485 124.747C150.597 124.581 150.662 124.388 150.673 124.188V122.417Z" fill="black"/>
<path d="M133.071 121.929L141.66 116.999C142.098 116.777 142.589 116.676 143.08 116.709C143.57 116.741 144.043 116.905 144.448 117.183L150.165 121.518C150.333 121.614 150.471 121.754 150.562 121.924C150.654 122.094 150.696 122.286 150.683 122.478C150.67 122.67 150.603 122.855 150.49 123.011C150.377 123.167 150.222 123.288 150.042 123.361L141.459 128.29C141.021 128.513 140.53 128.614 140.039 128.581C139.549 128.549 139.076 128.385 138.671 128.107L132.954 123.772C132.787 123.675 132.651 123.535 132.561 123.366C132.47 123.197 132.428 123.006 132.441 122.814C132.453 122.623 132.518 122.439 132.629 122.282C132.741 122.126 132.894 122.004 133.071 121.929Z" fill="#BA68C8"/>
<path opacity="0.75" d="M133.071 121.929L141.66 116.999C142.098 116.777 142.589 116.676 143.08 116.709C143.57 116.741 144.043 116.905 144.448 117.183L150.165 121.518C150.333 121.614 150.471 121.754 150.562 121.924C150.654 122.094 150.696 122.286 150.683 122.478C150.67 122.67 150.603 122.855 150.49 123.011C150.377 123.167 150.222 123.288 150.042 123.361L141.459 128.29C141.021 128.513 140.53 128.614 140.039 128.581C139.549 128.549 139.076 128.385 138.671 128.107L132.954 123.772C132.787 123.675 132.651 123.535 132.561 123.366C132.47 123.197 132.428 123.006 132.441 122.814C132.453 122.623 132.518 122.439 132.629 122.282C132.741 122.126 132.894 122.004 133.071 121.929Z" fill="white"/>
<path d="M161.838 130.894L160.198 130.938L155.608 127.447C155.203 127.17 154.73 127.007 154.239 126.976C153.748 126.944 153.258 127.046 152.82 127.269L145.798 131.299L143.595 131.355V133.142C143.605 133.321 143.656 133.495 143.745 133.65C143.834 133.805 143.959 133.937 144.108 134.036L149.819 138.377C150.224 138.655 150.698 138.819 151.189 138.85C151.68 138.881 152.171 138.779 152.608 138.555L161.191 133.631C161.372 133.544 161.527 133.41 161.638 133.243C161.749 133.075 161.812 132.882 161.821 132.681L161.838 130.894Z" fill="#BA68C8"/>
<path opacity="0.1" d="M161.838 130.894L160.198 130.938L155.608 127.447C155.203 127.17 154.73 127.007 154.239 126.976C153.748 126.944 153.258 127.046 152.82 127.269L145.798 131.299L143.595 131.355V133.142C143.605 133.321 143.656 133.495 143.745 133.65C143.834 133.805 143.959 133.937 144.108 134.036L149.819 138.377C150.224 138.655 150.698 138.819 151.189 138.85C151.68 138.881 152.171 138.779 152.608 138.555L161.191 133.631C161.372 133.544 161.527 133.41 161.638 133.243C161.749 133.075 161.812 132.882 161.821 132.681L161.838 130.894Z" fill="black"/>
<path d="M144.236 130.433L152.825 125.504C153.263 125.28 153.753 125.179 154.244 125.21C154.735 125.241 155.208 125.404 155.614 125.681L161.319 130C161.487 130.095 161.625 130.236 161.717 130.406C161.808 130.576 161.85 130.767 161.837 130.96C161.824 131.152 161.758 131.337 161.644 131.493C161.531 131.649 161.376 131.77 161.197 131.843L152.613 136.767C152.176 136.991 151.686 137.094 151.194 137.062C150.703 137.031 150.23 136.867 149.825 136.589L144.114 132.248C143.953 132.15 143.823 132.01 143.736 131.844C143.65 131.677 143.611 131.491 143.623 131.304C143.636 131.117 143.7 130.937 143.808 130.783C143.916 130.63 144.064 130.509 144.236 130.433Z" fill="#BA68C8"/>
<path opacity="0.75" d="M144.236 130.433L152.825 125.504C153.263 125.28 153.753 125.179 154.244 125.21C154.735 125.241 155.208 125.404 155.614 125.681L161.319 130C161.487 130.095 161.625 130.236 161.717 130.406C161.808 130.576 161.85 130.767 161.837 130.96C161.824 131.152 161.758 131.337 161.644 131.493C161.531 131.649 161.376 131.77 161.197 131.843L152.613 136.767C152.176 136.991 151.686 137.094 151.194 137.062C150.703 137.031 150.23 136.867 149.825 136.589L144.114 132.248C143.953 132.15 143.823 132.01 143.736 131.844C143.65 131.677 143.611 131.491 143.623 131.304C143.636 131.117 143.7 130.937 143.808 130.783C143.916 130.63 144.064 130.509 144.236 130.433Z" fill="white"/>
<path d="M156.741 104.049L155.101 104.093L150.511 100.602C150.105 100.324 149.632 100.162 149.141 100.13C148.65 100.099 148.16 100.2 147.722 100.424L140.684 104.454L138.453 104.51V106.297C138.464 106.475 138.516 106.649 138.605 106.804C138.694 106.959 138.817 107.091 138.966 107.191L144.733 111.559C145.138 111.838 145.611 112.001 146.103 112.033C146.594 112.064 147.084 111.962 147.522 111.737L156.11 106.813C156.292 106.726 156.446 106.592 156.557 106.425C156.668 106.258 156.731 106.064 156.741 105.864V104.049Z" fill="#BA68C8"/>
<path opacity="0.1" d="M156.741 104.049L155.101 104.093L150.511 100.602C150.105 100.324 149.632 100.162 149.141 100.13C148.65 100.099 148.16 100.2 147.722 100.424L140.684 104.454L138.453 104.51V106.297C138.464 106.475 138.516 106.649 138.605 106.804C138.694 106.959 138.817 107.091 138.966 107.191L144.733 111.559C145.138 111.838 145.611 112.001 146.103 112.033C146.594 112.064 147.084 111.962 147.522 111.737L156.11 106.813C156.292 106.726 156.446 106.592 156.557 106.425C156.668 106.258 156.731 106.064 156.741 105.864V104.049Z" fill="black"/>
<path d="M139.139 103.566L147.728 98.6366C148.165 98.4131 148.656 98.3117 149.147 98.3429C149.638 98.3742 150.111 98.5371 150.516 98.8142L156.227 103.155C156.394 103.252 156.53 103.392 156.621 103.561C156.711 103.731 156.753 103.921 156.741 104.113C156.729 104.304 156.663 104.488 156.552 104.645C156.44 104.801 156.288 104.923 156.11 104.998L147.521 109.922C147.084 110.147 146.594 110.249 146.102 110.217C145.611 110.186 145.138 110.023 144.733 109.744L139.011 105.403C138.844 105.307 138.708 105.166 138.618 104.997C138.528 104.827 138.488 104.636 138.501 104.445C138.514 104.254 138.581 104.07 138.694 103.915C138.807 103.76 138.961 103.639 139.139 103.566Z" fill="#BA68C8"/>
<path opacity="0.75" d="M139.139 103.566L147.728 98.6366C148.165 98.4131 148.656 98.3117 149.147 98.3429C149.638 98.3742 150.111 98.5371 150.516 98.8142L156.227 103.155C156.394 103.252 156.53 103.392 156.621 103.561C156.711 103.731 156.753 103.921 156.741 104.113C156.729 104.304 156.663 104.488 156.552 104.645C156.44 104.801 156.288 104.923 156.11 104.998L147.521 109.922C147.084 110.147 146.594 110.249 146.102 110.217C145.611 110.186 145.138 110.023 144.733 109.744L139.011 105.403C138.844 105.307 138.708 105.166 138.618 104.997C138.528 104.827 138.488 104.636 138.501 104.445C138.514 104.254 138.581 104.07 138.694 103.915C138.807 103.76 138.961 103.639 139.139 103.566Z" fill="white"/>
<path d="M190.237 129.495L188.597 129.534L184.007 126.042C183.601 125.766 183.128 125.604 182.637 125.572C182.147 125.541 181.657 125.642 181.219 125.864L174.203 129.878L171.972 129.933V131.721C171.982 131.9 172.033 132.074 172.122 132.23C172.211 132.386 172.335 132.52 172.485 132.62L178.196 136.955C178.601 137.233 179.074 137.397 179.565 137.43C180.056 137.462 180.546 137.361 180.984 137.139L189.568 132.209C189.749 132.122 189.903 131.988 190.014 131.821C190.125 131.654 190.189 131.46 190.198 131.26L190.237 129.495Z" fill="#BA68C8"/>
<path opacity="0.1" d="M190.237 129.495L188.597 129.534L184.007 126.042C183.601 125.766 183.128 125.604 182.637 125.572C182.147 125.541 181.657 125.642 181.219 125.864L174.203 129.878L171.972 129.933V131.721C171.982 131.9 172.033 132.074 172.122 132.23C172.211 132.386 172.335 132.52 172.485 132.62L178.196 136.955C178.601 137.233 179.074 137.397 179.565 137.43C180.056 137.462 180.546 137.361 180.984 137.139L189.568 132.209C189.749 132.122 189.903 131.988 190.014 131.821C190.125 131.654 190.189 131.46 190.198 131.26L190.237 129.495Z" fill="black"/>
<path d="M172.635 129.007L181.224 124.077C181.663 123.855 182.153 123.754 182.644 123.786C183.135 123.819 183.608 123.982 184.013 124.261L189.724 128.596C189.892 128.691 190.03 128.832 190.121 129.002C190.213 129.172 190.255 129.363 190.242 129.556C190.229 129.748 190.162 129.933 190.049 130.089C189.936 130.245 189.78 130.366 189.601 130.439L181.018 135.368C180.58 135.591 180.089 135.692 179.598 135.659C179.107 135.627 178.634 135.463 178.229 135.185L172.518 130.85C172.352 130.753 172.216 130.613 172.125 130.444C172.034 130.274 171.993 130.084 172.005 129.892C172.017 129.701 172.083 129.517 172.194 129.36C172.305 129.204 172.458 129.082 172.635 129.007Z" fill="#BA68C8"/>
<path opacity="0.75" d="M172.635 129.007L181.224 124.077C181.663 123.855 182.153 123.754 182.644 123.786C183.135 123.819 183.608 123.982 184.013 124.261L189.724 128.596C189.892 128.691 190.03 128.832 190.121 129.002C190.213 129.172 190.255 129.363 190.242 129.556C190.229 129.748 190.162 129.933 190.049 130.089C189.936 130.245 189.78 130.366 189.601 130.439L181.018 135.368C180.58 135.591 180.089 135.692 179.598 135.659C179.107 135.627 178.634 135.463 178.229 135.185L172.518 130.85C172.352 130.753 172.216 130.613 172.125 130.444C172.034 130.274 171.993 130.084 172.005 129.892C172.017 129.701 172.083 129.517 172.194 129.36C172.305 129.204 172.458 129.082 172.635 129.007Z" fill="white"/>
<path d="M167.906 112.531L166.267 112.575L161.677 109.084C161.272 108.805 160.798 108.642 160.307 108.611C159.816 108.579 159.326 108.681 158.888 108.906L151.867 112.931L149.664 112.986V114.774C149.673 114.953 149.725 115.127 149.814 115.283C149.903 115.439 150.027 115.573 150.177 115.673L155.888 120.014C156.293 120.291 156.766 120.454 157.257 120.485C157.748 120.516 158.239 120.415 158.676 120.191L167.265 115.268C167.445 115.183 167.599 115.052 167.711 114.888C167.823 114.724 167.888 114.533 167.901 114.335L167.906 112.531Z" fill="#BA68C8"/>
<path opacity="0.1" d="M167.906 112.531L166.267 112.575L161.677 109.084C161.272 108.805 160.798 108.642 160.307 108.611C159.816 108.579 159.326 108.681 158.888 108.906L151.867 112.931L149.664 112.986V114.774C149.673 114.953 149.725 115.127 149.814 115.283C149.903 115.439 150.027 115.573 150.177 115.673L155.888 120.014C156.293 120.291 156.766 120.454 157.257 120.485C157.748 120.516 158.239 120.415 158.676 120.191L167.265 115.268C167.445 115.183 167.599 115.052 167.711 114.888C167.823 114.724 167.888 114.533 167.901 114.335L167.906 112.531Z" fill="black"/>
<path d="M150.305 112.042L158.894 107.119C159.331 106.895 159.822 106.794 160.313 106.825C160.803 106.856 161.277 107.019 161.682 107.296L167.393 111.637C167.56 111.734 167.696 111.874 167.787 112.043C167.877 112.212 167.919 112.403 167.907 112.595C167.894 112.786 167.829 112.97 167.718 113.126C167.606 113.283 167.453 113.405 167.276 113.48L158.687 118.404C158.25 118.627 157.759 118.729 157.268 118.698C156.778 118.666 156.304 118.503 155.899 118.226L150.165 113.885C150 113.787 149.865 113.645 149.776 113.474C149.687 113.304 149.648 113.112 149.662 112.921C149.677 112.729 149.744 112.546 149.858 112.391C149.971 112.235 150.126 112.115 150.305 112.042Z" fill="#BA68C8"/>
<path opacity="0.75" d="M150.305 112.042L158.894 107.119C159.331 106.895 159.822 106.794 160.313 106.825C160.803 106.856 161.277 107.019 161.682 107.296L167.393 111.637C167.56 111.734 167.696 111.874 167.787 112.043C167.877 112.212 167.919 112.403 167.907 112.595C167.894 112.786 167.829 112.97 167.718 113.126C167.606 113.283 167.453 113.405 167.276 113.48L158.687 118.404C158.25 118.627 157.759 118.729 157.268 118.698C156.778 118.666 156.304 118.503 155.899 118.226L150.165 113.885C150 113.787 149.865 113.645 149.776 113.474C149.687 113.304 149.648 113.112 149.662 112.921C149.677 112.729 149.744 112.546 149.858 112.391C149.971 112.235 150.126 112.115 150.305 112.042Z" fill="white"/>
<path d="M179.072 120.996L177.432 121.035L172.842 117.549C172.437 117.271 171.963 117.107 171.472 117.076C170.981 117.045 170.491 117.147 170.053 117.371L163.032 121.396L160.829 121.451V123.239C160.838 123.418 160.89 123.593 160.979 123.749C161.068 123.905 161.192 124.038 161.342 124.138L167.053 128.479C167.459 128.755 167.932 128.917 168.423 128.949C168.913 128.98 169.403 128.879 169.841 128.657L178.43 123.772C178.612 123.686 178.767 123.553 178.879 123.387C178.99 123.221 179.055 123.028 179.066 122.828L179.072 120.996Z" fill="#BA68C8"/>
<path opacity="0.1" d="M179.072 120.996L177.432 121.035L172.842 117.549C172.437 117.271 171.963 117.107 171.472 117.076C170.981 117.045 170.491 117.147 170.053 117.371L163.032 121.396L160.829 121.451V123.239C160.838 123.418 160.89 123.593 160.979 123.749C161.068 123.905 161.192 124.038 161.342 124.138L167.053 128.479C167.459 128.755 167.932 128.917 168.423 128.949C168.913 128.98 169.403 128.879 169.841 128.657L178.43 123.772C178.612 123.686 178.767 123.553 178.879 123.387C178.99 123.221 179.055 123.028 179.066 122.828L179.072 120.996Z" fill="black"/>
<path d="M161.47 120.524L170.059 115.6C170.496 115.376 170.987 115.274 171.478 115.305C171.969 115.336 172.442 115.5 172.847 115.778L178.558 120.119C178.727 120.214 178.865 120.354 178.957 120.523C179.049 120.692 179.091 120.884 179.078 121.076C179.065 121.268 178.998 121.453 178.884 121.608C178.771 121.764 178.615 121.885 178.436 121.956L169.852 126.886C169.415 127.109 168.924 127.211 168.434 127.179C167.943 127.148 167.469 126.985 167.064 126.708L161.353 122.367C161.186 122.271 161.05 122.13 160.96 121.961C160.869 121.792 160.827 121.601 160.839 121.41C160.852 121.218 160.917 121.034 161.028 120.878C161.14 120.721 161.293 120.599 161.47 120.524Z" fill="#BA68C8"/>
<path opacity="0.75" d="M161.47 120.524L170.059 115.6C170.496 115.376 170.987 115.274 171.478 115.305C171.969 115.336 172.442 115.5 172.847 115.778L178.558 120.119C178.727 120.214 178.865 120.354 178.957 120.523C179.049 120.692 179.091 120.884 179.078 121.076C179.065 121.268 178.998 121.453 178.884 121.608C178.771 121.764 178.615 121.885 178.436 121.956L169.852 126.886C169.415 127.109 168.924 127.211 168.434 127.179C167.943 127.148 167.469 126.985 167.064 126.708L161.353 122.367C161.186 122.271 161.05 122.13 160.96 121.961C160.869 121.792 160.827 121.601 160.839 121.41C160.852 121.218 160.917 121.034 161.028 120.878C161.14 120.721 161.293 120.599 161.47 120.524Z" fill="white"/>
<path d="M173.969 94.1622L172.329 94.2011L167.739 90.715C167.334 90.4367 166.861 90.2731 166.37 90.2418C165.879 90.2106 165.388 90.3127 164.951 90.5373L157.929 94.5619L155.726 94.6174V96.4049C155.736 96.584 155.787 96.7585 155.876 96.9145C155.965 97.0706 156.09 97.2039 156.239 97.3041L161.95 101.645C162.356 101.922 162.829 102.085 163.32 102.116C163.811 102.148 164.301 102.046 164.739 101.823L173.322 96.8934C173.504 96.8076 173.659 96.6747 173.77 96.5086C173.882 96.3425 173.947 96.1494 173.958 95.9497L173.969 94.1622Z" fill="#BA68C8"/>
<path opacity="0.1" d="M173.969 94.1622L172.329 94.2011L167.739 90.715C167.334 90.4367 166.861 90.2731 166.37 90.2418C165.879 90.2106 165.388 90.3127 164.951 90.5373L157.929 94.5619L155.726 94.6174V96.4049C155.736 96.584 155.787 96.7585 155.876 96.9145C155.965 97.0706 156.09 97.2039 156.239 97.3041L161.95 101.645C162.356 101.922 162.829 102.085 163.32 102.116C163.811 102.148 164.301 102.046 164.739 101.823L173.322 96.8934C173.504 96.8076 173.659 96.6747 173.77 96.5086C173.882 96.3425 173.947 96.1494 173.958 95.9497L173.969 94.1622Z" fill="black"/>
<path d="M156.367 93.6736L164.956 88.7497C165.393 88.5251 165.884 88.423 166.375 88.4543C166.866 88.4855 167.339 88.6491 167.744 88.9274L173.455 93.2683C173.624 93.363 173.762 93.503 173.854 93.6724C173.946 93.8417 173.988 94.0334 173.975 94.2255C173.962 94.4175 173.895 94.602 173.781 94.7578C173.668 94.9135 173.512 95.0341 173.333 95.1058L164.749 100.035C164.312 100.259 163.821 100.36 163.331 100.329C162.84 100.298 162.366 100.135 161.961 99.8575L156.25 95.5165C156.083 95.4201 155.947 95.2795 155.857 95.1103C155.766 94.9412 155.724 94.7503 155.736 94.559C155.749 94.3677 155.814 94.1836 155.925 94.0272C156.037 93.8708 156.19 93.7484 156.367 93.6736Z" fill="#BA68C8"/>
<path opacity="0.75" d="M156.367 93.6736L164.956 88.7497C165.393 88.5251 165.884 88.423 166.375 88.4543C166.866 88.4855 167.339 88.6491 167.744 88.9274L173.455 93.2683C173.624 93.363 173.762 93.503 173.854 93.6724C173.946 93.8417 173.988 94.0334 173.975 94.2255C173.962 94.4175 173.895 94.602 173.781 94.7578C173.668 94.9135 173.512 95.0341 173.333 95.1058L164.749 100.035C164.312 100.259 163.821 100.36 163.331 100.329C162.84 100.298 162.366 100.135 161.961 99.8575L156.25 95.5165C156.083 95.4201 155.947 95.2795 155.857 95.1103C155.766 94.9412 155.724 94.7503 155.736 94.559C155.749 94.3677 155.814 94.1836 155.925 94.0272C156.037 93.8708 156.19 93.7484 156.367 93.6736Z" fill="white"/>
<path d="M207.465 119.603L205.825 119.648L201.235 116.156C200.83 115.878 200.357 115.714 199.866 115.683C199.375 115.652 198.884 115.754 198.447 115.978L191.436 120.003L189.233 120.059V121.846C189.242 122.025 189.293 122.2 189.382 122.357C189.471 122.513 189.596 122.646 189.747 122.745L195.458 127.103C195.863 127.381 196.336 127.545 196.827 127.576C197.318 127.607 197.809 127.505 198.246 127.281L206.835 122.357C207.016 122.27 207.171 122.136 207.282 121.969C207.392 121.801 207.456 121.608 207.465 121.407V119.603Z" fill="#BA68C8"/>
<path opacity="0.1" d="M207.465 119.603L205.825 119.648L201.235 116.156C200.83 115.878 200.357 115.714 199.866 115.683C199.375 115.652 198.884 115.754 198.447 115.978L191.436 120.003L189.233 120.059V121.846C189.242 122.025 189.293 122.2 189.382 122.357C189.471 122.513 189.596 122.646 189.747 122.745L195.458 127.103C195.863 127.381 196.336 127.545 196.827 127.576C197.318 127.607 197.809 127.505 198.246 127.281L206.835 122.357C207.016 122.27 207.171 122.136 207.282 121.969C207.392 121.801 207.456 121.608 207.465 121.407V119.603Z" fill="black"/>
<path d="M189.864 119.115L198.453 114.191C198.89 113.967 199.381 113.866 199.871 113.897C200.362 113.928 200.836 114.091 201.241 114.368L206.952 118.709C207.12 118.805 207.258 118.946 207.349 119.115C207.441 119.285 207.483 119.477 207.47 119.669C207.457 119.861 207.39 120.046 207.277 120.202C207.164 120.358 207.009 120.48 206.829 120.552L198.241 125.476C197.803 125.701 197.313 125.803 196.822 125.772C196.33 125.74 195.857 125.577 195.452 125.299L189.763 120.958C189.596 120.863 189.459 120.723 189.367 120.555C189.275 120.387 189.232 120.197 189.242 120.005C189.253 119.814 189.316 119.63 189.426 119.472C189.536 119.315 189.687 119.191 189.864 119.115Z" fill="#BA68C8"/>
<path opacity="0.75" d="M189.864 119.115L198.453 114.191C198.89 113.967 199.381 113.866 199.871 113.897C200.362 113.928 200.836 114.091 201.241 114.368L206.952 118.709C207.12 118.805 207.258 118.946 207.349 119.115C207.441 119.285 207.483 119.477 207.47 119.669C207.457 119.861 207.39 120.046 207.277 120.202C207.164 120.358 207.009 120.48 206.829 120.552L198.241 125.476C197.803 125.701 197.313 125.803 196.822 125.772C196.33 125.74 195.857 125.577 195.452 125.299L189.763 120.958C189.596 120.863 189.459 120.723 189.367 120.555C189.275 120.387 189.232 120.197 189.242 120.005C189.253 119.814 189.316 119.63 189.426 119.472C189.536 119.315 189.687 119.191 189.864 119.115Z" fill="white"/>
<path d="M196.299 111.121L194.66 111.166L190.07 107.674C189.664 107.397 189.191 107.234 188.7 107.203C188.209 107.172 187.719 107.273 187.281 107.496L180.282 111.527L178.051 111.582V113.37C178.06 113.548 178.111 113.722 178.201 113.877C178.29 114.032 178.414 114.165 178.564 114.263L184.275 118.604C184.679 118.884 185.153 119.048 185.644 119.079C186.136 119.111 186.626 119.008 187.063 118.782L195.652 113.858C195.834 113.771 195.988 113.637 196.099 113.47C196.21 113.303 196.273 113.109 196.283 112.909L196.299 111.121Z" fill="#BA68C8"/>
<path opacity="0.1" d="M196.299 111.121L194.66 111.166L190.07 107.674C189.664 107.397 189.191 107.234 188.7 107.203C188.209 107.172 187.719 107.273 187.281 107.496L180.282 111.527L178.051 111.582V113.37C178.06 113.548 178.111 113.722 178.201 113.877C178.29 114.032 178.414 114.165 178.564 114.263L184.275 118.604C184.679 118.884 185.153 119.048 185.644 119.079C186.136 119.111 186.626 119.008 187.063 118.782L195.652 113.858C195.834 113.771 195.988 113.637 196.099 113.47C196.21 113.303 196.273 113.109 196.283 112.909L196.299 111.121Z" fill="black"/>
<path d="M178.698 110.638L187.286 105.708C187.724 105.485 188.214 105.383 188.705 105.414C189.196 105.446 189.67 105.609 190.075 105.886L195.786 110.227C195.954 110.322 196.092 110.463 196.183 110.633C196.275 110.802 196.317 110.994 196.304 111.186C196.291 111.379 196.224 111.563 196.111 111.72C195.998 111.876 195.843 111.997 195.663 112.07L187.075 116.994C186.637 117.219 186.147 117.322 185.655 117.291C185.164 117.26 184.69 117.095 184.286 116.816L178.608 112.475C178.441 112.382 178.302 112.244 178.209 112.077C178.116 111.909 178.072 111.72 178.081 111.529C178.09 111.338 178.153 111.153 178.262 110.996C178.371 110.838 178.522 110.714 178.698 110.638Z" fill="#BA68C8"/>
<path opacity="0.75" d="M178.698 110.638L187.286 105.708C187.724 105.485 188.214 105.383 188.705 105.414C189.196 105.446 189.67 105.609 190.075 105.886L195.786 110.227C195.954 110.322 196.092 110.463 196.183 110.633C196.275 110.802 196.317 110.994 196.304 111.186C196.291 111.379 196.224 111.563 196.111 111.72C195.998 111.876 195.843 111.997 195.663 112.07L187.075 116.994C186.637 117.219 186.147 117.322 185.655 117.291C185.164 117.26 184.69 117.095 184.286 116.816L178.608 112.475C178.441 112.382 178.302 112.244 178.209 112.077C178.116 111.909 178.072 111.72 178.081 111.529C178.09 111.338 178.153 111.153 178.262 110.996C178.371 110.838 178.522 110.714 178.698 110.638Z" fill="white"/>
<path d="M185.134 102.645L183.495 102.684L178.905 99.1975C178.5 98.9195 178.027 98.7557 177.536 98.7234C177.045 98.6912 176.554 98.7917 176.116 99.0144L169.128 103.044L166.925 103.1V104.899C166.934 105.078 166.985 105.252 167.075 105.409C167.164 105.565 167.288 105.698 167.438 105.798L173.149 110.133C173.554 110.411 174.027 110.575 174.518 110.607C175.009 110.64 175.499 110.539 175.938 110.316L184.521 105.387C184.701 105.301 184.855 105.167 184.966 105.001C185.077 104.835 185.141 104.642 185.151 104.443L185.134 102.645Z" fill="#BA68C8"/>
<path opacity="0.1" d="M185.134 102.645L183.495 102.684L178.905 99.1975C178.5 98.9195 178.027 98.7557 177.536 98.7234C177.045 98.6912 176.554 98.7917 176.116 99.0144L169.128 103.044L166.925 103.1V104.899C166.934 105.078 166.985 105.252 167.075 105.409C167.164 105.565 167.288 105.698 167.438 105.798L173.149 110.133C173.554 110.411 174.027 110.575 174.518 110.607C175.009 110.64 175.499 110.539 175.938 110.316L184.521 105.387C184.701 105.301 184.855 105.167 184.966 105.001C185.077 104.835 185.141 104.642 185.151 104.443L185.134 102.645Z" fill="black"/>
<path d="M167.532 102.156L176.121 97.2268C176.559 97.0041 177.05 96.9036 177.54 96.9358C178.031 96.9681 178.504 97.1319 178.909 97.41L184.62 101.745C184.788 101.841 184.926 101.982 185.018 102.151C185.109 102.321 185.151 102.513 185.138 102.705C185.125 102.897 185.059 103.082 184.945 103.238C184.832 103.394 184.677 103.516 184.498 103.588L175.914 108.518C175.476 108.74 174.986 108.841 174.495 108.809C174.004 108.776 173.531 108.613 173.126 108.335L167.415 103.999C167.248 103.903 167.112 103.762 167.022 103.593C166.931 103.424 166.889 103.233 166.901 103.042C166.914 102.85 166.979 102.666 167.09 102.51C167.202 102.353 167.355 102.231 167.532 102.156Z" fill="#BA68C8"/>
<path opacity="0.75" d="M167.532 102.156L176.121 97.2268C176.559 97.0041 177.05 96.9036 177.54 96.9358C178.031 96.9681 178.504 97.1319 178.909 97.41L184.62 101.745C184.788 101.841 184.926 101.982 185.018 102.151C185.109 102.321 185.151 102.513 185.138 102.705C185.125 102.897 185.059 103.082 184.945 103.238C184.832 103.394 184.677 103.516 184.498 103.588L175.914 108.518C175.476 108.74 174.986 108.841 174.495 108.809C174.004 108.776 173.531 108.613 173.126 108.335L167.415 103.999C167.248 103.903 167.112 103.762 167.022 103.593C166.931 103.424 166.889 103.233 166.901 103.042C166.914 102.85 166.979 102.666 167.09 102.51C167.202 102.353 167.355 102.231 167.532 102.156Z" fill="white"/>
</g>
</g>
<path d="M10.79 107.999C16.7491 107.999 21.5799 103.222 21.5799 97.3287C21.5799 91.4357 16.7491 86.6584 10.79 86.6584C4.83083 86.6584 0 91.4357 0 97.3287C0 103.222 4.83083 107.999 10.79 107.999Z" fill="#D8D8D8"/>
<path d="M149.675 57.1201C153.473 57.1201 156.551 54.2786 156.551 50.7734C156.551 47.2683 153.473 44.4268 149.675 44.4268C145.878 44.4268 142.8 47.2683 142.8 50.7734C142.8 54.2786 145.878 57.1201 149.675 57.1201Z" fill="#D8D8D8"/>
<path d="M17.3786 81.2358C20.6633 81.2358 23.326 78.6025 23.326 75.3543C23.326 72.1061 20.6633 69.4729 17.3786 69.4729C14.0939 69.4729 11.4312 72.1061 11.4312 75.3543C11.4312 78.6025 14.0939 81.2358 17.3786 81.2358Z" fill="#D8D8D8"/>
<path d="M134.338 32.7912C136.09 32.7912 137.511 31.3705 137.511 29.6179C137.511 27.8653 136.09 26.4446 134.338 26.4446C132.585 26.4446 131.165 27.8653 131.165 29.6179C131.165 31.3705 132.585 32.7912 134.338 32.7912Z" fill="#D8D8D8"/>
</svg>
