<svg width="198" height="190" viewBox="0 0 198 190" fill="none" xmlns="http://www.w3.org/2000/svg">
<g style="mix-blend-mode:luminosity" clip-path="url(#clip0_415_12665)">
<path d="M41.3981 72.2364C38.9239 54.7048 25.6771 48.9821 29.324 37.7378C35.9499 17.3007 85.9039 17.178 94.0539 17.1338C120.508 17.0553 163.42 16.9326 181.012 47.3182C189.117 61.3209 177.281 69.64 182.462 105.297C185.535 126.46 189.959 129.017 187.776 138.357C181.18 166.549 132.849 177.519 125.922 179.094C74.3395 190.8 9.13953 174.481 4.19114 147.948C-0.217882 124.213 46.3069 106.995 41.3981 72.2364Z" fill="#E3EEFF"/>
<path d="M17.7299 125.42C14.8598 119.226 0.237322 87.6279 13.8652 68.4031C21.7826 57.2422 31.7289 60.7417 51.0622 48.2802C77.3827 31.3131 73.716 15.2932 92.6287 5.63911C117.786 -7.21995 160.001 2.95441 172.337 25.7621C184.263 47.8139 159.803 66.0571 171.348 98.5925C180.052 123.074 198.227 124.929 197.921 140.757C197.47 163.585 159.145 186.525 124.491 189.632C77.2838 193.867 34.4406 161.504 17.7299 125.42Z" fill="#C4DBFB"/>
<path d="M194.464 104.06C195.157 99.8272 192.259 95.8389 187.991 95.1518C183.724 94.4647 179.702 97.3391 179.01 101.572C178.317 105.805 181.215 109.793 185.483 110.48C189.75 111.167 193.771 108.293 194.464 104.06Z" fill="#C4DBFB"/>
<path d="M28.9417 29.1761C29.4891 26.8756 28.0527 24.5706 25.7333 24.0276C23.4139 23.4847 21.0899 24.9094 20.5425 27.2099C19.995 29.5103 21.4315 31.8154 23.7509 32.3584C26.0703 32.9013 28.3943 31.4766 28.9417 29.1761Z" fill="#C4DBFB"/>
<path d="M19.0608 53.7429C23.3843 53.7429 26.8891 50.2666 26.8891 45.9784C26.8891 41.6902 23.3843 38.2139 19.0608 38.2139C14.7373 38.2139 11.2324 41.6902 11.2324 45.9784C11.2324 50.2666 14.7373 53.7429 19.0608 53.7429Z" fill="#C4DBFB"/>
<path d="M23.8409 34.2679C26.224 34.2679 28.1559 32.3517 28.1559 29.9881C28.1559 27.6244 26.224 25.7083 23.8409 25.7083C21.4578 25.7083 19.5259 27.6244 19.5259 29.9881C19.5259 32.3517 21.4578 34.2679 23.8409 34.2679Z" fill="#C4DBFB"/>
<path d="M25.6475 159.369C28.0306 159.369 29.9625 157.453 29.9625 155.089C29.9625 152.725 28.0306 150.809 25.6475 150.809C23.2644 150.809 21.3325 152.725 21.3325 155.089C21.3325 157.453 23.2644 159.369 25.6475 159.369Z" fill="#C4DBFB"/>
<path d="M197.874 85.9678C198.422 83.6674 196.985 81.3623 194.666 80.8194C192.347 80.2764 190.023 81.7011 189.475 84.0016C188.928 86.3021 190.364 88.6071 192.683 89.1501C195.003 89.6931 197.327 88.2683 197.874 85.9678Z" fill="#C4DBFB"/>
<path d="M20.7979 131.467L22.4259 129.852C22.5946 129.675 22.687 129.439 22.6834 129.195C22.6798 128.951 22.5806 128.718 22.4067 128.546C22.2328 128.373 21.998 128.275 21.7522 128.271C21.5063 128.268 21.2687 128.36 21.0898 128.527L19.4618 130.142L17.8338 128.527C17.6566 128.351 17.4161 128.251 17.165 128.251C16.914 128.25 16.6731 128.349 16.4953 128.524C16.3174 128.7 16.2173 128.939 16.2168 129.188C16.2163 129.437 16.3156 129.676 16.4928 129.852L18.1208 131.467L16.4977 133.082C16.4095 133.168 16.3394 133.271 16.2916 133.385C16.2437 133.499 16.2191 133.621 16.2191 133.744C16.2191 133.867 16.2437 133.989 16.2916 134.103C16.3394 134.217 16.4095 134.32 16.4977 134.407C16.675 134.582 16.9152 134.681 17.1658 134.681C17.4163 134.681 17.6566 134.582 17.8338 134.407L19.4618 132.797L21.0849 134.407C21.1732 134.494 21.2781 134.564 21.3936 134.611C21.5091 134.658 21.6329 134.682 21.7579 134.682C21.8821 134.683 22.0053 134.659 22.1201 134.612C22.2348 134.564 22.3389 134.495 22.4259 134.407C22.5142 134.32 22.5842 134.217 22.6321 134.103C22.6799 133.989 22.7045 133.867 22.7045 133.744C22.7045 133.621 22.6799 133.499 22.6321 133.385C22.5842 133.271 22.5142 133.168 22.4259 133.082L20.7979 131.467Z" fill="#3A81F3"/>
<path d="M188.905 121.68L190.533 120.065C190.71 119.889 190.809 119.65 190.809 119.401C190.809 119.152 190.708 118.913 190.531 118.738C190.353 118.562 190.112 118.463 189.861 118.464C189.61 118.464 189.369 118.564 189.192 118.74L187.564 120.355L185.936 118.74C185.757 118.573 185.52 118.481 185.274 118.485C185.028 118.488 184.793 118.587 184.619 118.759C184.445 118.932 184.346 119.164 184.342 119.408C184.339 119.652 184.431 119.888 184.6 120.065L186.228 121.68L184.6 123.295C184.512 123.381 184.442 123.485 184.394 123.598C184.346 123.712 184.321 123.834 184.321 123.957C184.321 124.081 184.346 124.203 184.394 124.316C184.442 124.43 184.512 124.533 184.6 124.62C184.687 124.708 184.791 124.778 184.906 124.825C185.02 124.872 185.144 124.896 185.268 124.895C185.393 124.895 185.517 124.871 185.632 124.824C185.748 124.777 185.853 124.708 185.941 124.62L187.564 123.01L189.192 124.62C189.369 124.796 189.609 124.894 189.86 124.894C190.111 124.894 190.351 124.796 190.528 124.62C190.616 124.533 190.686 124.43 190.734 124.316C190.782 124.203 190.807 124.081 190.807 123.957C190.807 123.834 190.782 123.712 190.734 123.598C190.686 123.485 190.616 123.381 190.528 123.295L188.905 121.68Z" fill="#3A81F3"/>
<path d="M154.286 5.80613L155.993 4.27482C156.16 4.10274 156.254 3.8746 156.257 3.63634C156.261 3.39808 156.173 3.16739 156.012 2.99071C155.85 2.81403 155.628 2.70448 155.388 2.68411C155.149 2.66375 154.911 2.73407 154.722 2.88094L153.014 4.41716L151.471 2.72388C151.387 2.63236 151.287 2.55798 151.175 2.505C151.062 2.45201 150.941 2.42146 150.817 2.41508C150.693 2.4087 150.569 2.42661 150.452 2.46781C150.334 2.50901 150.227 2.57267 150.134 2.65517C150.042 2.73767 149.967 2.83739 149.914 2.94864C149.86 3.05988 149.83 3.18047 149.823 3.30353C149.817 3.42658 149.835 3.54969 149.876 3.66581C149.918 3.78194 149.982 3.88882 150.065 3.98034L151.609 5.67852L149.907 7.20492C149.814 7.287 149.738 7.38656 149.684 7.49784C149.631 7.60911 149.6 7.72989 149.593 7.85315C149.587 7.97642 149.605 8.09973 149.647 8.21594C149.689 8.33214 149.754 8.43893 149.838 8.5301C149.92 8.62231 150.02 8.69718 150.133 8.75029C150.245 8.80339 150.367 8.83366 150.491 8.8393C150.615 8.84601 150.739 8.82821 150.856 8.78693C150.974 8.74565 151.081 8.68171 151.174 8.59881L152.881 7.0675L154.42 8.76077C154.592 8.94306 154.827 9.05362 155.078 9.06998C155.265 9.07774 155.45 9.03071 155.609 8.93478C155.769 8.83884 155.897 8.69825 155.977 8.53061C156.057 8.36297 156.085 8.17572 156.058 7.9923C156.031 7.80887 155.95 7.63743 155.825 7.49941L154.286 5.80613Z" fill="#3A81F3"/>
<path d="M23.8907 79.0193L25.5187 77.4046C25.6958 77.2282 25.7951 76.9892 25.7947 76.7403C25.7942 76.4913 25.694 76.2527 25.5162 76.077C25.3384 75.9012 25.0974 75.8028 24.8464 75.8032C24.5954 75.8037 24.3548 75.903 24.1777 76.0794L22.5496 77.6942L20.9216 76.0745C20.7427 75.9071 20.5052 75.8155 20.2593 75.8191C20.0134 75.8226 19.7786 75.9211 19.6047 76.0935C19.4309 76.266 19.3316 76.4989 19.328 76.7427C19.3244 76.9866 19.4168 77.2223 19.5856 77.3997L21.2136 79.0144L19.5856 80.6292C19.4097 80.8056 19.311 81.0437 19.311 81.2917C19.311 81.5398 19.4097 81.7779 19.5856 81.9543C19.7636 82.1303 20.0047 82.229 20.2561 82.229C20.5074 82.229 20.7485 82.1303 20.9266 81.9543L22.5496 80.3445L24.1777 81.9543C24.3565 82.1217 24.5941 82.2133 24.84 82.2098C25.0859 82.2062 25.3206 82.1077 25.4945 81.9353C25.6684 81.7628 25.7677 81.53 25.7713 81.2861C25.7748 81.0422 25.6825 80.8066 25.5137 80.6292L23.8907 79.0193Z" fill="#3A81F3"/>
<path d="M6.16042 123.422C6.24296 123.554 6.29778 123.701 6.32158 123.855C6.34539 124.008 6.3377 124.165 6.29898 124.316C6.25006 124.517 6.14825 124.701 6.00394 124.85C5.85962 124.999 5.67797 125.108 5.47754 125.165L1.51883 126.318C1.319 126.375 1.10748 126.38 0.905445 126.331C0.703409 126.281 0.517944 126.18 0.36762 126.038C0.217296 125.895 0.107387 125.716 0.0488922 125.518C-0.00960267 125.32 -0.0146331 125.11 0.0343119 124.909L1.02399 120.914C1.07331 120.713 1.17542 120.528 1.31999 120.378C1.46457 120.228 1.64648 120.119 1.84734 120.061C2.04819 120.003 2.26087 119.999 2.46386 120.049C2.66685 120.099 2.85295 120.201 3.00335 120.345L5.99713 123.187C6.06149 123.258 6.11637 123.337 6.16042 123.422ZM0.954713 125.317C0.965687 125.335 0.978998 125.351 0.994301 125.366C1.02522 125.397 1.06428 125.419 1.10711 125.43C1.14993 125.44 1.19483 125.438 1.23678 125.425L5.19549 124.276C5.23821 124.264 5.27693 124.241 5.30772 124.209C5.33851 124.177 5.36028 124.138 5.37083 124.095C5.38138 124.052 5.38033 124.007 5.36779 123.965C5.35524 123.923 5.33165 123.885 5.2994 123.854L2.30563 121.017C2.27443 120.987 2.23547 120.964 2.1928 120.954C2.15013 120.943 2.10528 120.943 2.0629 120.955C2.02052 120.967 1.98214 120.99 1.95174 121.022C1.92133 121.053 1.9 121.093 1.88996 121.135L0.90028 125.125C0.897306 125.161 0.902438 125.196 0.915291 125.23C0.928145 125.263 0.948393 125.293 0.974511 125.317H0.954713Z" fill="#F9C067"/>
<path d="M61.4143 5.39882C61.4967 5.53176 61.5514 5.67973 61.5752 5.83399C61.599 5.98826 61.5914 6.14569 61.5528 6.29699C61.5058 6.49803 61.4052 6.68286 61.2616 6.83221C61.118 6.98156 60.9366 7.08995 60.7363 7.14608L56.7776 8.29456C56.5778 8.35194 56.3663 8.35624 56.1642 8.30705C55.9622 8.25785 55.7767 8.15688 55.6264 8.01425C55.4761 7.87161 55.3662 7.69231 55.3077 7.4943C55.2492 7.29628 55.2442 7.0865 55.2931 6.88595L56.2828 2.89572C56.3323 2.6945 56.4343 2.50971 56.5784 2.35983C56.7226 2.20996 56.9039 2.10027 57.1042 2.04172C57.3041 1.98241 57.5163 1.97706 57.719 2.02624C57.9217 2.07542 58.1075 2.17733 58.2572 2.32148L61.2262 5.16323C61.297 5.23503 61.36 5.31399 61.4143 5.39882ZM56.2086 7.31295C56.2195 7.33378 56.2347 7.35215 56.2531 7.36694C56.2846 7.39719 56.3237 7.41859 56.3663 7.42894C56.4089 7.43929 56.4535 7.43822 56.4956 7.42584L60.4543 6.27245C60.497 6.26108 60.5359 6.23856 60.5669 6.20722C60.5978 6.17589 60.6198 6.13688 60.6304 6.09428C60.641 6.05168 60.6399 6.00703 60.6272 5.96499C60.6145 5.92296 60.5907 5.88506 60.5582 5.85527L57.5644 3.01351C57.5316 2.98367 57.4917 2.96261 57.4484 2.95231C57.4051 2.942 57.3599 2.9428 57.317 2.95461C57.2746 2.96717 57.2363 2.99056 57.2059 3.02243C57.1755 3.05431 57.1541 3.09354 57.1438 3.13621L56.1541 7.12645C56.1496 7.15958 56.1521 7.19328 56.1615 7.22539C56.1709 7.2575 56.1869 7.28733 56.2086 7.31295Z" fill="#F9C067"/>
<path d="M188.702 166.702C188.563 166.818 188.399 166.902 188.222 166.945C188.045 166.989 187.861 166.991 187.683 166.953C187.505 166.915 187.338 166.836 187.196 166.723C187.053 166.611 186.939 166.468 186.861 166.304L185.099 162.584C185.011 162.397 184.974 162.19 184.992 161.985C185.009 161.779 185.081 161.581 185.2 161.412C185.318 161.242 185.48 161.107 185.668 161.019C185.857 160.931 186.065 160.893 186.272 160.91L190.404 161.259C190.612 161.275 190.812 161.346 190.983 161.464C191.155 161.582 191.291 161.743 191.38 161.931C191.468 162.118 191.505 162.325 191.487 162.531C191.468 162.737 191.395 162.935 191.275 163.104L188.91 166.476C188.852 166.561 188.782 166.637 188.702 166.702ZM186.01 161.892L185.965 161.941C185.943 161.979 185.932 162.022 185.932 162.066C185.932 162.11 185.943 162.153 185.965 162.191L187.727 165.912C187.746 165.952 187.775 165.986 187.811 166.011C187.848 166.036 187.891 166.051 187.935 166.054C187.978 166.058 188.022 166.05 188.062 166.031C188.101 166.012 188.134 165.982 188.158 165.946L190.528 162.574C190.551 162.537 190.563 162.495 190.563 162.451C190.563 162.408 190.551 162.366 190.528 162.329C190.511 162.289 190.482 162.254 190.447 162.229C190.411 162.204 190.369 162.189 190.325 162.186L186.193 161.838C186.16 161.834 186.127 161.837 186.096 161.847C186.065 161.856 186.035 161.871 186.01 161.892Z" fill="#F9C067"/>
<path d="M188.563 62.4157C188.518 62.5647 188.442 62.703 188.341 62.822C188.24 62.941 188.115 63.0382 187.975 63.1077C187.79 63.2023 187.583 63.2468 187.375 63.2364C187.168 63.2261 186.966 63.1613 186.792 63.0488L183.328 60.8206C183.153 60.7082 183.011 60.5522 182.916 60.3682C182.822 60.1843 182.777 59.9788 182.788 59.7724C182.798 59.566 182.863 59.366 182.976 59.1925C183.089 59.019 183.247 58.878 183.432 58.7837L187.119 56.9039C187.304 56.8097 187.512 56.7657 187.72 56.7762C187.928 56.7867 188.13 56.8514 188.305 56.9639C188.48 57.0763 188.622 57.2325 188.717 57.4167C188.812 57.6009 188.856 57.8066 188.846 58.0132L188.638 62.1163C188.628 62.2192 188.603 62.3201 188.563 62.4157ZM183.714 59.7506C183.713 59.7735 183.713 59.7964 183.714 59.8193C183.713 59.8632 183.723 59.9068 183.744 59.9455C183.764 59.9843 183.795 60.0169 183.833 60.0402L187.297 62.2684C187.335 62.2904 187.379 62.302 187.423 62.302C187.467 62.302 187.511 62.2904 187.549 62.2684C187.588 62.2495 187.621 62.2203 187.645 62.184C187.669 62.1476 187.682 62.1055 187.683 62.0623L187.89 57.9543C187.892 57.9109 187.882 57.8678 187.862 57.8292C187.843 57.7906 187.813 57.7576 187.777 57.7334C187.738 57.7124 187.695 57.7013 187.65 57.7013C187.606 57.7013 187.563 57.7124 187.524 57.7334L183.838 59.6083C183.779 59.638 183.735 59.689 183.714 59.7506Z" fill="#F9C067"/>
<g style="mix-blend-mode:luminosity">
<path d="M34.6803 70.7094C29.6871 72.3318 26.9583 77.6887 28.5811 82.6831C30.2039 87.6775 35.5602 90.4074 40.5535 88.785L153.294 52.1533C158.288 50.5308 161.016 45.1739 159.394 40.1795C157.771 35.1851 152.414 32.4552 147.421 34.0776L34.6803 70.7094Z" fill="#9A5F3B"/>
<path d="M42.8688 88.0329L162.33 49.2175L159.648 40.9637L48.439 77.0978C43.8812 78.5787 41.3876 83.474 42.8688 88.0329Z" fill="#FFFAD1"/>
<path d="M79.0773 92.1389L74.3178 92.4838L72.5906 55.6007C72.8036 54.9551 73.023 54.2863 73.2548 53.5706C73.8305 51.6555 74.7083 49.5248 75.6192 47.2201C76.0418 46.0647 76.6487 44.8893 77.1981 43.6698C77.4813 43.0642 77.7688 42.4501 78.0582 41.8211C78.3413 41.1943 78.7072 40.582 79.0369 39.9465C80.3452 37.4151 81.9055 34.8338 83.6249 32.2624C84.5408 30.9965 85.4015 29.6927 86.396 28.4498C86.8954 27.8347 87.399 27.2111 87.9026 26.5875C88.3998 25.9661 88.9119 25.3467 89.4687 24.7546C90.5673 23.5685 91.6191 22.3486 92.822 21.2404L94.5733 19.5572C95.1748 19.0137 95.7997 18.4976 96.414 17.971C98.8479 15.8584 101.476 14.0056 104.088 12.314C105.432 11.5189 106.719 10.6796 108.072 9.9947C108.745 9.63956 109.402 9.28237 110.06 8.94638C110.73 8.62729 111.396 8.31671 112.054 8.00192C112.703 7.68293 113.372 7.3999 114.032 7.13387C114.69 6.86148 115.333 6.58705 115.982 6.33166C117.294 5.859 118.549 5.36329 119.806 4.97993C122.293 4.15187 124.69 3.55957 126.892 3.06148C131.314 2.11611 134.304 2.00227 136.885 1.8713C138.952 1.76609 139.989 1.92443 139.989 1.92443C139.989 1.92443 139.782 2.00174 137.812 2.68318C135.41 3.51084 132.043 4.85617 128.269 6.85644C126.392 7.87456 124.394 9.01833 122.4 10.3805C121.388 11.0277 120.406 11.785 119.385 12.5128C118.885 12.8947 118.397 13.2935 117.894 13.6902C117.392 14.087 116.896 14.4816 116.414 14.9206C115.929 15.347 115.443 15.7733 114.952 16.2018C114.481 16.6514 114.013 17.1073 113.53 17.5612C112.563 18.4478 111.695 19.4569 110.779 20.4111C109.038 22.4165 107.367 24.4832 105.93 26.6971L104.851 28.3369L103.875 30.0334C103.194 31.1349 102.661 32.3205 102.088 33.449C101.787 34.0038 101.54 34.5902 101.299 35.1744C101.056 35.7522 100.811 36.3237 100.572 36.893C100.094 38.0317 99.7376 39.2144 99.3296 40.3294C98.6116 42.6184 98.0034 44.8347 97.5793 46.9887C97.4717 47.5278 97.3322 48.0351 97.2563 48.5634C97.1741 49.0939 97.094 49.6094 97.0202 50.1229C96.8789 51.1476 96.6694 52.0963 96.6148 53.0634C96.446 54.9681 96.3738 57.5551 96.3603 59.1241L109.082 60.4928L79.0985 92.1388L79.0773 92.1389Z" fill="#C99B36"/>
<path d="M74.3157 92.4774L53.8667 54.375L67.8269 55.9329C68.04 55.2873 68.2593 54.6184 68.4911 53.9028C69.0668 51.9877 69.9447 49.857 70.8555 47.5522C71.2781 46.3969 71.885 45.2215 72.4345 44.0019C72.7177 43.3963 73.0051 42.7822 73.2946 42.1533C73.5777 41.5265 73.9435 40.9141 74.2733 40.2786C75.5816 37.7473 77.1419 35.166 78.8612 32.5945C79.7772 31.3287 80.6378 30.0249 81.6323 28.782C82.1317 28.1669 82.6353 27.5433 83.1389 26.9197C83.6361 26.2982 84.1461 25.6725 84.705 25.0868C85.8036 23.9006 86.8555 22.6808 88.0584 21.5726L89.8096 19.8893C90.4111 19.3458 91.036 18.8298 91.6503 18.3032C94.0842 16.1905 96.7122 14.3377 99.324 12.6462C100.668 11.8511 101.955 11.0117 103.309 10.3269C103.981 9.97172 104.638 9.61453 105.296 9.27854C105.967 8.95945 106.633 8.64887 107.29 8.33408C107.94 8.01509 108.608 7.73206 109.268 7.46602C109.926 7.19364 110.569 6.91921 111.219 6.66382C112.531 6.19116 113.785 5.69545 115.043 5.31209C117.529 4.48402 119.926 3.89172 122.128 3.39364C126.55 2.44827 130.247 2.0597 132.833 1.92023C135.414 1.76805 136.881 1.85862 136.881 1.85862C136.881 1.85862 135.446 2.17498 133.046 3.00899C130.642 3.83031 127.278 5.18198 123.504 7.18225C121.626 8.20036 119.626 9.33779 117.634 10.7063C116.622 11.3535 115.64 12.1108 114.619 12.8386C114.119 13.2205 113.631 13.6193 113.129 14.0161C112.626 14.4128 112.13 14.8074 111.649 15.2464C111.163 15.6728 110.678 16.0991 110.186 16.5276C109.715 16.9772 109.247 17.4331 108.764 17.887C107.797 18.7736 106.929 19.7827 106.013 20.7369C104.272 22.7423 102.601 24.809 101.164 27.0229L100.085 28.6627L99.1094 30.3592C98.4279 31.4607 97.8953 32.6463 97.3221 33.7748C97.0216 34.3296 96.7744 34.916 96.5334 35.5002C96.2904 36.078 96.0451 36.6495 95.8062 37.2188C95.3285 38.3575 94.9718 39.5402 94.5638 40.6552C93.8458 42.9442 93.2376 45.1605 92.8135 47.3145C92.7059 47.8536 92.5664 48.361 92.4905 48.8892C92.4083 49.4197 92.3282 49.9353 92.2543 50.4487C92.1131 51.4734 91.9036 52.4221 91.8489 53.3892C91.6802 55.2939 91.4765 56.991 91.4629 58.56L105.041 60.0773L74.339 92.4625L74.3157 92.4774Z" fill="#F7CA41"/>
<path d="M28.5903 82.7119L54.8614 163.566C56.4841 168.56 61.8404 171.29 66.8337 169.668L179.575 133.036C184.568 131.414 187.297 126.057 185.674 121.062L162.33 49.2171L40.5533 88.7848C35.5745 90.4025 30.2229 87.6871 28.5903 82.7119Z" fill="#B06C45"/>
<path d="M174.484 78.2294L160.804 82.6745C155.128 84.5186 152.022 90.6161 153.867 96.2928L154.846 99.3054C156.69 104.982 162.787 108.089 168.462 106.245L182.143 101.8C184.698 100.97 186.094 98.2292 185.264 95.674L180.61 81.3514C179.78 78.7961 177.039 77.3993 174.484 78.2294Z" fill="#9A5F3B"/>
<path d="M171.476 92.2325C172.45 95.2305 170.809 98.4524 167.812 99.4263C164.814 100.4 161.593 98.7584 160.619 95.7603C159.645 92.7622 161.286 89.5403 164.283 88.5664C167.281 87.5925 170.502 89.2344 171.476 92.2325Z" fill="#FFFAD1"/>
</g>
</g>
<defs>
<clipPath id="clip0_415_12665">
<rect width="198" height="190" fill="white"/>
</clipPath>
</defs>
</svg>
