<svg width="207" height="215" viewBox="0 0 207 215" fill="none" xmlns="http://www.w3.org/2000/svg">
<g style="mix-blend-mode:luminosity" clip-path="url(#clip0_415_12740)">
<path d="M43.2846 75.6584C40.6976 57.2964 26.847 51.3026 30.6602 39.5256C37.5881 18.1205 89.8188 17.992 98.3403 17.9457C126 17.8635 170.868 17.735 189.262 49.5599C197.736 64.2259 185.361 72.939 190.778 110.285C193.991 132.451 198.616 135.129 196.334 144.912C189.438 174.439 138.904 185.928 131.66 187.578C77.7274 199.838 9.55576 182.746 4.38183 154.956C-0.228132 130.097 48.4171 112.064 43.2846 75.6584Z" fill="#E3EEFF"/>
<path d="M18.5384 131.361C15.5375 124.874 0.248542 91.779 14.4975 71.6435C22.7758 59.954 33.1754 63.6192 53.3899 50.5674C80.91 32.7966 77.0761 16.0179 96.8509 5.90652C123.155 -7.56166 167.294 3.09465 180.192 26.9827C192.662 50.079 167.087 69.1864 179.158 103.263C188.259 128.904 207.262 130.847 206.942 147.425C206.471 171.334 166.399 195.361 130.166 198.615C80.8065 203.051 36.0107 169.154 18.5384 131.361Z" fill="#C4DBFB"/>
<path d="M108.167 2.81201C106.82 2.81337 105.529 3.34581 104.578 4.29235C103.626 5.23889 103.091 6.52209 103.091 7.86001V16.6966H113.243V7.86001C113.243 6.52209 112.708 5.23889 111.756 4.29235C110.805 3.34581 109.514 2.81337 108.167 2.81201ZM108.167 9.75686C107.745 9.75788 107.332 9.63453 106.981 9.40243C106.63 9.17033 106.356 8.83992 106.194 8.45302C106.032 8.06611 105.989 7.64011 106.07 7.22894C106.152 6.81777 106.355 6.43992 106.653 6.14321C106.951 5.84651 107.33 5.64428 107.744 5.56215C108.158 5.48001 108.587 5.52165 108.976 5.6818C109.366 5.84194 109.699 6.11339 109.934 6.46179C110.168 6.81019 110.293 7.21987 110.293 7.63896C110.295 7.91752 110.241 8.19361 110.135 8.45142C110.028 8.70922 109.872 8.94369 109.675 9.14138C109.477 9.33906 109.242 9.49609 108.983 9.60347C108.725 9.71085 108.447 9.76647 108.167 9.76714V9.75686Z" fill="#3A81F3"/>
<path d="M177.223 13.7612H39.1099C36.3729 13.7612 34.1533 15.6941 34.1533 18.0844V194.225C34.1533 196.615 36.3729 198.553 39.1099 198.553H177.223C179.954 198.553 182.174 196.615 182.174 194.225V18.0844C182.174 15.6941 179.954 13.7612 177.223 13.7612Z" fill="#403A7A"/>
<path d="M172.064 20.3206H44.2682C41.733 20.3206 39.6841 22.1403 39.6841 24.3816V189.819C39.6841 192.066 41.7537 193.885 44.2682 193.885H172.064C174.594 193.885 176.648 192.066 176.648 189.819V24.3816C176.664 22.1403 174.594 20.3206 172.064 20.3206Z" fill="white"/>
<path d="M140.928 16.3368H75.4052C74.844 16.3368 74.3057 16.1153 73.9089 15.721C73.512 15.3267 73.2891 14.7919 73.2891 14.2343C73.2891 13.6767 73.512 13.1419 73.9089 12.7476C74.3057 12.3533 74.844 12.1318 75.4052 12.1318H140.928C141.487 12.1346 142.023 12.3573 142.417 12.7513C142.812 13.1453 143.034 13.6785 143.034 14.2343C143.034 14.7901 142.812 15.3234 142.417 15.7174C142.023 16.1114 141.487 16.3341 140.928 16.3368Z" fill="#3A81F3"/>
<path d="M134.853 14.4346V22.2174C134.852 22.3965 134.779 22.5677 134.651 22.6939C134.524 22.82 134.351 22.8908 134.17 22.8908H112.466C112.314 22.8918 112.166 22.9427 112.046 23.0357C111.927 23.1287 111.841 23.2585 111.803 23.4049C111.599 24.2095 111.131 24.9235 110.472 25.4336C109.813 25.9436 109.001 26.2206 108.166 26.2206C107.331 26.2206 106.52 25.9436 105.861 25.4336C105.202 24.9235 104.733 24.2095 104.529 23.4049C104.49 23.2581 104.404 23.1282 104.283 23.0352C104.162 22.9423 104.014 22.8915 103.862 22.8908H82.131C81.9535 22.8868 81.7845 22.8142 81.6599 22.6885C81.5353 22.5628 81.4649 22.3938 81.4636 22.2174V14.4346C81.4622 14.2556 81.3897 14.0843 81.2617 13.9582C81.1338 13.832 80.9609 13.7612 80.7806 13.7612C80.6009 13.7612 80.4285 13.8322 80.3014 13.9585C80.1743 14.0848 80.1029 14.256 80.1029 14.4346V23.4665C80.1 23.5576 80.1159 23.6482 80.1493 23.733C80.1828 23.8178 80.2332 23.8949 80.2975 23.9598C80.3618 24.0247 80.4387 24.0759 80.5235 24.1104C80.6084 24.1449 80.6994 24.1619 80.791 24.1605H102.93C103.069 24.162 103.204 24.205 103.317 24.2838C103.431 24.3627 103.518 24.4738 103.567 24.6026C103.619 24.7462 103.68 24.8869 103.748 25.0241C104.156 25.8409 104.786 26.5282 105.566 27.0086C106.346 27.4891 107.246 27.7436 108.164 27.7436C109.082 27.7436 109.981 27.4891 110.761 27.0086C111.542 26.5282 112.171 25.8409 112.58 25.0241C112.647 24.8853 112.709 24.7465 112.766 24.6026C112.814 24.473 112.9 24.3611 113.014 24.282C113.128 24.203 113.263 24.1605 113.402 24.1605H135.536C135.717 24.1605 135.889 24.0897 136.017 23.9636C136.145 23.8374 136.218 23.6662 136.219 23.4871V14.4346C136.218 14.2556 136.145 14.0843 136.017 13.9582C135.889 13.832 135.717 13.7612 135.536 13.7612C135.356 13.7612 135.183 13.832 135.055 13.9582C134.927 14.0843 134.855 14.2556 134.853 14.4346Z" fill="#3A81F3"/>
<path d="M73.6249 72.6099L69.046 78.979L65.8485 76.0026L63.9238 78.4341L69.3461 81.9965L76.2636 74.6095L73.6249 72.6099Z" fill="white"/>
<path d="M73.6249 99.4897L69.046 105.864L65.8485 102.882L63.9238 105.314L69.3461 108.876L76.2636 101.489L73.6249 99.4897Z" fill="white"/>
<path d="M176.627 164.044L176.85 189.917C176.85 191.927 174.993 193.839 172.587 193.859L137.549 193.901C150.24 187.161 170.088 177.574 176.627 164.044Z" fill="#C5CBEB"/>
<path d="M176.627 164.044C172.721 180.36 155.797 193.047 137.549 193.901C145.248 188.056 151.084 177.723 151.487 167.016C151.51 166.412 151.667 165.821 151.946 165.284C152.225 164.748 152.619 164.278 153.101 163.91C153.584 163.542 154.141 163.284 154.735 163.155C155.329 163.025 155.944 163.027 156.537 163.16C163.894 164.857 171.076 166.193 176.627 164.044Z" fill="#D8DCF5"/>
<path d="M203.328 108.989C204.052 104.556 201.022 100.379 196.56 99.6589C192.098 98.9393 187.893 101.95 187.169 106.383C186.445 110.816 189.475 114.994 193.937 115.713C198.399 116.433 202.603 113.422 203.328 108.989Z" fill="#C4DBFB"/>
<path d="M30.2608 30.5583C30.8332 28.1488 29.3312 25.7346 26.9061 25.1659C24.4811 24.5972 22.0511 26.0895 21.4788 28.4989C20.9064 30.9083 22.4083 33.3226 24.8334 33.8913C27.2585 34.4599 29.6884 32.9677 30.2608 30.5583Z" fill="#C4DBFB"/>
<path d="M19.9298 56.289C24.4503 56.289 28.1149 52.6481 28.1149 48.1567C28.1149 43.6654 24.4503 40.0244 19.9298 40.0244C15.4092 40.0244 11.7446 43.6654 11.7446 48.1567C11.7446 52.6481 15.4092 56.289 19.9298 56.289Z" fill="#C4DBFB"/>
<path d="M24.9282 35.8913C27.4199 35.8913 29.4398 33.8844 29.4398 31.4088C29.4398 28.9332 27.4199 26.9263 24.9282 26.9263C22.4364 26.9263 20.4165 28.9332 20.4165 31.4088C20.4165 33.8844 22.4364 35.8913 24.9282 35.8913Z" fill="#C4DBFB"/>
<path d="M26.8163 166.918C29.3081 166.918 31.328 164.911 31.328 162.435C31.328 159.96 29.3081 157.953 26.8163 157.953C24.3246 157.953 22.3047 159.96 22.3047 162.435C22.3047 164.911 24.3246 166.918 26.8163 166.918Z" fill="#C4DBFB"/>
<path d="M206.893 90.0399C207.465 87.6305 205.963 85.2163 203.538 84.6476C201.113 84.0789 198.683 85.5711 198.111 87.9806C197.538 90.39 199.04 92.8043 201.465 93.3729C203.89 93.9416 206.32 92.4494 206.893 90.0399Z" fill="#C4DBFB"/>
<path d="M21.7459 137.694L23.4481 136.003C23.6246 135.817 23.7212 135.571 23.7174 135.315C23.7137 135.06 23.6099 134.816 23.4281 134.635C23.2463 134.455 23.0008 134.351 22.7437 134.348C22.4866 134.344 22.2382 134.44 22.0512 134.615L20.349 136.306L18.6467 134.615C18.4615 134.43 18.21 134.326 17.9475 134.326C17.685 134.325 17.4331 134.429 17.2472 134.613C17.0613 134.797 16.9565 135.047 16.9561 135.307C16.9556 135.568 17.0594 135.818 17.2446 136.003L18.9468 137.694L17.2498 139.386C17.1575 139.476 17.0842 139.585 17.0342 139.704C16.9842 139.823 16.9585 139.951 16.9585 140.08C16.9585 140.209 16.9842 140.336 17.0342 140.456C17.0842 140.575 17.1575 140.683 17.2498 140.774C17.4351 140.957 17.6863 141.061 17.9483 141.061C18.2102 141.061 18.4614 140.957 18.6467 140.774L20.349 139.087L22.046 140.774C22.1383 140.865 22.2481 140.938 22.3688 140.987C22.4896 141.037 22.6191 141.062 22.7497 141.061C22.8796 141.062 23.0084 141.038 23.1284 140.988C23.2484 140.939 23.3571 140.866 23.4481 140.774C23.5404 140.683 23.6137 140.575 23.6637 140.456C23.7137 140.336 23.7395 140.209 23.7395 140.08C23.7395 139.951 23.7137 139.823 23.6637 139.704C23.6137 139.585 23.5404 139.476 23.4481 139.386L21.7459 137.694Z" fill="#3A81F3"/>
<path d="M197.515 127.444L199.217 125.753C199.402 125.568 199.506 125.318 199.506 125.057C199.505 124.796 199.4 124.546 199.214 124.362C199.028 124.178 198.777 124.075 198.514 124.075C198.252 124.076 198 124.18 197.815 124.365L196.113 126.056L194.41 124.365C194.223 124.189 193.975 124.093 193.718 124.097C193.461 124.101 193.215 124.204 193.034 124.385C192.852 124.565 192.748 124.809 192.744 125.065C192.74 125.32 192.837 125.567 193.013 125.753L194.716 127.444L193.013 129.135C192.921 129.226 192.848 129.334 192.798 129.453C192.748 129.572 192.722 129.7 192.722 129.829C192.722 129.958 192.748 130.086 192.798 130.205C192.848 130.324 192.921 130.432 193.013 130.523C193.104 130.615 193.213 130.688 193.333 130.738C193.453 130.787 193.582 130.812 193.712 130.811C193.843 130.812 193.972 130.786 194.093 130.737C194.214 130.688 194.323 130.615 194.416 130.523L196.113 128.837L197.815 130.523C198 130.707 198.251 130.81 198.513 130.81C198.775 130.81 199.027 130.707 199.212 130.523C199.304 130.432 199.377 130.324 199.427 130.205C199.477 130.086 199.503 129.958 199.503 129.829C199.503 129.7 199.477 129.572 199.427 129.453C199.377 129.334 199.304 129.226 199.212 129.135L197.515 127.444Z" fill="#3A81F3"/>
<path d="M161.317 6.08132L163.103 4.47748C163.276 4.29724 163.375 4.0583 163.378 3.80875C163.382 3.55921 163.29 3.31759 163.122 3.13254C162.953 2.94749 162.72 2.83275 162.47 2.81142C162.22 2.79009 161.971 2.86375 161.773 3.01757L159.988 4.62656L158.374 2.85307C158.287 2.75721 158.181 2.67931 158.064 2.62382C157.947 2.56832 157.82 2.53632 157.69 2.52964C157.56 2.52296 157.431 2.54172 157.308 2.58487C157.186 2.62802 157.073 2.6947 156.977 2.78111C156.88 2.86751 156.802 2.97196 156.746 3.08847C156.69 3.20499 156.658 3.33129 156.651 3.46017C156.644 3.58906 156.663 3.71799 156.707 3.83962C156.75 3.96125 156.817 4.07319 156.904 4.16905L158.518 5.94767L156.739 7.54637C156.641 7.63234 156.562 7.73661 156.506 7.85316C156.45 7.96971 156.417 8.0962 156.41 8.22531C156.404 8.35442 156.423 8.48357 156.467 8.60528C156.511 8.72699 156.578 8.83883 156.666 8.93432C156.752 9.03089 156.857 9.10931 156.975 9.16494C157.092 9.22056 157.219 9.25226 157.349 9.25817C157.479 9.2652 157.609 9.24655 157.732 9.20332C157.854 9.16008 157.967 9.09311 158.063 9.00628L159.848 7.40244L161.457 9.17592C161.637 9.36684 161.883 9.48264 162.145 9.49977C162.341 9.50791 162.534 9.45865 162.701 9.35816C162.868 9.25768 163.002 9.11043 163.085 8.93485C163.169 8.75927 163.198 8.56315 163.17 8.37104C163.142 8.17893 163.057 7.99936 162.927 7.8548L161.317 6.08132Z" fill="#3A81F3"/>
<path d="M24.9793 82.7625L26.6815 81.0713C26.8667 80.8865 26.9705 80.6362 26.97 80.3755C26.9696 80.1147 26.8648 79.8648 26.6789 79.6807C26.493 79.4967 26.241 79.3936 25.9786 79.394C25.7161 79.3945 25.4646 79.4986 25.2793 79.6833L23.5771 81.3745L21.8749 79.6782C21.6879 79.5029 21.4395 79.4069 21.1824 79.4106C20.9253 79.4144 20.6798 79.5175 20.498 79.6981C20.3162 79.8787 20.2124 80.1227 20.2087 80.3781C20.2049 80.6335 20.3015 80.8803 20.4779 81.0661L22.1802 82.7573L20.4779 84.4486C20.2941 84.6333 20.1909 84.8827 20.1909 85.1426C20.1909 85.4024 20.2941 85.6518 20.4779 85.8365C20.6641 86.0208 20.9162 86.1242 21.179 86.1242C21.4418 86.1242 21.6939 86.0208 21.8801 85.8365L23.5771 84.1504L25.2793 85.8365C25.4664 86.0118 25.7148 86.1078 25.9719 86.104C26.2289 86.1003 26.4744 85.9972 26.6562 85.8166C26.838 85.636 26.9418 85.392 26.9456 85.1366C26.9493 84.8812 26.8527 84.6344 26.6763 84.4486L24.9793 82.7625Z" fill="#3A81F3"/>
<path d="M6.44115 129.269C6.52745 129.407 6.58476 129.561 6.60966 129.722C6.63455 129.883 6.62651 130.047 6.58602 130.204C6.53488 130.415 6.42842 130.608 6.27753 130.764C6.12664 130.921 5.93671 131.034 5.72715 131.094L1.58801 132.302C1.37907 132.362 1.15791 132.366 0.946668 132.315C0.735423 132.263 0.541506 132.158 0.384331 132.008C0.227155 131.859 0.112237 131.671 0.0510761 131.464C-0.0100848 131.256 -0.0153446 131.036 0.0358312 130.826L1.07062 126.642C1.12218 126.431 1.22894 126.237 1.38011 126.08C1.53127 125.923 1.72147 125.809 1.93149 125.748C2.1415 125.688 2.36387 125.683 2.57611 125.735C2.78835 125.788 2.98293 125.895 3.14019 126.046L6.27041 129.022C6.33771 129.097 6.39509 129.18 6.44115 129.269ZM0.998181 131.253C1.00966 131.272 1.02357 131.289 1.03957 131.304C1.07191 131.337 1.11275 131.36 1.15752 131.371C1.2023 131.382 1.24924 131.38 1.2931 131.366L5.43224 130.163C5.47691 130.151 5.51739 130.126 5.54959 130.093C5.58178 130.06 5.60454 130.018 5.61557 129.974C5.6266 129.929 5.6255 129.882 5.61239 129.837C5.59927 129.793 5.5746 129.753 5.54088 129.721L2.41067 126.75C2.37804 126.718 2.33731 126.695 2.2927 126.683C2.24808 126.672 2.20119 126.672 2.15687 126.685C2.11256 126.697 2.07244 126.721 2.04065 126.755C2.00886 126.788 1.98656 126.829 1.97605 126.873L0.941268 131.053C0.938158 131.09 0.943523 131.127 0.956963 131.162C0.970402 131.196 0.991573 131.228 1.01888 131.253H0.998181Z" fill="#F9C067"/>
<path d="M64.2133 5.65463C64.2995 5.79387 64.3567 5.94885 64.3816 6.11042C64.4065 6.27199 64.3985 6.43688 64.3582 6.59535C64.309 6.80591 64.2038 6.9995 64.0537 7.15592C63.9035 7.31234 63.7139 7.42587 63.5045 7.48466L59.3654 8.68754C59.1564 8.74764 58.9353 8.75215 58.724 8.70062C58.5128 8.6491 58.3188 8.54334 58.1617 8.39395C58.0045 8.24456 57.8896 8.05676 57.8284 7.84937C57.7673 7.64198 57.762 7.42226 57.8132 7.21221L58.848 3.03296C58.8998 2.82221 59.0063 2.62867 59.1571 2.4717C59.3078 2.31473 59.4974 2.19983 59.7068 2.13851C59.9158 2.07639 60.1377 2.07079 60.3497 2.1223C60.5616 2.17381 60.7558 2.28055 60.9124 2.43152L64.0167 5.40789C64.0907 5.48309 64.1566 5.56579 64.2133 5.65463ZM58.7704 7.65944C58.7818 7.68125 58.7977 7.7005 58.8169 7.71598C58.8499 7.74767 58.8907 7.77008 58.9353 7.78092C58.9798 7.79176 59.0265 7.79064 59.0704 7.77767L63.2096 6.56964C63.2543 6.55774 63.2949 6.53415 63.3273 6.50133C63.3597 6.46851 63.3826 6.42766 63.3937 6.38304C63.4048 6.33842 63.4037 6.29166 63.3904 6.24763C63.3771 6.2036 63.3522 6.16391 63.3182 6.1327L60.188 3.15634C60.1537 3.12509 60.112 3.10303 60.0667 3.09223C60.0214 3.08144 59.9742 3.08227 59.9293 3.09465C59.885 3.10781 59.8449 3.1323 59.8132 3.16568C59.7814 3.19906 59.759 3.24016 59.7482 3.28485L58.7134 7.4641C58.7087 7.4988 58.7114 7.53409 58.7212 7.56773C58.731 7.60136 58.7477 7.6326 58.7704 7.65944Z" fill="#F9C067"/>
<path d="M197.302 174.598C197.156 174.72 196.985 174.807 196.8 174.853C196.615 174.898 196.422 174.901 196.236 174.861C196.05 174.821 195.876 174.738 195.727 174.621C195.578 174.503 195.458 174.353 195.377 174.181L193.535 170.285C193.443 170.089 193.404 169.873 193.422 169.657C193.441 169.442 193.516 169.235 193.64 169.057C193.764 168.88 193.933 168.738 194.13 168.646C194.327 168.553 194.545 168.514 194.761 168.532L199.082 168.897C199.299 168.914 199.508 168.989 199.687 169.112C199.866 169.236 200.009 169.404 200.102 169.601C200.194 169.797 200.233 170.014 200.214 170.23C200.194 170.446 200.118 170.653 199.992 170.83L197.519 174.361C197.459 174.451 197.386 174.53 197.302 174.598ZM194.487 169.56L194.441 169.611C194.417 169.651 194.405 169.697 194.405 169.743C194.405 169.789 194.417 169.834 194.441 169.874L196.283 173.77C196.302 173.812 196.332 173.848 196.371 173.874C196.409 173.901 196.454 173.916 196.5 173.919C196.545 173.924 196.591 173.915 196.632 173.895C196.673 173.875 196.708 173.844 196.733 173.806L199.211 170.275C199.235 170.236 199.247 170.191 199.247 170.146C199.247 170.101 199.235 170.056 199.211 170.018C199.193 169.976 199.164 169.94 199.126 169.913C199.089 169.887 199.045 169.871 198.999 169.869L194.679 169.504C194.645 169.5 194.61 169.503 194.577 169.513C194.544 169.522 194.514 169.539 194.487 169.56Z" fill="#F9C067"/>
<path d="M197.157 65.3721C197.11 65.5282 197.031 65.673 196.925 65.7976C196.819 65.9223 196.689 66.0241 196.542 66.0969C196.348 66.196 196.132 66.2425 195.915 66.2317C195.698 66.2209 195.487 66.1531 195.305 66.0352L191.683 63.7014C191.501 63.5837 191.352 63.4204 191.253 63.2277C191.154 63.035 191.107 62.8198 191.118 62.6036C191.129 62.3875 191.197 62.178 191.316 61.9962C191.434 61.8145 191.598 61.6668 191.792 61.5681L195.647 59.5993C195.841 59.5006 196.058 59.4544 196.275 59.4655C196.493 59.4765 196.704 59.5443 196.887 59.662C197.07 59.7798 197.219 59.9434 197.318 60.1363C197.417 60.3292 197.463 60.5447 197.452 60.761L197.235 65.0585C197.225 65.1663 197.199 65.272 197.157 65.3721ZM192.087 62.5808C192.085 62.6048 192.085 62.6288 192.087 62.6528C192.085 62.6987 192.096 62.7443 192.118 62.7849C192.14 62.8255 192.172 62.8597 192.211 62.8841L195.833 65.2179C195.873 65.2409 195.918 65.253 195.965 65.253C196.011 65.253 196.057 65.2409 196.097 65.2179C196.138 65.1981 196.172 65.1675 196.197 65.1294C196.222 65.0913 196.235 65.0472 196.236 65.002L196.454 60.6994C196.455 60.6539 196.445 60.6088 196.424 60.5684C196.404 60.5279 196.373 60.4934 196.335 60.468C196.294 60.446 196.249 60.4344 196.203 60.4344C196.157 60.4344 196.111 60.446 196.071 60.468L192.216 62.4317C192.155 62.4628 192.109 62.5163 192.087 62.5808Z" fill="#F9C067"/>
<line x1="55.7727" y1="80.863" x2="129.018" y2="80.863" stroke="#E5E5E5" stroke-width="5.96341" stroke-linecap="round"/>
<line x1="55.8613" y1="97.5792" x2="123.174" y2="96.8229" stroke="#E5E5E5" stroke-width="6.21073" stroke-linecap="round"/>
<line x1="55.8964" y1="113.662" x2="103.512" y2="113.662" stroke="#E5E5E5" stroke-width="6.21073" stroke-linecap="round"/>
<rect x="136" y="34" width="68" height="68" rx="34" fill="#989898"/>
<path d="M170.216 86.8796C169.46 86.8796 168.827 86.6236 168.317 86.1117C167.805 85.6016 167.549 84.9688 167.549 84.2134V70.8825H154.218C153.463 70.8825 152.829 70.6265 152.317 70.1146C151.807 69.6045 151.552 68.9717 151.552 68.2163C151.552 67.4609 151.807 66.8272 152.317 66.3153C152.829 65.8052 153.463 65.5501 154.218 65.5501H167.549V52.2192C167.549 51.4637 167.805 50.8301 168.317 50.3182C168.827 49.808 169.46 49.553 170.216 49.553C170.971 49.553 171.605 49.808 172.117 50.3182C172.627 50.8301 172.882 51.4637 172.882 52.2192V65.5501H186.213C186.968 65.5501 187.601 65.8052 188.111 66.3153C188.623 66.8272 188.879 67.4609 188.879 68.2163C188.879 68.9717 188.623 69.6045 188.111 70.1146C187.601 70.6265 186.968 70.8825 186.213 70.8825H172.882V84.2134C172.882 84.9688 172.627 85.6016 172.117 86.1117C171.605 86.6236 170.971 86.8796 170.216 86.8796Z" fill="white"/>
</g>
<defs>
<clipPath id="clip0_415_12740">
<rect width="207" height="215" fill="white"/>
</clipPath>
</defs>
</svg>
