<svg width="25" height="25" viewBox="0 0 25 25" fill="none" xmlns="http://www.w3.org/2000/svg">
<path d="M8.25 5.75C8.11614 5.75 8 5.63386 8 5.5V2.5C8 2.36614 8.11614 2.25 8.25 2.25C8.38386 2.25 8.5 2.36614 8.5 2.5V5.5C8.5 5.63386 8.38386 5.75 8.25 5.75Z" fill="#292D32" stroke="#1E1E1E"/>
<path d="M16.25 5.75C16.1161 5.75 16 5.63386 16 5.5V2.5C16 2.36614 16.1161 2.25 16.25 2.25C16.3839 2.25 16.5 2.36614 16.5 2.5V5.5C16.5 5.63386 16.3839 5.75 16.25 5.75Z" fill="#292D32" stroke="#1E1E1E"/>
<path d="M21.1066 14.333L21.1067 14.333L21.1018 14.3291C19.3402 12.9243 16.651 12.9227 14.8872 14.3599C13.6869 15.3063 13.01 16.7209 13.01 18.26C13.01 19.1686 13.2537 20.0602 13.7344 20.8325C14.0951 21.4222 14.5485 21.9229 15.0871 22.3053C15.1752 22.371 15.2107 22.4803 15.1884 22.5715C15.1345 22.6888 15.0316 22.75 14.93 22.75H8.25C6.51991 22.75 5.22362 22.254 4.3598 21.3902C3.49598 20.5264 3 19.2301 3 17.5V9C3 7.26991 3.49598 5.97362 4.3598 5.1098C5.22362 4.24598 6.51991 3.75 8.25 3.75H16.25C17.9801 3.75 19.2764 4.24598 20.1402 5.1098C21.004 5.97362 21.5 7.26991 21.5 9V14.13C21.5 14.2186 21.4483 14.31 21.3596 14.3608C21.2638 14.4004 21.1655 14.3812 21.1066 14.333ZM13.14 22.25H14.1555L13.5363 21.4451C13.4532 21.3371 13.3755 21.217 13.3041 21.092L13.2997 21.0842L13.295 21.0767C12.7752 20.2376 12.5 19.2592 12.5 18.25C12.5 16.5513 13.2512 14.9972 14.5687 13.9634L14.5687 13.9634L14.5754 13.958C16.1349 12.6903 18.4611 12.4125 20.291 13.2542L21 13.5804V12.8V9C21 7.49651 20.6347 6.28256 19.8011 5.44895C18.9674 4.61533 17.7535 4.25 16.25 4.25H8.25C6.74651 4.25 5.53256 4.61533 4.69895 5.44895C3.86533 6.28256 3.5 7.49651 3.5 9V17.5C3.5 19.0035 3.86533 20.2174 4.69895 21.0511C5.53256 21.8847 6.74651 22.25 8.25 22.25H13.14Z" fill="#292D32" stroke="#1E1E1E"/>
<path d="M13.25 12.25H7.25C6.84 12.25 6.5 11.91 6.5 11.5C6.5 11.09 6.84 10.75 7.25 10.75H13.25C13.66 10.75 14 11.09 14 11.5C14 11.91 13.66 12.25 13.25 12.25Z" fill="#292D32"/>
<path d="M9.87 17.25H7.25C6.84 17.25 6.5 16.91 6.5 16.5C6.5 16.09 6.84 15.75 7.25 15.75H9.87C10.28 15.75 10.62 16.09 10.62 16.5C10.62 16.91 10.29 17.25 9.87 17.25Z" fill="#292D32"/>
<path d="M18 24.25C16.72 24.25 15.51 23.85 14.49 23.11C13.85 22.65 13.3 22.05 12.87 21.34C12.3 20.42 12 19.35 12 18.25C12 16.4 12.82 14.7 14.26 13.57C16.34 11.88 19.62 11.87 21.72 13.54C23.17 14.68 24 16.4 24 18.25C24 19.35 23.7 20.42 23.13 21.34C22.81 21.89 22.4 22.37 21.93 22.76C20.86 23.72 19.46 24.25 18 24.25ZM18 13.75C16.98 13.75 15.98 14.1 15.19 14.74C14.11 15.59 13.5 16.86 13.5 18.25C13.5 19.07 13.72 19.87 14.15 20.56C14.48 21.1 14.89 21.55 15.37 21.89C16.14 22.45 17.05 22.75 18 22.75C19.11 22.75 20.13 22.36 20.95 21.63C21.31 21.33 21.6 20.98 21.84 20.57C22.27 19.87 22.5 19.07 22.5 18.25C22.5 16.86 21.88 15.5799 20.79 14.7199C19.99 14.0799 19.03 13.75 18 13.75Z" fill="#292D32"/>
<path d="M18 21.5C17.59 21.5 17.25 21.16 17.25 20.75C17.25 19.79 16.46 19 15.5 19C15.09 19 14.75 18.66 14.75 18.25C14.75 17.84 15.09 17.5 15.5 17.5C16.46 17.5 17.25 16.71 17.25 15.75C17.25 15.34 17.59 15 18 15C18.41 15 18.75 15.34 18.75 15.75C18.75 16.71 19.54 17.5 20.5 17.5C20.91 17.5 21.25 17.84 21.25 18.25C21.25 18.66 20.91 19 20.5 19C19.54 19 18.75 19.79 18.75 20.75C18.75 21.16 18.41 21.5 18 21.5ZM17.57 18.25C17.72 18.38 17.87 18.52 18 18.68C18.13 18.53 18.27 18.38 18.43 18.25C18.28 18.12 18.13 17.98 18 17.82C17.87 17.98 17.73 18.12 17.57 18.25Z" fill="#292D32"/>
</svg>
