<svg width="20" height="20" viewBox="0 0 20 20" fill="none" xmlns="http://www.w3.org/2000/svg">
<path d="M6.66669 4.79163C6.32502 4.79163 6.04169 4.50829 6.04169 4.16663V1.66663C6.04169 1.32496 6.32502 1.04163 6.66669 1.04163C7.00835 1.04163 7.29169 1.32496 7.29169 1.66663V4.16663C7.29169 4.50829 7.00835 4.79163 6.66669 4.79163Z" fill="#1E1E1E"/>
<path d="M13.3333 4.79163C12.9916 4.79163 12.7083 4.50829 12.7083 4.16663V1.66663C12.7083 1.32496 12.9916 1.04163 13.3333 1.04163C13.675 1.04163 13.9583 1.32496 13.9583 1.66663V4.16663C13.9583 4.50829 13.675 4.79163 13.3333 4.79163Z" fill="#1E1E1E"/>
<path d="M7.08333 12.0834C6.86667 12.0834 6.65 11.9917 6.49167 11.8417C6.34167 11.6834 6.25 11.475 6.25 11.25C6.25 11.1417 6.275 11.0334 6.31667 10.9334C6.35833 10.8334 6.41667 10.7417 6.49167 10.6584C6.8 10.35 7.35833 10.35 7.675 10.6584C7.825 10.8167 7.91667 11.0334 7.91667 11.25C7.91667 11.3 7.90834 11.3584 7.9 11.4167C7.89167 11.4667 7.875 11.5167 7.85 11.5667C7.83333 11.6167 7.80833 11.6667 7.775 11.7167C7.74167 11.7584 7.70833 11.8 7.675 11.8417C7.51667 11.9917 7.3 12.0834 7.08333 12.0834Z" fill="#1E1E1E"/>
<path d="M10 12.0833C9.89169 12.0833 9.78336 12.0583 9.68336 12.0167C9.57502 11.975 9.49169 11.9166 9.40835 11.8416C9.25835 11.6833 9.16669 11.475 9.16669 11.25C9.16669 11.1416 9.19169 11.0333 9.23336 10.9333C9.27502 10.8333 9.33335 10.7416 9.40835 10.6583C9.49169 10.5833 9.57502 10.525 9.68336 10.4833C9.99169 10.3583 10.3584 10.425 10.5917 10.6583C10.7417 10.8166 10.8334 11.0333 10.8334 11.25C10.8334 11.3 10.825 11.3583 10.8167 11.4167C10.8084 11.4667 10.7917 11.5166 10.7667 11.5666C10.75 11.6166 10.725 11.6666 10.6917 11.7166C10.6667 11.7583 10.625 11.8 10.5917 11.8416C10.4334 11.9916 10.2167 12.0833 10 12.0833Z" fill="#1E1E1E"/>
<path d="M7.08333 15C6.975 15 6.86667 14.975 6.76667 14.9334C6.65834 14.8917 6.56667 14.8334 6.49167 14.7584C6.41667 14.6834 6.35833 14.5917 6.31667 14.4834C6.275 14.3834 6.25 14.275 6.25 14.1667C6.25 14.0584 6.275 13.95 6.31667 13.85C6.35833 13.7417 6.41667 13.65 6.49167 13.575C6.56667 13.5 6.65834 13.4417 6.76667 13.4C6.96667 13.3167 7.2 13.3083 7.4 13.4C7.50833 13.4417 7.6 13.5 7.675 13.575C7.75 13.65 7.80833 13.7417 7.85 13.85C7.89167 13.95 7.91667 14.0584 7.91667 14.1667C7.91667 14.275 7.89167 14.3834 7.85 14.4834C7.80833 14.5917 7.75 14.6834 7.675 14.7584C7.6 14.8334 7.50833 14.8917 7.4 14.9334C7.3 14.975 7.19167 15 7.08333 15Z" fill="#1E1E1E"/>
<path d="M17.0834 8.19995H2.91669C2.57502 8.19995 2.29169 7.91662 2.29169 7.57495C2.29169 7.23328 2.57502 6.94995 2.91669 6.94995H17.0834C17.425 6.94995 17.7084 7.23328 17.7084 7.57495C17.7084 7.91662 17.425 8.19995 17.0834 8.19995Z" fill="#1E1E1E"/>
<path d="M15 19.7917C14.025 19.7917 13.1 19.4417 12.3917 18.8C12.0917 18.55 11.825 18.2333 11.6084 17.8667C11.2417 17.2667 11.0417 16.5583 11.0417 15.8333C11.0417 13.65 12.8167 11.875 15 11.875C16.1334 11.875 17.2167 12.3667 17.9667 13.2167C18.6084 13.95 18.9584 14.875 18.9584 15.8333C18.9584 16.5583 18.7584 17.2667 18.3834 17.875C17.6834 19.0583 16.3834 19.7917 15 19.7917ZM15 13.125C13.5084 13.125 12.2917 14.3417 12.2917 15.8333C12.2917 16.325 12.425 16.8083 12.6834 17.225C12.825 17.475 13.0084 17.6833 13.2084 17.8583C13.7084 18.3083 14.3334 18.5417 15 18.5417C15.9584 18.5417 16.825 18.05 17.3167 17.2333C17.575 16.8083 17.7084 16.3333 17.7084 15.8333C17.7084 15.1833 17.4667 14.55 17.0334 14.0417C16.5167 13.4583 15.775 13.125 15 13.125Z" fill="#1E1E1E"/>
<path d="M14.5249 17.2834C14.3665 17.2834 14.2082 17.225 14.0832 17.1L13.2582 16.275C13.0165 16.0334 13.0165 15.6334 13.2582 15.3917C13.4999 15.15 13.8999 15.15 14.1415 15.3917L14.5415 15.7917L15.8749 14.5584C16.1249 14.325 16.5249 14.3417 16.7582 14.5917C16.9915 14.8417 16.9749 15.2417 16.7249 15.475L14.9499 17.1167C14.8249 17.225 14.6749 17.2834 14.5249 17.2834Z" fill="#1E1E1E"/>
<path d="M12.8083 18.9583H6.66667C3.625 18.9583 1.875 17.2083 1.875 14.1666V7.08329C1.875 4.04163 3.625 2.29163 6.66667 2.29163H13.3333C16.375 2.29163 18.125 4.04163 18.125 7.08329V13.6333C18.125 13.8916 17.9667 14.125 17.7167 14.2166C17.475 14.3083 17.2 14.2416 17.025 14.0416C16.5083 13.4583 15.7667 13.125 14.9917 13.125C13.5 13.125 12.2833 14.3416 12.2833 15.8333C12.2833 16.325 12.4167 16.8083 12.675 17.225C12.8167 17.475 13 17.6833 13.2 17.8583C13.4 18.025 13.475 18.3 13.3833 18.55C13.3083 18.7916 13.075 18.9583 12.8083 18.9583ZM6.66667 3.54163C4.28333 3.54163 3.125 4.69996 3.125 7.08329V14.1666C3.125 16.55 4.28333 17.7083 6.66667 17.7083H11.5167C11.2083 17.1416 11.0417 16.5 11.0417 15.8333C11.0417 13.65 12.8167 11.875 15 11.875C15.6583 11.875 16.3083 12.0416 16.875 12.35V7.08329C16.875 4.69996 15.7167 3.54163 13.3333 3.54163H6.66667Z" fill="#1E1E1E"/>
</svg>
