<svg width="24" height="24" viewBox="0 0 24 24" fill="none" xmlns="http://www.w3.org/2000/svg">
<g clip-path="url(#clip0_405_9425)">
<path d="M19.9999 8H17.3333V4.66667C17.3333 4.48986 17.263 4.32029 17.138 4.19526C17.013 4.07024 16.8434 4 16.6666 4H1.99992C1.82311 4 1.65354 4.07024 1.52851 4.19526C1.40349 4.32029 1.33325 4.48986 1.33325 4.66667V16.6667C1.33325 16.8435 1.40349 17.013 1.52851 17.1381C1.65354 17.2631 1.82311 17.3333 1.99992 17.3333H2.66659V5.33333H15.9999V13.1333C16.3398 13.0466 16.6891 13.0019 17.0399 13H17.3333V9.33333H19.9999C20.3535 9.33333 20.6927 9.47381 20.9427 9.72386C21.1928 9.97391 21.3333 10.313 21.3333 10.6667V11.3333H18.6666V12.6667H21.3333V16H19.7333C19.4994 15.4567 19.1114 14.9939 18.6173 14.6687C18.1233 14.3434 17.5447 14.1701 16.9533 14.1701C16.3618 14.1701 15.7832 14.3434 15.2892 14.6687C14.7951 14.9939 14.4071 15.4567 14.1733 16H9.61992C9.39047 15.4527 9.00388 14.9858 8.50903 14.6583C8.01419 14.3308 7.43333 14.1574 6.83992 14.16C6.2761 14.1724 5.72795 14.3479 5.26169 14.6651C4.79543 14.9824 4.43102 15.4279 4.21248 15.9477C3.99394 16.4676 3.93063 17.0397 4.03019 17.5948C4.12975 18.1499 4.38792 18.6643 4.77352 19.0758C5.15911 19.4873 5.65563 19.7784 6.20308 19.9138C6.75053 20.0493 7.32549 20.0233 7.85848 19.839C8.39148 19.6547 8.85971 19.32 9.20659 18.8754C9.55348 18.4307 9.76419 17.8951 9.81325 17.3333H13.9999C14.0846 18.0625 14.4343 18.7351 14.9825 19.2233C15.5307 19.7115 16.2392 19.9812 16.9733 19.9812C17.7073 19.9812 18.4158 19.7115 18.964 19.2233C19.5122 18.7351 19.8619 18.0625 19.9466 17.3333H21.9999C22.1767 17.3333 22.3463 17.2631 22.4713 17.1381C22.5963 17.013 22.6666 16.8435 22.6666 16.6667V10.6667C22.6666 9.95942 22.3856 9.28115 21.8855 8.78105C21.3854 8.28095 20.7072 8 19.9999 8ZM6.83992 18.6667C6.62335 18.6807 6.4062 18.6502 6.2019 18.577C5.9976 18.5038 5.81048 18.3895 5.65213 18.241C5.49378 18.0926 5.36756 17.9133 5.28127 17.7142C5.19498 17.5151 5.15046 17.3004 5.15046 17.0833C5.15046 16.8663 5.19498 16.6516 5.28127 16.4525C5.36756 16.2533 5.49378 16.074 5.65213 15.9256C5.81048 15.7772 5.9976 15.6629 6.2019 15.5897C6.4062 15.5165 6.62335 15.4859 6.83992 15.5C7.05649 15.4859 7.27363 15.5165 7.47794 15.5897C7.68224 15.6629 7.86935 15.7772 8.0277 15.9256C8.18606 16.074 8.31228 16.2533 8.39857 16.4525C8.48486 16.6516 8.52938 16.8663 8.52938 17.0833C8.52938 17.3004 8.48486 17.5151 8.39857 17.7142C8.31228 17.9133 8.18606 18.0926 8.0277 18.241C7.86935 18.3895 7.68224 18.5038 7.47794 18.577C7.27363 18.6502 7.05649 18.6807 6.83992 18.6667ZM16.9533 18.6667C16.643 18.651 16.3443 18.5446 16.0939 18.3608C15.8436 18.1769 15.6528 17.9236 15.545 17.6322C15.4373 17.3409 15.4175 17.0244 15.488 16.7219C15.5585 16.4194 15.7162 16.1442 15.9417 15.9305C16.1671 15.7168 16.4502 15.574 16.7561 15.5198C17.0619 15.4655 17.3769 15.5022 17.6621 15.6253C17.9473 15.7484 18.19 15.9525 18.3603 16.2122C18.5306 16.472 18.6208 16.7761 18.6199 17.0867C18.6077 17.517 18.4254 17.9249 18.113 18.221C17.8006 18.5172 17.3836 18.6774 16.9533 18.6667Z" fill="#1E1E1E"/>
</g>
<defs>
<clipPath id="clip0_405_9425">
<rect width="24" height="24" fill="white"/>
</clipPath>
</defs>
</svg>
