<svg width="20" height="20" viewBox="0 0 20 20" fill="none" xmlns="http://www.w3.org/2000/svg">
<path d="M15.1583 14.7917H6.28329C5.45829 14.7917 4.66662 14.4418 4.10829 13.8334C3.54995 13.2251 3.26663 12.4084 3.33329 11.5834L4.02496 3.28342C4.04996 3.02508 3.95829 2.77509 3.78329 2.58342C3.60829 2.39175 3.36662 2.29175 3.10829 2.29175H1.66663C1.32496 2.29175 1.04163 2.00841 1.04163 1.66675C1.04163 1.32508 1.32496 1.04175 1.66663 1.04175H3.11663C3.72496 1.04175 4.29995 1.30008 4.70829 1.74174C4.93329 1.99174 5.09996 2.28342 5.19162 2.60842H15.6C16.4416 2.60842 17.2166 2.94175 17.7833 3.54175C18.3416 4.15008 18.625 4.94175 18.5583 5.78342L18.1083 12.0334C18.0166 13.5584 16.6833 14.7917 15.1583 14.7917ZM5.23329 3.85008L4.58329 11.6834C4.54163 12.1667 4.69996 12.6251 5.02496 12.9834C5.34996 13.3417 5.79995 13.5334 6.28329 13.5334H15.1583C16.025 13.5334 16.8083 12.8001 16.875 11.9334L17.325 5.68342C17.3583 5.19175 17.2 4.72509 16.875 4.38342C16.55 4.03342 16.1 3.84174 15.6083 3.84174H5.23329V3.85008Z" fill="#1E1E1E"/>
<path d="M13.5417 18.9585C12.625 18.9585 11.875 18.2085 11.875 17.2918C11.875 16.3751 12.625 15.6251 13.5417 15.6251C14.4583 15.6251 15.2083 16.3751 15.2083 17.2918C15.2083 18.2085 14.4583 18.9585 13.5417 18.9585ZM13.5417 16.8751C13.3083 16.8751 13.125 17.0585 13.125 17.2918C13.125 17.5251 13.3083 17.7085 13.5417 17.7085C13.775 17.7085 13.9583 17.5251 13.9583 17.2918C13.9583 17.0585 13.775 16.8751 13.5417 16.8751Z" fill="#1E1E1E"/>
<path d="M6.87504 18.9585C5.95837 18.9585 5.20837 18.2085 5.20837 17.2918C5.20837 16.3751 5.95837 15.6251 6.87504 15.6251C7.79171 15.6251 8.54171 16.3751 8.54171 17.2918C8.54171 18.2085 7.79171 18.9585 6.87504 18.9585ZM6.87504 16.8751C6.64171 16.8751 6.45837 17.0585 6.45837 17.2918C6.45837 17.5251 6.64171 17.7085 6.87504 17.7085C7.10837 17.7085 7.29171 17.5251 7.29171 17.2918C7.29171 17.0585 7.10837 16.8751 6.87504 16.8751Z" fill="#1E1E1E"/>
<path d="M17.5 7.29175H7.5C7.15833 7.29175 6.875 7.00841 6.875 6.66675C6.875 6.32508 7.15833 6.04175 7.5 6.04175H17.5C17.8417 6.04175 18.125 6.32508 18.125 6.66675C18.125 7.00841 17.8417 7.29175 17.5 7.29175Z" fill="#1E1E1E"/>
</svg>
