<svg width="21" height="20" viewBox="0 0 21 20" fill="none" xmlns="http://www.w3.org/2000/svg">
<path d="M3.82408 12.2169L2.55742 10.9503C2.04076 10.4336 2.04076 9.58359 2.55742 9.06692L3.82408 7.80024C4.04075 7.58357 4.21575 7.15857 4.21575 6.85857V5.06688C4.21575 4.33355 4.81575 3.73357 5.54909 3.73357H7.34075C7.64075 3.73357 8.06575 3.55859 8.28242 3.34193L9.54908 2.07524C10.0657 1.55858 10.9158 1.55858 11.4324 2.07524L12.6991 3.34193C12.9158 3.55859 13.3407 3.73357 13.6407 3.73357H15.4324C16.1658 3.73357 16.7657 4.33355 16.7657 5.06688V6.85857C16.7657 7.15857 16.9407 7.58357 17.1574 7.80024L18.4241 9.06692C18.9408 9.58359 18.9408 10.4336 18.4241 10.9503L17.1574 12.2169C16.9407 12.4336 16.7657 12.8586 16.7657 13.1586V14.9502C16.7657 15.6835 16.1658 16.2836 15.4324 16.2836H13.6407C13.3407 16.2836 12.9158 16.4586 12.6991 16.6753L11.4324 17.9419C10.9158 18.4586 10.0657 18.4586 9.54908 17.9419L8.28242 16.6753C8.06575 16.4586 7.64075 16.2836 7.34075 16.2836H5.54909C4.81575 16.2836 4.21575 15.6835 4.21575 14.9502V13.1586C4.21575 12.8503 4.04075 12.4253 3.82408 12.2169Z" stroke="#045B62" stroke-width="1.2" stroke-linecap="round" stroke-linejoin="round"/>
<path d="M8 12.5L13 7.5" stroke="#045B62" stroke-width="1.2" stroke-linecap="round" stroke-linejoin="round"/>
<path d="M12.5788 12.0834H12.5863" stroke="#045B62" stroke-width="1.2" stroke-linecap="round" stroke-linejoin="round"/>
<path d="M8.41209 7.91667H8.41957" stroke="#045B62" stroke-width="1.2" stroke-linecap="round" stroke-linejoin="round"/>
</svg>
