<svg width="24" height="24" viewBox="0 0 24 24" fill="none" xmlns="http://www.w3.org/2000/svg">
<path d="M21.3118 11.8664L18.3211 9.50626C18.2961 9.48658 18.266 9.47434 18.2344 9.47095C18.2027 9.46757 18.1708 9.47316 18.1422 9.48711C18.1135 9.50105 18.0894 9.52277 18.0726 9.54979C18.0557 9.5768 18.0468 9.60802 18.0469 9.63985V11.1563H12.8438V5.95313H14.3625C14.5032 5.95313 14.5829 5.78907 14.4961 5.67891L12.1336 2.68829C12.118 2.66805 12.0979 2.65167 12.075 2.64039C12.052 2.62912 12.0268 2.62326 12.0012 2.62326C11.9756 2.62326 11.9504 2.62912 11.9274 2.64039C11.9045 2.65167 11.8844 2.66805 11.8688 2.68829L9.50629 5.67891C9.48661 5.70394 9.47437 5.734 9.47098 5.76565C9.4676 5.79731 9.47319 5.82928 9.48714 5.8579C9.50108 5.88652 9.5228 5.91063 9.54982 5.92747C9.57683 5.94432 9.60805 5.95321 9.63988 5.95313H11.1563V11.1563H5.95316V9.63751C5.95316 9.49688 5.7891 9.4172 5.67894 9.50391L2.68832 11.8664C2.66808 11.882 2.6517 11.9021 2.64043 11.9251C2.62915 11.948 2.62329 11.9733 2.62329 11.9988C2.62329 12.0244 2.62915 12.0496 2.64043 12.0726C2.6517 12.0956 2.66808 12.1156 2.68832 12.1313L5.6766 14.4938C5.78676 14.5805 5.95082 14.5031 5.95082 14.3602V12.8438H11.1539V18.0469H9.63519C9.49457 18.0469 9.41488 18.2109 9.5016 18.3211L11.8641 21.3094C11.9321 21.3961 12.0633 21.3961 12.1289 21.3094L14.4914 18.3211C14.5782 18.2109 14.5008 18.0469 14.3579 18.0469H12.8438V12.8438H18.0469V14.3625C18.0469 14.5031 18.211 14.5828 18.3211 14.4961L21.3094 12.1336C21.3296 12.1177 21.3459 12.0976 21.3573 12.0745C21.3686 12.0515 21.3746 12.0262 21.3748 12.0006C21.375 11.9749 21.3695 11.9495 21.3586 11.9263C21.3476 11.9031 21.3316 11.8826 21.3118 11.8664Z" fill="#989898"/>
</svg>
