<svg width="20" height="20" viewBox="0 0 20 20" fill="none" xmlns="http://www.w3.org/2000/svg">
<path d="M9.10809 18.9584C8.70809 18.9584 8.30812 18.8584 7.94146 18.6584C7.19979 18.2417 6.75809 17.5 6.75809 16.6583V12.2C6.75809 11.775 6.48308 11.15 6.22474 10.825L3.05809 7.50003C2.53309 6.97503 2.12476 6.05835 2.12476 5.38335V3.45004C2.12476 2.10837 3.14144 1.05835 4.43311 1.05835H15.5497C16.8247 1.05835 17.8581 2.0917 17.8581 3.3667V5.2167C17.8581 6.0917 17.3331 7.10001 16.8331 7.59168C16.5914 7.83335 16.1914 7.83335 15.9498 7.59168C15.7081 7.35001 15.7081 6.95002 15.9498 6.70835C16.2581 6.40002 16.6081 5.70837 16.6081 5.2167V3.3667C16.6081 2.78337 16.1331 2.30835 15.5497 2.30835H4.43311C3.84144 2.30835 3.37476 2.80837 3.37476 3.45004V5.38335C3.37476 5.69168 3.62476 6.30004 3.94976 6.62504L7.15812 10C7.58312 10.525 7.99975 11.4084 7.99975 12.2V16.6583C7.99975 17.2084 8.37477 17.475 8.54143 17.5667C8.89977 17.7667 9.32479 17.7584 9.65812 17.5584L10.8248 16.8084C11.0664 16.6667 11.2998 16.2083 11.2998 15.9C11.2998 15.5583 11.5831 15.275 11.9248 15.275C12.2664 15.275 12.5498 15.5583 12.5498 15.9C12.5498 16.65 12.0831 17.5084 11.4914 17.8667L10.3331 18.6167C9.95812 18.8417 9.53309 18.9584 9.10809 18.9584Z" fill="#1E1E1E"/>
<path d="M13.3918 14.3917C11.5751 14.3917 10.1001 12.9167 10.1001 11.1C10.1001 9.28336 11.5751 7.80835 13.3918 7.80835C15.2084 7.80835 16.6835 9.28336 16.6835 11.1C16.6835 12.9167 15.2084 14.3917 13.3918 14.3917ZM13.3918 9.05835C12.2668 9.05835 11.3501 9.97503 11.3501 11.1C11.3501 12.225 12.2668 13.1417 13.3918 13.1417C14.5168 13.1417 15.4335 12.225 15.4335 11.1C15.4335 9.97503 14.5168 9.05835 13.3918 9.05835Z" fill="#1E1E1E"/>
<path d="M16.5583 14.8916C16.3999 14.8916 16.2416 14.8332 16.1166 14.7082L15.2833 13.8749C15.0416 13.6332 15.0416 13.2332 15.2833 12.9916C15.525 12.7499 15.925 12.7499 16.1666 12.9916L17 13.8249C17.2416 14.0666 17.2416 14.4666 17 14.7082C16.8833 14.8249 16.7166 14.8916 16.5583 14.8916Z" fill="#1E1E1E"/>
</svg>
