<svg width="24" height="25" viewBox="0 0 24 25" fill="none" xmlns="http://www.w3.org/2000/svg">
<path d="M15.24 22.77H15.11C10.67 22.77 8.53002 21.02 8.16002 17.1C8.12002 16.69 8.42002 16.32 8.84002 16.28C9.24002 16.24 9.62002 16.55 9.66002 16.96C9.95002 20.1 11.43 21.27 15.12 21.27H15.25C19.32 21.27 20.76 19.83 20.76 15.76V9.23998C20.76 5.16998 19.32 3.72998 15.25 3.72998H15.12C11.41 3.72998 9.93002 4.91998 9.66002 8.11998C9.61002 8.52998 9.26002 8.83998 8.84002 8.79998C8.42002 8.76998 8.12001 8.39998 8.15001 7.98998C8.49001 4.00998 10.64 2.22998 15.11 2.22998H15.24C20.15 2.22998 22.25 4.32998 22.25 9.23998V15.76C22.25 20.67 20.15 22.77 15.24 22.77Z" fill="#1E1E1E"/>
<path d="M15.0001 13.25H3.62012C3.21012 13.25 2.87012 12.91 2.87012 12.5C2.87012 12.09 3.21012 11.75 3.62012 11.75H15.0001C15.4101 11.75 15.7501 12.09 15.7501 12.5C15.7501 12.91 15.4101 13.25 15.0001 13.25Z" fill="#1E1E1E"/>
<path d="M5.84994 16.6001C5.65994 16.6001 5.46994 16.5301 5.31994 16.3801L1.96994 13.0301C1.67994 12.7401 1.67994 12.2601 1.96994 11.9701L5.31994 8.62009C5.60994 8.33009 6.08994 8.33009 6.37994 8.62009C6.66994 8.91009 6.66994 9.39009 6.37994 9.68009L3.55994 12.5001L6.37994 15.3201C6.66994 15.6101 6.66994 16.0901 6.37994 16.3801C6.23994 16.5301 6.03994 16.6001 5.84994 16.6001Z" fill="#1E1E1E"/>
</svg>
