<svg width="17" height="16" viewBox="0 0 17 16" fill="none" xmlns="http://www.w3.org/2000/svg">
<path d="M13.3666 5.27999V8.71334C13.3666 10.7667 12.1933 11.6466 10.4333 11.6466H4.57328C4.27328 11.6466 3.98662 11.62 3.71995 11.56C3.55328 11.5334 3.39329 11.4867 3.24662 11.4333C2.24662 11.06 1.63995 10.1933 1.63995 8.71334V5.27999C1.63995 3.22666 2.81328 2.34668 4.57328 2.34668H10.4333C11.9266 2.34668 13 2.98001 13.2866 4.42668C13.3333 4.69334 13.3666 4.96666 13.3666 5.27999Z" fill="white" stroke="#1E1E1E" stroke-miterlimit="10" stroke-linecap="round" stroke-linejoin="round"/>
<path d="M15.3674 7.28007V10.7134C15.3674 12.7668 14.1941 13.6467 12.4341 13.6467H6.5741C6.08076 13.6467 5.6341 13.5801 5.24744 13.4334C4.4541 13.1401 3.9141 12.5334 3.72076 11.5601C3.98743 11.6201 4.2741 11.6467 4.5741 11.6467H10.4341C12.1941 11.6467 13.3674 10.7668 13.3674 8.71342V5.28007C13.3674 4.96674 13.3408 4.68676 13.2874 4.42676C14.5541 4.69342 15.3674 5.58674 15.3674 7.28007Z" fill="white" stroke="#1E1E1E" stroke-miterlimit="10" stroke-linecap="round" stroke-linejoin="round"/>
<path d="M7.49902 8.75977C8.47104 8.75977 9.25903 7.97178 9.25903 6.99976C9.25903 6.02773 8.47104 5.23975 7.49902 5.23975C6.527 5.23975 5.73901 6.02773 5.73901 6.99976C5.73901 7.97178 6.527 8.75977 7.49902 8.75977Z" fill="white" stroke="#1E1E1E" stroke-miterlimit="10" stroke-linecap="round" stroke-linejoin="round"/>
<path d="M3.68677 5.5332V8.46655" stroke="#1E1E1E" stroke-miterlimit="10" stroke-linecap="round" stroke-linejoin="round"/>
<path d="M11.3145 5.53369V8.46704" stroke="#1E1E1E" stroke-miterlimit="10" stroke-linecap="round" stroke-linejoin="round"/>
</svg>
