<svg width="16" height="16" viewBox="0 0 16 16" fill="none" xmlns="http://www.w3.org/2000/svg">
<path d="M10.6666 15.1666H5.33329C3.31996 15.1666 2.16663 14.0133 2.16663 11.9999V5.49992C2.16663 3.39992 3.23329 2.33325 5.33329 2.33325C5.60663 2.33325 5.83329 2.55992 5.83329 2.83325C5.83329 3.09992 5.93996 3.35325 6.12663 3.53992C6.31329 3.72658 6.56663 3.83325 6.83329 3.83325H9.16663C9.71996 3.83325 10.1666 3.38659 10.1666 2.83325C10.1666 2.55992 10.3933 2.33325 10.6666 2.33325C12.7666 2.33325 13.8333 3.39992 13.8333 5.49992V11.9999C13.8333 14.0133 12.68 15.1666 10.6666 15.1666ZM4.89994 3.34659C3.84661 3.43325 3.16663 3.90659 3.16663 5.49992V11.9999C3.16663 13.4799 3.85329 14.1666 5.33329 14.1666H10.6666C12.1466 14.1666 12.8333 13.4799 12.8333 11.9999V5.49992C12.8333 3.90659 12.1533 3.43992 11.1 3.34659C10.8733 4.19992 10.0933 4.83325 9.16663 4.83325H6.83329C6.29996 4.83325 5.79996 4.62658 5.41996 4.24658C5.16663 3.99325 4.99328 3.68659 4.89994 3.34659Z" fill="#1E1E1E"/>
<path d="M9.16671 4.83325H6.83337C6.30004 4.83325 5.80004 4.62658 5.42004 4.24658C5.04004 3.86658 4.83337 3.36659 4.83337 2.83325C4.83337 1.73325 5.73337 0.833252 6.83337 0.833252H9.16671C9.70004 0.833252 10.2 1.03992 10.58 1.41992C10.96 1.79992 11.1667 2.29992 11.1667 2.83325C11.1667 3.93325 10.2667 4.83325 9.16671 4.83325ZM6.83337 1.83325C6.28004 1.83325 5.83337 2.27992 5.83337 2.83325C5.83337 3.09992 5.94004 3.35325 6.12671 3.53992C6.31338 3.72658 6.56671 3.83325 6.83337 3.83325H9.16671C9.72004 3.83325 10.1667 3.38659 10.1667 2.83325C10.1667 2.56659 10.06 2.31325 9.87337 2.12659C9.68671 1.93992 9.43337 1.83325 9.16671 1.83325H6.83337Z" fill="#1E1E1E"/>
<path d="M8.00004 9.16675H5.33337C5.06004 9.16675 4.83337 8.94008 4.83337 8.66675C4.83337 8.39341 5.06004 8.16675 5.33337 8.16675H8.00004C8.27337 8.16675 8.50004 8.39341 8.50004 8.66675C8.50004 8.94008 8.27337 9.16675 8.00004 9.16675Z" fill="#1E1E1E"/>
<path d="M10.6667 11.8333H5.33337C5.06004 11.8333 4.83337 11.6066 4.83337 11.3333C4.83337 11.0599 5.06004 10.8333 5.33337 10.8333H10.6667C10.94 10.8333 11.1667 11.0599 11.1667 11.3333C11.1667 11.6066 10.94 11.8333 10.6667 11.8333Z" fill="#1E1E1E"/>
</svg>
