<svg width="17" height="16" viewBox="0 0 17 16" fill="none" xmlns="http://www.w3.org/2000/svg">
<path d="M11.1666 15.1668H5.83329C3.81996 15.1668 2.66663 14.0135 2.66663 12.0002V5.50016C2.66663 3.40016 3.73329 2.3335 5.83329 2.3335C6.10663 2.3335 6.33329 2.56016 6.33329 2.8335C6.33329 3.10016 6.43996 3.35349 6.62663 3.54016C6.81329 3.72683 7.06663 3.8335 7.33329 3.8335H9.66663C10.22 3.8335 10.6666 3.38683 10.6666 2.8335C10.6666 2.56016 10.8933 2.3335 11.1666 2.3335C13.2666 2.3335 14.3333 3.40016 14.3333 5.50016V12.0002C14.3333 14.0135 13.18 15.1668 11.1666 15.1668ZM5.39994 3.34683C4.34661 3.4335 3.66663 3.90683 3.66663 5.50016V12.0002C3.66663 13.4802 4.35329 14.1668 5.83329 14.1668H11.1666C12.6466 14.1668 13.3333 13.4802 13.3333 12.0002V5.50016C13.3333 3.90683 12.6533 3.44017 11.6 3.34683C11.3733 4.20017 10.5933 4.8335 9.66663 4.8335H7.33329C6.79996 4.8335 6.29996 4.62683 5.91996 4.24683C5.66663 3.99349 5.49328 3.68683 5.39994 3.34683Z" fill="#1E1E1E"/>
<path d="M9.66671 4.8335H7.33337C6.80004 4.8335 6.30004 4.62683 5.92004 4.24683C5.54004 3.86683 5.33337 3.36683 5.33337 2.8335C5.33337 1.7335 6.23337 0.833496 7.33337 0.833496H9.66671C10.2 0.833496 10.7 1.04017 11.08 1.42017C11.46 1.80017 11.6667 2.30016 11.6667 2.8335C11.6667 3.9335 10.7667 4.8335 9.66671 4.8335ZM7.33337 1.8335C6.78004 1.8335 6.33337 2.28016 6.33337 2.8335C6.33337 3.10016 6.44004 3.35349 6.62671 3.54016C6.81338 3.72683 7.06671 3.8335 7.33337 3.8335H9.66671C10.22 3.8335 10.6667 3.38683 10.6667 2.8335C10.6667 2.56683 10.56 2.3135 10.3734 2.12683C10.1867 1.94016 9.93337 1.8335 9.66671 1.8335H7.33337Z" fill="#1E1E1E"/>
<path d="M8.50004 9.1665H5.83337C5.56004 9.1665 5.33337 8.93984 5.33337 8.6665C5.33337 8.39317 5.56004 8.1665 5.83337 8.1665H8.50004C8.77337 8.1665 9.00004 8.39317 9.00004 8.6665C9.00004 8.93984 8.77337 9.1665 8.50004 9.1665Z" fill="#1E1E1E"/>
<path d="M11.1667 11.8335H5.83337C5.56004 11.8335 5.33337 11.6068 5.33337 11.3335C5.33337 11.0602 5.56004 10.8335 5.83337 10.8335H11.1667C11.44 10.8335 11.6667 11.0602 11.6667 11.3335C11.6667 11.6068 11.44 11.8335 11.1667 11.8335Z" fill="#1E1E1E"/>
</svg>
