<svg width="25" height="25" viewBox="0 0 25 25" fill="none" xmlns="http://www.w3.org/2000/svg">
<path d="M21.74 8.30863V8.31V16.69C21.74 18.4106 21.2291 19.7238 20.3464 20.6064C19.4638 21.4891 18.1506 22 16.43 22H8.06C6.33945 22 5.02634 21.4891 4.14377 20.6054C3.26114 19.7217 2.75 18.4059 2.75 16.68V8.31C2.75 6.58944 3.26093 5.27618 4.14355 4.39355C5.02618 3.51093 6.33944 3 8.06 3H16.44C18.1607 3 19.4737 3.51097 20.355 4.39333C21.2361 5.27559 21.7447 6.58838 21.74 8.30863ZM13.5 16.5V13.75H16.25C16.9361 13.75 17.5 13.1861 17.5 12.5C17.5 11.8139 16.9361 11.25 16.25 11.25H13.5V8.5C13.5 7.81386 12.9361 7.25 12.25 7.25C11.5639 7.25 11 7.81386 11 8.5V11.25H8.25C7.56386 11.25 7 11.8139 7 12.5C7 13.1861 7.56386 13.75 8.25 13.75H11V16.5C11 17.1861 11.5639 17.75 12.25 17.75C12.9361 17.75 13.5 17.1861 13.5 16.5Z" fill="#1E1E1E" stroke="#1E1E1E"/>
</svg>
