<svg width="34" height="34" viewBox="0 0 34 34" fill="none" xmlns="http://www.w3.org/2000/svg">
<g clip-path="url(#clip0_473_9143)">
<path d="M17.9896 18.0045L24.0634 18.058C24.3297 18.06 24.5859 17.9562 24.7757 17.7693C24.9654 17.5825 25.0731 17.3279 25.0752 17.0616C25.0772 16.7953 24.9734 16.5391 24.7865 16.3494C24.5997 16.1596 24.3451 16.0519 24.0788 16.0498L18.0049 16.0105L18.0584 9.93666C18.0604 9.67037 17.9566 9.41417 17.7697 9.22444C17.5829 9.0347 17.3283 8.92696 17.062 8.92492C16.7957 8.92289 16.5395 9.02672 16.3498 9.21358C16.16 9.40044 16.0523 9.65502 16.0502 9.92131L16.0109 15.9952L9.93706 15.9417C9.80506 15.9402 9.67406 15.9648 9.55161 16.0141C9.42917 16.0634 9.3177 16.1365 9.22364 16.2292C9.12958 16.3218 9.0548 16.4321 9.0036 16.5538C8.9524 16.6755 8.9258 16.8061 8.92533 16.9381C8.92378 17.0701 8.94838 17.2011 8.99771 17.3236C9.04705 17.446 9.12014 17.5575 9.21277 17.6515C9.3054 17.7456 9.41573 17.8204 9.53741 17.8716C9.65909 17.9228 9.7897 17.9494 9.92171 17.9499L15.9956 17.9892L15.9421 24.063C15.9406 24.195 15.9652 24.326 16.0145 24.4485C16.0639 24.5709 16.1369 24.6824 16.2296 24.7765C16.3222 24.8705 16.4325 24.9453 16.5542 24.9965C16.6759 25.0477 16.8065 25.0743 16.9385 25.0748C17.0705 25.0763 17.2015 25.0517 17.324 25.0024C17.4464 24.9531 17.5579 24.88 17.6519 24.7873C17.746 24.6947 17.8208 24.5844 17.872 24.4627C17.9232 24.341 17.9498 24.2104 17.9503 24.0784L17.9896 18.0045Z" fill="black"/>
</g>
<defs>
<clipPath id="clip0_473_9143">
<rect width="24" height="24" fill="white" transform="translate(17.1299 0.0297852) rotate(45.438)"/>
</clipPath>
</defs>
</svg>
