<svg width="20" height="20" viewBox="0 0 20 20" fill="none" xmlns="http://www.w3.org/2000/svg">
<path d="M15.8084 18.9583H4.14172C1.01672 18.9583 1.01672 17.225 1.01672 15.8333V15C1.01672 14.2 1.67506 13.5416 2.47506 13.5416H17.4751C18.2751 13.5416 18.9334 14.2 18.9334 15V15.8333C18.9334 17.225 18.9334 18.9583 15.8084 18.9583ZM2.47506 14.7916C2.35839 14.7916 2.26672 14.8833 2.26672 15V15.8333C2.26672 17.2 2.26672 17.7083 4.14172 17.7083H15.8084C17.6834 17.7083 17.6834 17.2 17.6834 15.8333V15C17.6834 14.8833 17.5917 14.7916 17.4751 14.7916H2.47506Z" fill="#1E1E1E"/>
<path d="M17.2666 14.7916H2.72498C2.38331 14.7916 2.09998 14.5083 2.09998 14.1666V10.8333C2.09998 7.41663 4.52498 4.41663 7.85831 3.70829C8.34998 3.59996 8.86664 3.54163 9.39164 3.54163H10.6C11.1333 3.54163 11.65 3.59996 12.1416 3.70829C15.475 4.42496 17.8916 7.42496 17.8916 10.8333V14.1666C17.8916 14.5083 17.6166 14.7916 17.2666 14.7916ZM3.34998 13.5416H16.6416V10.8333C16.6416 8.00829 14.6416 5.52496 11.875 4.92496C11.4666 4.83329 11.0416 4.79163 10.6 4.79163H9.39164C8.95831 4.79163 8.53331 4.83329 8.12498 4.92496C5.35831 5.51663 3.34998 7.99996 3.34998 10.8333V13.5416Z" fill="#1E1E1E"/>
<path d="M7.99163 4.94163C7.71663 4.94163 7.46663 4.75829 7.39163 4.48329C7.32496 4.24163 7.29163 3.99996 7.29163 3.74996C7.29163 2.25829 8.50829 1.04163 9.99996 1.04163C11.4916 1.04163 12.7083 2.25829 12.7083 3.74996C12.7083 3.99996 12.675 4.24163 12.6083 4.48329C12.525 4.79996 12.2083 4.99996 11.875 4.92496C11.4666 4.83329 11.0416 4.79163 10.6 4.79163H9.39163C8.95829 4.79163 8.53329 4.83329 8.12496 4.92496C8.08329 4.93329 8.04163 4.94163 7.99163 4.94163ZM9.39163 3.54163H10.6C10.8833 3.54163 11.175 3.55829 11.45 3.59163C11.375 2.85829 10.75 2.29163 9.99996 2.29163C9.24996 2.29163 8.63329 2.85829 8.54996 3.59163C8.83329 3.55829 9.10829 3.54163 9.39163 3.54163Z" fill="#1E1E1E"/>
<path d="M12.5 9.79163H7.5C7.15833 9.79163 6.875 9.50829 6.875 9.16663C6.875 8.82496 7.15833 8.54163 7.5 8.54163H12.5C12.8417 8.54163 13.125 8.82496 13.125 9.16663C13.125 9.50829 12.8417 9.79163 12.5 9.79163Z" fill="#1E1E1E"/>
</svg>
