<svg width="21" height="20" viewBox="0 0 21 20" fill="none" xmlns="http://www.w3.org/2000/svg">
<path d="M8.00008 18.3334H13.0001C17.1667 18.3334 18.8334 16.6667 18.8334 12.5001V7.50008C18.8334 3.33341 17.1667 1.66675 13.0001 1.66675H8.00008C3.83341 1.66675 2.16675 3.33341 2.16675 7.50008V12.5001C2.16675 16.6667 3.83341 18.3334 8.00008 18.3334Z" stroke="#045B62" stroke-width="1.2" stroke-linecap="round" stroke-linejoin="round"/>
<path d="M13.4167 8.125C14.1071 8.125 14.6667 7.56536 14.6667 6.875C14.6667 6.18464 14.1071 5.625 13.4167 5.625C12.7264 5.625 12.1667 6.18464 12.1667 6.875C12.1667 7.56536 12.7264 8.125 13.4167 8.125Z" stroke="#045B62" stroke-width="1.2" stroke-miterlimit="10" stroke-linecap="round" stroke-linejoin="round"/>
<path d="M7.58325 8.125C8.27361 8.125 8.83325 7.56536 8.83325 6.875C8.83325 6.18464 8.27361 5.625 7.58325 5.625C6.8929 5.625 6.33325 6.18464 6.33325 6.875C6.33325 7.56536 6.8929 8.125 7.58325 8.125Z" stroke="#045B62" stroke-width="1.2" stroke-miterlimit="10" stroke-linecap="round" stroke-linejoin="round"/>
<path d="M7.5 11.0833H13.5C13.9167 11.0833 14.25 11.4166 14.25 11.8333C14.25 13.9083 12.575 15.5833 10.5 15.5833C8.425 15.5833 6.75 13.9083 6.75 11.8333C6.75 11.4166 7.08333 11.0833 7.5 11.0833Z" stroke="#045B62" stroke-width="1.2" stroke-miterlimit="10" stroke-linecap="round" stroke-linejoin="round"/>
</svg>
