<svg width="16" height="16" viewBox="0 0 16 16" fill="none" xmlns="http://www.w3.org/2000/svg">
<path d="M10 15.1666H6.00004C4.16671 15.1666 2.83337 13.8333 2.83337 11.9999V3.99992C2.83337 2.16659 4.16671 0.833252 6.00004 0.833252H10C11.8334 0.833252 13.1667 2.16659 13.1667 3.99992V11.9999C13.1667 13.8333 11.8334 15.1666 10 15.1666ZM6.00004 1.83325C4.50004 1.83325 3.83337 2.91992 3.83337 3.99992V11.9999C3.83337 13.0799 4.50004 14.1666 6.00004 14.1666H10C11.5 14.1666 12.1667 13.0799 12.1667 11.9999V3.99992C12.1667 2.91992 11.5 1.83325 10 1.83325H6.00004Z" fill="#1E1E1E"/>
<path d="M12.6667 11.1731H3.33337C3.06004 11.1731 2.83337 10.9464 2.83337 10.6731C2.83337 10.3998 3.06004 10.1731 3.33337 10.1731H12.6667C12.94 10.1731 13.1667 10.3998 13.1667 10.6731C13.1667 10.9464 12.94 11.1731 12.6667 11.1731Z" fill="#1E1E1E"/>
<path d="M1.33337 13.8334C1.06004 13.8334 0.833374 13.6067 0.833374 13.3334V2.66675C0.833374 2.39341 1.06004 2.16675 1.33337 2.16675C1.60671 2.16675 1.83337 2.39341 1.83337 2.66675V13.3334C1.83337 13.6067 1.60671 13.8334 1.33337 13.8334Z" fill="#1E1E1E"/>
<path d="M14.6666 13.8334C14.3933 13.8334 14.1666 13.6067 14.1666 13.3334V2.66675C14.1666 2.39341 14.3933 2.16675 14.6666 2.16675C14.94 2.16675 15.1666 2.39341 15.1666 2.66675V13.3334C15.1666 13.6067 14.94 13.8334 14.6666 13.8334Z" fill="#1E1E1E"/>
</svg>
