<svg width="16" height="16" viewBox="0 0 16 16" fill="none" xmlns="http://www.w3.org/2000/svg">
<path d="M8.00004 15.1668C4.04671 15.1668 0.833374 11.9535 0.833374 8.00016C0.833374 4.04683 4.04671 0.833496 8.00004 0.833496C11.9534 0.833496 15.1667 4.04683 15.1667 8.00016C15.1667 11.9535 11.9534 15.1668 8.00004 15.1668ZM8.00004 1.8335C4.60004 1.8335 1.83337 4.60016 1.83337 8.00016C1.83337 11.4002 4.60004 14.1668 8.00004 14.1668C11.4 14.1668 14.1667 11.4002 14.1667 8.00016C14.1667 4.60016 11.4 1.8335 8.00004 1.8335Z" fill="#1E1E1E"/>
<path d="M10.4733 10.6202C10.3867 10.6202 10.3 10.6002 10.22 10.5468L8.15334 9.3135C7.64001 9.00684 7.26001 8.3335 7.26001 7.74017V5.00684C7.26001 4.7335 7.48668 4.50684 7.76001 4.50684C8.03334 4.50684 8.26001 4.7335 8.26001 5.00684V7.74017C8.26001 7.98017 8.46001 8.3335 8.66668 8.4535L10.7333 9.68684C10.9733 9.82684 11.0467 10.1335 10.9067 10.3735C10.8067 10.5335 10.64 10.6202 10.4733 10.6202Z" fill="#1E1E1E"/>
</svg>
