<svg width="64" height="44" viewBox="0 0 64 44" fill="none" xmlns="http://www.w3.org/2000/svg">
<rect width="64" height="44" rx="8" fill="#E5E5E5"/>
<path d="M30.624 9.09978C31.0235 8.80808 31.5053 8.65088 32 8.65088C32.4947 8.65088 32.9765 8.80808 33.376 9.09978L43.2707 16.3211C44.5733 17.2705 43.9027 19.3305 42.292 19.3345H21.7067C20.096 19.3305 19.4267 17.2705 20.728 16.3211L30.6227 9.09978H30.624ZM33.3333 14.3331C33.3333 13.9795 33.1929 13.6404 32.9428 13.3903C32.6928 13.1403 32.3536 12.9998 32 12.9998C31.6464 12.9998 31.3072 13.1403 31.0572 13.3903C30.8071 13.6404 30.6667 13.9795 30.6667 14.3331C30.6667 14.6867 30.8071 15.0259 31.0572 15.2759C31.3072 15.526 31.6464 15.6665 32 15.6665C32.3536 15.6665 32.6928 15.526 32.9428 15.2759C33.1929 15.0259 33.3333 14.6867 33.3333 14.3331ZM31 27.3331H28.3333V20.6664H31V27.3331ZM35.6667 27.3331H33V20.6664H35.6667V27.3331ZM40.6667 27.3331H37.6667V20.6664H40.6667V27.3331ZM41 28.6664H23C22.2044 28.6664 21.4413 28.9825 20.8787 29.5451C20.3161 30.1077 20 30.8708 20 31.6664V32.3331C20 32.8864 20.448 33.3331 21 33.3331H43C43.2652 33.3331 43.5196 33.2278 43.7071 33.0402C43.8946 32.8527 44 32.5983 44 32.3331V31.6664C44 30.8708 43.6839 30.1077 43.1213 29.5451C42.5587 28.9825 41.7957 28.6664 41 28.6664V28.6664ZM26.3333 27.3331H23.3333V20.6664H26.3333V27.3331Z" fill="#989898"/>
</svg>
