<svg width="64" height="44" viewBox="0 0 64 44" fill="none" xmlns="http://www.w3.org/2000/svg">
<rect width="64" height="44" rx="8" fill="#E5E5E5"/>
<g clip-path="url(#clip0_372_8397)">
<path fill-rule="evenodd" clip-rule="evenodd" d="M22.6667 14.6668C22.6667 14.49 22.7369 14.3204 22.8619 14.1954C22.987 14.0704 23.1565 14.0002 23.3333 14.0002H37.3333C37.687 14.0002 38.0261 13.8597 38.2761 13.6096C38.5262 13.3596 38.6667 13.0205 38.6667 12.6668C38.6667 12.3132 38.5262 11.9741 38.2761 11.724C38.0261 11.474 37.687 11.3335 37.3333 11.3335H23.3333C22.4493 11.3335 21.6014 11.6847 20.9763 12.3098C20.3512 12.9349 20 13.7828 20 14.6668V30.0002C20 30.7074 20.281 31.3857 20.781 31.8858C21.2811 32.3859 21.9594 32.6668 22.6667 32.6668H41.3333C42.0406 32.6668 42.7189 32.3859 43.219 31.8858C43.719 31.3857 44 30.7074 44 30.0002V18.0002C44 17.2929 43.719 16.6146 43.219 16.1145C42.7189 15.6144 42.0406 15.3335 41.3333 15.3335H23.3333C23.1565 15.3335 22.987 15.2633 22.8619 15.1382C22.7369 15.0132 22.6667 14.8436 22.6667 14.6668ZM36.6667 26.0002C37.1971 26.0002 37.7058 25.7894 38.0809 25.4144C38.456 25.0393 38.6667 24.5306 38.6667 24.0002C38.6667 23.4697 38.456 22.961 38.0809 22.5859C37.7058 22.2109 37.1971 22.0002 36.6667 22.0002C36.1362 22.0002 35.6275 22.2109 35.2525 22.5859C34.8774 22.961 34.6667 23.4697 34.6667 24.0002C34.6667 24.5306 34.8774 25.0393 35.2525 25.4144C35.6275 25.7894 36.1362 26.0002 36.6667 26.0002Z" fill="#989898"/>
</g>
<defs>
<clipPath id="clip0_372_8397">
<rect width="32" height="32" fill="white" transform="translate(16 6)"/>
</clipPath>
</defs>
</svg>
