<svg width="40" height="40" viewBox="0 0 40 40" fill="none" xmlns="http://www.w3.org/2000/svg">
<g clip-path="url(#clip0_290_2966)">
<path d="M8.36329 15.2076C7.86345 11.5168 5.18732 10.312 5.92408 7.94477C7.26265 3.64223 17.3544 3.6164 19.0008 3.6071C24.3451 3.59056 33.0143 3.56473 36.5681 9.96172C38.2056 12.9096 35.8144 14.661 36.861 22.1678C37.4818 26.6232 38.3755 27.1616 37.9347 29.1279C36.6021 35.063 26.8383 37.3723 25.4387 37.704C15.0181 40.1684 1.84641 36.7327 0.846734 31.1469C-0.043977 26.15 9.35497 22.5253 8.36329 15.2076Z" fill="#E3EEFF"/>
<path d="M3.5818 26.4045C3.00199 25.1005 0.0479461 18.4483 2.80105 14.401C4.40053 12.0513 6.40988 12.7881 10.3156 10.1646C15.6329 6.59257 14.8921 3.21997 18.7129 1.18753C23.7952 -1.51964 32.3235 0.622328 34.8157 5.42394C37.2249 10.0664 32.2835 13.9071 34.6157 20.7567C36.3741 25.9106 40.046 26.3012 39.984 29.6335C39.893 34.4392 32.1505 39.2687 25.1498 39.9228C15.6129 40.8145 6.9577 34.0011 3.5818 26.4045Z" fill="#E6EFEF"/>
<path d="M20.8991 0.564941C20.639 0.565215 20.3895 0.672239 20.2056 0.862497C20.0217 1.05276 19.9185 1.31068 19.9185 1.57961V3.35581H21.8798V1.57961C21.8798 1.31068 21.7765 1.05276 21.5926 0.862497C21.4088 0.672239 21.1593 0.565215 20.8991 0.564941ZM20.8991 1.96089C20.8176 1.9611 20.7379 1.9363 20.67 1.88965C20.6022 1.843 20.5492 1.77658 20.5179 1.69881C20.4866 1.62104 20.4783 1.53541 20.4941 1.45277C20.5098 1.37012 20.549 1.29417 20.6066 1.23453C20.6641 1.17489 20.7375 1.13424 20.8174 1.11773C20.8973 1.10122 20.9802 1.10959 21.0555 1.14178C21.1308 1.17397 21.1952 1.22854 21.2405 1.29857C21.2858 1.36859 21.31 1.45094 21.31 1.53518C21.3103 1.59117 21.2998 1.64667 21.2793 1.69849C21.2588 1.75031 21.2286 1.79744 21.1904 1.83718C21.1523 1.87691 21.1069 1.90847 21.0569 1.93006C21.0069 1.95164 20.9533 1.96282 20.8991 1.96296V1.96089Z" fill="#045B62"/>
<path d="M34.2419 2.76587H7.55657C7.02774 2.76587 6.59888 3.15438 6.59888 3.63485V39.0399C6.59888 39.5204 7.02774 39.9099 7.55657 39.9099H34.2419C34.7697 39.9099 35.1986 39.5204 35.1986 39.0399V3.63485C35.1986 3.15438 34.7697 2.76587 34.2419 2.76587Z" fill="#045B62"/>
<path d="M33.2449 4.08423H8.55295C8.06311 4.08423 7.66724 4.45001 7.66724 4.90051V38.1543C7.66724 38.6058 8.06711 38.9716 8.55295 38.9716H33.2449C33.7338 38.9716 34.1306 38.6058 34.1306 38.1543V4.90051C34.1336 4.45001 33.7338 4.08423 33.2449 4.08423Z" fill="white"/>
<path d="M27.2292 3.28333H14.5693C14.4608 3.28333 14.3568 3.2388 14.2802 3.15955C14.2035 3.08029 14.1604 2.9728 14.1604 2.86072C14.1604 2.74864 14.2035 2.64114 14.2802 2.56189C14.3568 2.48263 14.4608 2.43811 14.5693 2.43811H27.2292C27.3372 2.43866 27.4407 2.48342 27.517 2.56262C27.5932 2.64181 27.636 2.74899 27.636 2.86072C27.636 2.97244 27.5932 3.07962 27.517 3.15882C27.4407 3.23801 27.3372 3.28278 27.2292 3.28333Z" fill="#045B62"/>
<path d="M26.0552 2.90123V4.4656C26.0549 4.50159 26.0409 4.53602 26.0162 4.56138C25.9915 4.58673 25.9581 4.60096 25.9232 4.60096H21.7296C21.7002 4.60115 21.6717 4.61139 21.6486 4.63009C21.6254 4.64878 21.6089 4.67487 21.6016 4.70429C21.5622 4.86603 21.4716 5.00954 21.3443 5.11207C21.217 5.21459 21.0602 5.27027 20.8989 5.27027C20.7375 5.27027 20.5807 5.21459 20.4534 5.11207C20.3261 5.00954 20.2355 4.86603 20.1961 4.70429C20.1886 4.67479 20.1719 4.64867 20.1486 4.62999C20.1253 4.6113 20.0966 4.6011 20.0671 4.60096H15.8685C15.8342 4.60015 15.8015 4.58557 15.7775 4.5603C15.7534 4.53503 15.7398 4.50106 15.7395 4.4656V2.90123C15.7393 2.86523 15.7253 2.83081 15.7005 2.80545C15.6758 2.7801 15.6424 2.76587 15.6076 2.76587C15.5728 2.76587 15.5395 2.78013 15.515 2.80551C15.4904 2.8309 15.4766 2.86533 15.4766 2.90123V4.71669C15.4761 4.73498 15.4791 4.7532 15.4856 4.77024C15.4921 4.78728 15.5018 4.80279 15.5142 4.81583C15.5267 4.82887 15.5415 4.83917 15.5579 4.8461C15.5743 4.85304 15.5919 4.85646 15.6096 4.85618H19.8872C19.914 4.85647 19.94 4.86511 19.962 4.88097C19.9839 4.89682 20.0007 4.91915 20.0102 4.94504C20.0204 4.9739 20.032 5.00218 20.0451 5.02977C20.124 5.19394 20.2457 5.33209 20.3964 5.42866C20.5472 5.52524 20.721 5.5764 20.8984 5.5764C21.0757 5.5764 21.2495 5.52524 21.4003 5.42866C21.551 5.33209 21.6727 5.19394 21.7516 5.02977C21.7646 5.00187 21.7766 4.97397 21.7876 4.94504C21.7968 4.91899 21.8135 4.8965 21.8355 4.8806C21.8575 4.86471 21.8837 4.85618 21.9105 4.85618H26.1871C26.222 4.85618 26.2554 4.84195 26.2801 4.81659C26.3048 4.79124 26.3188 4.75681 26.3191 4.72082V2.90123C26.3188 2.86523 26.3048 2.83081 26.2801 2.80545C26.2554 2.7801 26.222 2.76587 26.1871 2.76587C26.1523 2.76587 26.1189 2.7801 26.0942 2.80545C26.0695 2.83081 26.0555 2.86523 26.0552 2.90123Z" fill="#045B62"/>
<path d="M14.2255 14.5947L13.3408 15.8749L12.723 15.2767L12.3511 15.7654L13.3987 16.4815L14.7353 14.9967L14.2255 14.5947Z" fill="white"/>
<path d="M14.2255 19.9982L13.3408 21.2794L12.723 20.6801L12.3511 21.1689L13.3987 21.8849L14.7353 20.4001L14.2255 19.9982Z" fill="white"/>
<path d="M34.1266 32.9742L34.1696 38.1747C34.1696 38.5787 33.8107 38.9631 33.3458 38.9672L26.576 38.9755C29.0283 37.6209 32.863 35.6938 34.1266 32.9742Z" fill="#C5CBEB"/>
<path d="M34.1268 32.974C33.3721 36.2536 30.1021 38.8037 26.5763 38.9752C28.0638 37.8004 29.1914 35.7235 29.2694 33.5712C29.2739 33.4499 29.3041 33.3311 29.358 33.2232C29.4119 33.1153 29.4881 33.021 29.5813 32.947C29.6744 32.8731 29.7822 32.8212 29.8969 32.7951C30.0117 32.7691 30.1305 32.7695 30.2451 32.7963C31.6666 33.1372 33.0542 33.4059 34.1268 32.974Z" fill="#D8DCF5"/>
<path d="M39.2857 21.9071C39.4256 21.016 38.8401 20.1764 37.978 20.0317C37.1159 19.8871 36.3035 20.4922 36.1636 21.3833C36.0236 22.2744 36.6091 23.1141 37.4712 23.2587C38.3334 23.4034 39.1457 22.7983 39.2857 21.9071Z" fill="#E6EFEF"/>
<path d="M5.847 6.14225C5.9576 5.65794 5.6674 5.17267 5.19884 5.05836C4.73028 4.94405 4.26078 5.244 4.15019 5.72831C4.0396 6.21261 4.32979 6.69789 4.79836 6.8122C5.26692 6.9265 5.73641 6.62656 5.847 6.14225Z" fill="#E6EFEF"/>
<path d="M3.85065 11.3149C4.72408 11.3149 5.43214 10.5831 5.43214 9.68029C5.43214 8.77751 4.72408 8.04565 3.85065 8.04565C2.97722 8.04565 2.26917 8.77751 2.26917 9.68029C2.26917 10.5831 2.97722 11.3149 3.85065 11.3149Z" fill="#E6EFEF"/>
<path d="M4.81666 7.21462C5.2981 7.21462 5.68838 6.81123 5.68838 6.31361C5.68838 5.81599 5.2981 5.4126 4.81666 5.4126C4.33523 5.4126 3.94495 5.81599 3.94495 6.31361C3.94495 6.81123 4.33523 7.21462 4.81666 7.21462Z" fill="#E6EFEF"/>
<path d="M5.18104 33.5513C5.66248 33.5513 6.05276 33.1479 6.05276 32.6503C6.05276 32.1527 5.66248 31.7493 5.18104 31.7493C4.69961 31.7493 4.30933 32.1527 4.30933 32.6503C4.30933 33.1479 4.69961 33.5513 5.18104 33.5513Z" fill="#E6EFEF"/>
<path d="M39.9744 18.0984C40.085 17.6141 39.7948 17.1288 39.3263 17.0145C38.8577 16.9002 38.3882 17.2002 38.2776 17.6845C38.167 18.1688 38.4572 18.6541 38.9258 18.7684C39.3944 18.8827 39.8639 18.5827 39.9744 18.0984Z" fill="#E6EFEF"/>
<path d="M4.20159 27.6772L4.53049 27.3373C4.56457 27.2999 4.58324 27.2503 4.58251 27.199C4.58179 27.1476 4.56174 27.0986 4.52661 27.0623C4.49148 27.026 4.44405 27.0052 4.39438 27.0045C4.34471 27.0037 4.29671 27.023 4.26058 27.0583L3.93168 27.3982L3.60279 27.0583C3.567 27.0211 3.5184 27.0002 3.46769 27.0001C3.41697 27 3.3683 27.0208 3.33238 27.0577C3.29645 27.0947 3.27622 27.145 3.27612 27.1974C3.27603 27.2498 3.29609 27.3001 3.33188 27.3373L3.66077 27.6772L3.33288 28.0171C3.31504 28.0354 3.30089 28.0571 3.29123 28.0811C3.28157 28.105 3.27659 28.1307 3.27659 28.1566C3.27659 28.1826 3.28157 28.2083 3.29123 28.2322C3.30089 28.2561 3.31504 28.2779 3.33288 28.2961C3.36868 28.3331 3.41722 28.3539 3.46783 28.3539C3.51845 28.3539 3.56699 28.3331 3.60279 28.2961L3.93168 27.9572L4.25958 28.2961C4.27741 28.3146 4.29861 28.3292 4.32195 28.3391C4.34528 28.3491 4.37029 28.3541 4.39553 28.354C4.42063 28.3542 4.44552 28.3492 4.4687 28.3393C4.49189 28.3293 4.5129 28.3146 4.53049 28.2961C4.54832 28.2779 4.56248 28.2561 4.57214 28.2322C4.5818 28.2083 4.58677 28.1826 4.58677 28.1566C4.58677 28.1307 4.5818 28.105 4.57214 28.0811C4.56248 28.0571 4.54832 28.0354 4.53049 28.0171L4.20159 27.6772Z" fill="#045B62"/>
<path d="M38.1628 25.6167L38.4917 25.2767C38.5275 25.2396 38.5476 25.1893 38.5475 25.1368C38.5474 25.0844 38.5271 25.0342 38.4912 24.9972C38.4553 24.9602 38.4066 24.9395 38.3559 24.9396C38.3052 24.9397 38.2566 24.9606 38.2208 24.9977L37.8919 25.3377L37.563 24.9977C37.5269 24.9625 37.4789 24.9432 37.4292 24.9439C37.3795 24.9447 37.3321 24.9654 37.297 25.0017C37.2619 25.038 37.2418 25.0871 37.2411 25.1384C37.2404 25.1897 37.259 25.2394 37.2931 25.2767L37.622 25.6167L37.2931 25.9566C37.2753 25.9748 37.2611 25.9966 37.2514 26.0205C37.2418 26.0445 37.2368 26.0701 37.2368 26.0961C37.2368 26.122 37.2418 26.1477 37.2514 26.1717C37.2611 26.1956 37.2753 26.2173 37.2931 26.2356C37.3107 26.2541 37.3317 26.2688 37.3549 26.2787C37.3781 26.2886 37.403 26.2937 37.4281 26.2934C37.4533 26.2936 37.4783 26.2885 37.5016 26.2786C37.525 26.2686 37.5462 26.254 37.564 26.2356L37.8919 25.8967L38.2208 26.2356C38.2566 26.2726 38.3051 26.2933 38.3558 26.2933C38.4064 26.2933 38.4549 26.2726 38.4907 26.2356C38.5085 26.2173 38.5227 26.1956 38.5324 26.1717C38.542 26.1477 38.547 26.122 38.547 26.0961C38.547 26.0701 38.542 26.0445 38.5324 26.0205C38.5227 25.9966 38.5085 25.9748 38.4907 25.9566L38.1628 25.6167Z" fill="#045B62"/>
<path d="M31.1688 1.22259L31.5137 0.900214C31.5473 0.863985 31.5663 0.815957 31.567 0.765797C31.5677 0.715637 31.55 0.66707 31.5174 0.629874C31.4848 0.592678 31.4399 0.569615 31.3915 0.565327C31.3431 0.561039 31.295 0.575845 31.2568 0.606765L30.9119 0.930179L30.6 0.5737C30.5832 0.554432 30.5629 0.538773 30.5402 0.527618C30.5176 0.516464 30.493 0.510031 30.4679 0.508688C30.4429 0.507345 30.4178 0.511117 30.3942 0.51979C30.3705 0.528462 30.3487 0.541866 30.3301 0.559234C30.3114 0.576603 30.2963 0.597596 30.2855 0.621016C30.2747 0.644436 30.2685 0.669824 30.2672 0.69573C30.2659 0.721636 30.2695 0.747553 30.2779 0.772001C30.2863 0.796449 30.2993 0.818949 30.3161 0.838217L30.628 1.19573L30.2841 1.51708C30.2653 1.53436 30.2501 1.55532 30.2392 1.57874C30.2283 1.60217 30.222 1.62759 30.2207 1.65355C30.2194 1.6795 30.2231 1.70546 30.2316 1.72992C30.2401 1.75439 30.2532 1.77687 30.2701 1.79606C30.2868 1.81547 30.307 1.83124 30.3297 1.84242C30.3524 1.8536 30.377 1.85997 30.4021 1.86116C30.4272 1.86257 30.4523 1.85882 30.476 1.85013C30.4996 1.84144 30.5214 1.82798 30.54 1.81053L30.8849 1.48815L31.1958 1.84462C31.2305 1.883 31.2781 1.90628 31.3288 1.90972C31.3665 1.91135 31.4038 1.90145 31.4361 1.88126C31.4685 1.86106 31.4943 1.83146 31.5104 1.79617C31.5265 1.76087 31.5322 1.72145 31.5267 1.68284C31.5213 1.64422 31.5049 1.60813 31.4797 1.57907L31.1688 1.22259Z" fill="#045B62"/>
<path d="M4.8263 16.6359L5.15519 16.296C5.19098 16.2589 5.21104 16.2085 5.21095 16.1561C5.21085 16.1037 5.19062 16.0535 5.15469 16.0165C5.11877 15.9795 5.07009 15.9588 5.01938 15.9589C4.96867 15.959 4.92007 15.9799 4.88428 16.017L4.55539 16.357L4.22649 16.016C4.19036 15.9807 4.14236 15.9615 4.09269 15.9622C4.04302 15.9629 3.99559 15.9837 3.96046 16.02C3.92533 16.0563 3.90528 16.1053 3.90456 16.1567C3.90383 16.208 3.92249 16.2576 3.95658 16.295L4.28547 16.6349L3.95658 16.9748C3.92105 17.012 3.90112 17.0621 3.90112 17.1143C3.90112 17.1666 3.92105 17.2167 3.95658 17.2538C3.99255 17.2909 4.04126 17.3117 4.09204 17.3117C4.14281 17.3117 4.19152 17.2909 4.22749 17.2538L4.55539 16.9149L4.88428 17.2538C4.92042 17.2891 4.96841 17.3084 5.01808 17.3076C5.06775 17.3069 5.11519 17.2861 5.15031 17.2498C5.18544 17.2135 5.20549 17.1645 5.20622 17.1131C5.20694 17.0618 5.18828 17.0122 5.15419 16.9748L4.8263 16.6359Z" fill="#045B62"/>
<path d="M1.24458 25.9836C1.26125 26.0114 1.27232 26.0424 1.27713 26.0747C1.28194 26.107 1.28039 26.14 1.27257 26.1717C1.26269 26.214 1.24212 26.2528 1.21296 26.2842C1.18381 26.3156 1.14711 26.3385 1.10662 26.3504L0.306881 26.5933C0.266511 26.6053 0.22378 26.6062 0.182965 26.5959C0.14215 26.5855 0.104682 26.5643 0.0743136 26.5342C0.043945 26.5042 0.0217412 26.4665 0.00992407 26.4248C-0.00189308 26.3831 -0.00290933 26.3389 0.00697856 26.2967L0.206914 25.4556C0.216876 25.4132 0.237505 25.3742 0.266712 25.3427C0.295919 25.3111 0.332669 25.2881 0.373246 25.2759C0.413823 25.2638 0.456789 25.2629 0.497797 25.2734C0.538805 25.2839 0.576401 25.3054 0.606784 25.3358L1.21159 25.934C1.22459 25.949 1.23568 25.9657 1.24458 25.9836ZM0.192918 26.3825C0.195135 26.3863 0.197824 26.3897 0.200916 26.3928C0.207163 26.3994 0.215054 26.404 0.223705 26.4062C0.232356 26.4084 0.241427 26.408 0.2499 26.4052L1.04964 26.1634C1.05827 26.1608 1.06609 26.156 1.07231 26.1493C1.07853 26.1426 1.08293 26.1343 1.08506 26.1253C1.08719 26.1163 1.08698 26.1068 1.08445 26.0979C1.08191 26.089 1.07715 26.0809 1.07063 26.0746L0.465831 25.4773C0.459527 25.4708 0.451658 25.4662 0.443037 25.4639C0.434416 25.4616 0.425356 25.4617 0.416794 25.4642C0.408232 25.4667 0.40048 25.4716 0.394337 25.4783C0.388195 25.4849 0.383886 25.4932 0.381857 25.5021L0.181922 26.3422C0.181321 26.3496 0.182358 26.3571 0.184954 26.3641C0.187551 26.3711 0.191641 26.3774 0.196918 26.3825H0.192918Z" fill="#045B62"/>
<path d="M12.4069 1.13634C12.4236 1.16433 12.4346 1.19548 12.4394 1.22796C12.4442 1.26044 12.4427 1.29358 12.4349 1.32543C12.4254 1.36776 12.4051 1.40667 12.3761 1.43811C12.347 1.46955 12.3104 1.49237 12.27 1.50419L11.4702 1.74597C11.4298 1.75805 11.3871 1.75896 11.3463 1.7486C11.3055 1.73825 11.268 1.71699 11.2376 1.68696C11.2073 1.65693 11.1851 1.61918 11.1733 1.5775C11.1614 1.53581 11.1604 1.49164 11.1703 1.44942L11.3702 0.609374C11.3803 0.567012 11.4008 0.528109 11.43 0.496557C11.4591 0.465005 11.4957 0.441911 11.5362 0.429585C11.5766 0.417098 11.6194 0.415973 11.6604 0.426326C11.7013 0.436679 11.7389 0.458135 11.7691 0.488481L12.3689 1.08675C12.3832 1.10186 12.396 1.11848 12.4069 1.13634ZM11.3552 1.53932C11.3575 1.5437 11.3605 1.54757 11.3642 1.55068C11.3706 1.55705 11.3785 1.56156 11.3871 1.56374C11.3957 1.56592 11.4047 1.56569 11.4132 1.56308L12.213 1.32026C12.2216 1.31787 12.2295 1.31313 12.2357 1.30653C12.242 1.29994 12.2464 1.29173 12.2485 1.28276C12.2507 1.27379 12.2505 1.26439 12.2479 1.25554C12.2453 1.24669 12.2405 1.23871 12.234 1.23244L11.6292 0.634173C11.6225 0.627891 11.6145 0.623457 11.6057 0.621288C11.597 0.619119 11.5878 0.619286 11.5792 0.621773C11.5706 0.624418 11.5629 0.629341 11.5567 0.636051C11.5506 0.642761 11.5463 0.651022 11.5442 0.660004L11.3443 1.50005C11.3433 1.50703 11.3439 1.51412 11.3457 1.52088C11.3476 1.52765 11.3509 1.53392 11.3552 1.53932Z" fill="#045B62"/>
<path d="M38.1216 35.0952C38.0935 35.1198 38.0604 35.1373 38.0247 35.1465C37.989 35.1556 37.9517 35.1562 37.9157 35.1481C37.8798 35.14 37.8461 35.1235 37.8173 35.0998C37.7886 35.0761 37.7654 35.0459 37.7498 35.0115L37.3939 34.2283C37.376 34.1889 37.3685 34.1454 37.3721 34.1021C37.3756 34.0588 37.3901 34.0173 37.4141 33.9816C37.4381 33.9459 37.4708 33.9174 37.5088 33.8988C37.5468 33.8803 37.5889 33.8724 37.6308 33.876L38.4655 33.9493C38.5075 33.9528 38.5479 33.9678 38.5825 33.9926C38.6171 34.0175 38.6448 34.0513 38.6626 34.0908C38.6805 34.1302 38.688 34.1739 38.6842 34.2172C38.6805 34.2606 38.6658 34.3022 38.6415 34.3378L38.1636 35.0477C38.152 35.0656 38.1379 35.0817 38.1216 35.0952ZM37.5778 34.0826L37.5688 34.0929C37.5643 34.101 37.562 34.11 37.562 34.1193C37.562 34.1285 37.5643 34.1376 37.5688 34.1456L37.9247 34.9289C37.9284 34.9373 37.9343 34.9445 37.9417 34.9498C37.9491 34.9551 37.9577 34.9582 37.9667 34.9588C37.9755 34.9597 37.9843 34.958 37.9923 34.954C38.0002 34.95 38.0069 34.9438 38.0117 34.9361L38.4905 34.2262C38.4951 34.2185 38.4975 34.2095 38.4975 34.2004C38.4975 34.1913 38.4951 34.1823 38.4905 34.1746C38.487 34.1662 38.4814 34.1589 38.4741 34.1536C38.4669 34.1483 38.4584 34.1452 38.4495 34.1446L37.6148 34.0712C37.6082 34.0705 37.6016 34.0711 37.5952 34.0731C37.5889 34.075 37.5829 34.0783 37.5778 34.0826Z" fill="#045B62"/>
<path d="M38.0935 13.1401C38.0843 13.1715 38.069 13.2006 38.0486 13.2256C38.0281 13.2507 38.0029 13.2712 37.9746 13.2858C37.9372 13.3057 37.8955 13.3151 37.8535 13.3129C37.8115 13.3107 37.7709 13.2971 37.7356 13.2734L37.0359 12.8043C37.0005 12.7806 36.9719 12.7478 36.9527 12.7091C36.9335 12.6703 36.9246 12.6271 36.9267 12.5836C36.9288 12.5402 36.942 12.4981 36.9648 12.4615C36.9877 12.425 37.0194 12.3953 37.0569 12.3755L37.8016 11.9797C37.8391 11.9599 37.881 11.9506 37.9231 11.9528C37.9652 11.955 38.006 11.9687 38.0413 11.9923C38.0767 12.016 38.1054 12.0489 38.1246 12.0877C38.1437 12.1265 38.1527 12.1698 38.1505 12.2133L38.1085 13.0771C38.1066 13.0987 38.1015 13.12 38.0935 13.1401ZM37.1138 12.579C37.1136 12.5838 37.1136 12.5887 37.1138 12.5935C37.1135 12.6027 37.1156 12.6119 37.1198 12.6201C37.124 12.6282 37.1302 12.6351 37.1378 12.64L37.8376 13.1091C37.8454 13.1137 37.8542 13.1162 37.8631 13.1162C37.872 13.1162 37.8808 13.1137 37.8886 13.1091C37.8965 13.1051 37.9032 13.099 37.908 13.0913C37.9127 13.0837 37.9154 13.0748 37.9156 13.0657L37.9576 12.2009C37.9579 12.1917 37.9559 12.1827 37.9519 12.1745C37.9479 12.1664 37.9419 12.1594 37.9346 12.1544C37.9268 12.1499 37.918 12.1476 37.9091 12.1476C37.9002 12.1476 37.8914 12.1499 37.8836 12.1544L37.1388 12.5491C37.1271 12.5553 37.1181 12.5661 37.1138 12.579Z" fill="#045B62"/>
<line x1="11.411" y1="16.4828" x2="27.6823" y2="16.4828" stroke="#E5E5E5" stroke-width="1.26789" stroke-linecap="round"/>
<line x1="11.4041" y1="19.9205" x2="25.1458" y2="19.7661" stroke="#E5E5E5" stroke-width="1.26789" stroke-linecap="round"/>
<line x1="11.4113" y1="23.2039" x2="21.1318" y2="23.2039" stroke="#E5E5E5" stroke-width="1.26789" stroke-linecap="round"/>
<path d="M31.2934 26.3333H25.7067C23.28 26.3333 21.8334 27.78 21.8334 30.2066V35.7866C21.8334 38.22 23.28 39.6666 25.7067 39.6666H31.2867C33.7134 39.6666 35.16 38.22 35.16 35.7933V30.2066C35.1667 27.78 33.72 26.3333 31.2934 26.3333ZM31.1667 33.5H29V35.6666C29 35.94 28.7734 36.1666 28.5 36.1666C28.2267 36.1666 28 35.94 28 35.6666V33.5H25.8334C25.56 33.5 25.3334 33.2733 25.3334 33C25.3334 32.7266 25.56 32.5 25.8334 32.5H28V30.3333C28 30.06 28.2267 29.8333 28.5 29.8333C28.7734 29.8333 29 30.06 29 30.3333V32.5H31.1667C31.44 32.5 31.6667 32.7266 31.6667 33C31.6667 33.2733 31.44 33.5 31.1667 33.5Z" fill="#045B62"/>
</g>
<defs>
<clipPath id="clip0_290_2966">
<rect width="40" height="40" fill="white"/>
</clipPath>
</defs>
</svg>
