<svg width="20" height="20" viewBox="0 0 20 20" fill="none" xmlns="http://www.w3.org/2000/svg">
<path d="M10.0001 18.9584C5.05841 18.9584 1.04175 14.9417 1.04175 10.0001C1.04175 5.05841 5.05841 1.04175 10.0001 1.04175C14.9417 1.04175 18.9584 5.05841 18.9584 10.0001C18.9584 14.9417 14.9417 18.9584 10.0001 18.9584ZM10.0001 2.29175C5.75008 2.29175 2.29175 5.75008 2.29175 10.0001C2.29175 14.2501 5.75008 17.7084 10.0001 17.7084C14.2501 17.7084 17.7084 14.2501 17.7084 10.0001C17.7084 5.75008 14.2501 2.29175 10.0001 2.29175Z" fill="#1E1E1E"/>
<path d="M13.0916 13.275C12.9833 13.275 12.875 13.25 12.775 13.1833L10.1916 11.6416C9.54995 11.2583 9.07495 10.4166 9.07495 9.67497V6.2583C9.07495 5.91663 9.35828 5.6333 9.69995 5.6333C10.0416 5.6333 10.325 5.91663 10.325 6.2583V9.67497C10.325 9.97497 10.575 10.4166 10.8333 10.5666L13.4166 12.1083C13.7166 12.2833 13.8083 12.6666 13.6333 12.9666C13.5083 13.1666 13.3 13.275 13.0916 13.275Z" fill="#1E1E1E"/>
</svg>
