<svg width="230" height="198" viewBox="0 0 230 198" fill="none" xmlns="http://www.w3.org/2000/svg">
<g style="mix-blend-mode:luminosity" clip-path="url(#clip0_414_9595)">
<path d="M42.1978 77.7574C39.6758 59.8568 26.1732 54.0136 29.8906 42.5325C36.6444 21.6652 87.5629 21.5399 95.8702 21.4948C122.835 21.4146 166.576 21.2894 184.507 52.3147C192.769 66.6122 180.704 75.1064 185.985 111.514C189.117 133.123 193.627 135.734 191.402 145.271C184.679 174.056 135.415 185.256 128.353 186.865C75.7752 198.817 9.31644 182.154 4.27252 155.063C-0.22162 130.828 47.2014 113.248 42.1978 77.7574Z" fill="#E3EEFF"/>
<path d="M18.0727 132.06C15.1472 125.736 0.242391 93.4729 14.1334 73.8433C22.2036 62.4475 32.3419 66.0206 52.0485 53.2967C78.8772 35.9724 75.1396 19.6153 94.4175 9.75798C120.061 -3.3718 163.091 7.01677 175.665 30.3046C187.821 52.8207 162.889 71.4479 174.656 104.668C183.529 129.665 202.055 131.559 201.742 147.721C201.283 171.029 162.218 194.452 126.895 197.624C78.7763 201.949 35.106 168.904 18.0727 132.06Z" fill="#C4DBFB"/>
<path d="M198.219 110.251C198.925 105.929 195.971 101.856 191.621 101.155C187.271 100.453 183.172 103.388 182.466 107.71C181.76 112.032 184.714 116.104 189.064 116.806C193.414 117.507 197.513 114.573 198.219 110.251Z" fill="#C4DBFB"/>
<path d="M29.5004 33.7905C30.0584 31.4416 28.5942 29.088 26.2301 28.5336C23.8659 27.9792 21.497 29.4339 20.939 31.7828C20.3811 34.1317 21.8452 36.4853 24.2094 37.0397C26.5736 37.5941 28.9424 36.1394 29.5004 33.7905Z" fill="#C4DBFB"/>
<path d="M19.4292 58.8743C23.8361 58.8743 27.4087 55.3248 27.4087 50.9463C27.4087 46.5678 23.8361 43.0183 19.4292 43.0183C15.0222 43.0183 11.4497 46.5678 11.4497 50.9463C11.4497 55.3248 15.0222 58.8743 19.4292 58.8743Z" fill="#C4DBFB"/>
<path d="M24.3016 38.9893C26.7307 38.9893 28.6999 37.0329 28.6999 34.6194C28.6999 32.206 26.7307 30.2495 24.3016 30.2495C21.8725 30.2495 19.9033 32.206 19.9033 34.6194C19.9033 37.0329 21.8725 38.9893 24.3016 38.9893Z" fill="#C4DBFB"/>
<path d="M26.1424 166.724C28.5716 166.724 30.5407 164.767 30.5407 162.354C30.5407 159.941 28.5716 157.984 26.1424 157.984C23.7133 157.984 21.7441 159.941 21.7441 162.354C21.7441 164.767 23.7133 166.724 26.1424 166.724Z" fill="#C4DBFB"/>
<path d="M201.694 91.7775C202.252 89.4286 200.788 87.075 198.424 86.5206C196.06 85.9663 193.691 87.421 193.133 89.7699C192.575 92.1188 194.039 94.4724 196.403 95.0268C198.767 95.5812 201.136 94.1264 201.694 91.7775Z" fill="#C4DBFB"/>
<path d="M21.1993 138.234L22.8588 136.586C23.0308 136.405 23.1249 136.164 23.1213 135.915C23.1176 135.666 23.0164 135.428 22.8392 135.252C22.662 135.076 22.4226 134.976 22.172 134.972C21.9214 134.968 21.6792 135.062 21.4969 135.233L19.8375 136.881L18.178 135.233C17.9974 135.053 17.7522 134.951 17.4963 134.951C17.2405 134.95 16.9949 135.051 16.8136 135.23C16.6324 135.41 16.5303 135.653 16.5298 135.907C16.5293 136.162 16.6305 136.406 16.8111 136.586L18.4705 138.234L16.8161 139.883C16.7262 139.972 16.6547 140.077 16.606 140.193C16.5573 140.309 16.5322 140.434 16.5322 140.56C16.5322 140.686 16.5573 140.81 16.606 140.926C16.6547 141.042 16.7262 141.148 16.8161 141.236C16.9968 141.416 17.2417 141.516 17.4971 141.516C17.7524 141.516 17.9974 141.416 18.178 141.236L19.8375 139.593L21.4919 141.236C21.5819 141.326 21.6888 141.397 21.8066 141.445C21.9243 141.493 22.0505 141.518 22.1778 141.517C22.3045 141.518 22.43 141.494 22.547 141.445C22.664 141.397 22.77 141.326 22.8588 141.236C22.9487 141.148 23.0202 141.042 23.0689 140.926C23.1177 140.81 23.1428 140.686 23.1428 140.56C23.1428 140.434 23.1177 140.309 23.0689 140.193C23.0202 140.077 22.9487 139.972 22.8588 139.883L21.1993 138.234Z" fill="#3A81F3"/>
<path d="M192.552 128.242L194.212 126.593C194.392 126.413 194.493 126.169 194.493 125.915C194.492 125.661 194.39 125.417 194.209 125.237C194.028 125.058 193.782 124.958 193.526 124.958C193.27 124.958 193.025 125.06 192.845 125.24L191.185 126.889L189.526 125.24C189.343 125.069 189.101 124.976 188.851 124.979C188.6 124.983 188.361 125.083 188.183 125.259C188.006 125.436 187.905 125.673 187.901 125.922C187.898 126.171 187.992 126.412 188.164 126.593L189.823 128.242L188.164 129.891C188.074 129.979 188.002 130.084 187.954 130.201C187.905 130.317 187.88 130.441 187.88 130.567C187.88 130.693 187.905 130.817 187.954 130.934C188.002 131.05 188.074 131.155 188.164 131.244C188.253 131.333 188.359 131.405 188.476 131.453C188.593 131.501 188.718 131.525 188.845 131.524C188.972 131.525 189.098 131.5 189.216 131.452C189.334 131.404 189.441 131.333 189.531 131.244L191.185 129.6L192.845 131.244C193.025 131.423 193.27 131.524 193.526 131.524C193.781 131.524 194.026 131.423 194.206 131.244C194.296 131.155 194.368 131.05 194.417 130.934C194.465 130.817 194.49 130.693 194.49 130.567C194.49 130.441 194.465 130.317 194.417 130.201C194.368 130.084 194.296 129.979 194.206 129.891L192.552 128.242Z" fill="#3A81F3"/>
<path d="M149.785 4.46373L151.525 2.90019C151.695 2.72448 151.791 2.49154 151.794 2.24826C151.798 2.00499 151.708 1.76944 151.544 1.58904C151.38 1.40864 151.153 1.29678 150.909 1.27599C150.665 1.25519 150.422 1.327 150.229 1.47696L148.489 3.04552L146.915 1.31659C146.83 1.22314 146.728 1.1472 146.613 1.0931C146.499 1.039 146.375 1.0078 146.249 1.00129C146.122 0.994771 145.996 1.01307 145.876 1.05513C145.757 1.09719 145.647 1.1622 145.553 1.24644C145.459 1.33067 145.383 1.43249 145.328 1.54608C145.274 1.65967 145.242 1.7828 145.236 1.90844C145.229 2.03408 145.248 2.15978 145.29 2.27835C145.332 2.39693 145.398 2.50605 145.483 2.5995L147.056 4.33344L145.321 5.89197C145.226 5.97577 145.149 6.07743 145.094 6.19105C145.04 6.30467 145.008 6.42798 145.001 6.55385C144.995 6.67971 145.013 6.80562 145.056 6.92427C145.099 7.04292 145.165 7.15195 145.251 7.24504C145.335 7.33919 145.437 7.41564 145.551 7.46987C145.666 7.52409 145.79 7.555 145.916 7.56076C146.043 7.56761 146.17 7.54943 146.289 7.50728C146.409 7.46513 146.518 7.39984 146.612 7.3152L148.353 5.75165L149.921 7.48057C150.096 7.6667 150.336 7.77959 150.592 7.79629C150.782 7.80422 150.971 7.7562 151.134 7.65824C151.297 7.56028 151.427 7.41673 151.508 7.24556C151.59 7.07439 151.618 6.8832 151.591 6.69592C151.563 6.50864 151.481 6.33358 151.354 6.19265L149.785 4.46373Z" fill="#3A81F3"/>
<path d="M24.3521 84.683L26.0116 83.0342C26.1922 82.8542 26.2933 82.6102 26.2929 82.3559C26.2924 82.1017 26.1903 81.8581 26.009 81.6787C25.8278 81.4992 25.5822 81.3987 25.3263 81.3992C25.0705 81.3996 24.8253 81.5011 24.6447 81.6812L22.9852 83.3299L21.3258 81.6762C21.1434 81.5053 20.9013 81.4117 20.6506 81.4154C20.4 81.419 20.1607 81.5195 19.9835 81.6956C19.8062 81.8717 19.7051 82.1095 19.7014 82.3585C19.6977 82.6075 19.7919 82.8481 19.9639 83.0292L21.6233 84.678L19.9639 86.3267C19.7846 86.5068 19.6841 86.7499 19.6841 87.0032C19.6841 87.2566 19.7846 87.4996 19.9639 87.6798C20.1454 87.8594 20.3912 87.9603 20.6474 87.9603C20.9035 87.9603 21.1493 87.8594 21.3308 87.6798L22.9852 86.036L24.6447 87.6798C24.827 87.8507 25.0692 87.9442 25.3198 87.9406C25.5704 87.937 25.8097 87.8364 25.9869 87.6603C26.1642 87.4842 26.2654 87.2465 26.269 86.9975C26.2727 86.7485 26.1785 86.5079 26.0065 86.3267L24.3521 84.683Z" fill="#3A81F3"/>
<path d="M6.27983 130.021C6.36396 130.156 6.41983 130.306 6.4441 130.463C6.46837 130.619 6.46053 130.779 6.42105 130.933C6.3712 131.138 6.26742 131.327 6.12032 131.479C5.97322 131.631 5.78806 131.742 5.58376 131.8L1.54862 132.978C1.34493 133.036 1.12933 133.041 0.923395 132.99C0.717458 132.94 0.528413 132.837 0.375187 132.691C0.22196 132.546 0.10993 132.363 0.0503056 132.161C-0.00931863 131.958 -0.0144462 131.744 0.0354438 131.539L1.04423 127.46C1.0945 127.254 1.19858 127.065 1.34594 126.912C1.49331 126.759 1.67873 126.648 1.88347 126.589C2.0882 126.53 2.30499 126.525 2.5119 126.576C2.71881 126.627 2.9085 126.732 3.0618 126.879L6.11337 129.78C6.17898 129.853 6.23492 129.934 6.27983 130.021V130.021ZM0.973614 131.955C0.9848 131.974 0.998367 131.991 1.01397 132.005C1.04549 132.037 1.0853 132.06 1.12895 132.07C1.1726 132.081 1.21837 132.079 1.26112 132.066L5.29626 130.893C5.33981 130.88 5.37928 130.857 5.41066 130.824C5.44205 130.792 5.46424 130.752 5.47499 130.708C5.48574 130.664 5.48467 130.618 5.47189 130.575C5.4591 130.532 5.43505 130.493 5.40218 130.462L2.35061 127.565C2.31881 127.534 2.2791 127.511 2.2356 127.5C2.19211 127.489 2.14639 127.49 2.10319 127.502C2.06 127.514 2.02088 127.538 1.98989 127.57C1.9589 127.602 1.93715 127.642 1.92692 127.686L0.918131 131.76C0.915099 131.796 0.920329 131.832 0.933431 131.866C0.946533 131.9 0.967172 131.931 0.993794 131.955H0.973614Z" fill="#F9C067"/>
<path d="M62.6 9.51251C62.684 9.64825 62.7398 9.79934 62.764 9.95685C62.7883 10.1144 62.7805 10.2751 62.7412 10.4296C62.6932 10.6349 62.5907 10.8236 62.4443 10.9761C62.298 11.1286 62.1131 11.2392 61.909 11.2966L57.8738 12.4692C57.6701 12.5278 57.4545 12.5322 57.2486 12.482C57.0427 12.4317 56.8536 12.3286 56.7004 12.183C56.5472 12.0374 56.4351 11.8543 56.3755 11.6521C56.3159 11.4499 56.3108 11.2357 56.3606 11.031L57.3694 6.95672C57.4199 6.75126 57.5238 6.56258 57.6708 6.40955C57.8177 6.25653 58.0025 6.14452 58.2067 6.08474C58.4105 6.02418 58.6268 6.01872 58.8334 6.06893C59.04 6.11914 59.2293 6.22321 59.3819 6.37039L62.4083 9.27197C62.4805 9.34528 62.5447 9.4259 62.6 9.51251V9.51251ZM57.2938 11.4669C57.3049 11.4882 57.3204 11.507 57.3392 11.5221C57.3713 11.553 57.4111 11.5748 57.4545 11.5854C57.498 11.5959 57.5434 11.5949 57.5863 11.5822L61.6215 10.4045C61.665 10.3929 61.7046 10.3699 61.7362 10.3379C61.7678 10.3059 61.7901 10.2661 61.801 10.2226C61.8118 10.1791 61.8107 10.1335 61.7977 10.0906C61.7848 10.0477 61.7605 10.009 61.7274 9.97857L58.6758 7.07699C58.6424 7.04652 58.6017 7.02502 58.5575 7.0145C58.5134 7.00398 58.4673 7.00479 58.4236 7.01685C58.3804 7.02968 58.3414 7.05356 58.3104 7.0861C58.2794 7.11864 58.2576 7.15871 58.2471 7.20227L57.2383 11.2765C57.2337 11.3103 57.2363 11.3448 57.2458 11.3775C57.2554 11.4103 57.2717 11.4408 57.2938 11.4669V11.4669Z" fill="#F9C067"/>
<path d="M192.345 174.211C192.203 174.33 192.036 174.415 191.856 174.459C191.675 174.504 191.487 174.507 191.306 174.467C191.125 174.428 190.955 174.348 190.81 174.233C190.664 174.118 190.548 173.972 190.469 173.805L188.673 170.006C188.583 169.816 188.545 169.604 188.563 169.394C188.581 169.184 188.654 168.983 188.775 168.81C188.896 168.637 189.061 168.498 189.253 168.408C189.445 168.318 189.657 168.28 189.868 168.298L194.08 168.653C194.292 168.67 194.496 168.743 194.67 168.863C194.845 168.984 194.984 169.148 195.074 169.339C195.165 169.531 195.202 169.742 195.184 169.953C195.165 170.163 195.09 170.365 194.968 170.538L192.557 173.98C192.498 174.067 192.427 174.145 192.345 174.211ZM189.601 169.3L189.556 169.35C189.533 169.389 189.521 169.433 189.521 169.478C189.521 169.523 189.533 169.567 189.556 169.605L191.351 173.404C191.37 173.445 191.4 173.48 191.437 173.506C191.474 173.531 191.518 173.546 191.563 173.549C191.607 173.554 191.652 173.545 191.692 173.526C191.732 173.507 191.766 173.477 191.79 173.439L194.206 169.996C194.229 169.959 194.242 169.915 194.242 169.871C194.242 169.827 194.229 169.784 194.206 169.746C194.188 169.705 194.16 169.67 194.123 169.644C194.087 169.618 194.044 169.603 193.999 169.6L189.788 169.245C189.754 169.241 189.721 169.244 189.689 169.254C189.657 169.263 189.627 169.279 189.601 169.3V169.3Z" fill="#F9C067"/>
<path d="M192.204 67.7295C192.157 67.8817 192.08 68.0228 191.977 68.1443C191.874 68.2658 191.747 68.3651 191.604 68.4361C191.415 68.5327 191.204 68.5781 190.993 68.5675C190.781 68.5569 190.576 68.4909 190.398 68.376L186.867 66.1008C186.689 65.9861 186.544 65.8268 186.448 65.639C186.351 65.4511 186.306 65.2413 186.316 65.0306C186.327 64.8199 186.394 64.6157 186.509 64.4385C186.624 64.2613 186.784 64.1173 186.973 64.0211L190.731 62.1017C190.92 62.0055 191.132 61.9605 191.344 61.9713C191.556 61.982 191.762 62.0481 191.94 62.1629C192.119 62.2777 192.264 62.4372 192.36 62.6252C192.457 62.8133 192.502 63.0234 192.491 63.2343L192.279 67.4238C192.27 67.5289 192.244 67.6319 192.204 67.7295V67.7295ZM187.261 65.0083C187.259 65.0317 187.259 65.0551 187.261 65.0785C187.259 65.1233 187.27 65.1678 187.291 65.2074C187.312 65.2469 187.343 65.2803 187.382 65.304L190.913 67.5792C190.952 67.6016 190.996 67.6134 191.041 67.6134C191.086 67.6134 191.131 67.6016 191.17 67.5792C191.21 67.5599 191.244 67.53 191.268 67.4929C191.292 67.4558 191.305 67.4128 191.306 67.3687L191.518 63.1742C191.519 63.1299 191.51 63.0859 191.489 63.0465C191.469 63.007 191.439 62.9733 191.402 62.9487C191.362 62.9272 191.318 62.9159 191.273 62.9159C191.228 62.9159 191.184 62.9272 191.145 62.9487L187.387 64.863C187.327 64.8933 187.282 64.9455 187.261 65.0083V65.0083Z" fill="#F9C067"/>
<circle cx="104.432" cy="105.944" r="65.96" fill="#045B62"/>
<mask id="mask0_414_9595" style="mask-type:alpha" maskUnits="userSpaceOnUse" x="38" y="39" width="133" height="133">
<circle cx="104.432" cy="105.944" r="65.96" fill="#C4C4C4"/>
</mask>
<g mask="url(#mask0_414_9595)">
<ellipse cx="104.432" cy="156.073" rx="50.1296" ry="29.0224" fill="#E6EFEF"/>
</g>
<mask id="mask1_414_9595" style="mask-type:alpha" maskUnits="userSpaceOnUse" x="38" y="39" width="133" height="133">
<circle cx="104.432" cy="105.944" r="65.96" fill="#C4C4C4"/>
</mask>
<g mask="url(#mask1_414_9595)">
<ellipse cx="104.432" cy="156.073" rx="50.1296" ry="29.0224" fill="#E6EFEF"/>
</g>
<circle cx="104.431" cy="96.0498" r="23.7456" fill="#E6EFEF"/>
<path d="M193.533 45.6706L195.339 40.5447L155.368 27.5812C154.595 27.6164 153.795 27.6585 152.947 27.6997C150.668 27.7626 148.063 28.0832 145.263 28.3836C143.871 28.5002 142.394 28.8132 140.893 29.0535C140.145 29.1784 139.378 29.3128 138.603 29.4445C137.831 29.5691 137.043 29.7852 136.254 29.9601C133.088 30.6334 129.777 31.5794 126.44 32.6939C124.781 33.3153 123.087 33.8757 121.419 34.5911C120.587 34.9536 119.756 35.3162 118.921 35.686C118.083 36.046 117.256 36.4183 116.437 36.8583C114.803 37.707 113.149 38.4999 111.573 39.4824L109.198 40.8956C108.422 41.3991 107.663 41.9246 106.901 42.4332C103.845 44.4721 101.024 46.8048 98.3801 49.1669C97.1016 50.4079 95.7955 51.5663 94.6393 52.8504C94.047 53.4753 93.4573 54.093 92.8891 54.7183C92.34 55.3584 91.7909 55.9985 91.2541 56.6267C90.7054 57.2427 90.202 57.8908 89.7084 58.5342C89.2147 59.1777 88.7117 59.8017 88.2375 60.4358C87.3273 61.7337 86.4013 62.9613 85.6075 64.2273C83.9482 66.7099 82.5814 69.166 81.3796 71.4293C79.0162 76.0026 77.4745 79.9428 76.5459 82.7394C75.603 85.531 75.2614 87.1668 75.2614 87.1668C75.2614 87.1668 76.0421 85.6857 77.6756 83.2992C79.2947 80.9077 81.7955 77.621 85.1262 74.0682C86.8117 72.3151 88.6631 70.4586 90.7545 68.6786C91.7669 67.7566 92.8988 66.9091 94.0002 66.0103C94.565 65.5781 95.1587 65.156 95.738 64.7288C96.3198 64.2944 96.9062 63.8698 97.5333 63.4676C98.1461 63.0603 98.7588 62.653 99.3812 62.2411C100.018 61.8583 100.654 61.4756 101.3 61.0882C102.559 60.2935 103.936 59.6456 105.256 58.9292C107.975 57.6208 110.752 56.3978 113.613 55.4877L115.741 54.797L117.899 54.2299C119.308 53.8119 120.772 53.5831 122.187 53.2883C122.889 53.1312 123.603 53.0346 124.314 52.9452C125.02 52.846 125.724 52.7541 126.421 52.6596C127.812 52.4779 129.224 52.4414 130.568 52.324C133.299 52.218 135.921 52.2187 138.403 52.4054C139.028 52.4473 139.626 52.4478 140.231 52.5231C140.838 52.5913 141.428 52.6616 142.011 52.7294C143.179 52.8818 144.283 52.9391 145.36 53.1649C147.497 53.5533 150.36 54.2461 152.089 54.7098L149.63 69.8909L193.521 45.6583L193.533 45.6706Z" fill="#C99B36"/>
<path d="M195.339 40.5448L159.651 6.64931L157.166 22.4528C156.393 22.4881 155.594 22.5301 154.746 22.5713C152.467 22.6343 149.862 22.9549 147.062 23.2553C145.67 23.3718 144.192 23.6849 142.692 23.9251C141.941 24.0573 141.176 24.1844 140.402 24.3162C139.63 24.4408 138.842 24.6568 138.052 24.8318C134.886 25.505 131.576 26.451 128.238 27.5655C126.579 28.1869 124.885 28.7473 123.217 29.4627C122.386 29.8253 121.554 30.1879 120.72 30.5576C119.881 30.9176 119.054 31.2899 118.236 31.73C116.602 32.5787 114.947 33.3716 113.371 34.354L110.997 35.7672C110.221 36.2707 109.461 36.7962 108.699 37.3048C105.643 39.3438 102.823 41.6764 100.179 44.0386C98.9001 45.2795 97.594 46.438 96.4378 47.722C95.8455 48.3469 95.2558 48.9646 94.6876 49.5899C94.1385 50.23 93.5894 50.8701 93.0526 51.4983C92.5039 52.1143 92.0005 52.7624 91.5069 53.4059C91.0132 54.0493 90.5103 54.6733 90.0361 55.3074C89.1258 56.6053 88.1999 57.8329 87.406 59.0989C85.7467 61.5815 84.3799 64.0376 83.1781 66.301C80.8147 70.8743 79.273 74.8144 78.3445 77.6111C77.4015 80.4027 77.06 82.0384 77.06 82.0384C77.06 82.0384 77.8406 80.5573 79.4741 78.1709C81.0932 75.7793 83.594 72.4926 86.9248 68.9399C88.6102 67.1868 90.4616 65.3303 92.553 63.5502C93.5655 62.6282 94.6973 61.7807 95.7987 60.8819C96.3636 60.4497 96.9572 60.0276 97.5365 59.6005C98.1183 59.1661 98.7048 58.7415 99.3319 58.3392C99.9446 57.932 100.557 57.5247 101.18 57.1127C101.816 56.73 102.453 56.3472 103.099 55.9598C104.358 55.1651 105.735 54.5172 107.055 53.8008C109.773 52.4924 112.55 51.2695 115.411 50.3594L117.54 49.6686L119.697 49.1015C121.107 48.6835 122.571 48.4547 123.985 48.1599C124.688 48.0028 125.401 47.9062 126.112 47.8168C126.819 47.7177 127.523 47.6257 128.219 47.5313C129.61 47.3495 131.023 47.313 132.367 47.1957C135.098 47.0896 137.719 47.0904 140.202 47.2771C140.826 47.319 141.425 47.3194 142.029 47.3948C142.636 47.463 143.226 47.5333 143.809 47.601C144.977 47.7535 146.082 47.8107 147.159 48.0365C149.295 48.425 151.226 48.7086 152.951 49.1625L150.539 64.5303L195.32 40.53L195.339 40.5448Z" fill="#F7CA41"/>
</g>
<defs>
<clipPath id="clip0_414_9595">
<rect width="230" height="198" fill="white"/>
</clipPath>
</defs>
</svg>
