<svg width="230" height="198" viewBox="0 0 230 198" fill="none" xmlns="http://www.w3.org/2000/svg">
<g style="mix-blend-mode:luminosity" clip-path="url(#clip0_422_9464)">
<path d="M42.1978 77.7574C39.6758 59.8568 26.1732 54.0136 29.8906 42.5325C36.6444 21.6652 87.5629 21.5399 95.8702 21.4948C122.835 21.4146 166.576 21.2894 184.507 52.3147C192.769 66.6122 180.704 75.1064 185.985 111.514C189.117 133.123 193.627 135.734 191.402 145.271C184.679 174.056 135.415 185.256 128.353 186.865C75.7752 198.817 9.31644 182.154 4.27252 155.063C-0.221621 130.828 47.2014 113.248 42.1978 77.7574Z" fill="#E3EEFF"/>
<path d="M18.0727 132.06C15.1472 125.736 0.242391 93.4729 14.1334 73.8433C22.2036 62.4475 32.3419 66.0206 52.0485 53.2967C78.8772 35.9724 75.1396 19.6153 94.4175 9.75798C120.061 -3.3718 163.091 7.01677 175.665 30.3046C187.821 52.8207 162.889 71.4479 174.656 104.668C183.529 129.665 202.055 131.559 201.742 147.721C201.283 171.029 162.218 194.452 126.895 197.624C78.7763 201.949 35.106 168.904 18.0727 132.06Z" fill="#C4DBFB"/>
<path d="M198.219 110.251C198.925 105.929 195.971 101.856 191.621 101.155C187.271 100.453 183.172 103.388 182.466 107.71C181.76 112.032 184.714 116.104 189.064 116.806C193.414 117.507 197.513 114.573 198.219 110.251Z" fill="#C4DBFB"/>
<path d="M29.5004 33.7905C30.0584 31.4416 28.5942 29.088 26.2301 28.5336C23.8659 27.9792 21.497 29.4339 20.939 31.7828C20.3811 34.1317 21.8452 36.4853 24.2094 37.0397C26.5736 37.5941 28.9424 36.1394 29.5004 33.7905Z" fill="#C4DBFB"/>
<path d="M19.4287 58.8743C23.8357 58.8743 27.4082 55.3248 27.4082 50.9463C27.4082 46.5678 23.8357 43.0183 19.4287 43.0183C15.0218 43.0183 11.4492 46.5678 11.4492 50.9463C11.4492 55.3248 15.0218 58.8743 19.4287 58.8743Z" fill="#C4DBFB"/>
<path d="M24.3006 38.9893C26.7298 38.9893 28.6989 37.0329 28.6989 34.6194C28.6989 32.206 26.7298 30.2495 24.3006 30.2495C21.8715 30.2495 19.9023 32.206 19.9023 34.6194C19.9023 37.0329 21.8715 38.9893 24.3006 38.9893Z" fill="#C4DBFB"/>
<path d="M26.1424 166.724C28.5716 166.724 30.5407 164.767 30.5407 162.354C30.5407 159.941 28.5716 157.984 26.1424 157.984C23.7133 157.984 21.7441 159.941 21.7441 162.354C21.7441 164.767 23.7133 166.724 26.1424 166.724Z" fill="#C4DBFB"/>
<path d="M201.695 91.7775C202.253 89.4286 200.789 87.075 198.424 86.5206C196.06 85.9663 193.691 87.421 193.133 89.7699C192.575 92.1188 194.04 94.4724 196.404 95.0268C198.768 95.5812 201.137 94.1264 201.695 91.7775Z" fill="#C4DBFB"/>
<path d="M21.1988 138.234L22.8583 136.586C23.0303 136.405 23.1244 136.164 23.1208 135.915C23.1171 135.666 23.0159 135.428 22.8387 135.252C22.6615 135.076 22.4221 134.976 22.1715 134.972C21.9209 134.968 21.6787 135.062 21.4964 135.233L19.837 136.881L18.1775 135.233C17.9969 135.053 17.7517 134.951 17.4958 134.951C17.24 134.95 16.9944 135.051 16.8131 135.23C16.6319 135.41 16.5298 135.653 16.5293 135.907C16.5288 136.162 16.63 136.406 16.8106 136.586L18.4701 138.234L16.8157 139.883C16.7257 139.972 16.6543 140.077 16.6055 140.193C16.5568 140.309 16.5317 140.434 16.5317 140.56C16.5317 140.686 16.5568 140.81 16.6055 140.926C16.6543 141.042 16.7257 141.148 16.8157 141.236C16.9963 141.416 17.2412 141.516 17.4966 141.516C17.7519 141.516 17.9969 141.416 18.1775 141.236L19.837 139.593L21.4914 141.236C21.5814 141.326 21.6883 141.397 21.8061 141.445C21.9238 141.493 22.05 141.518 22.1773 141.517C22.304 141.518 22.4296 141.494 22.5465 141.445C22.6635 141.397 22.7696 141.326 22.8583 141.236C22.9482 141.148 23.0197 141.042 23.0684 140.926C23.1172 140.81 23.1423 140.686 23.1423 140.56C23.1423 140.434 23.1172 140.309 23.0684 140.193C23.0197 140.077 22.9482 139.972 22.8583 139.883L21.1988 138.234Z" fill="#3A81F3"/>
<path d="M192.552 128.242L194.212 126.593C194.392 126.413 194.493 126.169 194.493 125.915C194.492 125.661 194.39 125.417 194.209 125.237C194.028 125.058 193.782 124.958 193.526 124.958C193.27 124.958 193.025 125.06 192.845 125.24L191.185 126.889L189.526 125.24C189.343 125.069 189.101 124.976 188.851 124.979C188.6 124.983 188.361 125.083 188.183 125.259C188.006 125.436 187.905 125.673 187.901 125.922C187.898 126.171 187.992 126.412 188.164 126.593L189.823 128.242L188.164 129.891C188.074 129.979 188.002 130.084 187.954 130.201C187.905 130.317 187.88 130.441 187.88 130.567C187.88 130.693 187.905 130.817 187.954 130.934C188.002 131.05 188.074 131.155 188.164 131.244C188.253 131.333 188.359 131.405 188.476 131.453C188.593 131.501 188.718 131.525 188.845 131.524C188.972 131.525 189.098 131.5 189.216 131.452C189.334 131.404 189.441 131.333 189.531 131.244L191.185 129.6L192.845 131.244C193.025 131.423 193.27 131.524 193.526 131.524C193.781 131.524 194.026 131.423 194.206 131.244C194.296 131.155 194.368 131.05 194.417 130.934C194.465 130.817 194.49 130.693 194.49 130.567C194.49 130.441 194.465 130.317 194.417 130.201C194.368 130.084 194.296 129.979 194.206 129.891L192.552 128.242Z" fill="#3A81F3"/>
<path d="M149.785 4.46373L151.525 2.90019C151.695 2.72448 151.791 2.49154 151.794 2.24826C151.798 2.00499 151.708 1.76944 151.544 1.58904C151.38 1.40864 151.153 1.29678 150.909 1.27599C150.665 1.25519 150.422 1.327 150.229 1.47696L148.489 3.04552L146.915 1.31659C146.83 1.22314 146.728 1.1472 146.613 1.0931C146.499 1.039 146.375 1.0078 146.249 1.00129C146.122 0.994771 145.996 1.01307 145.876 1.05513C145.757 1.09719 145.647 1.1622 145.553 1.24644C145.459 1.33067 145.383 1.43249 145.328 1.54608C145.274 1.65967 145.242 1.7828 145.236 1.90844C145.229 2.03408 145.248 2.15978 145.29 2.27835C145.332 2.39693 145.398 2.50605 145.483 2.5995L147.056 4.33344L145.321 5.89197C145.226 5.97577 145.149 6.07743 145.094 6.19105C145.04 6.30467 145.008 6.42798 145.001 6.55385C144.995 6.67971 145.013 6.80562 145.056 6.92427C145.099 7.04292 145.165 7.15195 145.251 7.24504C145.335 7.33919 145.437 7.41564 145.551 7.46987C145.666 7.52409 145.79 7.555 145.916 7.56076C146.043 7.56761 146.17 7.54943 146.289 7.50728C146.409 7.46513 146.518 7.39984 146.612 7.3152L148.353 5.75165L149.921 7.48057C150.096 7.6667 150.336 7.77959 150.592 7.79629C150.782 7.80422 150.971 7.7562 151.134 7.65824C151.297 7.56028 151.427 7.41673 151.508 7.24556C151.59 7.07439 151.618 6.8832 151.591 6.69592C151.563 6.50864 151.481 6.33358 151.354 6.19265L149.785 4.46373Z" fill="#3A81F3"/>
<path d="M24.3516 84.683L26.0111 83.0342C26.1917 82.8542 26.2929 82.6102 26.2924 82.3559C26.2919 82.1017 26.1898 81.8581 26.0086 81.6787C25.8273 81.4992 25.5817 81.3987 25.3258 81.3992C25.07 81.3996 24.8248 81.5011 24.6442 81.6812L22.9847 83.3299L21.3253 81.6762C21.1429 81.5053 20.9008 81.4117 20.6502 81.4154C20.3995 81.419 20.1602 81.5195 19.983 81.6956C19.8057 81.8717 19.7046 82.1095 19.7009 82.3585C19.6973 82.6075 19.7914 82.8481 19.9634 83.0292L21.6229 84.678L19.9634 86.3267C19.7841 86.5068 19.6836 86.7499 19.6836 87.0032C19.6836 87.2566 19.7841 87.4997 19.9634 87.6798C20.1449 87.8594 20.3907 87.9603 20.6469 87.9603C20.9031 87.9603 21.1488 87.8594 21.3303 87.6798L22.9847 86.036L24.6442 87.6798C24.8265 87.8507 25.0687 87.9442 25.3193 87.9406C25.5699 87.937 25.8092 87.8364 25.9865 87.6603C26.1637 87.4842 26.2649 87.2465 26.2685 86.9975C26.2722 86.7485 26.178 86.5079 26.006 86.3267L24.3516 84.683Z" fill="#3A81F3"/>
<path d="M6.28031 130.021C6.36444 130.156 6.42032 130.306 6.44459 130.463C6.46885 130.619 6.46102 130.779 6.42154 130.933C6.37168 131.138 6.26791 131.327 6.12081 131.479C5.9737 131.631 5.78855 131.742 5.58425 131.8L1.54911 132.978C1.34542 133.036 1.12982 133.041 0.923883 132.99C0.717947 132.94 0.528901 132.837 0.375675 132.691C0.222449 132.546 0.110418 132.363 0.0507938 132.161C-0.00883035 131.958 -0.0139579 131.744 0.0359321 131.539L1.04472 127.46C1.09498 127.254 1.19907 127.065 1.34643 126.912C1.4938 126.759 1.67922 126.648 1.88396 126.589C2.08869 126.53 2.30548 126.525 2.51239 126.576C2.71929 126.627 2.90899 126.732 3.06229 126.879L6.11386 129.78C6.17947 129.853 6.23541 129.934 6.28031 130.021ZM0.974102 131.955C0.985288 131.974 0.998856 131.991 1.01445 132.005C1.04597 132.037 1.08579 132.06 1.12944 132.07C1.17309 132.081 1.21886 132.079 1.26161 132.066L5.29675 130.893C5.3403 130.88 5.37976 130.857 5.41115 130.824C5.44253 130.792 5.46473 130.752 5.47548 130.708C5.48623 130.664 5.48516 130.618 5.47237 130.575C5.45959 130.532 5.43554 130.493 5.40267 130.462L2.3511 127.565C2.3193 127.534 2.27959 127.511 2.23609 127.5C2.19259 127.489 2.14688 127.49 2.10368 127.502C2.06048 127.514 2.02137 127.538 1.99038 127.57C1.95939 127.602 1.93764 127.642 1.9274 127.686L0.918619 131.76C0.915587 131.796 0.920818 131.832 0.933919 131.866C0.947021 131.9 0.96766 131.931 0.994282 131.955H0.974102Z" fill="#F9C067"/>
<path d="M62.5995 9.51251C62.6835 9.64825 62.7393 9.79934 62.7635 9.95685C62.7878 10.1144 62.78 10.2751 62.7407 10.4296C62.6928 10.6349 62.5902 10.8236 62.4439 10.9761C62.2975 11.1286 62.1126 11.2392 61.9085 11.2966L57.8733 12.4692C57.6696 12.5278 57.454 12.5322 57.2481 12.482C57.0422 12.4317 56.8531 12.3286 56.6999 12.183C56.5467 12.0374 56.4346 11.8543 56.375 11.6521C56.3154 11.4499 56.3103 11.2357 56.3602 11.031L57.3689 6.95672C57.4194 6.75126 57.5233 6.56258 57.6703 6.40955C57.8172 6.25653 58.002 6.14452 58.2062 6.08474C58.41 6.02418 58.6263 6.01872 58.8329 6.06893C59.0395 6.11914 59.2289 6.22321 59.3815 6.37039L62.4078 9.27197C62.48 9.34528 62.5442 9.4259 62.5995 9.51251ZM57.2933 11.4669C57.3045 11.4882 57.3199 11.507 57.3387 11.5221C57.3708 11.553 57.4106 11.5748 57.4541 11.5854C57.4975 11.5959 57.543 11.5949 57.5858 11.5822L61.621 10.4045C61.6645 10.3929 61.7042 10.3699 61.7357 10.3379C61.7673 10.3059 61.7897 10.2661 61.8005 10.2226C61.8113 10.1791 61.8102 10.1335 61.7972 10.0906C61.7843 10.0477 61.76 10.009 61.7269 9.97857L58.6753 7.07699C58.6419 7.04652 58.6012 7.02502 58.5571 7.0145C58.5129 7.00398 58.4668 7.00479 58.4231 7.01685C58.3799 7.02968 58.3409 7.05356 58.3099 7.0861C58.2789 7.11864 58.2571 7.15871 58.2466 7.20227L57.2378 11.2765C57.2332 11.3103 57.2358 11.3448 57.2453 11.3775C57.2549 11.4103 57.2712 11.4408 57.2933 11.4669Z" fill="#F9C067"/>
<path d="M192.345 174.211C192.203 174.33 192.036 174.415 191.856 174.459C191.675 174.504 191.487 174.507 191.306 174.467C191.125 174.428 190.955 174.348 190.81 174.233C190.664 174.118 190.548 173.972 190.469 173.805L188.673 170.006C188.583 169.816 188.545 169.604 188.563 169.394C188.581 169.184 188.654 168.983 188.775 168.81C188.896 168.637 189.061 168.498 189.253 168.408C189.445 168.318 189.657 168.28 189.868 168.298L194.08 168.653C194.292 168.67 194.496 168.743 194.67 168.863C194.845 168.984 194.984 169.148 195.074 169.339C195.165 169.531 195.202 169.742 195.184 169.953C195.165 170.163 195.09 170.365 194.968 170.538L192.557 173.98C192.498 174.067 192.427 174.145 192.345 174.211ZM189.601 169.3L189.556 169.35C189.533 169.389 189.521 169.433 189.521 169.478C189.521 169.523 189.533 169.567 189.556 169.605L191.351 173.404C191.37 173.445 191.4 173.48 191.437 173.506C191.474 173.531 191.518 173.546 191.563 173.549C191.607 173.554 191.652 173.545 191.692 173.526C191.732 173.507 191.766 173.477 191.79 173.439L194.206 169.996C194.229 169.959 194.242 169.915 194.242 169.871C194.242 169.827 194.229 169.784 194.206 169.746C194.188 169.705 194.16 169.67 194.123 169.644C194.087 169.618 194.044 169.603 193.999 169.6L189.788 169.245C189.754 169.241 189.721 169.244 189.689 169.254C189.657 169.263 189.627 169.279 189.601 169.3Z" fill="#F9C067"/>
<path d="M192.203 67.7295C192.157 67.8817 192.08 68.0228 191.977 68.1443C191.873 68.2658 191.746 68.3651 191.603 68.4361C191.415 68.5327 191.204 68.5781 190.992 68.5675C190.78 68.5569 190.575 68.4909 190.398 68.376L186.867 66.1008C186.689 65.9861 186.544 65.8268 186.447 65.639C186.351 65.4511 186.305 65.2413 186.316 65.0306C186.327 64.8199 186.393 64.6157 186.508 64.4385C186.624 64.2613 186.784 64.1173 186.973 64.0211L190.73 62.1017C190.92 62.0055 191.131 61.9605 191.343 61.9713C191.556 61.982 191.761 62.0481 191.94 62.1629C192.118 62.2777 192.263 62.4372 192.36 62.6252C192.457 62.8133 192.502 63.0234 192.491 63.2343L192.279 67.4238C192.269 67.5289 192.244 67.6319 192.203 67.7295ZM187.26 65.0083C187.259 65.0317 187.259 65.0551 187.26 65.0785C187.259 65.1233 187.269 65.1678 187.29 65.2074C187.312 65.2469 187.343 65.2803 187.381 65.304L190.912 67.5792C190.951 67.6016 190.996 67.6134 191.041 67.6134C191.086 67.6134 191.13 67.6016 191.169 67.5792C191.209 67.5599 191.243 67.53 191.267 67.4929C191.291 67.4558 191.304 67.4128 191.305 67.3687L191.517 63.1742C191.519 63.1299 191.509 63.0859 191.489 63.0465C191.468 63.007 191.438 62.9733 191.401 62.9487C191.362 62.9272 191.318 62.9159 191.273 62.9159C191.228 62.9159 191.184 62.9272 191.144 62.9487L187.386 64.863C187.327 64.8933 187.282 64.9455 187.26 65.0083Z" fill="#F9C067"/>
<circle cx="104.432" cy="105.944" r="65.96" fill="#045B62"/>
<mask id="mask0_422_9464" style="mask-type:alpha" maskUnits="userSpaceOnUse" x="38" y="39" width="133" height="133">
<circle cx="104.432" cy="105.944" r="65.96" fill="#C4C4C4"/>
</mask>
<g mask="url(#mask0_422_9464)">
<ellipse cx="104.432" cy="156.073" rx="50.1296" ry="29.0224" fill="#E6EFEF"/>
</g>
<mask id="mask1_422_9464" style="mask-type:alpha" maskUnits="userSpaceOnUse" x="38" y="39" width="133" height="133">
<circle cx="104.431" cy="105.944" r="65.96" fill="#C4C4C4"/>
</mask>
<g mask="url(#mask1_422_9464)">
<ellipse cx="104.431" cy="156.073" rx="50.1296" ry="29.0224" fill="#E6EFEF"/>
</g>
<circle cx="104.43" cy="96.0498" r="23.7456" fill="#E6EFEF"/>
<circle cx="157" cy="141" r="32" fill="white"/>
<path d="M157 109C174.674 109 189 123.326 189 141C189 158.674 174.674 173 157 173C139.326 173 125 158.674 125 141C125 123.326 139.326 109 157 109ZM150.213 129.685C149.638 129.105 148.864 128.766 148.048 128.739C147.232 128.711 146.436 128.996 145.824 129.536C145.211 130.076 144.828 130.829 144.753 131.642C144.678 132.455 144.916 133.266 145.419 133.909L145.688 134.213L152.472 140.997L145.688 147.787C145.108 148.362 144.769 149.136 144.742 149.952C144.714 150.768 144.999 151.564 145.539 152.176C146.079 152.789 146.832 153.172 147.645 153.247C148.458 153.322 149.269 153.084 149.912 152.581L150.213 152.315L157 145.525L163.787 152.315C164.362 152.895 165.136 153.234 165.952 153.261C166.768 153.289 167.564 153.004 168.176 152.464C168.789 151.924 169.172 151.171 169.247 150.358C169.322 149.545 169.084 148.734 168.581 148.091L168.315 147.787L161.525 141L168.315 134.213C168.895 133.638 169.234 132.864 169.261 132.048C169.289 131.232 169.004 130.436 168.464 129.824C167.924 129.211 167.171 128.828 166.358 128.753C165.545 128.678 164.734 128.916 164.091 129.419L163.787 129.685L157 136.475L150.213 129.685Z" fill="#989898"/>
</g>
<defs>
<clipPath id="clip0_422_9464">
<rect width="230" height="198" fill="white"/>
</clipPath>
</defs>
</svg>
