<svg width="210" height="190" viewBox="0 0 210 190" fill="none" xmlns="http://www.w3.org/2000/svg">
<g style="mix-blend-mode:luminosity" clip-path="url(#clip0_422_9388)">
<path d="M41.8986 72.2364C39.4244 54.7048 26.1775 48.9821 29.8245 37.7378C36.4504 17.3007 86.4044 17.178 94.5544 17.1338C121.009 17.0553 163.921 16.9326 181.512 47.3182C189.618 61.3209 177.781 69.64 182.962 105.297C186.035 126.46 190.459 129.017 188.277 138.357C181.681 166.549 133.35 177.519 126.422 179.094C74.84 190.8 9.64002 174.481 4.69162 147.948C0.282607 124.213 46.8074 106.995 41.8986 72.2364Z" fill="#E3EEFF"/>
<path d="M18.2304 125.42C15.3603 119.226 0.737811 87.6279 14.3657 68.4031C22.2831 57.2422 32.2294 60.7417 51.5627 48.2802C77.8832 31.3131 74.2165 15.2932 93.1292 5.63911C118.287 -7.21995 160.502 2.95441 172.838 25.7621C184.764 47.8139 160.304 66.0571 171.848 98.5925C180.552 123.074 198.728 124.929 198.421 140.757C197.971 163.585 159.646 186.525 124.992 189.632C77.7843 193.867 34.9411 161.504 18.2304 125.42Z" fill="#C4DBFB"/>
<path d="M194.965 104.06C195.657 99.8272 192.759 95.8389 188.492 95.1518C184.224 94.4647 180.203 97.3391 179.51 101.572C178.817 105.805 181.715 109.793 185.983 110.48C190.251 111.167 194.272 108.293 194.965 104.06Z" fill="#C4DBFB"/>
<path d="M29.4422 29.1761C29.9896 26.8756 28.5531 24.5706 26.2338 24.0276C23.9144 23.4847 21.5904 24.9094 21.043 27.2099C20.4955 29.5103 21.932 31.8154 24.2514 32.3584C26.5707 32.9013 28.8948 31.4766 29.4422 29.1761Z" fill="#C4DBFB"/>
<path d="M19.5608 53.7429C23.8843 53.7429 27.3891 50.2666 27.3891 45.9784C27.3891 41.6902 23.8843 38.2139 19.5608 38.2139C15.2373 38.2139 11.7324 41.6902 11.7324 45.9784C11.7324 50.2666 15.2373 53.7429 19.5608 53.7429Z" fill="#C4DBFB"/>
<path d="M24.3404 34.2679C26.7235 34.2679 28.6554 32.3517 28.6554 29.9881C28.6554 27.6244 26.7235 25.7083 24.3404 25.7083C21.9573 25.7083 20.0254 27.6244 20.0254 29.9881C20.0254 32.3517 21.9573 34.2679 24.3404 34.2679Z" fill="#C4DBFB"/>
<path d="M26.148 159.369C28.5311 159.369 30.463 157.453 30.463 155.089C30.463 152.725 28.5311 150.809 26.148 150.809C23.7649 150.809 21.833 152.725 21.833 155.089C21.833 157.453 23.7649 159.369 26.148 159.369Z" fill="#C4DBFB"/>
<path d="M198.375 85.9678C198.922 83.6674 197.486 81.3623 195.166 80.8194C192.847 80.2764 190.523 81.7011 189.976 84.0016C189.428 86.3021 190.865 88.6071 193.184 89.1501C195.503 89.6931 197.827 88.2683 198.375 85.9678Z" fill="#C4DBFB"/>
<path d="M21.2979 131.467L22.9259 129.852C23.0946 129.675 23.187 129.439 23.1834 129.195C23.1798 128.951 23.0806 128.718 22.9067 128.546C22.7328 128.373 22.498 128.275 22.2522 128.271C22.0063 128.268 21.7687 128.36 21.5898 128.527L19.9618 130.142L18.3338 128.527C18.1566 128.351 17.9161 128.251 17.665 128.251C17.414 128.25 17.1731 128.349 16.9953 128.524C16.8174 128.7 16.7173 128.939 16.7168 129.188C16.7163 129.437 16.8156 129.676 16.9928 129.852L18.6208 131.467L16.9977 133.082C16.9095 133.168 16.8394 133.271 16.7916 133.385C16.7437 133.499 16.7191 133.621 16.7191 133.744C16.7191 133.867 16.7437 133.989 16.7916 134.103C16.8394 134.217 16.9095 134.32 16.9977 134.407C17.175 134.582 17.4152 134.681 17.6658 134.681C17.9163 134.681 18.1566 134.582 18.3338 134.407L19.9618 132.797L21.5849 134.407C21.6732 134.494 21.7781 134.564 21.8936 134.611C22.0091 134.658 22.1329 134.682 22.2579 134.682C22.3821 134.683 22.5053 134.659 22.6201 134.612C22.7348 134.564 22.8389 134.495 22.9259 134.407C23.0142 134.32 23.0842 134.217 23.1321 134.103C23.1799 133.989 23.2045 133.867 23.2045 133.744C23.2045 133.621 23.1799 133.499 23.1321 133.385C23.0842 133.271 23.0142 133.168 22.9259 133.082L21.2979 131.467Z" fill="#3A81F3"/>
<path d="M189.405 121.68L191.033 120.065C191.21 119.889 191.309 119.65 191.309 119.401C191.309 119.152 191.208 118.913 191.031 118.738C190.853 118.562 190.612 118.463 190.361 118.464C190.11 118.464 189.869 118.564 189.692 118.74L188.064 120.355L186.436 118.74C186.257 118.573 186.02 118.481 185.774 118.485C185.528 118.488 185.293 118.587 185.119 118.759C184.945 118.932 184.846 119.164 184.842 119.408C184.839 119.652 184.931 119.888 185.1 120.065L186.728 121.68L185.1 123.295C185.012 123.381 184.942 123.485 184.894 123.598C184.846 123.712 184.821 123.834 184.821 123.957C184.821 124.081 184.846 124.203 184.894 124.316C184.942 124.43 185.012 124.533 185.1 124.62C185.187 124.708 185.291 124.778 185.406 124.825C185.52 124.872 185.644 124.896 185.768 124.895C185.893 124.895 186.017 124.871 186.132 124.824C186.248 124.777 186.353 124.708 186.441 124.62L188.064 123.01L189.692 124.62C189.869 124.796 190.109 124.894 190.36 124.894C190.611 124.894 190.851 124.796 191.028 124.62C191.116 124.533 191.186 124.43 191.234 124.316C191.282 124.203 191.307 124.081 191.307 123.957C191.307 123.834 191.282 123.712 191.234 123.598C191.186 123.485 191.116 123.381 191.028 123.295L189.405 121.68Z" fill="#3A81F3"/>
<path d="M154.786 5.80613L156.493 4.27482C156.66 4.10274 156.754 3.8746 156.757 3.63634C156.761 3.39808 156.673 3.16739 156.512 2.99071C156.35 2.81403 156.128 2.70448 155.888 2.68411C155.649 2.66375 155.411 2.73407 155.222 2.88094L153.514 4.41716L151.971 2.72388C151.887 2.63236 151.787 2.55798 151.675 2.505C151.562 2.45201 151.441 2.42146 151.317 2.41508C151.193 2.4087 151.069 2.42661 150.952 2.46781C150.834 2.50901 150.727 2.57267 150.634 2.65517C150.542 2.73767 150.467 2.83739 150.414 2.94864C150.36 3.05988 150.33 3.18047 150.323 3.30353C150.317 3.42658 150.335 3.54969 150.376 3.66581C150.418 3.78194 150.482 3.88882 150.565 3.98034L152.109 5.67852L150.407 7.20492C150.314 7.287 150.238 7.38656 150.184 7.49784C150.131 7.60911 150.1 7.72989 150.093 7.85315C150.087 7.97642 150.105 8.09973 150.147 8.21594C150.189 8.33214 150.254 8.43893 150.338 8.5301C150.42 8.62231 150.52 8.69718 150.633 8.75029C150.745 8.80339 150.867 8.83366 150.991 8.8393C151.115 8.84601 151.239 8.82821 151.356 8.78693C151.474 8.74565 151.581 8.68171 151.674 8.59881L153.381 7.0675L154.92 8.76077C155.092 8.94306 155.327 9.05362 155.578 9.06998C155.765 9.07774 155.95 9.03071 156.109 8.93478C156.269 8.83884 156.397 8.69825 156.477 8.53061C156.557 8.36297 156.585 8.17572 156.558 7.9923C156.531 7.80887 156.45 7.63743 156.325 7.49941L154.786 5.80613Z" fill="#3A81F3"/>
<path d="M24.3911 79.0193L26.0192 77.4046C26.1963 77.2282 26.2956 76.9892 26.2951 76.7403C26.2947 76.4913 26.1945 76.2527 26.0167 76.077C25.8389 75.9012 25.5979 75.8028 25.3469 75.8032C25.0959 75.8037 24.8553 75.903 24.6781 76.0794L23.0501 77.6942L21.4221 76.0745C21.2432 75.9071 21.0056 75.8155 20.7598 75.8191C20.5139 75.8226 20.2791 75.9211 20.1052 76.0935C19.9314 76.266 19.8321 76.4989 19.8285 76.7427C19.8249 76.9866 19.9173 77.2223 20.086 77.3997L21.7141 79.0144L20.086 80.6292C19.9102 80.8056 19.8115 81.0437 19.8115 81.2917C19.8115 81.5398 19.9102 81.7779 20.086 81.9543C20.2641 82.1303 20.5052 82.229 20.7565 82.229C21.0079 82.229 21.249 82.1303 21.4271 81.9543L23.0501 80.3445L24.6781 81.9543C24.857 82.1217 25.0946 82.2133 25.3405 82.2098C25.5863 82.2062 25.8211 82.1077 25.995 81.9353C26.1689 81.7628 26.2682 81.53 26.2717 81.2861C26.2753 81.0422 26.1829 80.8066 26.0142 80.6292L24.3911 79.0193Z" fill="#3A81F3"/>
<path d="M6.66042 123.422C6.74296 123.554 6.79778 123.701 6.82158 123.855C6.84539 124.008 6.8377 124.165 6.79898 124.316C6.75006 124.517 6.64825 124.701 6.50394 124.85C6.35962 124.999 6.17797 125.108 5.97754 125.165L2.01883 126.318C1.819 126.375 1.60748 126.38 1.40545 126.331C1.20341 126.281 1.01794 126.18 0.86762 126.038C0.717296 125.895 0.607387 125.716 0.548892 125.518C0.490397 125.32 0.485367 125.11 0.534312 124.909L1.52399 120.914C1.57331 120.713 1.67542 120.528 1.81999 120.378C1.96457 120.228 2.14648 120.119 2.34734 120.061C2.54819 120.003 2.76087 119.999 2.96386 120.049C3.16685 120.099 3.35295 120.201 3.50335 120.345L6.49713 123.187C6.56149 123.258 6.61637 123.337 6.66042 123.422ZM1.45471 125.317C1.46569 125.335 1.479 125.351 1.4943 125.366C1.52522 125.397 1.56428 125.419 1.60711 125.43C1.64993 125.44 1.69483 125.438 1.73678 125.425L5.69549 124.276C5.73821 124.264 5.77693 124.241 5.80772 124.209C5.83851 124.177 5.86028 124.138 5.87083 124.095C5.88138 124.052 5.88033 124.007 5.86779 123.965C5.85524 123.923 5.83165 123.885 5.7994 123.854L2.80563 121.017C2.77443 120.987 2.73547 120.964 2.6928 120.954C2.65013 120.943 2.60528 120.943 2.5629 120.955C2.52052 120.967 2.48214 120.99 2.45174 121.022C2.42133 121.053 2.4 121.093 2.38996 121.135L1.40028 125.125C1.39731 125.161 1.40244 125.196 1.41529 125.23C1.42814 125.263 1.44839 125.293 1.47451 125.317H1.45471Z" fill="#F9C067"/>
<path d="M61.9143 5.39882C61.9967 5.53176 62.0514 5.67973 62.0752 5.83399C62.099 5.98826 62.0914 6.14569 62.0528 6.29699C62.0058 6.49803 61.9052 6.68286 61.7616 6.83221C61.618 6.98156 61.4366 7.08995 61.2363 7.14608L57.2776 8.29456C57.0778 8.35194 56.8663 8.35624 56.6642 8.30705C56.4622 8.25785 56.2767 8.15688 56.1264 8.01425C55.9761 7.87161 55.8662 7.69231 55.8077 7.4943C55.7492 7.29628 55.7442 7.0865 55.7931 6.88595L56.7828 2.89572C56.8323 2.6945 56.9343 2.50971 57.0784 2.35983C57.2226 2.20996 57.4039 2.10027 57.6042 2.04172C57.8041 1.98241 58.0163 1.97706 58.219 2.02624C58.4217 2.07542 58.6075 2.17733 58.7572 2.32148L61.7262 5.16323C61.797 5.23503 61.86 5.31399 61.9143 5.39882ZM56.7086 7.31295C56.7195 7.33378 56.7347 7.35215 56.7531 7.36694C56.7846 7.39719 56.8237 7.41859 56.8663 7.42894C56.9089 7.43929 56.9535 7.43822 56.9956 7.42584L60.9543 6.27245C60.997 6.26108 61.0359 6.23856 61.0669 6.20722C61.0978 6.17589 61.1198 6.13688 61.1304 6.09428C61.141 6.05168 61.1399 6.00703 61.1272 5.96499C61.1145 5.92296 61.0907 5.88506 61.0582 5.85527L58.0644 3.01351C58.0316 2.98367 57.9917 2.96261 57.9484 2.95231C57.9051 2.942 57.8599 2.9428 57.817 2.95461C57.7746 2.96717 57.7363 2.99056 57.7059 3.02243C57.6755 3.05431 57.6541 3.09354 57.6438 3.13621L56.6541 7.12645C56.6496 7.15958 56.6521 7.19328 56.6615 7.22539C56.6709 7.2575 56.6869 7.28733 56.7086 7.31295Z" fill="#F9C067"/>
<path d="M189.202 166.702C189.063 166.818 188.899 166.902 188.722 166.945C188.545 166.989 188.361 166.991 188.183 166.953C188.005 166.915 187.838 166.836 187.696 166.723C187.553 166.611 187.439 166.468 187.361 166.304L185.599 162.584C185.511 162.397 185.474 162.19 185.492 161.985C185.509 161.779 185.581 161.581 185.7 161.412C185.818 161.242 185.98 161.107 186.168 161.019C186.357 160.931 186.565 160.893 186.772 160.91L190.904 161.259C191.112 161.275 191.312 161.346 191.483 161.464C191.655 161.582 191.791 161.743 191.88 161.931C191.968 162.118 192.005 162.325 191.987 162.531C191.968 162.737 191.895 162.935 191.775 163.104L189.41 166.476C189.352 166.561 189.282 166.637 189.202 166.702ZM186.51 161.892L186.465 161.941C186.443 161.979 186.432 162.022 186.432 162.066C186.432 162.11 186.443 162.153 186.465 162.191L188.227 165.912C188.246 165.952 188.275 165.986 188.311 166.011C188.348 166.036 188.391 166.051 188.435 166.054C188.478 166.058 188.522 166.05 188.562 166.031C188.601 166.012 188.634 165.982 188.658 165.946L191.028 162.574C191.051 162.537 191.063 162.495 191.063 162.451C191.063 162.408 191.051 162.366 191.028 162.329C191.011 162.289 190.982 162.254 190.947 162.229C190.911 162.204 190.869 162.189 190.825 162.186L186.693 161.838C186.66 161.834 186.627 161.837 186.596 161.847C186.565 161.856 186.535 161.871 186.51 161.892Z" fill="#F9C067"/>
<path d="M189.063 62.4157C189.018 62.5647 188.942 62.703 188.841 62.822C188.74 62.941 188.615 63.0382 188.475 63.1077C188.29 63.2023 188.083 63.2468 187.875 63.2364C187.668 63.2261 187.466 63.1613 187.292 63.0488L183.828 60.8206C183.653 60.7082 183.511 60.5522 183.416 60.3682C183.322 60.1843 183.277 59.9788 183.288 59.7724C183.298 59.566 183.363 59.366 183.476 59.1925C183.589 59.019 183.747 58.878 183.932 58.7837L187.619 56.9039C187.804 56.8097 188.012 56.7657 188.22 56.7762C188.428 56.7867 188.63 56.8514 188.805 56.9639C188.98 57.0763 189.122 57.2325 189.217 57.4167C189.312 57.6009 189.356 57.8066 189.346 58.0132L189.138 62.1163C189.128 62.2192 189.103 62.3201 189.063 62.4157ZM184.214 59.7506C184.213 59.7735 184.213 59.7964 184.214 59.8193C184.213 59.8632 184.223 59.9068 184.244 59.9455C184.264 59.9843 184.295 60.0169 184.333 60.0402L187.797 62.2684C187.835 62.2904 187.879 62.302 187.923 62.302C187.967 62.302 188.011 62.2904 188.049 62.2684C188.088 62.2495 188.121 62.2203 188.145 62.184C188.169 62.1476 188.182 62.1055 188.183 62.0623L188.39 57.9543C188.392 57.9109 188.382 57.8678 188.362 57.8292C188.343 57.7906 188.313 57.7576 188.277 57.7334C188.238 57.7124 188.195 57.7013 188.15 57.7013C188.106 57.7013 188.063 57.7124 188.024 57.7334L184.338 59.6083C184.279 59.638 184.235 59.689 184.214 59.7506Z" fill="#F9C067"/>
<g style="mix-blend-mode:luminosity">
<path d="M35.1803 70.7094C30.1871 72.3318 27.4583 77.6887 29.0811 82.6831C30.7039 87.6775 36.0602 90.4074 41.0535 88.785L153.794 52.1533C158.788 50.5308 161.516 45.1739 159.894 40.1795C158.271 35.1851 152.914 32.4552 147.921 34.0776L35.1803 70.7094Z" fill="#9A5F3B"/>
<path d="M43.3683 88.0329L162.83 49.2175L160.148 40.9637L48.9385 77.0978C44.3807 78.5787 41.8871 83.474 43.3683 88.0329Z" fill="#FFFAD1"/>
<path d="M79.5773 92.1389L74.8178 92.4838L73.0906 55.6007C73.3036 54.9551 73.523 54.2863 73.7548 53.5706C74.3305 51.6555 75.2083 49.5248 76.1192 47.2201C76.5418 46.0647 77.1487 44.8893 77.6981 43.6698C77.9813 43.0642 78.2688 42.4501 78.5582 41.8211C78.8413 41.1943 79.2072 40.582 79.5369 39.9465C80.8452 37.4151 82.4055 34.8338 84.1249 32.2624C85.0408 30.9965 85.9015 29.6927 86.896 28.4498C87.3954 27.8347 87.899 27.2111 88.4026 26.5875C88.8998 25.9661 89.4119 25.3467 89.9687 24.7546C91.0673 23.5685 92.1191 22.3486 93.322 21.2404L95.0733 19.5572C95.6748 19.0137 96.2997 18.4976 96.914 17.971C99.3479 15.8584 101.976 14.0056 104.588 12.314C105.932 11.5189 107.219 10.6796 108.572 9.9947C109.245 9.63956 109.902 9.28237 110.56 8.94638C111.23 8.62729 111.896 8.31671 112.554 8.00192C113.203 7.68293 113.872 7.3999 114.532 7.13387C115.19 6.86148 115.833 6.58705 116.482 6.33166C117.794 5.859 119.049 5.36329 120.306 4.97993C122.793 4.15187 125.19 3.55957 127.392 3.06148C131.814 2.11611 134.804 2.00227 137.385 1.8713C139.452 1.76609 140.489 1.92443 140.489 1.92443C140.489 1.92443 140.282 2.00174 138.312 2.68318C135.91 3.51084 132.543 4.85617 128.769 6.85644C126.892 7.87456 124.894 9.01833 122.9 10.3805C121.888 11.0277 120.906 11.785 119.885 12.5128C119.385 12.8947 118.897 13.2935 118.394 13.6902C117.892 14.087 117.396 14.4816 116.914 14.9206C116.429 15.347 115.943 15.7733 115.452 16.2018C114.981 16.6514 114.513 17.1073 114.03 17.5612C113.063 18.4478 112.195 19.4569 111.279 20.4111C109.538 22.4165 107.867 24.4832 106.43 26.6971L105.351 28.3369L104.375 30.0334C103.694 31.1349 103.161 32.3205 102.588 33.449C102.287 34.0038 102.04 34.5902 101.799 35.1744C101.556 35.7522 101.311 36.3237 101.072 36.893C100.594 38.0317 100.238 39.2144 99.8296 40.3294C99.1116 42.6184 98.5034 44.8347 98.0793 46.9887C97.9717 47.5278 97.8322 48.0351 97.7563 48.5634C97.6741 49.0939 97.594 49.6094 97.5202 50.1229C97.3789 51.1476 97.1694 52.0963 97.1148 53.0634C96.946 54.9681 96.8738 57.5551 96.8603 59.1241L109.582 60.4928L79.5985 92.1388L79.5773 92.1389Z" fill="#C99B36"/>
<path d="M74.8157 92.4774L54.3667 54.375L68.3269 55.9329C68.54 55.2873 68.7593 54.6184 68.9911 53.9028C69.5668 51.9877 70.4447 49.857 71.3555 47.5522C71.7781 46.3969 72.385 45.2215 72.9345 44.0019C73.2177 43.3963 73.5051 42.7822 73.7946 42.1533C74.0777 41.5265 74.4435 40.9141 74.7733 40.2786C76.0816 37.7473 77.6419 35.166 79.3612 32.5945C80.2772 31.3287 81.1378 30.0249 82.1323 28.782C82.6317 28.1669 83.1353 27.5433 83.6389 26.9197C84.1361 26.2982 84.6461 25.6725 85.205 25.0868C86.3036 23.9006 87.3555 22.6808 88.5584 21.5726L90.3096 19.8893C90.9111 19.3458 91.536 18.8298 92.1503 18.3032C94.5842 16.1905 97.2122 14.3377 99.824 12.6462C101.168 11.8511 102.455 11.0117 103.809 10.3269C104.481 9.97172 105.138 9.61453 105.796 9.27854C106.467 8.95945 107.133 8.64887 107.79 8.33408C108.44 8.01509 109.108 7.73206 109.768 7.46602C110.426 7.19364 111.069 6.91921 111.719 6.66382C113.031 6.19116 114.285 5.69545 115.543 5.31209C118.029 4.48402 120.426 3.89172 122.628 3.39364C127.05 2.44827 130.747 2.0597 133.333 1.92023C135.914 1.76805 137.381 1.85862 137.381 1.85862C137.381 1.85862 135.946 2.17498 133.546 3.00899C131.142 3.83031 127.778 5.18198 124.004 7.18225C122.126 8.20036 120.126 9.33779 118.134 10.7063C117.122 11.3535 116.14 12.1108 115.119 12.8386C114.619 13.2205 114.131 13.6193 113.629 14.0161C113.126 14.4128 112.63 14.8074 112.149 15.2464C111.663 15.6728 111.178 16.0991 110.686 16.5276C110.215 16.9772 109.747 17.4331 109.264 17.887C108.297 18.7736 107.429 19.7827 106.513 20.7369C104.772 22.7423 103.101 24.809 101.664 27.0229L100.585 28.6627L99.6094 30.3592C98.9279 31.4607 98.3953 32.6463 97.8221 33.7748C97.5216 34.3296 97.2744 34.916 97.0334 35.5002C96.7904 36.078 96.5451 36.6495 96.3062 37.2188C95.8285 38.3575 95.4718 39.5402 95.0638 40.6552C94.3458 42.9442 93.7376 45.1605 93.3135 47.3145C93.2059 47.8536 93.0664 48.361 92.9905 48.8892C92.9083 49.4197 92.8282 49.9353 92.7543 50.4487C92.6131 51.4734 92.4036 52.4221 92.3489 53.3892C92.1802 55.2939 91.9765 56.991 91.9629 58.56L105.541 60.0773L74.839 92.4625L74.8157 92.4774Z" fill="#F7CA41"/>
<path d="M29.0908 82.7119L55.3618 163.566C56.9846 168.56 62.3409 171.29 67.3342 169.668L180.075 133.036C185.068 131.414 187.797 126.057 186.174 121.062L162.83 49.2171L41.0538 88.7848C36.075 90.4025 30.7234 87.6871 29.0908 82.7119Z" fill="#B06C45"/>
<path d="M174.985 78.2294L161.304 82.6745C155.629 84.5186 152.523 90.6161 154.367 96.2928L155.346 99.3054C157.191 104.982 163.287 108.089 168.963 106.245L182.644 101.8C185.198 100.97 186.595 98.2292 185.764 95.674L181.111 81.3514C180.28 78.7961 177.54 77.3993 174.985 78.2294Z" fill="#9A5F3B"/>
<path d="M171.976 92.2325C172.95 95.2305 171.309 98.4524 168.312 99.4263C165.314 100.4 162.093 98.7584 161.119 95.7603C160.145 92.7622 161.786 89.5403 164.783 88.5664C167.781 87.5925 171.002 89.2344 171.976 92.2325Z" fill="#FFFAD1"/>
</g>
<circle cx="170.5" cy="115" r="32" fill="white"/>
<path d="M170.5 83C188.174 83 202.5 97.3264 202.5 115C202.5 132.674 188.174 147 170.5 147C152.826 147 138.5 132.674 138.5 115C138.5 97.3264 152.826 83 170.5 83ZM163.713 103.685C163.138 103.105 162.364 102.766 161.548 102.739C160.732 102.711 159.936 102.996 159.324 103.536C158.711 104.076 158.328 104.829 158.253 105.642C158.178 106.455 158.416 107.266 158.919 107.909L159.188 108.213L165.972 114.997L159.188 121.787C158.608 122.362 158.269 123.136 158.242 123.952C158.214 124.768 158.499 125.564 159.039 126.176C159.579 126.789 160.332 127.172 161.145 127.247C161.958 127.322 162.769 127.084 163.412 126.581L163.713 126.315L170.5 119.525L177.287 126.315C177.862 126.895 178.636 127.234 179.452 127.261C180.268 127.289 181.064 127.004 181.676 126.464C182.289 125.924 182.672 125.171 182.747 124.358C182.822 123.545 182.584 122.734 182.081 122.091L181.815 121.787L175.025 115L181.815 108.213C182.395 107.638 182.734 106.864 182.761 106.048C182.789 105.232 182.504 104.436 181.964 103.824C181.424 103.211 180.671 102.828 179.858 102.753C179.045 102.678 178.234 102.916 177.591 103.419L177.287 103.685L170.5 110.475L163.713 103.685Z" fill="#989898"/>
</g>
<defs>
<clipPath id="clip0_422_9388">
<rect width="209" height="190" fill="white" transform="translate(0.5)"/>
</clipPath>
</defs>
</svg>
