<svg width="208" height="215" viewBox="0 0 208 215" fill="none" xmlns="http://www.w3.org/2000/svg">
<g style="mix-blend-mode:luminosity" clip-path="url(#clip0_422_9811)">
<path d="M43.7846 75.6584C41.1976 57.2964 27.347 51.3026 31.1602 39.5256C38.0881 18.1205 90.3188 17.992 98.8403 17.9457C126.5 17.8635 171.368 17.735 189.762 49.5599C198.236 64.2259 185.861 72.939 191.278 110.285C194.491 132.451 199.116 135.129 196.834 144.912C189.938 174.439 139.404 185.928 132.16 187.578C78.2274 199.838 10.0558 182.746 4.88183 154.956C0.271868 130.097 48.9171 112.064 43.7846 75.6584Z" fill="#E3EEFF"/>
<path d="M19.0384 131.361C16.0375 124.874 0.748542 91.779 14.9975 71.6435C23.2758 59.954 33.6754 63.6192 53.8899 50.5674C81.41 32.7966 77.5761 16.0179 97.3509 5.90652C123.655 -7.56166 167.794 3.09465 180.692 26.9827C193.162 50.079 167.587 69.1864 179.658 103.263C188.759 128.904 207.762 130.847 207.442 147.425C206.971 171.334 166.899 195.361 130.666 198.615C81.3065 203.051 36.5107 169.154 19.0384 131.361Z" fill="#C4DBFB"/>
<path d="M108.666 2.81201C107.32 2.81337 106.029 3.34581 105.077 4.29235C104.125 5.23889 103.591 6.52209 103.591 7.86001V16.6966H113.742V7.86001C113.742 6.52209 113.207 5.23889 112.256 4.29235C111.304 3.34581 110.013 2.81337 108.666 2.81201ZM108.666 9.75686C108.245 9.75788 107.832 9.63453 107.481 9.40243C107.13 9.17033 106.856 8.83992 106.693 8.45302C106.531 8.06611 106.488 7.64011 106.57 7.22894C106.652 6.81777 106.854 6.43992 107.152 6.14321C107.45 5.84651 107.83 5.64428 108.243 5.56215C108.657 5.48001 109.086 5.52165 109.476 5.6818C109.866 5.84194 110.199 6.11339 110.433 6.46179C110.668 6.81019 110.793 7.21987 110.793 7.63896C110.794 7.91752 110.74 8.19361 110.634 8.45142C110.528 8.70922 110.372 8.94369 110.174 9.14138C109.977 9.33906 109.742 9.49609 109.483 9.60347C109.224 9.71085 108.947 9.76647 108.666 9.76714V9.75686Z" fill="#3A81F3"/>
<path d="M177.723 13.7612H39.6099C36.8729 13.7612 34.6533 15.6941 34.6533 18.0844V194.225C34.6533 196.615 36.8729 198.553 39.6099 198.553H177.723C180.454 198.553 182.674 196.615 182.674 194.225V18.0844C182.674 15.6941 180.454 13.7612 177.723 13.7612Z" fill="#403A7A"/>
<path d="M172.565 20.3206H44.7687C42.2334 20.3206 40.1846 22.1403 40.1846 24.3816V189.819C40.1846 192.066 42.2541 193.885 44.7687 193.885H172.565C175.095 193.885 177.149 192.066 177.149 189.819V24.3816C177.164 22.1403 175.095 20.3206 172.565 20.3206Z" fill="white"/>
<path d="M141.428 16.3368H75.9052C75.344 16.3368 74.8057 16.1153 74.4089 15.721C74.012 15.3267 73.7891 14.7919 73.7891 14.2343C73.7891 13.6767 74.012 13.1419 74.4089 12.7476C74.8057 12.3533 75.344 12.1318 75.9052 12.1318H141.428C141.987 12.1346 142.523 12.3573 142.917 12.7513C143.312 13.1453 143.534 13.6785 143.534 14.2343C143.534 14.7901 143.312 15.3234 142.917 15.7174C142.523 16.1114 141.987 16.3341 141.428 16.3368Z" fill="#3A81F3"/>
<path d="M135.353 14.4346V22.2174C135.352 22.3965 135.279 22.5677 135.151 22.6939C135.024 22.82 134.851 22.8908 134.67 22.8908H112.966C112.814 22.8918 112.666 22.9427 112.546 23.0357C112.427 23.1287 112.341 23.2585 112.303 23.4049C112.099 24.2095 111.631 24.9235 110.972 25.4336C110.313 25.9436 109.501 26.2206 108.666 26.2206C107.831 26.2206 107.02 25.9436 106.361 25.4336C105.702 24.9235 105.233 24.2095 105.029 23.4049C104.99 23.2581 104.904 23.1282 104.783 23.0352C104.662 22.9423 104.514 22.8915 104.362 22.8908H82.631C82.4535 22.8868 82.2845 22.8142 82.1599 22.6885C82.0353 22.5628 81.9649 22.3938 81.9636 22.2174V14.4346C81.9622 14.2556 81.8897 14.0843 81.7617 13.9582C81.6338 13.832 81.4609 13.7612 81.2806 13.7612C81.1009 13.7612 80.9285 13.8322 80.8014 13.9585C80.6743 14.0848 80.6029 14.256 80.6029 14.4346V23.4665C80.6 23.5576 80.6159 23.6482 80.6493 23.733C80.6828 23.8178 80.7332 23.8949 80.7975 23.9598C80.8618 24.0247 80.9387 24.0759 81.0235 24.1104C81.1084 24.1449 81.1994 24.1619 81.291 24.1605H103.43C103.569 24.162 103.704 24.205 103.817 24.2838C103.931 24.3627 104.018 24.4738 104.067 24.6026C104.119 24.7462 104.18 24.8869 104.248 25.0241C104.656 25.8409 105.286 26.5282 106.066 27.0086C106.846 27.4891 107.746 27.7436 108.664 27.7436C109.582 27.7436 110.481 27.4891 111.261 27.0086C112.042 26.5282 112.671 25.8409 113.08 25.0241C113.147 24.8853 113.209 24.7465 113.266 24.6026C113.314 24.473 113.4 24.3611 113.514 24.282C113.628 24.203 113.763 24.1605 113.902 24.1605H136.036C136.217 24.1605 136.389 24.0897 136.517 23.9636C136.645 23.8374 136.718 23.6662 136.719 23.4871V14.4346C136.718 14.2556 136.645 14.0843 136.517 13.9582C136.389 13.832 136.217 13.7612 136.036 13.7612C135.856 13.7612 135.683 13.832 135.555 13.9582C135.427 14.0843 135.355 14.2556 135.353 14.4346Z" fill="#3A81F3"/>
<path d="M74.1249 72.6099L69.546 78.979L66.3485 76.0026L64.4238 78.4341L69.8461 81.9965L76.7636 74.6095L74.1249 72.6099Z" fill="white"/>
<path d="M74.1249 99.4897L69.546 105.864L66.3485 102.882L64.4238 105.314L69.8461 108.876L76.7636 101.489L74.1249 99.4897Z" fill="white"/>
<path d="M177.127 164.044L177.35 189.917C177.35 191.927 175.493 193.839 173.087 193.859L138.049 193.901C150.74 187.161 170.588 177.574 177.127 164.044Z" fill="#C5CBEB"/>
<path d="M177.127 164.044C173.221 180.36 156.297 193.047 138.049 193.901C145.748 188.056 151.584 177.723 151.987 167.016C152.01 166.412 152.167 165.821 152.446 165.284C152.725 164.748 153.119 164.278 153.601 163.91C154.084 163.542 154.641 163.284 155.235 163.155C155.829 163.025 156.444 163.027 157.037 163.16C164.394 164.857 171.576 166.193 177.127 164.044Z" fill="#D8DCF5"/>
<path d="M203.828 108.989C204.552 104.556 201.522 100.379 197.06 99.6589C192.598 98.9393 188.393 101.95 187.669 106.383C186.945 110.816 189.975 114.994 194.437 115.713C198.899 116.433 203.103 113.422 203.828 108.989Z" fill="#C4DBFB"/>
<path d="M30.7608 30.5583C31.3332 28.1488 29.8312 25.7346 27.4061 25.1659C24.9811 24.5972 22.5511 26.0895 21.9788 28.4989C21.4064 30.9083 22.9083 33.3226 25.3334 33.8913C27.7585 34.4599 30.1884 32.9677 30.7608 30.5583Z" fill="#C4DBFB"/>
<path d="M20.4293 56.289C24.9498 56.289 28.6144 52.6481 28.6144 48.1567C28.6144 43.6654 24.9498 40.0244 20.4293 40.0244C15.9088 40.0244 12.2441 43.6654 12.2441 48.1567C12.2441 52.6481 15.9088 56.289 20.4293 56.289Z" fill="#C4DBFB"/>
<path d="M25.4277 35.8913C27.9194 35.8913 29.9393 33.8844 29.9393 31.4088C29.9393 28.9332 27.9194 26.9263 25.4277 26.9263C22.936 26.9263 20.916 28.9332 20.916 31.4088C20.916 33.8844 22.936 35.8913 25.4277 35.8913Z" fill="#C4DBFB"/>
<path d="M27.3163 166.918C29.8081 166.918 31.828 164.911 31.828 162.435C31.828 159.96 29.8081 157.953 27.3163 157.953C24.8246 157.953 22.8047 159.96 22.8047 162.435C22.8047 164.911 24.8246 166.918 27.3163 166.918Z" fill="#C4DBFB"/>
<path d="M207.393 90.0399C207.965 87.6305 206.463 85.2163 204.038 84.6476C201.613 84.0789 199.183 85.5711 198.611 87.9806C198.038 90.39 199.54 92.8043 201.965 93.3729C204.39 93.9416 206.82 92.4494 207.393 90.0399Z" fill="#C4DBFB"/>
<path d="M22.2459 137.694L23.9481 136.003C24.1246 135.817 24.2212 135.571 24.2174 135.315C24.2137 135.06 24.1099 134.816 23.9281 134.635C23.7463 134.455 23.5008 134.351 23.2437 134.348C22.9866 134.344 22.7382 134.44 22.5512 134.615L20.849 136.306L19.1467 134.615C18.9615 134.43 18.71 134.326 18.4475 134.326C18.185 134.325 17.9331 134.429 17.7472 134.613C17.5613 134.797 17.4565 135.047 17.4561 135.307C17.4556 135.568 17.5594 135.818 17.7446 136.003L19.4468 137.694L17.7498 139.386C17.6575 139.476 17.5842 139.585 17.5342 139.704C17.4842 139.823 17.4585 139.951 17.4585 140.08C17.4585 140.209 17.4842 140.336 17.5342 140.456C17.5842 140.575 17.6575 140.683 17.7498 140.774C17.9351 140.957 18.1863 141.061 18.4483 141.061C18.7102 141.061 18.9614 140.957 19.1467 140.774L20.849 139.087L22.546 140.774C22.6383 140.865 22.7481 140.938 22.8688 140.987C22.9896 141.037 23.1191 141.062 23.2497 141.061C23.3796 141.062 23.5084 141.038 23.6284 140.988C23.7484 140.939 23.8571 140.866 23.9481 140.774C24.0404 140.683 24.1137 140.575 24.1637 140.456C24.2137 140.336 24.2395 140.209 24.2395 140.08C24.2395 139.951 24.2137 139.823 24.1637 139.704C24.1137 139.585 24.0404 139.476 23.9481 139.386L22.2459 137.694Z" fill="#3A81F3"/>
<path d="M198.015 127.444L199.718 125.753C199.903 125.568 200.007 125.318 200.006 125.057C200.006 124.796 199.901 124.546 199.715 124.362C199.529 124.178 199.277 124.075 199.015 124.075C198.752 124.076 198.501 124.18 198.315 124.365L196.613 126.056L194.911 124.365C194.724 124.189 194.475 124.093 194.218 124.097C193.961 124.101 193.716 124.204 193.534 124.385C193.352 124.565 193.248 124.809 193.245 125.065C193.241 125.32 193.338 125.567 193.514 125.753L195.216 127.444L193.514 129.135C193.422 129.226 193.348 129.334 193.298 129.453C193.248 129.572 193.223 129.7 193.223 129.829C193.223 129.958 193.248 130.086 193.298 130.205C193.348 130.324 193.422 130.432 193.514 130.523C193.605 130.615 193.714 130.688 193.834 130.738C193.954 130.787 194.083 130.812 194.212 130.811C194.343 130.812 194.472 130.786 194.593 130.737C194.714 130.688 194.824 130.615 194.916 130.523L196.613 128.837L198.315 130.523C198.501 130.707 198.752 130.81 199.014 130.81C199.276 130.81 199.527 130.707 199.712 130.523C199.805 130.432 199.878 130.324 199.928 130.205C199.978 130.086 200.004 129.958 200.004 129.829C200.004 129.7 199.978 129.572 199.928 129.453C199.878 129.334 199.805 129.226 199.712 129.135L198.015 127.444Z" fill="#3A81F3"/>
<path d="M161.817 6.08132L163.603 4.47748C163.776 4.29724 163.875 4.0583 163.878 3.80875C163.882 3.55921 163.79 3.31759 163.622 3.13254C163.453 2.94749 163.22 2.83275 162.97 2.81142C162.72 2.79009 162.471 2.86375 162.273 3.01757L160.488 4.62656L158.874 2.85307C158.787 2.75721 158.681 2.67931 158.564 2.62382C158.447 2.56832 158.32 2.53632 158.19 2.52964C158.06 2.52296 157.931 2.54172 157.808 2.58487C157.686 2.62802 157.573 2.6947 157.477 2.78111C157.38 2.86751 157.302 2.97196 157.246 3.08847C157.19 3.20499 157.158 3.33129 157.151 3.46017C157.144 3.58906 157.163 3.71799 157.207 3.83962C157.25 3.96125 157.317 4.07319 157.404 4.16905L159.018 5.94767L157.239 7.54637C157.141 7.63234 157.062 7.73661 157.006 7.85316C156.95 7.96971 156.917 8.0962 156.91 8.22531C156.904 8.35442 156.923 8.48357 156.967 8.60528C157.011 8.72699 157.078 8.83883 157.166 8.93432C157.252 9.03089 157.357 9.10931 157.475 9.16494C157.592 9.22056 157.719 9.25226 157.849 9.25817C157.979 9.2652 158.109 9.24655 158.232 9.20332C158.354 9.16008 158.467 9.09311 158.563 9.00628L160.348 7.40244L161.957 9.17592C162.137 9.36684 162.383 9.48264 162.645 9.49977C162.841 9.50791 163.034 9.45865 163.201 9.35816C163.368 9.25768 163.502 9.11043 163.585 8.93485C163.669 8.75927 163.698 8.56315 163.67 8.37104C163.642 8.17893 163.557 7.99936 163.427 7.8548L161.817 6.08132Z" fill="#3A81F3"/>
<path d="M25.4797 82.7625L27.182 81.0713C27.3672 80.8865 27.471 80.6362 27.4705 80.3755C27.47 80.1147 27.3653 79.8648 27.1794 79.6807C26.9934 79.4967 26.7415 79.3936 26.4791 79.394C26.2166 79.3945 25.9651 79.4986 25.7798 79.6833L24.0776 81.3745L22.3754 79.6782C22.1884 79.5029 21.94 79.4069 21.6829 79.4106C21.4258 79.4144 21.1803 79.5175 20.9985 79.6981C20.8167 79.8787 20.7129 80.1227 20.7092 80.3781C20.7054 80.6335 20.802 80.8803 20.9784 81.0661L22.6807 82.7573L20.9784 84.4486C20.7945 84.6333 20.6914 84.8827 20.6914 85.1426C20.6914 85.4024 20.7945 85.6518 20.9784 85.8365C21.1646 86.0208 21.4167 86.1242 21.6795 86.1242C21.9423 86.1242 22.1944 86.0208 22.3806 85.8365L24.0776 84.1504L25.7798 85.8365C25.9669 86.0118 26.2153 86.1078 26.4724 86.104C26.7294 86.1003 26.9749 85.9972 27.1567 85.8166C27.3385 85.636 27.4423 85.392 27.4461 85.1366C27.4498 84.8812 27.3532 84.6344 27.1768 84.4486L25.4797 82.7625Z" fill="#3A81F3"/>
<path d="M6.94115 129.269C7.02745 129.407 7.08476 129.561 7.10966 129.722C7.13455 129.883 7.12651 130.047 7.08602 130.204C7.03488 130.415 6.92842 130.608 6.77753 130.764C6.62664 130.921 6.43671 131.034 6.22715 131.094L2.08801 132.302C1.87907 132.362 1.65791 132.366 1.44667 132.315C1.23542 132.263 1.04151 132.158 0.884331 132.008C0.727155 131.859 0.612237 131.671 0.551076 131.464C0.489915 131.256 0.484655 131.036 0.535831 130.826L1.57062 126.642C1.62218 126.431 1.72894 126.237 1.88011 126.08C2.03127 125.923 2.22147 125.809 2.43149 125.748C2.6415 125.688 2.86387 125.683 3.07611 125.735C3.28835 125.788 3.48293 125.895 3.64019 126.046L6.77041 129.022C6.83771 129.097 6.89509 129.18 6.94115 129.269ZM1.49818 131.253C1.50966 131.272 1.52357 131.289 1.53957 131.304C1.57191 131.337 1.61275 131.36 1.65752 131.371C1.7023 131.382 1.74924 131.38 1.7931 131.366L5.93224 130.163C5.97691 130.151 6.01739 130.126 6.04959 130.093C6.08178 130.06 6.10454 130.018 6.11557 129.974C6.1266 129.929 6.1255 129.882 6.11239 129.837C6.09927 129.793 6.0746 129.753 6.04088 129.721L2.91067 126.75C2.87804 126.718 2.83731 126.695 2.7927 126.683C2.74808 126.672 2.70119 126.672 2.65687 126.685C2.61256 126.697 2.57244 126.721 2.54065 126.755C2.50886 126.788 2.48656 126.829 2.47605 126.873L1.44127 131.053C1.43816 131.09 1.44352 131.127 1.45696 131.162C1.4704 131.196 1.49157 131.228 1.51888 131.253H1.49818Z" fill="#F9C067"/>
<path d="M64.7133 5.65463C64.7995 5.79387 64.8567 5.94885 64.8816 6.11042C64.9065 6.27199 64.8985 6.43688 64.8582 6.59535C64.809 6.80591 64.7038 6.9995 64.5537 7.15592C64.4035 7.31234 64.2139 7.42587 64.0045 7.48466L59.8654 8.68754C59.6564 8.74764 59.4353 8.75215 59.224 8.70062C59.0128 8.6491 58.8188 8.54334 58.6617 8.39395C58.5045 8.24456 58.3896 8.05676 58.3284 7.84937C58.2673 7.64198 58.262 7.42226 58.3132 7.21221L59.348 3.03296C59.3998 2.82221 59.5063 2.62867 59.6571 2.4717C59.8078 2.31473 59.9974 2.19983 60.2068 2.13851C60.4158 2.07639 60.6377 2.07079 60.8497 2.1223C61.0616 2.17381 61.2558 2.28055 61.4124 2.43152L64.5167 5.40789C64.5907 5.48309 64.6566 5.56579 64.7133 5.65463ZM59.2704 7.65944C59.2818 7.68125 59.2977 7.7005 59.3169 7.71598C59.3499 7.74767 59.3907 7.77008 59.4353 7.78092C59.4798 7.79176 59.5265 7.79064 59.5704 7.77767L63.7096 6.56964C63.7543 6.55774 63.7949 6.53415 63.8273 6.50133C63.8597 6.46851 63.8826 6.42766 63.8937 6.38304C63.9048 6.33842 63.9037 6.29166 63.8904 6.24763C63.8771 6.2036 63.8522 6.16391 63.8182 6.1327L60.688 3.15634C60.6537 3.12509 60.612 3.10303 60.5667 3.09223C60.5214 3.08144 60.4742 3.08227 60.4293 3.09465C60.385 3.10781 60.3449 3.1323 60.3132 3.16568C60.2814 3.19906 60.259 3.24016 60.2482 3.28485L59.2134 7.4641C59.2087 7.4988 59.2114 7.53409 59.2212 7.56773C59.231 7.60136 59.2477 7.6326 59.2704 7.65944Z" fill="#F9C067"/>
<path d="M197.802 174.598C197.656 174.72 197.485 174.807 197.3 174.853C197.115 174.898 196.922 174.901 196.736 174.861C196.55 174.821 196.376 174.738 196.227 174.621C196.078 174.503 195.958 174.353 195.877 174.181L194.035 170.285C193.943 170.089 193.904 169.873 193.922 169.657C193.941 169.442 194.016 169.235 194.14 169.057C194.264 168.88 194.433 168.738 194.63 168.646C194.827 168.553 195.045 168.514 195.261 168.532L199.582 168.897C199.799 168.914 200.008 168.989 200.187 169.112C200.366 169.236 200.509 169.404 200.602 169.601C200.694 169.797 200.733 170.014 200.714 170.23C200.694 170.446 200.618 170.653 200.492 170.83L198.019 174.361C197.959 174.451 197.886 174.53 197.802 174.598ZM194.987 169.56L194.941 169.611C194.917 169.651 194.905 169.697 194.905 169.743C194.905 169.789 194.917 169.834 194.941 169.874L196.783 173.77C196.802 173.812 196.832 173.848 196.871 173.874C196.909 173.901 196.954 173.916 197 173.919C197.045 173.924 197.091 173.915 197.132 173.895C197.173 173.875 197.208 173.844 197.233 173.806L199.711 170.275C199.735 170.236 199.747 170.191 199.747 170.146C199.747 170.101 199.735 170.056 199.711 170.018C199.693 169.976 199.664 169.94 199.626 169.913C199.589 169.887 199.545 169.871 199.499 169.869L195.179 169.504C195.145 169.5 195.11 169.503 195.077 169.513C195.044 169.522 195.014 169.539 194.987 169.56Z" fill="#F9C067"/>
<path d="M197.657 65.3721C197.609 65.5282 197.53 65.673 197.424 65.7976C197.318 65.9223 197.188 66.0241 197.041 66.0969C196.848 66.196 196.632 66.2425 196.414 66.2317C196.197 66.2209 195.987 66.1531 195.805 66.0352L192.183 63.7014C192 63.5837 191.852 63.4204 191.752 63.2277C191.653 63.035 191.607 62.8198 191.618 62.6036C191.629 62.3875 191.697 62.178 191.815 61.9962C191.933 61.8145 192.098 61.6668 192.291 61.5681L196.146 59.5993C196.34 59.5006 196.557 59.4544 196.775 59.4655C196.993 59.4765 197.204 59.5443 197.387 59.662C197.57 59.7798 197.718 59.9434 197.817 60.1363C197.917 60.3292 197.963 60.5447 197.952 60.761L197.734 65.0585C197.724 65.1663 197.698 65.272 197.657 65.3721ZM192.586 62.5808C192.585 62.6048 192.585 62.6288 192.586 62.6528C192.585 62.6987 192.595 62.7443 192.617 62.7849C192.639 62.8255 192.671 62.8597 192.711 62.8841L196.332 65.2179C196.372 65.2409 196.418 65.253 196.464 65.253C196.511 65.253 196.556 65.2409 196.596 65.2179C196.637 65.1981 196.672 65.1675 196.697 65.1294C196.721 65.0913 196.735 65.0472 196.736 65.002L196.953 60.6994C196.955 60.6539 196.945 60.6088 196.924 60.5684C196.903 60.5279 196.872 60.4934 196.834 60.468C196.794 60.446 196.748 60.4344 196.702 60.4344C196.656 60.4344 196.611 60.446 196.57 60.468L192.716 62.4317C192.655 62.4628 192.608 62.5163 192.586 62.5808Z" fill="#F9C067"/>
<line x1="56.2727" y1="80.863" x2="129.518" y2="80.863" stroke="#E5E5E5" stroke-width="5.96341" stroke-linecap="round"/>
<line x1="56.3613" y1="97.5792" x2="123.674" y2="96.8229" stroke="#E5E5E5" stroke-width="6.21073" stroke-linecap="round"/>
<line x1="56.3964" y1="113.662" x2="104.012" y2="113.662" stroke="#E5E5E5" stroke-width="6.21073" stroke-linecap="round"/>
<circle cx="168" cy="103" r="32" fill="white"/>
<path d="M168 71C185.674 71 200 85.3264 200 103C200 120.674 185.674 135 168 135C150.326 135 136 120.674 136 103C136 85.3264 150.326 71 168 71ZM161.213 91.6848C160.638 91.1048 159.864 90.7663 159.048 90.7386C158.232 90.7109 157.436 90.9961 156.824 91.5359C156.211 92.0756 155.828 92.8291 155.753 93.642C155.678 94.4549 155.916 95.2659 156.419 95.9088L156.688 96.2128L163.472 102.997L156.688 109.787C156.108 110.362 155.769 111.136 155.742 111.952C155.714 112.768 155.999 113.564 156.539 114.176C157.079 114.789 157.832 115.172 158.645 115.247C159.458 115.322 160.269 115.084 160.912 114.581L161.213 114.315L168 107.525L174.787 114.315C175.362 114.895 176.136 115.234 176.952 115.261C177.768 115.289 178.564 115.004 179.176 114.464C179.789 113.924 180.172 113.171 180.247 112.358C180.322 111.545 180.084 110.734 179.581 110.091L179.315 109.787L172.525 103L179.315 96.2128C179.895 95.6383 180.234 94.8638 180.261 94.0478C180.289 93.2319 180.004 92.4363 179.464 91.8237C178.924 91.2112 178.171 90.8282 177.358 90.7529C176.545 90.6777 175.734 90.9161 175.091 91.4192L174.787 91.6848L168 98.4752L161.213 91.6848Z" fill="#989898"/>
</g>
<defs>
<clipPath id="clip0_422_9811">
<rect width="207" height="215" fill="white" transform="translate(0.5)"/>
</clipPath>
</defs>
</svg>
