<svg width="258" height="248" viewBox="0 0 258 248" fill="none" xmlns="http://www.w3.org/2000/svg">
<g style="mix-blend-mode:luminosity" clip-path="url(#clip0_375_18472)">
<rect width="258" height="248" fill="white"/>
<path d="M53.9432 94.2877C50.7193 71.4045 33.4582 63.9347 38.2103 49.2579C46.8441 22.5822 111.936 22.422 122.555 22.3644C157.026 22.2619 212.942 22.1017 235.864 61.763C246.426 80.0401 231.003 90.8988 237.754 137.44C241.758 165.064 247.522 168.402 244.679 180.593C236.084 217.391 173.107 231.709 164.08 233.765C96.8669 249.044 11.9093 227.743 5.46142 193.111C-0.283664 162.13 60.3395 139.657 53.9432 94.2877Z" fill="#E3EEFF"/>
<path d="M23.1029 163.706C19.3631 155.622 0.309578 114.378 18.0671 89.2845C28.3838 74.7166 41.344 79.2843 66.536 63.0188C100.832 40.8722 96.0545 19.9621 120.698 7.36096C153.48 -9.4235 208.487 3.85672 224.561 33.6267C240.101 62.4101 208.229 86.2223 223.272 128.69C234.614 160.644 258.297 163.066 257.897 183.726C257.31 213.522 207.371 243.465 162.216 247.52C100.703 253.048 44.8775 210.805 23.1029 163.706Z" fill="#C4DBFB"/>
<path d="M134.8 3.50439C133.122 3.50609 131.513 4.16964 130.327 5.34924C129.141 6.52884 128.475 8.128 128.475 9.79536V20.8078H141.126V9.79536C141.126 8.128 140.459 6.52884 139.273 5.34924C138.087 4.16964 136.478 3.50609 134.8 3.50439ZM134.8 12.1593C134.274 12.1605 133.76 12.0068 133.322 11.7176C132.885 11.4283 132.543 11.0166 132.341 10.5344C132.139 10.0522 132.086 9.52132 132.187 9.00891C132.289 8.4965 132.542 8.02561 132.913 7.65584C133.284 7.28607 133.758 7.03406 134.273 6.9317C134.789 6.82934 135.323 6.88123 135.809 7.08081C136.295 7.28039 136.71 7.61868 137.002 8.05286C137.294 8.48705 137.45 8.9976 137.45 9.51989C137.452 9.86704 137.385 10.2111 137.252 10.5324C137.12 10.8537 136.925 11.1459 136.679 11.3922C136.433 11.6386 136.14 11.8343 135.818 11.9681C135.495 12.1019 135.149 12.1713 134.8 12.1721V12.1593Z" fill="#3A81F3"/>
<path d="M220.86 17.1499H48.7399C45.3289 17.1499 42.5628 19.5587 42.5628 22.5376V242.049C42.5628 245.028 45.3289 247.443 48.7399 247.443H220.86C224.265 247.443 227.031 245.028 227.031 242.049V22.5376C227.031 19.5587 224.265 17.1499 220.86 17.1499Z" fill="#403A7A"/>
<path d="M214.432 25.3242H55.1684C52.009 25.3242 49.4556 27.592 49.4556 30.3852V236.559C49.4556 239.358 52.0348 241.626 55.1684 241.626H214.432C217.585 241.626 220.145 239.358 220.145 236.559V30.3852C220.164 27.592 217.585 25.3242 214.432 25.3242Z" fill="white"/>
<path d="M175.628 20.3595H93.9718C93.2724 20.3595 92.6016 20.0834 92.107 19.5921C91.6124 19.1007 91.3346 18.4342 91.3346 17.7393C91.3346 17.0444 91.6124 16.3779 92.107 15.8866C92.6016 15.3952 93.2724 15.1191 93.9718 15.1191H175.628C176.325 15.1225 176.993 15.4001 177.484 15.8911C177.976 16.3821 178.252 17.0466 178.252 17.7393C178.252 18.432 177.976 19.0965 177.484 19.5875C176.993 20.0785 176.325 20.3561 175.628 20.3595Z" fill="#3A81F3"/>
<path d="M168.058 17.9891V27.6882C168.056 27.9114 167.966 28.1248 167.807 28.2821C167.647 28.4393 167.432 28.5275 167.207 28.5275H140.158C139.969 28.5286 139.785 28.5922 139.636 28.7081C139.486 28.8239 139.38 28.9857 139.333 29.1681C139.078 30.1709 138.494 31.0607 137.673 31.6963C136.852 32.332 135.841 32.6772 134.8 32.6772C133.759 32.6772 132.748 32.332 131.927 31.6963C131.106 31.0607 130.521 30.1709 130.267 29.1681C130.219 28.9852 130.111 28.8233 129.961 28.7074C129.81 28.5916 129.626 28.5283 129.435 28.5275H102.354C102.133 28.5225 101.922 28.432 101.767 28.2754C101.612 28.1187 101.524 27.9081 101.522 27.6882V17.9891C101.521 17.766 101.43 17.5525 101.271 17.3953C101.111 17.2381 100.896 17.1499 100.671 17.1499C100.447 17.1499 100.232 17.2383 100.074 17.3957C99.9154 17.5531 99.8264 17.7666 99.8264 17.9891V29.245C99.8229 29.3584 99.8426 29.4714 99.8843 29.577C99.926 29.6827 99.9888 29.7788 100.069 29.8597C100.149 29.9405 100.245 30.0044 100.351 30.0474C100.456 30.0904 100.57 30.1116 100.684 30.1098H128.275C128.447 30.1116 128.615 30.1652 128.757 30.2635C128.898 30.3618 129.007 30.5003 129.068 30.6608C129.134 30.8397 129.209 31.015 129.293 31.1861C129.802 32.2039 130.587 33.0604 131.559 33.6592C132.532 34.258 133.653 34.5752 134.797 34.5752C135.941 34.5752 137.062 34.258 138.034 33.6592C139.006 33.0604 139.791 32.2039 140.3 31.1861C140.384 31.0131 140.461 30.8401 140.532 30.6608C140.592 30.4992 140.699 30.3598 140.841 30.2613C140.983 30.1627 141.152 30.1098 141.325 30.1098H168.909C169.134 30.1098 169.349 30.0216 169.509 29.8644C169.668 29.7072 169.759 29.4938 169.76 29.2706V17.9891C169.759 17.766 169.668 17.5525 169.509 17.3953C169.349 17.2381 169.134 17.1499 168.909 17.1499C168.685 17.1499 168.469 17.2381 168.31 17.3953C168.15 17.5525 168.06 17.766 168.058 17.9891Z" fill="#3A81F3"/>
<path d="M91.7536 90.4888L86.0472 98.4262L82.0624 94.7169L79.6638 97.7471L86.4212 102.187L95.042 92.9808L91.7536 90.4888Z" fill="white"/>
<path d="M91.7536 123.987L86.0472 131.931L82.0624 128.215L79.6638 131.246L86.4212 135.685L95.042 126.479L91.7536 123.987Z" fill="white"/>
<path d="M220.119 204.438L220.396 236.68C220.396 239.185 218.081 241.568 215.083 241.594L171.418 241.645C187.234 233.247 211.969 221.299 220.119 204.438Z" fill="#C5CBEB"/>
<path d="M220.119 204.437C215.25 224.771 194.159 240.582 171.418 241.645C181.012 234.361 188.285 221.484 188.788 208.14C188.817 207.388 189.012 206.651 189.36 205.982C189.707 205.313 190.199 204.729 190.8 204.27C191.401 203.812 192.096 203.49 192.836 203.328C193.576 203.167 194.342 203.169 195.081 203.335C204.25 205.449 213.2 207.115 220.119 204.437Z" fill="#D8DCF5"/>
<path d="M253.393 135.825C254.296 130.3 250.52 125.095 244.959 124.198C239.398 123.301 234.158 127.053 233.256 132.578C232.353 138.103 236.129 143.309 241.69 144.205C247.251 145.102 252.49 141.35 253.393 135.825Z" fill="#C4DBFB"/>
<path d="M37.7122 38.0827C38.4255 35.08 36.5538 32.0713 33.5316 31.3626C30.5093 30.6538 27.4811 32.5135 26.7678 35.5162C26.0545 38.5189 27.9262 41.5276 30.9484 42.2363C33.9707 42.9451 36.9989 41.0854 37.7122 38.0827Z" fill="#C4DBFB"/>
<path d="M24.8373 70.1489C30.4709 70.1489 35.0379 65.6114 35.0379 60.0141C35.0379 54.4169 30.4709 49.8794 24.8373 49.8794C19.2036 49.8794 14.6367 54.4169 14.6367 60.0141C14.6367 65.6114 19.2036 70.1489 24.8373 70.1489Z" fill="#C4DBFB"/>
<path d="M31.0658 44.7287C34.1711 44.7287 36.6884 42.2276 36.6884 39.1424C36.6884 36.0572 34.1711 33.5562 31.0658 33.5562C27.9606 33.5562 25.4433 36.0572 25.4433 39.1424C25.4433 42.2276 27.9606 44.7287 31.0658 44.7287Z" fill="#C4DBFB"/>
<path d="M33.4196 208.018C36.5249 208.018 39.0422 205.517 39.0422 202.432C39.0422 199.347 36.5249 196.846 33.4196 196.846C30.3144 196.846 27.7971 199.347 27.7971 202.432C27.7971 205.517 30.3144 208.018 33.4196 208.018Z" fill="#C4DBFB"/>
<path d="M257.836 112.211C258.549 109.208 256.678 106.199 253.655 105.49C250.633 104.782 247.605 106.641 246.892 109.644C246.178 112.647 248.05 115.656 251.072 116.364C254.095 117.073 257.123 115.213 257.836 112.211Z" fill="#C4DBFB"/>
<path d="M27.1006 171.599L29.222 169.491C29.4418 169.26 29.5622 168.952 29.5575 168.634C29.5529 168.315 29.4235 168.011 29.197 167.786C28.9704 167.561 28.6644 167.433 28.3441 167.428C28.0237 167.423 27.7141 167.543 27.481 167.761L25.3597 169.869L23.2383 167.761C23.0074 167.531 22.694 167.401 22.3669 167.401C22.0398 167.4 21.7259 167.529 21.4942 167.758C21.2624 167.988 21.1319 168.299 21.1313 168.624C21.1307 168.949 21.2601 169.261 21.4909 169.491L23.6123 171.599L21.4974 173.706C21.3824 173.82 21.2911 173.954 21.2287 174.103C21.1664 174.251 21.1343 174.41 21.1343 174.571C21.1343 174.732 21.1664 174.891 21.2287 175.04C21.2911 175.188 21.3824 175.323 21.4974 175.436C21.7283 175.665 22.0414 175.794 22.3678 175.794C22.6943 175.794 23.0074 175.665 23.2383 175.436L25.3597 173.335L27.4746 175.436C27.5896 175.551 27.7264 175.641 27.8769 175.703C28.0274 175.764 28.1887 175.796 28.3515 175.795C28.5134 175.796 28.6739 175.765 28.8235 175.703C28.973 175.642 29.1085 175.551 29.222 175.436C29.337 175.323 29.4283 175.188 29.4906 175.04C29.5529 174.891 29.585 174.732 29.585 174.571C29.585 174.41 29.5529 174.251 29.4906 174.103C29.4283 173.954 29.337 173.82 29.222 173.706L27.1006 171.599Z" fill="#3A81F3"/>
<path d="M246.149 158.824L248.27 156.717C248.501 156.486 248.63 156.175 248.63 155.85C248.629 155.525 248.499 155.213 248.267 154.984C248.035 154.754 247.721 154.626 247.394 154.626C247.067 154.627 246.754 154.757 246.523 154.987L244.402 157.095L242.28 154.987C242.047 154.769 241.738 154.649 241.417 154.654C241.097 154.658 240.791 154.787 240.564 155.012C240.338 155.237 240.208 155.541 240.204 155.859C240.199 156.178 240.319 156.485 240.539 156.717L242.661 158.824L240.539 160.932C240.424 161.045 240.333 161.18 240.271 161.328C240.208 161.477 240.176 161.636 240.176 161.797C240.176 161.958 240.208 162.117 240.271 162.265C240.333 162.414 240.424 162.549 240.539 162.662C240.653 162.776 240.788 162.867 240.938 162.929C241.087 162.991 241.248 163.022 241.41 163.02C241.572 163.021 241.734 162.99 241.884 162.928C242.035 162.867 242.172 162.776 242.287 162.662L244.402 160.56L246.523 162.662C246.754 162.891 247.067 163.02 247.393 163.02C247.72 163.02 248.033 162.891 248.264 162.662C248.379 162.549 248.47 162.414 248.532 162.265C248.595 162.117 248.627 161.958 248.627 161.797C248.627 161.636 248.595 161.477 248.532 161.328C248.47 161.18 248.379 161.045 248.264 160.932L246.149 158.824Z" fill="#3A81F3"/>
<path d="M201.039 7.57874L203.264 5.57998C203.48 5.35537 203.603 5.05759 203.608 4.7466C203.612 4.4356 203.498 4.13449 203.288 3.90388C203.078 3.67326 202.787 3.53027 202.475 3.50369C202.164 3.4771 201.853 3.5689 201.607 3.7606L199.382 5.76576L197.37 3.5556C197.262 3.43613 197.131 3.33905 196.985 3.26989C196.839 3.20073 196.68 3.16085 196.519 3.15252C196.357 3.14419 196.195 3.16758 196.043 3.22135C195.89 3.27512 195.75 3.35822 195.629 3.46591C195.509 3.57359 195.411 3.70375 195.342 3.84896C195.272 3.99416 195.232 4.15157 195.224 4.31218C195.215 4.4728 195.239 4.63348 195.293 4.78506C195.347 4.93664 195.431 5.07614 195.539 5.19561L197.551 7.41218L195.333 9.40453C195.212 9.51166 195.113 9.64162 195.043 9.78686C194.973 9.9321 194.932 10.0897 194.924 10.2506C194.916 10.4115 194.939 10.5725 194.994 10.7242C195.049 10.8758 195.133 11.0152 195.243 11.1342C195.35 11.2546 195.481 11.3523 195.627 11.4216C195.773 11.491 195.932 11.5305 196.094 11.5378C196.255 11.5466 196.417 11.5234 196.57 11.4695C196.723 11.4156 196.863 11.3321 196.983 11.2239L199.208 9.22516L201.213 11.4353C201.437 11.6733 201.744 11.8176 202.071 11.8389C202.314 11.8491 202.555 11.7877 202.763 11.6624C202.972 11.5372 203.138 11.3537 203.242 11.1349C203.346 10.9161 203.383 10.6717 203.348 10.4323C203.313 10.1928 203.207 9.96906 203.044 9.78891L201.039 7.57874Z" fill="#3A81F3"/>
<path d="M31.1306 103.141L33.2519 101.034C33.4828 100.803 33.6121 100.491 33.6115 100.166C33.6109 99.8415 33.4804 99.53 33.2487 99.3007C33.017 99.0713 32.703 98.9428 32.3759 98.9434C32.0489 98.944 31.7354 99.0736 31.5045 99.3039L29.3832 101.412L27.2618 99.2974C27.0287 99.079 26.7192 98.9594 26.3988 98.964C26.0784 98.9687 25.7725 99.0972 25.5459 99.3223C25.3193 99.5474 25.19 99.8514 25.1853 100.17C25.1806 100.488 25.301 100.796 25.5209 101.027L27.6422 103.135L25.5209 105.242C25.2917 105.473 25.1632 105.784 25.1632 106.107C25.1632 106.431 25.2917 106.742 25.5209 106.972C25.7529 107.202 26.0671 107.331 26.3946 107.331C26.7221 107.331 27.0362 107.202 27.2683 106.972L29.3832 104.871L31.5045 106.972C31.7376 107.191 32.0472 107.31 32.3676 107.306C32.6879 107.301 32.9939 107.172 33.2205 106.947C33.447 106.722 33.5764 106.418 33.581 106.1C33.5857 105.782 33.4653 105.474 33.2455 105.242L31.1306 103.141Z" fill="#3A81F3"/>
<path d="M8.02753 161.099C8.13508 161.271 8.20651 161.463 8.23753 161.664C8.26855 161.864 8.25854 162.068 8.20807 162.265C8.14434 162.527 8.01167 162.768 7.82363 162.963C7.63558 163.157 7.39888 163.299 7.13772 163.373L1.9794 164.879C1.71901 164.954 1.4434 164.959 1.18014 164.895C0.916878 164.831 0.675212 164.699 0.479335 164.513C0.283458 164.327 0.140243 164.093 0.0640225 163.834C-0.0121981 163.576 -0.018753 163.302 0.0450239 163.04L1.3346 157.825C1.39886 157.562 1.53192 157.321 1.7203 157.125C1.90869 156.929 2.14573 156.787 2.40745 156.711C2.66917 156.636 2.9463 156.63 3.2108 156.696C3.4753 156.761 3.7178 156.894 3.91377 157.082L7.81475 160.791C7.89862 160.884 7.97013 160.988 8.02753 161.099ZM1.24433 163.572C1.25863 163.595 1.27598 163.617 1.29592 163.636C1.33621 163.677 1.38711 163.705 1.44291 163.719C1.49871 163.732 1.55721 163.73 1.61187 163.713L6.77019 162.214C6.82587 162.198 6.87631 162.167 6.91644 162.126C6.95656 162.084 6.98493 162.033 6.99867 161.977C7.01241 161.921 7.01105 161.863 6.9947 161.808C6.97836 161.752 6.94761 161.702 6.90559 161.663L3.00462 157.96C2.96396 157.92 2.9132 157.891 2.8576 157.876C2.80199 157.862 2.74356 157.863 2.68833 157.879C2.63311 157.894 2.58311 157.924 2.54349 157.966C2.50387 158.007 2.47608 158.058 2.46299 158.114L1.17341 163.322C1.16953 163.368 1.17622 163.415 1.19297 163.458C1.20972 163.501 1.2361 163.54 1.27013 163.572H1.24433Z" fill="#F9C067"/>
<path d="M80.0249 7.04667C80.1323 7.22019 80.2036 7.41333 80.2346 7.61468C80.2656 7.81604 80.2557 8.02153 80.2054 8.21902C80.1441 8.48143 80.013 8.72268 79.8259 8.91762C79.6388 9.11256 79.4024 9.25404 79.1415 9.3273L73.9832 10.8264C73.7228 10.9013 73.4472 10.9069 73.1839 10.8427C72.9207 10.7785 72.679 10.6467 72.4831 10.4605C72.2872 10.2743 72.144 10.0403 72.0678 9.78182C71.9916 9.52336 71.985 9.24954 72.0488 8.98777L73.3384 3.77946C73.4029 3.51682 73.5358 3.27562 73.7236 3.07999C73.9115 2.88437 74.1477 2.74119 74.4087 2.66477C74.6692 2.58735 74.9458 2.58037 75.2099 2.64456C75.4739 2.70875 75.716 2.84178 75.9111 3.02993L79.7798 6.73917C79.8721 6.83288 79.9542 6.93595 80.0249 7.04667ZM73.2417 9.54512C73.256 9.5723 73.2757 9.59629 73.2997 9.61558C73.3408 9.65508 73.3917 9.68301 73.4472 9.69652C73.5027 9.71002 73.5609 9.70863 73.6156 9.69246L78.774 8.18698C78.8297 8.17215 78.8803 8.14275 78.9207 8.10185C78.961 8.06094 78.9896 8.01004 79.0035 7.95443C79.0173 7.89882 79.0158 7.84055 78.9993 7.78568C78.9828 7.7308 78.9517 7.68135 78.9094 7.64245L75.0084 3.93321C74.9656 3.89427 74.9136 3.86678 74.8572 3.85333C74.8008 3.83988 74.7419 3.84092 74.686 3.85634C74.6308 3.87273 74.5809 3.90326 74.5413 3.94486C74.5016 3.98646 74.4737 4.03768 74.4603 4.09337L73.1707 9.30168C73.1649 9.34492 73.1682 9.38891 73.1804 9.43083C73.1926 9.47274 73.2135 9.51167 73.2417 9.54512Z" fill="#F9C067"/>
<path d="M245.884 217.589C245.703 217.742 245.489 217.85 245.259 217.907C245.029 217.964 244.788 217.968 244.556 217.917C244.325 217.867 244.107 217.765 243.922 217.618C243.736 217.471 243.587 217.284 243.486 217.071L241.19 212.215C241.075 211.971 241.027 211.701 241.05 211.432C241.073 211.164 241.166 210.906 241.321 210.685C241.476 210.464 241.686 210.287 241.932 210.172C242.177 210.057 242.448 210.008 242.718 210.03L248.102 210.485C248.373 210.507 248.634 210.599 248.857 210.753C249.08 210.907 249.259 211.117 249.374 211.362C249.489 211.607 249.537 211.877 249.513 212.146C249.489 212.415 249.394 212.673 249.237 212.894L246.155 217.295C246.08 217.406 245.989 217.505 245.884 217.589ZM242.377 211.311L242.319 211.375C242.29 211.425 242.275 211.481 242.275 211.539C242.275 211.596 242.29 211.652 242.319 211.702L244.614 216.558C244.638 216.61 244.676 216.655 244.724 216.688C244.772 216.721 244.827 216.74 244.885 216.744C244.942 216.749 244.999 216.739 245.05 216.714C245.101 216.689 245.144 216.651 245.175 216.603L248.264 212.202C248.293 212.154 248.309 212.098 248.309 212.042C248.309 211.985 248.293 211.93 248.264 211.881C248.241 211.829 248.205 211.784 248.158 211.752C248.111 211.719 248.056 211.699 247.999 211.696L242.615 211.241C242.573 211.236 242.53 211.24 242.489 211.252C242.448 211.264 242.41 211.284 242.377 211.311Z" fill="#F9C067"/>
<path d="M245.704 81.469C245.644 81.6635 245.546 81.844 245.414 81.9993C245.282 82.1546 245.119 82.2815 244.936 82.3723C244.696 82.4958 244.426 82.5537 244.155 82.5402C243.885 82.5267 243.623 82.4423 243.395 82.2954L238.882 79.3869C238.654 79.2403 238.469 79.0367 238.345 78.7965C238.222 78.5564 238.164 78.2882 238.178 78.0188C238.191 77.7494 238.276 77.4884 238.424 77.2619C238.571 77.0354 238.776 76.8514 239.017 76.7283L243.821 74.2747C244.063 74.1517 244.333 74.0942 244.604 74.1079C244.876 74.1217 245.139 74.2062 245.367 74.3529C245.595 74.4997 245.78 74.7035 245.904 74.9439C246.028 75.1844 246.085 75.4529 246.071 75.7225L245.8 81.0782C245.788 81.2125 245.755 81.3442 245.704 81.469ZM239.385 77.9904C239.383 78.0202 239.383 78.0502 239.385 78.08C239.383 78.1374 239.396 78.1942 239.423 78.2448C239.45 78.2954 239.491 78.338 239.54 78.3683L244.053 81.2768C244.103 81.3054 244.16 81.3205 244.217 81.3205C244.275 81.3205 244.332 81.3054 244.382 81.2768C244.433 81.2521 244.476 81.214 244.507 81.1665C244.538 81.1191 244.555 81.0641 244.556 81.0077L244.827 75.6457C244.829 75.589 244.816 75.5329 244.79 75.4824C244.764 75.432 244.726 75.3889 244.679 75.3574C244.628 75.3299 244.572 75.3155 244.514 75.3155C244.457 75.3155 244.4 75.3299 244.35 75.3574L239.546 77.8046C239.47 77.8433 239.412 77.91 239.385 77.9904Z" fill="#F9C067"/>
<path d="M164.862 123.423C158.301 123.423 155.619 118.783 158.881 113.091C160.766 109.793 159.642 105.588 156.344 103.703L150.072 100.114C147.209 98.4102 143.511 99.4252 141.807 102.289L141.409 102.978C138.146 108.669 132.781 108.669 129.482 102.978L129.084 102.289C127.452 99.4252 123.755 98.4102 120.891 100.114L114.62 103.703C111.321 105.588 110.197 109.829 112.082 113.128C115.381 118.783 112.699 123.423 106.137 123.423C102.368 123.423 99.25 126.504 99.25 130.31V136.69C99.25 140.46 102.331 143.578 106.137 143.578C112.699 143.578 115.381 148.218 112.082 153.909C110.197 157.208 111.321 161.413 114.62 163.298L120.891 166.886C123.755 168.59 127.452 167.575 129.156 164.711L129.555 164.023C132.817 158.331 138.182 158.331 141.481 164.023L141.88 164.711C143.584 167.575 147.281 168.59 150.145 166.886L156.416 163.298C159.715 161.413 160.839 157.171 158.954 153.909C155.655 148.218 158.337 143.578 164.899 143.578C168.669 143.578 171.786 140.496 171.786 136.69V130.31C171.75 126.54 168.669 123.423 164.862 123.423ZM135.5 145.281C129.011 145.281 123.719 139.989 123.719 133.5C123.719 127.011 129.011 121.719 135.5 121.719C141.989 121.719 147.281 127.011 147.281 133.5C147.281 139.989 141.989 145.281 135.5 145.281Z" fill="#989898"/>
</g>
<defs>
<clipPath id="clip0_375_18472">
<rect width="258" height="248" fill="white"/>
</clipPath>
</defs>
</svg>
