<svg width="285" height="276" viewBox="0 0 285 276" fill="none" xmlns="http://www.w3.org/2000/svg">
<g style="mix-blend-mode:luminosity" clip-path="url(#clip0_29_9366)">
<path d="M59.5884 104.933C56.0271 79.4661 36.9597 71.1531 42.2091 54.8192C51.7464 25.1317 123.65 24.9534 135.381 24.8893C173.459 24.7752 235.227 24.597 260.548 68.7361C272.215 89.0768 255.177 101.161 262.635 152.958C267.058 183.701 273.426 187.415 270.285 200.983C260.79 241.935 191.223 257.869 181.251 260.158C107.004 277.162 13.1557 253.456 6.03298 214.914C-0.313335 180.435 66.6541 155.425 59.5884 104.933Z" fill="#E3EEFF"/>
<path d="M25.5207 182.189C21.3895 173.192 0.342015 127.291 19.9579 99.3648C31.3542 83.1522 45.6708 88.2356 73.4991 70.1336C111.385 45.4867 106.107 22.2157 133.33 8.19187C169.541 -10.4876 230.305 4.29199 248.062 37.4231C265.228 69.4563 230.02 95.9569 246.637 143.219C259.166 178.781 285.328 181.476 284.886 204.469C284.238 237.629 229.073 270.952 179.193 275.465C111.242 281.618 49.574 234.606 25.5207 182.189Z" fill="#C4DBFB"/>
<path d="M148.907 3.8999C147.053 3.90179 145.276 4.64025 143.966 5.95303C142.655 7.26582 141.919 9.04553 141.919 10.9011V23.1569H155.894V10.9011C155.894 9.04553 155.158 7.26582 153.848 5.95303C152.538 4.64025 150.761 3.90179 148.907 3.8999ZM148.907 13.532C148.326 13.5334 147.758 13.3623 147.275 13.0404C146.791 12.7185 146.414 12.2602 146.191 11.7236C145.967 11.187 145.908 10.5962 146.021 10.0259C146.133 9.45563 146.412 8.93157 146.822 8.52006C147.232 8.10855 147.755 7.82808 148.325 7.71416C148.894 7.60024 149.484 7.65799 150.021 7.88011C150.558 8.10222 151.016 8.4787 151.339 8.96191C151.662 9.44511 151.834 10.0133 151.834 10.5946C151.836 10.9809 151.762 11.3638 151.616 11.7214C151.469 12.079 151.254 12.4041 150.982 12.6783C150.71 12.9525 150.387 13.1703 150.031 13.3192C149.675 13.4681 149.293 13.5453 148.907 13.5462V13.532Z" fill="#3A81F3"/>
<path d="M243.973 19.0859H53.8404C50.0725 19.0859 47.0168 21.7667 47.0168 25.0819V269.377C47.0168 272.692 50.0725 275.38 53.8404 275.38H243.973C247.734 275.38 250.79 272.692 250.79 269.377V25.0819C250.79 21.7667 247.734 19.0859 243.973 19.0859Z" fill="#403A7A"/>
<path d="M236.872 28.1831H60.9418C57.4517 28.1831 54.6311 30.707 54.6311 33.8155V263.266C54.6311 266.382 57.4802 268.906 60.9418 268.906H236.872C240.355 268.906 243.183 266.382 243.183 263.266V33.8155C243.204 30.707 240.355 28.1831 236.872 28.1831Z" fill="white"/>
<path d="M194.008 22.6577H103.806C103.033 22.6577 102.292 22.3505 101.746 21.8036C101.2 21.2567 100.893 20.515 100.893 19.7417C100.893 18.9683 101.2 18.2266 101.746 17.6798C102.292 17.1329 103.033 16.8257 103.806 16.8257H194.008C194.778 16.8295 195.515 17.1383 196.058 17.6848C196.602 18.2312 196.907 18.9708 196.907 19.7417C196.907 20.5126 196.602 21.2521 196.058 21.7986C195.515 22.345 194.778 22.6539 194.008 22.6577Z" fill="#3A81F3"/>
<path d="M185.646 20.0199V30.8141C185.644 31.0624 185.544 31.3 185.368 31.4749C185.192 31.6499 184.954 31.7481 184.705 31.7481H154.826C154.616 31.7494 154.414 31.8201 154.249 31.949C154.084 32.078 153.966 32.2581 153.914 32.461C153.633 33.5771 152.988 34.5673 152.081 35.2747C151.174 35.9821 150.057 36.3663 148.907 36.3663C147.757 36.3663 146.64 35.9821 145.733 35.2747C144.826 34.5673 144.181 33.5771 143.9 32.461C143.846 32.2575 143.727 32.0773 143.561 31.9483C143.395 31.8194 143.191 31.749 142.981 31.7481H113.065C112.821 31.7425 112.588 31.6419 112.417 31.4675C112.245 31.2932 112.148 31.0588 112.147 30.8141V20.0199C112.145 19.7716 112.045 19.534 111.869 19.3591C111.693 19.1841 111.455 19.0859 111.206 19.0859C110.959 19.0859 110.722 19.1843 110.547 19.3595C110.372 19.5346 110.273 19.7722 110.273 20.0199V32.5466C110.27 32.6728 110.291 32.7985 110.337 32.9161C110.383 33.0337 110.453 33.1407 110.541 33.2307C110.63 33.3206 110.736 33.3917 110.853 33.4396C110.969 33.4874 111.095 33.511 111.221 33.5091H141.699C141.889 33.5111 142.075 33.5707 142.231 33.6801C142.388 33.7895 142.507 33.9436 142.575 34.1222C142.647 34.3214 142.731 34.5165 142.824 34.7068C143.386 35.8396 144.253 36.7928 145.327 37.4592C146.401 38.1256 147.64 38.4786 148.903 38.4786C150.167 38.4786 151.405 38.1256 152.479 37.4592C153.553 36.7928 154.42 35.8396 154.982 34.7068C155.075 34.5143 155.161 34.3218 155.239 34.1222C155.305 33.9425 155.424 33.7873 155.581 33.6776C155.737 33.5679 155.924 33.5091 156.115 33.5091H186.586C186.834 33.5091 187.072 33.4109 187.248 33.2359C187.424 33.061 187.524 32.8234 187.526 32.5751V20.0199C187.524 19.7716 187.424 19.534 187.248 19.3591C187.072 19.1841 186.834 19.0859 186.586 19.0859C186.338 19.0859 186.1 19.1841 185.924 19.3591C185.747 19.534 185.648 19.7716 185.646 20.0199Z" fill="#3A81F3"/>
<path d="M101.356 100.705L95.0522 109.539L90.6504 105.411L88.0007 108.783L95.4653 113.724L104.988 103.479L101.356 100.705Z" fill="white"/>
<path d="M101.356 137.986L95.0522 146.827L90.6504 142.691L88.0007 146.064L95.4653 151.004L104.988 140.759L101.356 137.986Z" fill="white"/>
<path d="M243.154 227.519L243.461 263.402C243.461 266.19 240.904 268.842 237.592 268.87L189.357 268.927C206.829 259.58 234.151 246.284 243.154 227.519Z" fill="#C5CBEB"/>
<path d="M243.154 227.519C237.777 250.148 214.478 267.744 189.357 268.927C199.955 260.821 207.99 246.491 208.545 231.64C208.577 230.803 208.792 229.983 209.176 229.238C209.56 228.494 210.104 227.843 210.767 227.333C211.431 226.822 212.199 226.465 213.016 226.285C213.834 226.105 214.681 226.108 215.497 226.293C225.625 228.645 235.512 230.499 243.154 227.519Z" fill="#D8DCF5"/>
<path d="M279.911 151.161C280.908 145.012 276.737 139.218 270.594 138.22C264.451 137.222 258.663 141.398 257.666 147.546C256.669 153.695 260.84 159.489 266.983 160.487C273.126 161.485 278.914 157.31 279.911 151.161Z" fill="#C4DBFB"/>
<path d="M41.6588 42.3821C42.4468 39.0404 40.3792 35.692 37.0407 34.9033C33.7022 34.1146 30.357 36.1842 29.5691 39.5259C28.7811 42.8677 30.8487 46.216 34.1872 47.0048C37.5257 47.7935 40.8709 45.7239 41.6588 42.3821Z" fill="#C4DBFB"/>
<path d="M27.4365 78.0687C33.6597 78.0687 38.7046 73.0189 38.7046 66.7897C38.7046 60.5605 33.6597 55.5107 27.4365 55.5107C21.2134 55.5107 16.1685 60.5605 16.1685 66.7897C16.1685 73.0189 21.2134 78.0687 27.4365 78.0687Z" fill="#C4DBFB"/>
<path d="M34.3169 49.7787C37.7472 49.7787 40.5279 46.9953 40.5279 43.5617C40.5279 40.1282 37.7472 37.3447 34.3169 37.3447C30.8867 37.3447 28.106 40.1282 28.106 43.5617C28.106 46.9953 30.8867 49.7787 34.3169 49.7787Z" fill="#C4DBFB"/>
<path d="M36.9168 231.504C40.347 231.504 43.1278 228.721 43.1278 225.287C43.1278 221.854 40.347 219.07 36.9168 219.07C33.4866 219.07 30.7058 221.854 30.7058 225.287C30.7058 228.721 33.4866 231.504 36.9168 231.504Z" fill="#C4DBFB"/>
<path d="M284.819 124.879C285.607 121.538 283.539 118.189 280.201 117.401C276.862 116.612 273.517 118.681 272.729 122.023C271.941 125.365 274.009 128.713 277.347 129.502C280.686 130.291 284.031 128.221 284.819 124.879Z" fill="#C4DBFB"/>
<path d="M29.9368 190.973L32.2801 188.627C32.523 188.369 32.656 188.027 32.6508 187.673C32.6456 187.319 32.5028 186.98 32.2525 186.73C32.0022 186.479 31.6642 186.336 31.3103 186.331C30.9564 186.326 30.6145 186.459 30.357 186.702L28.0136 189.048L25.6703 186.702C25.4152 186.446 25.069 186.302 24.7077 186.301C24.3463 186.3 23.9995 186.443 23.7436 186.699C23.4876 186.954 23.3434 187.301 23.3428 187.662C23.3421 188.024 23.485 188.371 23.74 188.627L26.0834 190.973L23.7471 193.318C23.6201 193.444 23.5192 193.594 23.4504 193.76C23.3816 193.925 23.3461 194.102 23.3461 194.281C23.3461 194.46 23.3816 194.637 23.4504 194.802C23.5192 194.968 23.6201 195.117 23.7471 195.243C24.0022 195.499 24.3481 195.642 24.7087 195.642C25.0693 195.642 25.4152 195.499 25.6703 195.243L28.0136 192.905L30.3499 195.243C30.477 195.371 30.628 195.472 30.7943 195.54C30.9606 195.609 31.1387 195.644 31.3186 195.643C31.4974 195.644 31.6747 195.61 31.8399 195.541C32.0051 195.472 32.1548 195.371 32.2801 195.243C32.4072 195.117 32.508 194.968 32.5769 194.802C32.6457 194.637 32.6811 194.46 32.6811 194.281C32.6811 194.102 32.6457 193.925 32.5769 193.76C32.508 193.594 32.4072 193.444 32.2801 193.318L29.9368 190.973Z" fill="#3A81F3"/>
<path d="M271.909 176.756L274.252 174.411C274.507 174.154 274.65 173.807 274.649 173.446C274.648 173.084 274.504 172.737 274.248 172.482C273.992 172.227 273.646 172.084 273.284 172.084C272.923 172.085 272.577 172.229 272.322 172.486L269.978 174.831L267.635 172.486C267.377 172.243 267.035 172.109 266.682 172.115C266.328 172.12 265.99 172.263 265.739 172.513C265.489 172.764 265.346 173.102 265.341 173.456C265.336 173.811 265.469 174.153 265.712 174.411L268.055 176.756L265.712 179.102C265.585 179.228 265.484 179.378 265.415 179.543C265.346 179.708 265.311 179.885 265.311 180.064C265.311 180.243 265.346 180.421 265.415 180.586C265.484 180.751 265.585 180.901 265.712 181.027C265.837 181.155 265.987 181.256 266.152 181.324C266.317 181.393 266.495 181.428 266.673 181.426C266.853 181.427 267.031 181.392 267.198 181.324C267.364 181.255 267.515 181.154 267.642 181.027L269.978 178.688L272.322 181.027C272.577 181.282 272.923 181.425 273.283 181.425C273.644 181.425 273.99 181.282 274.245 181.027C274.372 180.901 274.473 180.751 274.542 180.586C274.61 180.421 274.646 180.243 274.646 180.064C274.646 179.885 274.61 179.708 274.542 179.543C274.473 179.378 274.372 179.228 274.245 179.102L271.909 176.756Z" fill="#3A81F3"/>
<path d="M222.078 8.43438L224.535 6.20995C224.775 5.95997 224.91 5.62857 224.915 5.28247C224.92 4.93637 224.794 4.60126 224.562 4.34461C224.33 4.08795 224.009 3.92882 223.665 3.89923C223.32 3.86965 222.977 3.97181 222.705 4.18515L220.248 6.41671L218.025 3.957C217.906 3.82405 217.761 3.71601 217.599 3.63904C217.438 3.56207 217.263 3.51769 217.084 3.50842C216.906 3.49915 216.727 3.52518 216.559 3.58502C216.39 3.64486 216.235 3.73735 216.102 3.85719C215.969 3.97703 215.861 4.12189 215.785 4.28349C215.708 4.44508 215.663 4.62026 215.654 4.79901C215.645 4.97776 215.671 5.15659 215.731 5.32528C215.79 5.49397 215.883 5.64922 216.002 5.78218L218.225 8.24901L215.775 10.4663C215.641 10.5855 215.532 10.7302 215.454 10.8918C215.377 11.0534 215.332 11.2289 215.323 11.4079C215.314 11.587 215.34 11.7661 215.4 11.9349C215.461 12.1037 215.554 12.2589 215.675 12.3913C215.794 12.5252 215.938 12.634 216.099 12.7111C216.261 12.7883 216.436 12.8323 216.615 12.8405C216.794 12.8502 216.973 12.8243 217.141 12.7644C217.31 12.7044 217.465 12.6115 217.598 12.4911L220.055 10.2667L222.27 12.7264C222.518 12.9912 222.856 13.1518 223.218 13.1755C223.486 13.1868 223.753 13.1185 223.983 12.9791C224.213 12.8398 224.397 12.6356 224.512 12.392C224.627 12.1485 224.667 11.8765 224.628 11.6101C224.589 11.3436 224.473 11.0946 224.293 10.8941L222.078 8.43438Z" fill="#3A81F3"/>
<path d="M34.3883 114.786L36.7316 112.44C36.9866 112.184 37.1295 111.837 37.1289 111.475C37.1282 111.114 36.984 110.767 36.7281 110.512C36.4721 110.257 36.1253 110.114 35.764 110.114C35.4027 110.115 35.0564 110.259 34.8014 110.515L32.458 112.861L30.1147 110.508C29.8572 110.265 29.5152 110.132 29.1613 110.137C28.8074 110.142 28.4694 110.285 28.2192 110.536C27.9689 110.787 27.826 111.125 27.8208 111.479C27.8157 111.833 27.9487 112.176 28.1915 112.433L30.5349 114.779L28.1915 117.125C27.9384 117.381 27.7964 117.727 27.7964 118.087C27.7964 118.447 27.9384 118.793 28.1915 119.05C28.4478 119.305 28.7949 119.449 29.1566 119.449C29.5184 119.449 29.8655 119.305 30.1218 119.05L32.458 116.711L34.8014 119.05C35.0588 119.293 35.4008 119.426 35.7547 119.421C36.1086 119.415 36.4466 119.272 36.6969 119.022C36.9471 118.771 37.09 118.433 37.0952 118.079C37.1003 117.725 36.9674 117.382 36.7245 117.125L34.3883 114.786Z" fill="#3A81F3"/>
<path d="M8.86782 179.287C8.98663 179.479 9.06553 179.693 9.0998 179.916C9.13407 180.139 9.123 180.366 9.06726 180.585C8.99685 180.877 8.8503 181.145 8.64258 181.361C8.43485 181.578 8.17338 181.736 7.88489 181.818L2.18674 183.494C1.89911 183.577 1.59465 183.583 1.30384 183.512C1.01303 183.44 0.746073 183.294 0.529698 183.086C0.313322 182.879 0.15512 182.619 0.0709226 182.331C-0.0132746 182.044 -0.0205154 181.739 0.0499358 181.448L1.47447 175.644C1.54546 175.351 1.69243 175.082 1.90053 174.865C2.10863 174.647 2.37048 174.488 2.65959 174.404C2.9487 174.32 3.25483 174.314 3.54701 174.387C3.8392 174.459 4.10707 174.608 4.32355 174.817L8.63277 178.945C8.72542 179.049 8.80441 179.164 8.86782 179.287ZM1.37476 182.039C1.39055 182.065 1.40971 182.089 1.43174 182.111C1.47625 182.156 1.53247 182.188 1.59411 182.203C1.65575 182.218 1.72038 182.216 1.78075 182.196L7.4789 180.528C7.5404 180.51 7.59613 180.476 7.64045 180.43C7.68477 180.384 7.7161 180.327 7.73129 180.265C7.74647 180.202 7.74496 180.137 7.72691 180.076C7.70885 180.014 7.67489 179.959 7.62847 179.915L3.31926 175.794C3.27434 175.749 3.21827 175.717 3.15685 175.701C3.09543 175.685 3.03087 175.686 2.96987 175.703C2.90887 175.721 2.85363 175.754 2.80987 175.8C2.7661 175.846 2.7354 175.903 2.72094 175.965L1.29641 181.761C1.29212 181.813 1.29951 181.864 1.31801 181.912C1.33651 181.961 1.36566 182.004 1.40325 182.039H1.37476Z" fill="#F9C067"/>
<path d="M88.3998 7.84253C88.5184 8.03565 88.5972 8.25059 88.6314 8.47468C88.6657 8.69877 88.6547 8.92746 88.5992 9.14725C88.5315 9.43928 88.3867 9.70778 88.18 9.92472C87.9733 10.1417 87.7122 10.2991 87.424 10.3807L81.7258 12.049C81.4382 12.1323 81.1337 12.1386 80.8429 12.0671C80.5521 11.9957 80.2851 11.849 80.0688 11.6418C79.8524 11.4346 79.6942 11.1741 79.61 10.8865C79.5258 10.5988 79.5186 10.2941 79.589 10.0028L81.0135 4.20645C81.0849 3.91415 81.2316 3.64572 81.4391 3.42801C81.6466 3.2103 81.9076 3.05095 82.1959 2.96591C82.4836 2.87975 82.7891 2.87198 83.0809 2.94342C83.3726 3.01486 83.64 3.1629 83.8555 3.37229L88.1291 7.50031C88.231 7.60461 88.3217 7.71931 88.3998 7.84253ZM80.9067 10.6231C80.9225 10.6533 80.9443 10.68 80.9708 10.7015C81.0162 10.7454 81.0724 10.7765 81.1337 10.7916C81.1951 10.8066 81.2593 10.805 81.3198 10.787L87.018 9.1116C87.0795 9.09509 87.1354 9.06237 87.18 9.01685C87.2246 8.97133 87.2562 8.91467 87.2715 8.85279C87.2867 8.7909 87.2851 8.72604 87.2669 8.66498C87.2486 8.60391 87.2143 8.54887 87.1675 8.50558L82.8583 4.37756C82.8111 4.33422 82.7536 4.30362 82.6913 4.28866C82.629 4.27369 82.5639 4.27484 82.5022 4.29201C82.4412 4.31025 82.386 4.34422 82.3423 4.39052C82.2985 4.43682 82.2677 4.49382 82.2529 4.5558L80.8283 10.3521C80.8219 10.4003 80.8255 10.4492 80.839 10.4959C80.8525 10.5425 80.8755 10.5858 80.9067 10.6231Z" fill="#F9C067"/>
<path d="M271.617 242.156C271.416 242.325 271.18 242.446 270.926 242.51C270.671 242.573 270.406 242.577 270.15 242.521C269.893 242.465 269.654 242.351 269.448 242.188C269.243 242.024 269.079 241.816 268.967 241.578L266.431 236.174C266.304 235.903 266.251 235.602 266.276 235.304C266.301 235.005 266.405 234.718 266.576 234.472C266.746 234.226 266.979 234.029 267.25 233.901C267.521 233.773 267.821 233.718 268.119 233.743L274.067 234.249C274.366 234.274 274.654 234.377 274.9 234.548C275.147 234.719 275.344 234.953 275.471 235.225C275.598 235.497 275.652 235.799 275.625 236.098C275.599 236.397 275.493 236.684 275.32 236.93L271.916 241.828C271.833 241.952 271.732 242.062 271.617 242.156ZM267.742 235.169L267.678 235.24C267.646 235.296 267.629 235.358 267.629 235.422C267.629 235.486 267.646 235.549 267.678 235.604L270.213 241.008C270.24 241.066 270.282 241.116 270.335 241.153C270.387 241.189 270.449 241.21 270.513 241.215C270.575 241.221 270.638 241.209 270.695 241.182C270.751 241.154 270.799 241.111 270.833 241.058L274.245 236.16C274.278 236.106 274.295 236.045 274.295 235.982C274.295 235.919 274.278 235.857 274.245 235.803C274.22 235.745 274.179 235.695 274.128 235.659C274.076 235.622 274.016 235.601 273.953 235.597L268.005 235.091C267.958 235.085 267.911 235.09 267.866 235.103C267.82 235.117 267.778 235.139 267.742 235.169Z" fill="#F9C067"/>
<path d="M271.417 90.6667C271.352 90.8832 271.243 91.0841 271.097 91.2569C270.951 91.4298 270.772 91.571 270.57 91.672C270.304 91.8095 270.006 91.874 269.707 91.859C269.408 91.8439 269.118 91.7499 268.867 91.5864L263.881 88.3496C263.63 88.1864 263.425 87.9598 263.289 87.6926C263.152 87.4253 263.088 87.1268 263.104 86.827C263.119 86.5273 263.212 86.2367 263.375 85.9847C263.538 85.7326 263.764 85.5278 264.031 85.3908L269.337 82.6602C269.605 82.5234 269.903 82.4593 270.203 82.4746C270.503 82.4899 270.793 82.5839 271.045 82.7473C271.297 82.9106 271.502 83.1374 271.638 83.405C271.775 83.6726 271.839 83.9714 271.823 84.2715L271.524 90.2318C271.51 90.3813 271.474 90.5279 271.417 90.6667ZM264.437 86.7954C264.435 86.8286 264.435 86.8619 264.437 86.8952C264.435 86.959 264.449 87.0222 264.479 87.0785C264.509 87.1348 264.554 87.1823 264.608 87.216L269.594 90.4528C269.649 90.4848 269.712 90.5016 269.775 90.5016C269.839 90.5016 269.902 90.4848 269.957 90.4528C270.013 90.4254 270.061 90.3829 270.095 90.3301C270.129 90.2773 270.148 90.2162 270.149 90.1534L270.448 84.1859C270.451 84.1229 270.437 84.0604 270.408 84.0043C270.379 83.9481 270.337 83.9002 270.285 83.8651C270.229 83.8345 270.167 83.8185 270.103 83.8185C270.04 83.8185 269.977 83.8345 269.921 83.8651L264.615 86.5886C264.531 86.6318 264.467 86.7059 264.437 86.7954Z" fill="#F9C067"/>
<path d="M183.377 144.298C183.377 144.298 190.312 152.472 187.009 154.689C184.282 156.495 182.538 152.76 183.377 144.298Z" fill="#593431"/>
<path d="M114.412 145.272C114.412 145.272 105.067 153.293 108.572 156.391C111.247 158.919 113.871 155.004 114.412 145.272Z" fill="#593431"/>
<path d="M111.9 164.755C111.9 164.755 105.585 175.965 110.01 177.19C113.575 178.168 114.63 174.105 111.9 164.755Z" fill="#593431"/>
<path d="M136.989 182.615C146.895 178.556 157.749 177.343 168.317 179.115C164.224 174.303 148.271 166.264 136.989 182.615Z" fill="#EF7882"/>
<path d="M143.174 156.809C143.263 157.837 161.853 159.155 162.411 157.773C162.969 156.39 156.293 150.961 156.191 139.55C156.089 128.138 160.169 122.046 160.169 122.046C156.247 126.164 153.881 131.506 153.474 137.164C152.471 147.149 156.201 153.458 155.764 154.504C155.327 155.549 143.085 155.798 143.174 156.809Z" fill="#EF7882"/>
<path d="M116.647 136.233C116.647 136.233 119.242 141.906 129.091 142.271C132.195 142.32 135.268 141.666 138.079 140.358C140.89 139.05 143.364 137.122 145.313 134.721C135.976 137.25 126.202 137.766 116.647 136.233Z" fill="#593431"/>
<path d="M115.343 126C115.343 126 124.668 120.948 146.689 118.578C143.502 116.94 140.017 115.952 136.441 115.675C132.864 115.397 129.268 115.835 125.865 116.962C120.253 118.985 115.343 126 115.343 126Z" fill="#593431"/>
<path d="M124.94 147.335C130.27 148.34 135.784 147.254 140.326 144.306C137.79 151.211 131.569 152.564 124.94 147.335Z" fill="#EF7882"/>
<path d="M159.826 134.718C159.826 134.718 165.118 142.831 174.397 142.455C183.676 142.079 186.905 136.494 186.905 136.494C177.849 137.651 168.652 137.048 159.826 134.718Z" fill="#593431"/>
<path d="M163.897 120.079C171.9 121.004 179.809 122.615 187.534 124.894C186.201 122.831 184.448 121.069 182.387 119.722C180.327 118.375 178.005 117.473 175.572 117.074C166.453 116.053 163.897 120.079 163.897 120.079Z" fill="#593431"/>
<path d="M179.249 148.248C173.859 148.86 168.439 147.369 164.13 144.09C166.148 151.164 172.233 153.008 179.249 148.248Z" fill="#EF7882"/>
</g>
<defs>
<clipPath id="clip0_29_9366">
<rect width="285" height="276" fill="white"/>
</clipPath>
</defs>
</svg>
