<svg width="258" height="248" viewBox="0 0 258 248" fill="none" xmlns="http://www.w3.org/2000/svg">
<g style="mix-blend-mode:luminosity" clip-path="url(#clip0_61_8222)">
<path d="M53.9433 94.2877C50.7193 71.4045 33.4583 63.9347 38.2104 49.2579C46.8441 22.5822 111.936 22.422 122.555 22.3644C157.026 22.2619 212.942 22.1017 235.864 61.763C246.426 80.0401 231.003 90.8988 237.754 137.44C241.758 165.064 247.522 168.402 244.679 180.593C236.084 217.391 173.107 231.709 164.08 233.765C96.867 249.044 11.9094 227.743 5.46148 193.111C-0.283603 162.13 60.3396 139.657 53.9433 94.2877Z" fill="#E3EEFF"/>
<path d="M23.1029 163.706C19.3632 155.621 0.309608 114.378 18.0671 89.2843C28.3838 74.7164 41.3441 79.2841 66.536 63.0185C100.832 40.872 96.0545 19.9619 120.698 7.36072C153.48 -9.42374 208.487 3.85648 224.561 33.6265C240.101 62.4099 208.229 86.2221 223.272 128.689C234.614 160.644 258.297 163.065 257.897 183.726C257.31 213.521 207.371 243.464 162.216 247.519C100.703 253.048 44.8775 210.805 23.1029 163.706Z" fill="#C4DBFB"/>
<path d="M134.8 3.50439C133.122 3.50609 131.513 4.16964 130.327 5.34924C129.141 6.52884 128.475 8.128 128.475 9.79536V20.8078H141.125V9.79536C141.125 8.128 140.459 6.52884 139.273 5.34924C138.087 4.16964 136.478 3.50609 134.8 3.50439ZM134.8 12.1593C134.274 12.1605 133.76 12.0068 133.322 11.7176C132.885 11.4283 132.543 11.0166 132.341 10.5344C132.139 10.0522 132.086 9.52132 132.187 9.00891C132.289 8.4965 132.542 8.02561 132.913 7.65584C133.284 7.28607 133.757 7.03406 134.273 6.9317C134.788 6.82934 135.323 6.88123 135.809 7.08081C136.294 7.28039 136.71 7.61868 137.002 8.05286C137.294 8.48705 137.45 8.9976 137.45 9.51989C137.452 9.86704 137.385 10.2111 137.252 10.5324C137.12 10.8537 136.925 11.1459 136.679 11.3922C136.433 11.6386 136.14 11.8343 135.818 11.9681C135.495 12.1019 135.149 12.1713 134.8 12.1721V12.1593Z" fill="#3A81F3"/>
<path d="M220.86 17.1497H48.7398C45.3289 17.1497 42.5627 19.5584 42.5627 22.5373V242.049C42.5627 245.028 45.3289 247.443 48.7398 247.443H220.86C224.265 247.443 227.031 245.028 227.031 242.049V22.5373C227.031 19.5584 224.265 17.1497 220.86 17.1497Z" fill="#403A7A"/>
<path d="M214.432 25.3241H55.1684C52.0089 25.3241 49.4556 27.5919 49.4556 30.3851V236.558C49.4556 239.358 52.0347 241.626 55.1684 241.626H214.432C217.585 241.626 220.145 239.358 220.145 236.558V30.3851C220.164 27.5919 217.585 25.3241 214.432 25.3241Z" fill="white"/>
<path d="M175.628 20.3594H93.9717C93.2722 20.3594 92.6014 20.0833 92.1069 19.5919C91.6123 19.1006 91.3345 18.4341 91.3345 17.7392C91.3345 17.0443 91.6123 16.3778 92.1069 15.8864C92.6014 15.3951 93.2722 15.119 93.9717 15.119H175.628C176.325 15.1224 176.993 15.4 177.484 15.891C177.976 16.382 178.252 17.0465 178.252 17.7392C178.252 18.4319 177.976 19.0964 177.484 19.5874C176.993 20.0784 176.325 20.356 175.628 20.3594Z" fill="#3A81F3"/>
<path d="M168.058 17.9889V27.688C168.056 27.9112 167.966 28.1246 167.807 28.2818C167.647 28.439 167.432 28.5272 167.207 28.5272H140.158C139.969 28.5284 139.785 28.5919 139.635 28.7078C139.486 28.8237 139.38 28.9855 139.333 29.1678C139.078 30.1707 138.494 31.0604 137.673 31.6961C136.852 32.3317 135.841 32.6769 134.8 32.6769C133.759 32.6769 132.748 32.3317 131.927 31.6961C131.105 31.0604 130.521 30.1707 130.267 29.1678C130.219 28.985 130.111 28.823 129.96 28.7072C129.81 28.5913 129.625 28.5281 129.435 28.5272H102.354C102.133 28.5222 101.922 28.4318 101.767 28.2751C101.611 28.1185 101.524 27.9079 101.522 27.688V17.9889C101.52 17.7657 101.43 17.5523 101.271 17.3951C101.111 17.2379 100.896 17.1497 100.671 17.1497C100.447 17.1497 100.232 17.2381 100.074 17.3955C99.9153 17.5528 99.8263 17.7663 99.8263 17.9889V29.2447C99.8228 29.3582 99.8425 29.4711 99.8842 29.5768C99.9259 29.6824 99.9887 29.7786 100.069 29.8594C100.149 29.9403 100.245 30.0041 100.351 30.0471C100.456 30.0901 100.57 30.1114 100.684 30.1096H128.274C128.447 30.1114 128.615 30.165 128.757 30.2633C128.898 30.3616 129.007 30.5 129.068 30.6605C129.133 30.8395 129.209 31.0148 129.293 31.1858C129.802 32.2037 130.587 33.0602 131.559 33.659C132.531 34.2577 133.653 34.575 134.797 34.575C135.94 34.575 137.062 34.2577 138.034 33.659C139.006 33.0602 139.791 32.2037 140.3 31.1858C140.384 31.0129 140.461 30.8399 140.532 30.6605C140.591 30.499 140.699 30.3595 140.841 30.261C140.983 30.1625 141.152 30.1096 141.325 30.1096H168.909C169.134 30.1096 169.349 30.0214 169.509 29.8642C169.668 29.707 169.759 29.4935 169.76 29.2703V17.9889C169.759 17.7657 169.668 17.5523 169.509 17.3951C169.349 17.2379 169.134 17.1497 168.909 17.1497C168.685 17.1497 168.469 17.2379 168.31 17.3951C168.15 17.5523 168.06 17.7657 168.058 17.9889Z" fill="#3A81F3"/>
<path d="M91.7536 90.4887L86.0472 98.4261L82.0624 94.7169L79.6638 97.747L86.4212 102.187L95.0421 92.9808L91.7536 90.4887Z" fill="white"/>
<path d="M91.7536 123.987L86.0472 131.931L82.0624 128.215L79.6638 131.246L86.4212 135.685L95.0421 126.479L91.7536 123.987Z" fill="white"/>
<path d="M220.118 204.437L220.396 236.68C220.396 239.185 218.081 241.568 215.083 241.594L171.417 241.645C187.234 233.246 211.968 221.299 220.118 204.437Z" fill="#C5CBEB"/>
<path d="M220.118 204.437C215.25 224.771 194.159 240.582 171.417 241.645C181.012 234.361 188.285 221.484 188.788 208.14C188.817 207.388 189.012 206.651 189.36 205.982C189.707 205.314 190.199 204.729 190.8 204.27C191.4 203.812 192.096 203.49 192.836 203.328C193.576 203.167 194.342 203.169 195.081 203.335C204.25 205.45 213.2 207.115 220.118 204.437Z" fill="#D8DCF5"/>
<path d="M253.393 135.826C254.296 130.301 250.52 125.095 244.959 124.198C239.398 123.301 234.158 127.053 233.255 132.578C232.353 138.103 236.129 143.309 241.69 144.206C247.251 145.102 252.49 141.351 253.393 135.826Z" fill="#C4DBFB"/>
<path d="M37.7123 38.0826C38.4256 35.0798 36.5539 32.0711 33.5317 31.3624C30.5094 30.6537 27.4812 32.5134 26.7679 35.5161C26.0546 38.5188 27.9263 41.5275 30.9485 42.2362C33.9708 42.9449 36.999 41.0853 37.7123 38.0826Z" fill="#C4DBFB"/>
<path d="M24.8373 70.1489C30.4709 70.1489 35.0379 65.6114 35.0379 60.0141C35.0379 54.4169 30.4709 49.8794 24.8373 49.8794C19.2037 49.8794 14.6367 54.4169 14.6367 60.0141C14.6367 65.6114 19.2037 70.1489 24.8373 70.1489Z" fill="#C4DBFB"/>
<path d="M31.0659 44.7287C34.1712 44.7287 36.6885 42.2276 36.6885 39.1424C36.6885 36.0572 34.1712 33.5562 31.0659 33.5562C27.9607 33.5562 25.4434 36.0572 25.4434 39.1424C25.4434 42.2276 27.9607 44.7287 31.0659 44.7287Z" fill="#C4DBFB"/>
<path d="M33.4197 208.018C36.525 208.018 39.0423 205.517 39.0423 202.432C39.0423 199.347 36.525 196.846 33.4197 196.846C30.3144 196.846 27.7971 199.347 27.7971 202.432C27.7971 205.517 30.3144 208.018 33.4197 208.018Z" fill="#C4DBFB"/>
<path d="M257.836 112.211C258.549 109.208 256.678 106.199 253.655 105.49C250.633 104.782 247.605 106.641 246.892 109.644C246.178 112.647 248.05 115.656 251.072 116.364C254.095 117.073 257.123 115.213 257.836 112.211Z" fill="#C4DBFB"/>
<path d="M27.1006 171.599L29.222 169.491C29.4419 169.259 29.5622 168.952 29.5576 168.633C29.5529 168.315 29.4236 168.011 29.197 167.786C28.9704 167.561 28.6645 167.432 28.3441 167.428C28.0237 167.423 27.7141 167.543 27.4811 167.761L25.3597 169.869L23.2383 167.761C23.0075 167.531 22.694 167.401 22.3669 167.401C22.0398 167.4 21.7259 167.529 21.4942 167.758C21.2625 167.987 21.132 168.299 21.1313 168.624C21.1307 168.949 21.2601 169.261 21.491 169.491L23.6123 171.599L21.4974 173.706C21.3824 173.819 21.2911 173.954 21.2288 174.103C21.1665 174.251 21.1344 174.41 21.1344 174.571C21.1344 174.732 21.1665 174.891 21.2288 175.04C21.2911 175.188 21.3824 175.323 21.4974 175.436C21.7283 175.665 22.0414 175.794 22.3679 175.794C22.6943 175.794 23.0074 175.665 23.2383 175.436L25.3597 173.335L27.4746 175.436C27.5897 175.55 27.7264 175.641 27.8769 175.703C28.0274 175.764 28.1888 175.795 28.3515 175.795C28.5134 175.796 28.6739 175.765 28.8235 175.703C28.9731 175.642 29.1086 175.551 29.222 175.436C29.337 175.323 29.4283 175.188 29.4906 175.04C29.553 174.891 29.585 174.732 29.585 174.571C29.585 174.41 29.553 174.251 29.4906 174.103C29.4283 173.954 29.337 173.819 29.222 173.706L27.1006 171.599Z" fill="#3A81F3"/>
<path d="M246.149 158.825L248.27 156.717C248.501 156.487 248.631 156.175 248.63 155.85C248.629 155.525 248.499 155.213 248.267 154.984C248.035 154.755 247.721 154.626 247.394 154.627C247.067 154.627 246.754 154.757 246.523 154.987L244.402 157.095L242.28 154.987C242.047 154.769 241.738 154.649 241.417 154.654C241.097 154.658 240.791 154.787 240.564 155.012C240.338 155.237 240.208 155.541 240.204 155.859C240.199 156.178 240.319 156.485 240.539 156.717L242.661 158.825L240.539 160.932C240.424 161.045 240.333 161.18 240.271 161.328C240.208 161.477 240.176 161.636 240.176 161.797C240.176 161.958 240.208 162.117 240.271 162.266C240.333 162.414 240.424 162.549 240.539 162.662C240.653 162.777 240.788 162.868 240.938 162.929C241.087 162.991 241.248 163.022 241.41 163.021C241.573 163.021 241.734 162.99 241.884 162.928C242.035 162.867 242.172 162.776 242.287 162.662L244.402 160.561L246.523 162.662C246.754 162.891 247.067 163.02 247.393 163.02C247.72 163.02 248.033 162.891 248.264 162.662C248.379 162.549 248.47 162.414 248.533 162.266C248.595 162.117 248.627 161.958 248.627 161.797C248.627 161.636 248.595 161.477 248.533 161.328C248.47 161.18 248.379 161.045 248.264 160.932L246.149 158.825Z" fill="#3A81F3"/>
<path d="M201.039 7.57862L203.264 5.57986C203.48 5.35524 203.603 5.05747 203.608 4.74647C203.612 4.43548 203.498 4.13437 203.288 3.90376C203.078 3.67314 202.787 3.53015 202.476 3.50356C202.164 3.47698 201.853 3.56878 201.607 3.76048L199.382 5.76564L197.37 3.55547C197.262 3.43601 197.131 3.33893 196.985 3.26977C196.839 3.20061 196.68 3.16073 196.519 3.1524C196.357 3.14407 196.195 3.16746 196.043 3.22123C195.89 3.275 195.75 3.3581 195.629 3.46579C195.509 3.57347 195.412 3.70363 195.342 3.84884C195.272 3.99404 195.232 4.15144 195.224 4.31206C195.215 4.47268 195.239 4.63336 195.293 4.78494C195.347 4.93652 195.431 5.07602 195.539 5.19548L197.551 7.41206L195.333 9.40441C195.212 9.51154 195.113 9.64149 195.043 9.78674C194.973 9.93198 194.932 10.0896 194.924 10.2505C194.916 10.4114 194.939 10.5724 194.994 10.7241C195.049 10.8757 195.133 11.0151 195.243 11.1341C195.35 11.2545 195.481 11.3522 195.627 11.4215C195.773 11.4908 195.932 11.5303 196.094 11.5377C196.256 11.5465 196.418 11.5232 196.57 11.4693C196.723 11.4155 196.863 11.332 196.984 11.2238L199.208 9.22504L201.213 11.4352C201.437 11.6731 201.744 11.8174 202.071 11.8388C202.314 11.8489 202.555 11.7875 202.764 11.6623C202.972 11.5371 203.138 11.3536 203.242 11.1348C203.346 10.916 203.383 10.6716 203.348 10.4321C203.313 10.1927 203.207 9.96894 203.045 9.78879L201.039 7.57862Z" fill="#3A81F3"/>
<path d="M31.1305 103.141L33.2518 101.034C33.4827 100.803 33.612 100.491 33.6114 100.166C33.6108 99.8415 33.4803 99.53 33.2486 99.3007C33.0169 99.0713 32.7029 98.9428 32.3759 98.9434C32.0488 98.944 31.7353 99.0736 31.5044 99.3039L29.3831 101.412L27.2617 99.2974C27.0287 99.079 26.7191 98.9594 26.3987 98.964C26.0783 98.9687 25.7724 99.0972 25.5458 99.3223C25.3192 99.5474 25.1899 99.8514 25.1852 100.17C25.1806 100.488 25.3009 100.796 25.5208 101.027L27.6421 103.135L25.5208 105.242C25.2916 105.473 25.1631 105.784 25.1631 106.107C25.1631 106.431 25.2916 106.742 25.5208 106.972C25.7528 107.202 26.067 107.331 26.3945 107.331C26.722 107.331 27.0361 107.202 27.2682 106.972L29.3831 104.871L31.5044 106.972C31.7375 107.191 32.0471 107.31 32.3675 107.306C32.6879 107.301 32.9938 107.172 33.2204 106.947C33.4469 106.722 33.5763 106.418 33.5809 106.1C33.5856 105.782 33.4652 105.474 33.2454 105.242L31.1305 103.141Z" fill="#3A81F3"/>
<path d="M8.02741 161.099C8.13496 161.271 8.20638 161.463 8.23741 161.663C8.26843 161.864 8.25841 162.068 8.20795 162.265C8.14421 162.527 8.01155 162.768 7.8235 162.963C7.63546 163.157 7.39876 163.299 7.1376 163.373L1.97927 164.878C1.71889 164.953 1.44327 164.959 1.18001 164.895C0.916755 164.831 0.67509 164.699 0.479213 164.513C0.283336 164.326 0.140121 164.092 0.0639004 163.834C-0.0123202 163.575 -0.0188751 163.302 0.0449018 163.04L1.33448 157.825C1.39874 157.562 1.5318 157.32 1.72018 157.125C1.90857 156.929 2.1456 156.786 2.40733 156.711C2.66905 156.636 2.94618 156.63 3.21068 156.695C3.47518 156.761 3.71767 156.894 3.91364 157.082L7.81463 160.791C7.8985 160.884 7.97001 160.988 8.02741 161.099ZM1.24421 163.572C1.25851 163.595 1.27586 163.617 1.2958 163.636C1.33609 163.676 1.38699 163.705 1.44279 163.719C1.49859 163.732 1.55709 163.73 1.61175 163.713L6.77007 162.213C6.82574 162.198 6.87619 162.167 6.91631 162.126C6.95644 162.084 6.9848 162.033 6.99855 161.977C7.01229 161.921 7.01092 161.863 6.99458 161.807C6.97824 161.752 6.94749 161.702 6.90547 161.663L3.0045 157.96C2.96384 157.919 2.91308 157.891 2.85748 157.876C2.80187 157.862 2.74344 157.863 2.68821 157.878C2.63299 157.894 2.58298 157.924 2.54337 157.965C2.50375 158.007 2.47596 158.058 2.46287 158.113L1.17329 163.322C1.16941 163.368 1.1761 163.414 1.19284 163.458C1.20959 163.501 1.23598 163.54 1.27001 163.572H1.24421Z" fill="#F9C067"/>
<path d="M80.0249 7.04691C80.1323 7.22043 80.2036 7.41357 80.2346 7.61493C80.2656 7.81629 80.2557 8.02178 80.2054 8.21926C80.1441 8.48167 80.013 8.72293 79.8259 8.91786C79.6388 9.1128 79.4024 9.25428 79.1415 9.32755L73.9832 10.8266C73.7228 10.9015 73.4472 10.9071 73.1839 10.8429C72.9207 10.7787 72.679 10.6469 72.4831 10.4607C72.2872 10.2746 72.144 10.0405 72.0678 9.78206C71.9916 9.5236 71.985 9.24978 72.0488 8.98801L73.3384 3.77971C73.4029 3.51706 73.5358 3.27586 73.7236 3.08024C73.9115 2.88462 74.1477 2.74143 74.4087 2.66501C74.6692 2.58759 74.9458 2.58062 75.2099 2.64481C75.4739 2.709 75.716 2.84203 75.9111 3.03017L79.7798 6.73941C79.8721 6.83313 79.9542 6.93619 80.0249 7.04691ZM73.2417 9.54536C73.256 9.57255 73.2757 9.59653 73.2997 9.61583C73.3408 9.65532 73.3917 9.68325 73.4472 9.69676C73.5027 9.71027 73.5609 9.70887 73.6156 9.69271L78.774 8.18723C78.8297 8.17239 78.8803 8.14299 78.9207 8.10209C78.961 8.06119 78.9896 8.01028 79.0035 7.95467C79.0173 7.89907 79.0158 7.84079 78.9993 7.78592C78.9828 7.73105 78.9517 7.68159 78.9094 7.6427L75.0084 3.93346C74.9656 3.89451 74.9136 3.86702 74.8572 3.85357C74.8008 3.84012 74.7419 3.84116 74.686 3.85658C74.6308 3.87298 74.5809 3.9035 74.5413 3.9451C74.5016 3.98671 74.4737 4.03792 74.4603 4.09361L73.1707 9.30192C73.1649 9.34517 73.1682 9.38915 73.1804 9.43107C73.1926 9.47299 73.2135 9.51191 73.2417 9.54536Z" fill="#F9C067"/>
<path d="M245.884 217.589C245.703 217.742 245.489 217.85 245.259 217.907C245.029 217.964 244.788 217.968 244.556 217.917C244.325 217.867 244.107 217.765 243.922 217.618C243.736 217.471 243.587 217.284 243.486 217.071L241.19 212.215C241.075 211.971 241.027 211.701 241.05 211.432C241.073 211.164 241.166 210.906 241.321 210.685C241.476 210.464 241.686 210.287 241.932 210.172C242.177 210.057 242.448 210.008 242.718 210.03L248.102 210.485C248.373 210.507 248.634 210.599 248.857 210.753C249.08 210.907 249.259 211.117 249.374 211.362C249.489 211.606 249.537 211.877 249.513 212.146C249.489 212.415 249.394 212.673 249.237 212.894L246.155 217.295C246.08 217.406 245.989 217.505 245.884 217.589ZM242.377 211.311L242.319 211.375C242.29 211.425 242.275 211.481 242.275 211.539C242.275 211.596 242.29 211.652 242.319 211.702L244.614 216.558C244.638 216.61 244.676 216.655 244.724 216.688C244.772 216.721 244.827 216.74 244.885 216.744C244.942 216.749 244.999 216.739 245.05 216.714C245.101 216.689 245.144 216.651 245.175 216.603L248.264 212.202C248.293 212.153 248.309 212.098 248.309 212.042C248.309 211.985 248.293 211.93 248.264 211.881C248.241 211.829 248.205 211.784 248.158 211.751C248.111 211.719 248.056 211.699 247.999 211.696L242.615 211.241C242.573 211.236 242.53 211.24 242.489 211.252C242.448 211.264 242.41 211.284 242.377 211.311Z" fill="#F9C067"/>
<path d="M245.704 81.4688C245.645 81.6633 245.546 81.8438 245.414 81.9991C245.282 82.1544 245.12 82.2813 244.936 82.3721C244.696 82.4956 244.426 82.5536 244.156 82.5401C243.885 82.5266 243.623 82.4421 243.395 82.2952L238.882 79.3867C238.654 79.2401 238.469 79.0365 238.345 78.7964C238.222 78.5562 238.164 78.288 238.178 78.0186C238.191 77.7493 238.276 77.4882 238.424 77.2617C238.571 77.0352 238.776 76.8512 239.017 76.7281L243.821 74.2745C244.063 74.1516 244.333 74.094 244.605 74.1078C244.876 74.1215 245.139 74.206 245.367 74.3527C245.595 74.4995 245.78 74.7033 245.904 74.9437C246.028 75.1842 246.085 75.4527 246.071 75.7223L245.801 81.078C245.788 81.2123 245.755 81.344 245.704 81.4688ZM239.385 77.9902C239.383 78.02 239.383 78.05 239.385 78.0799C239.383 78.1372 239.396 78.194 239.423 78.2446C239.451 78.2952 239.491 78.3378 239.54 78.3681L244.053 81.2766C244.103 81.3053 244.16 81.3204 244.218 81.3204C244.275 81.3204 244.332 81.3053 244.382 81.2766C244.433 81.2519 244.476 81.2138 244.507 81.1663C244.538 81.1189 244.555 81.0639 244.556 81.0075L244.827 75.6455C244.829 75.5889 244.816 75.5327 244.79 75.4822C244.764 75.4318 244.726 75.3888 244.679 75.3572C244.628 75.3297 244.572 75.3153 244.514 75.3153C244.457 75.3153 244.4 75.3297 244.35 75.3572L239.546 77.8044C239.47 77.8432 239.412 77.9098 239.385 77.9902Z" fill="#F9C067"/>
<line x1="69.66" y1="100.62" x2="168.99" y2="100.62" stroke="#E5E5E5" stroke-width="7.74" stroke-linecap="round"/>
<line x1="69.6163" y1="121.606" x2="153.504" y2="120.664" stroke="#E5E5E5" stroke-width="7.74" stroke-linecap="round"/>
<line x1="69.66" y1="141.65" x2="129" y2="141.65" stroke="#E5E5E5" stroke-width="7.74" stroke-linecap="round"/>
</g>
<defs>
<clipPath id="clip0_61_8222">
<rect width="258" height="248" fill="white"/>
</clipPath>
</defs>
</svg>
