<svg width="200" height="192" viewBox="0 0 200 192" fill="none" xmlns="http://www.w3.org/2000/svg">
<g style="mix-blend-mode:luminosity" clip-path="url(#clip0_61_6591)">
<path d="M41.8164 72.9969C39.3172 55.2808 25.9366 49.4978 29.6204 38.1351C36.3132 17.4829 86.7718 17.3589 95.0041 17.3143C121.725 17.235 165.071 17.111 182.841 47.8165C191.028 61.9665 179.072 70.3732 184.305 106.405C187.409 127.792 191.878 130.376 189.673 139.814C183.011 168.303 134.191 179.387 127.194 180.98C75.0906 192.808 9.23201 176.317 4.23364 149.505C-0.219915 125.52 46.7748 108.121 41.8164 72.9969Z" fill="#E3EEFF"/>
<path d="M17.9092 126.74C15.0101 120.481 0.239915 88.5505 14.0054 69.1233C22.0028 57.845 32.0496 61.3813 51.5782 48.7886C78.1646 31.6429 74.4608 15.4544 93.5646 5.69867C118.976 -7.29575 161.617 2.98571 174.078 26.0334C186.125 48.3174 161.418 66.7526 173.079 99.6305C181.871 124.369 200.23 126.244 199.92 142.239C199.465 165.307 160.753 188.489 125.749 191.628C78.0646 195.908 34.7887 163.204 17.9092 126.74Z" fill="#C4DBFB"/>
<path d="M104.496 2.71301C103.195 2.71433 101.948 3.22804 101.029 4.14128C100.109 5.05452 99.5927 6.29258 99.5927 7.58344V16.1092H109.399V7.58344C109.399 6.29258 108.883 5.05452 107.964 4.14128C107.044 3.22804 105.797 2.71433 104.496 2.71301ZM104.496 9.41357C104.089 9.41455 103.69 9.29554 103.351 9.07161C103.011 8.84767 102.747 8.52888 102.59 8.15559C102.433 7.78229 102.392 7.37128 102.471 6.97457C102.55 6.57787 102.745 6.21331 103.033 5.92704C103.321 5.64077 103.688 5.44566 104.087 5.36641C104.487 5.28716 104.901 5.32734 105.278 5.48185C105.655 5.63636 105.976 5.89827 106.203 6.23441C106.429 6.57055 106.55 6.96582 106.55 7.37017C106.552 7.63893 106.5 7.90531 106.397 8.15405C106.294 8.40279 106.143 8.629 105.953 8.81974C105.762 9.01047 105.535 9.16197 105.285 9.26558C105.035 9.36918 104.767 9.42284 104.496 9.42349V9.41357Z" fill="#3A81F3"/>
<path d="M171.209 13.2771H37.7827C35.1386 13.2771 32.9943 15.1419 32.9943 17.4482V187.392C32.9943 189.699 35.1386 191.568 37.7827 191.568H171.209C173.849 191.568 175.993 189.699 175.993 187.392V17.4482C175.993 15.1419 173.849 13.2771 171.209 13.2771Z" fill="#403A7A"/>
<path d="M166.226 19.6057H42.7661C40.3169 19.6057 38.3375 21.3614 38.3375 23.5239V183.142C38.3375 185.309 40.3369 187.065 42.7661 187.065H166.226C168.67 187.065 170.655 185.309 170.655 183.142V23.5239C170.67 21.3614 168.67 19.6057 166.226 19.6057Z" fill="white"/>
<path d="M136.146 15.762H72.8463C72.3041 15.762 71.7841 15.5483 71.4008 15.1679C71.0174 14.7874 70.802 14.2715 70.802 13.7335C70.802 13.1955 71.0174 12.6795 71.4008 12.2991C71.7841 11.9187 72.3041 11.705 72.8463 11.705H136.146C136.686 11.7076 137.204 11.9225 137.585 12.3026C137.966 12.6827 138.18 13.1972 138.18 13.7335C138.18 14.2698 137.966 14.7842 137.585 15.1644C137.204 15.5445 136.686 15.7594 136.146 15.762Z" fill="#3A81F3"/>
<path d="M130.278 13.9268V21.4358C130.276 21.6086 130.206 21.7738 130.083 21.8955C129.959 22.0172 129.792 22.0855 129.618 22.0855H108.65C108.503 22.0865 108.36 22.1356 108.245 22.2253C108.129 22.3151 108.046 22.4403 108.01 22.5815C107.813 23.3579 107.36 24.0467 106.723 24.5388C106.087 25.031 105.303 25.2982 104.496 25.2982C103.689 25.2982 102.905 25.031 102.269 24.5388C101.632 24.0467 101.179 23.3579 100.982 22.5815C100.945 22.4399 100.861 22.3145 100.745 22.2249C100.628 22.1352 100.485 22.0862 100.337 22.0855H79.3442C79.1727 22.0817 79.0095 22.0117 78.8891 21.8904C78.7687 21.7691 78.7007 21.606 78.6994 21.4358V13.9268C78.6981 13.7541 78.628 13.5888 78.5044 13.4671C78.3808 13.3454 78.2138 13.2771 78.0396 13.2771C77.866 13.2771 77.6994 13.3456 77.5766 13.4674C77.4538 13.5892 77.3849 13.7545 77.3849 13.9268V22.641C77.3821 22.7288 77.3974 22.8163 77.4297 22.8981C77.4621 22.9799 77.5108 23.0543 77.5729 23.1169C77.635 23.1795 77.7093 23.2289 77.7913 23.2622C77.8732 23.2955 77.9611 23.312 78.0497 23.3106H99.4377C99.5715 23.312 99.7018 23.3535 99.8115 23.4296C99.9212 23.5057 100.005 23.6129 100.052 23.7371C100.104 23.8757 100.162 24.0114 100.227 24.1438C100.622 24.9318 101.23 25.5949 101.984 26.0585C102.738 26.5221 103.607 26.7677 104.494 26.7677C105.38 26.7677 106.249 26.5221 107.003 26.0585C107.757 25.5949 108.365 24.9318 108.76 24.1438C108.825 24.0099 108.885 23.876 108.94 23.7371C108.986 23.6121 109.069 23.5041 109.179 23.4278C109.289 23.3515 109.42 23.3106 109.554 23.3106H130.937C131.112 23.3106 131.279 23.2423 131.402 23.1206C131.526 22.9989 131.596 22.8336 131.597 22.6609V13.9268C131.596 13.7541 131.526 13.5888 131.402 13.4671C131.279 13.3454 131.112 13.2771 130.937 13.2771C130.763 13.2771 130.596 13.3454 130.473 13.4671C130.349 13.5888 130.279 13.7541 130.278 13.9268Z" fill="#3A81F3"/>
<path d="M71.1269 70.0558L66.7033 76.2009L63.6143 73.3292L61.7549 75.6751L66.9932 79.1122L73.6761 71.9851L71.1269 70.0558Z" fill="white"/>
<path d="M71.1269 95.9901L66.7033 102.14L63.6143 99.2635L61.7549 101.609L66.9932 105.047L73.6761 97.9194L71.1269 95.9901Z" fill="white"/>
<path d="M170.635 158.274L170.849 183.236C170.849 185.175 169.055 187.02 166.731 187.04L132.882 187.08C145.143 180.578 164.317 171.328 170.635 158.274Z" fill="#C5CBEB"/>
<path d="M170.635 158.274C166.861 174.016 150.511 186.257 132.882 187.08C140.319 181.441 145.958 171.472 146.347 161.141C146.37 160.558 146.521 159.988 146.79 159.47C147.06 158.952 147.441 158.5 147.907 158.145C148.373 157.79 148.911 157.541 149.485 157.416C150.059 157.291 150.653 157.292 151.226 157.421C158.334 159.058 165.271 160.347 170.635 158.274Z" fill="#D8DCF5"/>
<path d="M196.429 105.155C197.129 100.878 194.201 96.8476 189.89 96.1533C185.58 95.459 181.518 98.3636 180.818 102.641C180.119 106.918 183.046 110.949 187.357 111.643C191.667 112.337 195.729 109.433 196.429 105.155Z" fill="#C4DBFB"/>
<path d="M29.2342 29.4833C29.7872 27.1586 28.3362 24.8293 25.9934 24.2806C23.6506 23.7319 21.3031 25.1717 20.7502 27.4964C20.1972 29.821 21.6482 32.1504 23.991 32.699C26.3338 33.2477 28.6813 31.808 29.2342 29.4833Z" fill="#C4DBFB"/>
<path d="M19.2537 54.3087C23.6209 54.3087 27.1611 50.7958 27.1611 46.4625C27.1611 42.1291 23.6209 38.6162 19.2537 38.6162C14.8866 38.6162 11.3463 42.1291 11.3463 46.4625C11.3463 50.7958 14.8866 54.3087 19.2537 54.3087Z" fill="#C4DBFB"/>
<path d="M24.0822 34.6286C26.4893 34.6286 28.4407 32.6923 28.4407 30.3037C28.4407 27.9152 26.4893 25.9789 24.0822 25.9789C21.675 25.9789 19.7236 27.9152 19.7236 30.3037C19.7236 32.6923 21.675 34.6286 24.0822 34.6286Z" fill="#C4DBFB"/>
<path d="M25.9066 161.046C28.3138 161.046 30.2652 159.11 30.2652 156.722C30.2652 154.333 28.3138 152.397 25.9066 152.397C23.4994 152.397 21.548 154.333 21.548 156.722C21.548 159.11 23.4994 161.046 25.9066 161.046Z" fill="#C4DBFB"/>
<path d="M199.873 86.8727C200.426 84.548 198.975 82.2187 196.632 81.67C194.289 81.1213 191.942 82.5611 191.389 84.8857C190.836 87.2104 192.287 89.5398 194.63 90.0884C196.973 90.6371 199.32 89.1974 199.873 86.8727Z" fill="#C4DBFB"/>
<path d="M21.0082 132.851L22.6526 131.219C22.8231 131.04 22.9164 130.801 22.9128 130.555C22.9092 130.309 22.8089 130.073 22.6333 129.899C22.4576 129.725 22.2205 129.625 21.9721 129.622C21.7238 129.618 21.4838 129.711 21.3031 129.88L19.6586 131.511L18.0142 129.88C17.8352 129.701 17.5922 129.601 17.3386 129.601C17.0851 129.6 16.8417 129.7 16.6621 129.877C16.4825 130.055 16.3813 130.296 16.3808 130.547C16.3804 130.799 16.4806 131.041 16.6596 131.219L18.3041 132.851L16.6646 134.482C16.5754 134.57 16.5047 134.674 16.4564 134.789C16.408 134.904 16.3832 135.027 16.3832 135.152C16.3832 135.276 16.408 135.4 16.4564 135.515C16.5047 135.629 16.5754 135.734 16.6646 135.821C16.8436 135.999 17.0863 136.099 17.3394 136.099C17.5924 136.099 17.8351 135.999 18.0142 135.821L19.6586 134.195L21.2981 135.821C21.3873 135.91 21.4933 135.98 21.61 136.028C21.7266 136.075 21.8517 136.1 21.9779 136.099C22.1034 136.1 22.2278 136.076 22.3437 136.028C22.4597 135.981 22.5647 135.91 22.6526 135.821C22.7418 135.734 22.8126 135.629 22.8609 135.515C22.9092 135.4 22.9341 135.276 22.9341 135.152C22.9341 135.027 22.9092 134.904 22.8609 134.789C22.8126 134.674 22.7418 134.57 22.6526 134.482L21.0082 132.851Z" fill="#3A81F3"/>
<path d="M190.813 122.961L192.457 121.329C192.636 121.151 192.737 120.909 192.736 120.658C192.736 120.406 192.635 120.165 192.455 119.988C192.275 119.81 192.032 119.71 191.778 119.711C191.525 119.711 191.282 119.812 191.103 119.99L189.458 121.622L187.814 119.99C187.633 119.821 187.393 119.728 187.145 119.732C186.897 119.736 186.659 119.835 186.484 120.009C186.308 120.184 186.208 120.419 186.204 120.665C186.201 120.912 186.294 121.15 186.464 121.329L188.109 122.961L186.464 124.593C186.375 124.68 186.304 124.785 186.256 124.899C186.208 125.014 186.183 125.138 186.183 125.262C186.183 125.387 186.208 125.51 186.256 125.625C186.304 125.74 186.375 125.844 186.464 125.932C186.552 126.021 186.657 126.091 186.773 126.139C186.889 126.186 187.014 126.211 187.139 126.209C187.265 126.21 187.39 126.186 187.507 126.138C187.624 126.09 187.73 126.02 187.819 125.932L189.458 124.305L191.103 125.932C191.282 126.109 191.525 126.209 191.778 126.209C192.031 126.209 192.273 126.109 192.452 125.932C192.542 125.844 192.612 125.74 192.661 125.625C192.709 125.51 192.734 125.387 192.734 125.262C192.734 125.138 192.709 125.014 192.661 124.899C192.612 124.785 192.542 124.68 192.452 124.593L190.813 122.961Z" fill="#3A81F3"/>
<path d="M155.844 5.86736L157.569 4.31993C157.737 4.14603 157.832 3.91549 157.835 3.67473C157.839 3.43396 157.75 3.20084 157.587 3.0223C157.424 2.84376 157.199 2.73305 156.958 2.71247C156.716 2.69189 156.475 2.76296 156.284 2.91137L154.56 4.46376L153 2.75266C152.916 2.66017 152.815 2.58501 152.701 2.53147C152.588 2.47793 152.465 2.44705 152.34 2.4406C152.215 2.43416 152.089 2.45226 151.971 2.49389C151.853 2.53552 151.744 2.59986 151.651 2.68323C151.557 2.76659 151.482 2.86736 151.428 2.97978C151.374 3.0922 151.343 3.21406 151.336 3.33841C151.33 3.46275 151.348 3.58715 151.39 3.7045C151.432 3.82186 151.497 3.92986 151.581 4.02235L153.14 5.7384L151.421 7.28087C151.327 7.36381 151.251 7.46442 151.196 7.57686C151.142 7.68931 151.11 7.81136 151.104 7.93592C151.097 8.06049 151.116 8.1851 151.158 8.30253C151.201 8.41995 151.266 8.52786 151.351 8.61999C151.434 8.71317 151.535 8.78883 151.649 8.8425C151.762 8.89617 151.885 8.92675 152.011 8.93245C152.136 8.93923 152.262 8.92124 152.38 8.87953C152.498 8.83781 152.607 8.7732 152.7 8.68943L154.425 7.142L155.979 8.8531C156.153 9.0373 156.391 9.14903 156.644 9.16556C156.833 9.1734 157.019 9.12588 157.181 9.02893C157.342 8.93198 157.472 8.78991 157.552 8.62051C157.633 8.4511 157.661 8.26188 157.634 8.07653C157.607 7.89118 157.525 7.71792 157.399 7.57845L155.844 5.86736Z" fill="#3A81F3"/>
<path d="M24.1322 79.8513L25.7766 78.2195C25.9556 78.0413 26.0559 77.7998 26.0554 77.5482C26.0549 77.2966 25.9538 77.0555 25.7741 76.8779C25.5945 76.7004 25.3511 76.6009 25.0976 76.6013C24.844 76.6018 24.601 76.7022 24.4221 76.8804L22.7776 78.5122L21.1331 76.8755C20.9525 76.7063 20.7125 76.6137 20.4641 76.6173C20.2158 76.6209 19.9786 76.7204 19.803 76.8947C19.6273 77.069 19.5271 77.3043 19.5234 77.5507C19.5198 77.7972 19.6131 78.0353 19.7836 78.2146L21.428 79.8463L19.7836 81.4781C19.6059 81.6563 19.5063 81.8969 19.5063 82.1476C19.5063 82.3983 19.6059 82.6389 19.7836 82.8172C19.9634 82.995 20.207 83.0948 20.4609 83.0948C20.7147 83.0948 20.9583 82.995 21.1381 82.8172L22.7776 81.1904L24.4221 82.8172C24.6027 82.9863 24.8427 83.0789 25.0911 83.0753C25.3394 83.0717 25.5766 82.9722 25.7522 82.7979C25.9279 82.6237 26.0281 82.3883 26.0318 82.1419C26.0354 81.8955 25.9421 81.6573 25.7716 81.4781L24.1322 79.8513Z" fill="#3A81F3"/>
<path d="M6.22298 124.722C6.30635 124.855 6.36172 125.004 6.38576 125.159C6.40981 125.314 6.40205 125.472 6.36293 125.624C6.31352 125.827 6.21068 126.014 6.06491 126.165C5.91913 126.315 5.73565 126.425 5.5332 126.482L1.5345 127.648C1.33265 127.706 1.11899 127.71 0.914917 127.66C0.71084 127.611 0.523502 127.509 0.371659 127.365C0.219817 127.22 0.108798 127.039 0.0497119 126.839C-0.00937384 126.639 -0.0144551 126.427 0.0349843 126.224L1.03466 122.187C1.08447 121.984 1.18761 121.796 1.33365 121.645C1.47968 121.494 1.66343 121.383 1.86632 121.325C2.06921 121.266 2.28403 121.262 2.48907 121.313C2.69411 121.363 2.88209 121.466 3.03401 121.612L6.05803 124.484C6.12304 124.556 6.17848 124.636 6.22298 124.722ZM0.964683 126.636C0.975767 126.654 0.989212 126.671 1.00467 126.686C1.03591 126.717 1.07536 126.739 1.11862 126.75C1.16187 126.76 1.20722 126.759 1.24959 126.745L5.24829 125.585C5.29145 125.572 5.33056 125.549 5.36166 125.517C5.39276 125.485 5.41475 125.445 5.42541 125.402C5.43606 125.358 5.435 125.313 5.42233 125.27C5.40966 125.227 5.38583 125.189 5.35326 125.158L2.32924 122.291C2.29773 122.26 2.25838 122.238 2.21528 122.227C2.17217 122.216 2.12687 122.216 2.08406 122.228C2.04125 122.241 2.00249 122.264 1.97178 122.296C1.94107 122.328 1.91952 122.367 1.90938 122.41L0.9097 126.443C0.906696 126.478 0.911879 126.514 0.924862 126.548C0.937846 126.581 0.958298 126.612 0.98468 126.636H0.964683Z" fill="#F9C067"/>
<path d="M62.0348 5.45567C62.1181 5.59 62.1734 5.73953 62.1974 5.89542C62.2214 6.05131 62.2138 6.2104 62.1748 6.36329C62.1273 6.56645 62.0257 6.75322 61.8806 6.90414C61.7355 7.05507 61.5523 7.1646 61.3501 7.22132L57.3514 8.38189C57.1495 8.43987 56.9359 8.44422 56.7318 8.39451C56.5277 8.3448 56.3404 8.24276 56.1885 8.09863C56.0367 7.95449 55.9257 7.7733 55.8666 7.5732C55.8075 7.3731 55.8024 7.16111 55.8519 6.95845L56.8515 2.92622C56.9016 2.72288 57.0045 2.53614 57.1502 2.38469C57.2958 2.23324 57.4789 2.12239 57.6813 2.06323C57.8832 2.00329 58.0976 1.99789 58.3023 2.04759C58.507 2.09728 58.6946 2.20027 58.8459 2.34593L61.8449 5.2176C61.9164 5.29016 61.9801 5.36995 62.0348 5.45567ZM56.7766 7.38995C56.7876 7.411 56.8029 7.42956 56.8215 7.4445C56.8534 7.47508 56.8928 7.4967 56.9359 7.50716C56.9789 7.51762 57.024 7.51654 57.0665 7.50402L61.0652 6.33849C61.1083 6.327 61.1476 6.30424 61.1789 6.27258C61.2102 6.24091 61.2323 6.2015 61.243 6.15845C61.2538 6.1154 61.2527 6.07028 61.2398 6.0278C61.227 5.98532 61.2029 5.94703 61.1701 5.91692L58.1461 3.04525C58.113 3.0151 58.0726 2.99381 58.0289 2.9834C57.9852 2.97299 57.9395 2.97379 57.8962 2.98573C57.8534 2.99843 57.8147 3.02206 57.784 3.05427C57.7533 3.08647 57.7316 3.12612 57.7212 3.16924L56.7216 7.20148C56.717 7.23496 56.7196 7.26901 56.729 7.30147C56.7385 7.33392 56.7547 7.36405 56.7766 7.38995Z" fill="#F9C067"/>
<path d="M190.608 168.456C190.468 168.574 190.302 168.658 190.123 168.702C189.945 168.746 189.758 168.749 189.579 168.71C189.399 168.671 189.231 168.592 189.087 168.478C188.943 168.365 188.827 168.22 188.749 168.055L186.969 164.295C186.88 164.106 186.842 163.897 186.86 163.69C186.878 163.482 186.951 163.282 187.071 163.111C187.19 162.94 187.354 162.803 187.544 162.714C187.734 162.625 187.944 162.587 188.154 162.604L192.328 162.956C192.538 162.973 192.739 163.045 192.912 163.164C193.085 163.283 193.224 163.446 193.313 163.635C193.402 163.824 193.44 164.034 193.421 164.242C193.402 164.45 193.329 164.65 193.207 164.821L190.818 168.228C190.76 168.314 190.689 168.391 190.608 168.456ZM187.889 163.596L187.844 163.645C187.822 163.684 187.81 163.727 187.81 163.772C187.81 163.816 187.822 163.86 187.844 163.898L189.623 167.658C189.642 167.698 189.672 167.733 189.708 167.758C189.745 167.784 189.789 167.799 189.833 167.802C189.877 167.806 189.922 167.798 189.961 167.778C190.001 167.759 190.034 167.729 190.058 167.693L192.452 164.285C192.475 164.248 192.488 164.205 192.488 164.161C192.488 164.117 192.475 164.075 192.452 164.037C192.435 163.997 192.407 163.962 192.37 163.937C192.334 163.911 192.292 163.896 192.248 163.893L188.074 163.541C188.041 163.538 188.008 163.541 187.976 163.55C187.944 163.559 187.915 163.575 187.889 163.596Z" fill="#F9C067"/>
<path d="M190.468 63.0726C190.422 63.2232 190.346 63.3629 190.243 63.4832C190.141 63.6034 190.015 63.7017 189.873 63.7719C189.687 63.8675 189.478 63.9124 189.268 63.902C189.058 63.8915 188.855 63.8261 188.679 63.7124L185.18 61.4607C185.003 61.3472 184.86 61.1895 184.764 61.0036C184.668 60.8177 184.623 60.61 184.634 60.4015C184.645 60.193 184.71 59.9909 184.825 59.8155C184.939 59.6401 185.098 59.4977 185.285 59.4024L189.009 57.5028C189.196 57.4076 189.406 57.3631 189.616 57.3737C189.826 57.3844 190.03 57.4498 190.207 57.5634C190.384 57.677 190.527 57.8348 190.623 58.0209C190.719 58.2071 190.764 58.415 190.753 58.6237L190.543 62.77C190.533 62.874 190.508 62.976 190.468 63.0726ZM185.57 60.3795C185.568 60.4026 185.568 60.4258 185.57 60.4489C185.568 60.4933 185.578 60.5373 185.6 60.5764C185.621 60.6156 185.652 60.6486 185.69 60.6721L189.189 62.9238C189.227 62.946 189.271 62.9577 189.316 62.9577C189.361 62.9577 189.405 62.946 189.443 62.9238C189.483 62.9047 189.517 62.8752 189.54 62.8384C189.564 62.8017 189.577 62.7592 189.578 62.7155L189.788 58.5642C189.79 58.5204 189.78 58.4769 189.76 58.4378C189.74 58.3988 189.71 58.3655 189.673 58.341C189.634 58.3198 189.59 58.3086 189.546 58.3086C189.501 58.3086 189.458 58.3198 189.418 58.341L185.695 60.2356C185.636 60.2657 185.591 60.3172 185.57 60.3795Z" fill="#F9C067"/>
<line x1="54" y1="63" x2="131" y2="63" stroke="#E5E5E5" stroke-width="6" stroke-linecap="round"/>
<line x1="53.9661" y1="79.7646" x2="118.995" y2="79.0339" stroke="#E5E5E5" stroke-width="6" stroke-linecap="round"/>
<line x1="54" y1="95.7981" x2="100" y2="95.7981" stroke="#E5E5E5" stroke-width="6" stroke-linecap="round"/>
<path d="M153.268 73C152.564 73.0007 151.889 73.2787 151.391 73.7729C150.894 74.2672 150.614 74.9372 150.614 75.6357V80.2496H155.921V75.6357C155.921 74.9372 155.642 74.2672 155.144 73.7729C154.647 73.2787 153.972 73.0007 153.268 73ZM153.268 76.6262C153.047 76.6267 152.831 76.5623 152.648 76.4411C152.464 76.3199 152.321 76.1474 152.236 75.9454C152.151 75.7434 152.129 75.5209 152.172 75.3062C152.214 75.0916 152.32 74.8943 152.476 74.7393C152.632 74.5844 152.83 74.4788 153.047 74.4359C153.263 74.3931 153.487 74.4148 153.691 74.4984C153.895 74.582 154.069 74.7238 154.191 74.9057C154.314 75.0876 154.379 75.3015 154.379 75.5203C154.38 75.6658 154.352 75.8099 154.296 75.9445C154.241 76.0792 154.159 76.2016 154.056 76.3048C153.953 76.408 153.83 76.49 153.695 76.5461C153.559 76.6021 153.414 76.6312 153.268 76.6315V76.6262Z" fill="#3A81F3"/>
<path d="M189.371 78.717H117.164C115.733 78.717 114.573 79.7262 114.573 80.9743V172.944C114.573 174.192 115.733 175.204 117.164 175.204H189.371C190.799 175.204 191.96 174.192 191.96 172.944V80.9743C191.96 79.7262 190.799 78.717 189.371 78.717Z" fill="#403A7A"/>
<path d="M186.674 82.142H119.861C118.536 82.142 117.464 83.0921 117.464 84.2624V170.643C117.464 171.816 118.546 172.766 119.861 172.766H186.674C187.997 172.766 189.071 171.816 189.071 170.643V84.2624C189.079 83.0921 187.997 82.142 186.674 82.142Z" fill="white"/>
<path d="M170.396 80.0618H136.14C135.846 80.0618 135.565 79.9461 135.357 79.7402C135.15 79.5344 135.033 79.2551 135.033 78.964C135.033 78.6728 135.15 78.3936 135.357 78.1877C135.565 77.9819 135.846 77.8662 136.14 77.8662H170.396C170.688 77.8676 170.968 77.9839 171.174 78.1896C171.381 78.3954 171.497 78.6738 171.497 78.964C171.497 79.2542 171.381 79.5326 171.174 79.7383C170.968 79.9441 170.688 80.0604 170.396 80.0618Z" fill="#3A81F3"/>
<path d="M167.22 79.0687V83.1323C167.219 83.2258 167.181 83.3152 167.115 83.3811C167.048 83.447 166.957 83.4839 166.863 83.4839H155.516C155.436 83.4844 155.359 83.511 155.296 83.5596C155.234 83.6081 155.189 83.6759 155.169 83.7523C155.063 84.1725 154.818 84.5453 154.473 84.8116C154.129 85.0779 153.704 85.2225 153.268 85.2225C152.831 85.2225 152.407 85.0779 152.062 84.8116C151.718 84.5453 151.473 84.1725 151.366 83.7523C151.346 83.6757 151.301 83.6079 151.238 83.5593C151.174 83.5108 151.097 83.4843 151.017 83.4839H139.656C139.563 83.4818 139.475 83.444 139.41 83.3783C139.345 83.3127 139.308 83.2244 139.307 83.1323V79.0687C139.307 78.9752 139.269 78.8857 139.202 78.8199C139.135 78.754 139.044 78.717 138.95 78.717C138.856 78.717 138.766 78.7541 138.7 78.82C138.633 78.886 138.596 78.9754 138.596 79.0687V83.7845C138.594 83.8321 138.603 83.8794 138.62 83.9237C138.638 83.9679 138.664 84.0082 138.698 84.0421C138.731 84.076 138.771 84.1027 138.816 84.1207C138.86 84.1387 138.908 84.1476 138.956 84.1469H150.53C150.603 84.1477 150.673 84.1701 150.733 84.2113C150.792 84.2525 150.837 84.3105 150.863 84.3777C150.891 84.4527 150.922 84.5262 150.958 84.5978C151.171 85.0243 151.5 85.3831 151.908 85.634C152.316 85.8849 152.786 86.0178 153.266 86.0178C153.746 86.0178 154.217 85.8849 154.624 85.634C155.032 85.3831 155.362 85.0243 155.575 84.5978C155.61 84.5253 155.643 84.4529 155.672 84.3777C155.697 84.3101 155.743 84.2516 155.802 84.2103C155.862 84.1691 155.933 84.1469 156.005 84.1469H167.577C167.671 84.1469 167.762 84.1099 167.829 84.0441C167.895 83.9782 167.933 83.8888 167.934 83.7953V79.0687C167.933 78.9752 167.895 78.8857 167.829 78.8199C167.762 78.754 167.671 78.717 167.577 78.717C167.483 78.717 167.392 78.754 167.326 78.8199C167.259 78.8857 167.221 78.9752 167.22 79.0687Z" fill="#3A81F3"/>
<line x1="125.5" y1="113.5" x2="177.509" y2="113.5" stroke="#E5E5E5" stroke-width="3" stroke-linecap="round"/>
<line x1="125.5" y1="121.5" x2="177.5" y2="121.5" stroke="#E5E5E5" stroke-width="3" stroke-linecap="round"/>
<line x1="125.5" y1="129.5" x2="168.5" y2="129.5" stroke="#E5E5E5" stroke-width="3" stroke-linecap="round"/>
</g>
<defs>
<clipPath id="clip0_61_6591">
<rect width="200" height="192" fill="white"/>
</clipPath>
</defs>
</svg>
