<svg width="223" height="194" viewBox="0 0 223 194" fill="none" xmlns="http://www.w3.org/2000/svg">
<g style="mix-blend-mode:luminosity" clip-path="url(#clip0_415_9793)">
<path d="M42.1978 73.7572C39.6758 55.8566 26.1732 50.0133 29.8906 38.5323C36.6444 17.665 87.5629 17.5397 95.8702 17.4946C122.835 17.4144 166.576 17.2891 184.507 48.3145C192.769 62.6119 180.704 71.1062 185.985 107.514C189.117 129.123 193.627 131.734 191.402 141.27C184.679 170.056 135.415 181.256 128.353 182.865C75.7752 194.817 9.31644 178.154 4.27252 151.063C-0.221621 126.828 47.2014 109.248 42.1978 73.7572Z" fill="#E3EEFF"/>
<path d="M18.0727 128.06C15.1472 121.736 0.242391 89.4729 14.1334 69.8433C22.2036 58.4475 32.3419 62.0206 52.0485 49.2967C78.8772 31.9724 75.1396 15.6153 94.4175 5.75798C120.061 -7.3718 163.091 3.01677 175.665 26.3046C187.821 48.8207 162.889 67.4479 174.656 100.668C183.529 125.665 202.055 127.559 201.742 143.721C201.283 167.029 162.218 190.452 126.895 193.624C78.7763 197.949 35.106 164.904 18.0727 128.06Z" fill="#C4DBFB"/>
<path d="M198.219 106.251C198.925 101.929 195.971 97.8566 191.621 97.1551C187.271 96.4535 183.172 99.3884 182.466 103.71C181.76 108.032 184.714 112.105 189.064 112.806C193.414 113.508 197.513 110.573 198.219 106.251Z" fill="#C4DBFB"/>
<path d="M29.5004 29.7905C30.0584 27.4416 28.5942 25.088 26.2301 24.5336C23.8659 23.9792 21.497 25.4339 20.939 27.7828C20.3811 30.1317 21.8452 32.4853 24.2094 33.0397C26.5736 33.5941 28.9424 32.1394 29.5004 29.7905Z" fill="#C4DBFB"/>
<path d="M19.4292 54.8743C23.8361 54.8743 27.4087 51.3248 27.4087 46.9463C27.4087 42.5678 23.8361 39.0183 19.4292 39.0183C15.0222 39.0183 11.4497 42.5678 11.4497 46.9463C11.4497 51.3248 15.0222 54.8743 19.4292 54.8743Z" fill="#C4DBFB"/>
<path d="M24.3016 34.9893C26.7307 34.9893 28.6999 33.0329 28.6999 30.6194C28.6999 28.206 26.7307 26.2495 24.3016 26.2495C21.8725 26.2495 19.9033 28.206 19.9033 30.6194C19.9033 33.0329 21.8725 34.9893 24.3016 34.9893Z" fill="#C4DBFB"/>
<path d="M26.1424 162.724C28.5716 162.724 30.5407 160.767 30.5407 158.354C30.5407 155.941 28.5716 153.984 26.1424 153.984C23.7133 153.984 21.7441 155.941 21.7441 158.354C21.7441 160.767 23.7133 162.724 26.1424 162.724Z" fill="#C4DBFB"/>
<path d="M201.694 87.7775C202.252 85.4286 200.788 83.075 198.424 82.5206C196.06 81.9663 193.691 83.421 193.133 85.7699C192.575 88.1188 194.039 90.4724 196.403 91.0268C198.767 91.5812 201.136 90.1264 201.694 87.7775Z" fill="#C4DBFB"/>
<path d="M21.1993 134.234L22.8588 132.586C23.0308 132.404 23.1249 132.164 23.1213 131.915C23.1176 131.666 23.0164 131.428 22.8392 131.252C22.662 131.076 22.4226 130.975 22.172 130.972C21.9214 130.968 21.6792 131.062 21.4969 131.232L19.8375 132.881L18.178 131.232C17.9974 131.052 17.7522 130.951 17.4963 130.95C17.2405 130.95 16.9949 131.051 16.8136 131.23C16.6324 131.409 16.5303 131.653 16.5298 131.907C16.5293 132.161 16.6305 132.405 16.8111 132.586L18.4705 134.234L16.8161 135.883C16.7262 135.972 16.6547 136.077 16.606 136.193C16.5573 136.309 16.5322 136.434 16.5322 136.56C16.5322 136.685 16.5573 136.81 16.606 136.926C16.6547 137.042 16.7262 137.148 16.8161 137.236C16.9968 137.415 17.2417 137.516 17.4971 137.516C17.7524 137.516 17.9974 137.415 18.178 137.236L19.8375 135.592L21.4919 137.236C21.5819 137.326 21.6888 137.396 21.8066 137.445C21.9243 137.493 22.0505 137.517 22.1778 137.517C22.3045 137.518 22.43 137.493 22.547 137.445C22.664 137.397 22.77 137.326 22.8588 137.236C22.9487 137.148 23.0202 137.042 23.0689 136.926C23.1177 136.81 23.1428 136.685 23.1428 136.56C23.1428 136.434 23.1177 136.309 23.0689 136.193C23.0202 136.077 22.9487 135.972 22.8588 135.883L21.1993 134.234Z" fill="#3A81F3"/>
<path d="M192.552 124.242L194.212 122.593C194.392 122.413 194.493 122.169 194.493 121.915C194.492 121.661 194.39 121.417 194.209 121.237C194.028 121.058 193.782 120.958 193.526 120.958C193.27 120.958 193.025 121.06 192.845 121.24L191.185 122.889L189.526 121.24C189.343 121.069 189.101 120.976 188.851 120.979C188.6 120.983 188.361 121.083 188.183 121.259C188.006 121.436 187.905 121.673 187.901 121.922C187.898 122.171 187.992 122.412 188.164 122.593L189.823 124.242L188.164 125.891C188.074 125.979 188.002 126.084 187.954 126.201C187.905 126.317 187.88 126.441 187.88 126.567C187.88 126.693 187.905 126.817 187.954 126.934C188.002 127.05 188.074 127.155 188.164 127.244C188.253 127.333 188.359 127.405 188.476 127.453C188.593 127.501 188.718 127.525 188.845 127.524C188.972 127.525 189.098 127.5 189.216 127.452C189.334 127.404 189.441 127.333 189.531 127.244L191.185 125.6L192.845 127.244C193.025 127.423 193.27 127.524 193.526 127.524C193.781 127.524 194.026 127.423 194.206 127.244C194.296 127.155 194.368 127.05 194.417 126.934C194.465 126.817 194.49 126.693 194.49 126.567C194.49 126.441 194.465 126.317 194.417 126.201C194.368 126.084 194.296 125.979 194.206 125.891L192.552 124.242Z" fill="#3A81F3"/>
<path d="M157.265 5.92833L159.005 4.36479C159.175 4.18908 159.271 3.95614 159.274 3.71286C159.278 3.46959 159.188 3.23404 159.024 3.05364C158.859 2.87324 158.632 2.76138 158.389 2.74059C158.145 2.71979 157.902 2.7916 157.709 2.94156L155.969 4.51012L154.395 2.78119C154.31 2.68774 154.208 2.6118 154.093 2.5577C153.979 2.5036 153.855 2.4724 153.729 2.46589C153.602 2.45937 153.476 2.47767 153.356 2.51973C153.237 2.56179 153.127 2.6268 153.033 2.71103C152.939 2.79527 152.863 2.89709 152.808 3.01068C152.754 3.12426 152.722 3.2474 152.716 3.37304C152.709 3.49868 152.728 3.62438 152.77 3.74295C152.812 3.86153 152.878 3.97065 152.963 4.0641L154.536 5.79804L152.801 7.35657C152.706 7.44037 152.629 7.54203 152.574 7.65565C152.519 7.76927 152.488 7.89258 152.481 8.01845C152.475 8.14431 152.493 8.27022 152.536 8.38887C152.579 8.50752 152.645 8.61655 152.73 8.70964C152.815 8.80379 152.917 8.88024 153.031 8.93447C153.146 8.98869 153.27 9.0196 153.396 9.02536C153.523 9.03221 153.65 9.01403 153.769 8.97188C153.889 8.92973 153.998 8.86444 154.092 8.7798L155.833 7.21625L157.401 8.94517C157.576 9.1313 157.816 9.24419 158.072 9.26089C158.262 9.26882 158.451 9.2208 158.614 9.12284C158.777 9.02488 158.907 8.88133 158.988 8.71016C159.07 8.53899 159.098 8.3478 159.071 8.16052C159.043 7.97324 158.961 7.79818 158.834 7.65725L157.265 5.92833Z" fill="#3A81F3"/>
<path d="M24.3521 80.683L26.0116 79.0342C26.1922 78.8542 26.2933 78.6102 26.2929 78.3559C26.2924 78.1017 26.1903 77.8581 26.009 77.6787C25.8278 77.4992 25.5822 77.3987 25.3263 77.3992C25.0705 77.3996 24.8253 77.5011 24.6447 77.6812L22.9852 79.3299L21.3258 77.6762C21.1434 77.5053 20.9013 77.4117 20.6506 77.4154C20.4 77.419 20.1607 77.5195 19.9835 77.6956C19.8062 77.8717 19.7051 78.1095 19.7014 78.3585C19.6977 78.6075 19.7919 78.8481 19.9639 79.0292L21.6233 80.678L19.9639 82.3267C19.7846 82.5068 19.6841 82.7499 19.6841 83.0032C19.6841 83.2566 19.7846 83.4997 19.9639 83.6798C20.1454 83.8594 20.3912 83.9603 20.6474 83.9603C20.9035 83.9603 21.1493 83.8594 21.3308 83.6798L22.9852 82.036L24.6447 83.6798C24.827 83.8507 25.0692 83.9442 25.3198 83.9406C25.5704 83.937 25.8097 83.8364 25.9869 83.6603C26.1642 83.4842 26.2654 83.2465 26.269 82.9975C26.2727 82.7485 26.1785 82.5079 26.0065 82.3267L24.3521 80.683Z" fill="#3A81F3"/>
<path d="M6.27983 126.021C6.36396 126.156 6.41983 126.306 6.4441 126.463C6.46837 126.619 6.46053 126.779 6.42105 126.933C6.3712 127.138 6.26742 127.327 6.12032 127.479C5.97322 127.631 5.78806 127.742 5.58376 127.8L1.54862 128.978C1.34493 129.036 1.12933 129.041 0.923395 128.99C0.717458 128.94 0.528413 128.837 0.375187 128.691C0.22196 128.546 0.10993 128.363 0.0503056 128.161C-0.00931863 127.958 -0.0144462 127.744 0.0354438 127.539L1.04423 123.46C1.0945 123.254 1.19858 123.065 1.34594 122.912C1.49331 122.759 1.67873 122.648 1.88347 122.589C2.0882 122.53 2.30499 122.525 2.5119 122.576C2.71881 122.627 2.9085 122.732 3.0618 122.879L6.11337 125.78C6.17898 125.853 6.23492 125.934 6.27983 126.021ZM0.973614 127.955C0.9848 127.974 0.998367 127.991 1.01397 128.005C1.04549 128.037 1.0853 128.06 1.12895 128.07C1.1726 128.081 1.21837 128.079 1.26112 128.066L5.29626 126.893C5.33981 126.88 5.37928 126.857 5.41066 126.824C5.44205 126.792 5.46424 126.752 5.47499 126.708C5.48574 126.664 5.48467 126.618 5.47189 126.575C5.4591 126.532 5.43505 126.493 5.40218 126.462L2.35061 123.565C2.31881 123.534 2.2791 123.511 2.2356 123.5C2.19211 123.489 2.14639 123.49 2.10319 123.502C2.06 123.514 2.02088 123.538 1.98989 123.57C1.9589 123.602 1.93715 123.642 1.92692 123.686L0.918131 127.76C0.915099 127.796 0.920329 127.832 0.933431 127.866C0.946533 127.9 0.967172 127.931 0.993794 127.955H0.973614Z" fill="#F9C067"/>
<path d="M62.6 5.51251C62.684 5.64825 62.7398 5.79934 62.764 5.95685C62.7883 6.11436 62.7805 6.27511 62.7412 6.42959C62.6932 6.63486 62.5907 6.82359 62.4443 6.97608C62.298 7.12857 62.1131 7.23925 61.909 7.29656L57.8738 8.46922C57.6701 8.5278 57.4545 8.5322 57.2486 8.48197C57.0427 8.43174 56.8536 8.32864 56.7004 8.183C56.5472 8.03736 56.4351 7.85429 56.3755 7.65211C56.3159 7.44992 56.3108 7.23572 56.3606 7.03096L57.3694 2.95672C57.4199 2.75126 57.5238 2.56258 57.6708 2.40955C57.8177 2.25653 58.0025 2.14452 58.2067 2.08474C58.4105 2.02418 58.6268 2.01872 58.8334 2.06893C59.04 2.11914 59.2293 2.22321 59.3819 2.37039L62.4083 5.27197C62.4805 5.34528 62.5447 5.4259 62.6 5.51251ZM57.2938 7.46695C57.3049 7.48821 57.3204 7.50697 57.3392 7.52207C57.3713 7.55296 57.4111 7.57481 57.4545 7.58538C57.498 7.59595 57.5434 7.59485 57.5863 7.58221L61.6215 6.40454C61.665 6.39293 61.7046 6.36993 61.7362 6.33794C61.7678 6.30594 61.7901 6.26612 61.801 6.22262C61.8118 6.17912 61.8107 6.13353 61.7977 6.09061C61.7848 6.04769 61.7605 6.009 61.7274 5.97857L58.6758 3.07699C58.6424 3.04652 58.6017 3.02502 58.5575 3.0145C58.5134 3.00398 58.4673 3.00479 58.4236 3.01685C58.3804 3.02968 58.3414 3.05356 58.3104 3.0861C58.2794 3.11864 58.2576 3.15871 58.2471 3.20227L57.2383 7.27651C57.2337 7.31034 57.2363 7.34475 57.2458 7.37754C57.2554 7.41033 57.2717 7.44078 57.2938 7.46695Z" fill="#F9C067"/>
<path d="M192.345 170.211C192.203 170.33 192.036 170.415 191.856 170.459C191.675 170.504 191.487 170.507 191.306 170.467C191.125 170.428 190.955 170.348 190.81 170.233C190.664 170.118 190.548 169.972 190.469 169.805L188.673 166.006C188.583 165.816 188.545 165.604 188.563 165.394C188.581 165.184 188.654 164.983 188.775 164.81C188.896 164.637 189.061 164.498 189.253 164.408C189.445 164.318 189.657 164.28 189.868 164.298L194.08 164.653C194.292 164.67 194.496 164.743 194.67 164.863C194.845 164.984 194.984 165.148 195.074 165.339C195.165 165.531 195.202 165.742 195.184 165.953C195.165 166.163 195.09 166.365 194.968 166.538L192.557 169.98C192.498 170.067 192.427 170.145 192.345 170.211ZM189.601 165.3L189.556 165.35C189.533 165.389 189.521 165.433 189.521 165.478C189.521 165.523 189.533 165.567 189.556 165.605L191.351 169.404C191.37 169.445 191.4 169.48 191.437 169.506C191.474 169.531 191.518 169.546 191.563 169.549C191.607 169.554 191.652 169.545 191.692 169.526C191.732 169.507 191.766 169.477 191.79 169.439L194.206 165.996C194.229 165.959 194.242 165.915 194.242 165.871C194.242 165.827 194.229 165.784 194.206 165.746C194.188 165.705 194.16 165.67 194.123 165.644C194.087 165.618 194.044 165.603 193.999 165.6L189.788 165.245C189.754 165.241 189.721 165.244 189.689 165.254C189.657 165.263 189.627 165.279 189.601 165.3Z" fill="#F9C067"/>
<path d="M192.204 63.7295C192.157 63.8817 192.08 64.0228 191.977 64.1443C191.874 64.2658 191.747 64.3651 191.604 64.4361C191.415 64.5327 191.204 64.5781 190.993 64.5675C190.781 64.5569 190.576 64.4909 190.398 64.376L186.867 62.1008C186.689 61.9861 186.544 61.8268 186.448 61.639C186.351 61.4511 186.306 61.2413 186.316 61.0306C186.327 60.8199 186.394 60.6157 186.509 60.4385C186.624 60.2613 186.784 60.1173 186.973 60.0211L190.731 58.1017C190.92 58.0055 191.132 57.9605 191.344 57.9713C191.556 57.982 191.762 58.0481 191.94 58.1629C192.119 58.2777 192.264 58.4372 192.36 58.6252C192.457 58.8133 192.502 59.0234 192.491 59.2343L192.279 63.4238C192.27 63.5289 192.244 63.6319 192.204 63.7295ZM187.261 61.0083C187.259 61.0317 187.259 61.0551 187.261 61.0785C187.259 61.1233 187.27 61.1678 187.291 61.2074C187.312 61.2469 187.343 61.2803 187.382 61.304L190.913 63.5792C190.952 63.6016 190.996 63.6134 191.041 63.6134C191.086 63.6134 191.131 63.6016 191.17 63.5792C191.21 63.5599 191.244 63.53 191.268 63.4929C191.292 63.4558 191.305 63.4128 191.306 63.3687L191.518 59.1742C191.519 59.1299 191.51 59.0859 191.489 59.0465C191.469 59.007 191.439 58.9733 191.402 58.9487C191.362 58.9272 191.318 58.9159 191.273 58.9159C191.228 58.9159 191.184 58.9272 191.145 58.9487L187.387 60.863C187.327 60.8933 187.282 60.9455 187.261 61.0083Z" fill="#F9C067"/>
<circle cx="104.432" cy="101.944" r="65.96" fill="#045B62"/>
<mask id="mask0_415_9793" style="mask-type:alpha" maskUnits="userSpaceOnUse" x="38" y="35" width="133" height="133">
<circle cx="104.432" cy="101.944" r="65.96" fill="#C4C4C4"/>
</mask>
<g mask="url(#mask0_415_9793)">
<ellipse cx="104.432" cy="152.073" rx="50.1296" ry="29.0224" fill="#E6EFEF"/>
</g>
<circle cx="104.431" cy="92.0498" r="23.7456" fill="#E6EFEF"/>
<path d="M141.418 77.7804L136.772 76.6879L146.14 40.9726C146.537 40.4201 146.946 39.8473 147.381 39.2336C148.502 37.5778 149.976 35.8066 151.534 33.8791C152.282 32.9027 153.213 31.9623 154.101 30.9625C154.552 30.4691 155.01 29.9689 155.474 29.4551C155.932 28.9415 156.464 28.4664 156.968 27.9584C158.973 25.9334 161.233 23.9359 163.642 21.9954C164.894 21.0609 166.105 20.0737 167.425 19.1846C168.086 18.7468 168.752 18.302 169.419 17.8573C170.08 17.4128 170.753 16.9746 171.461 16.5759C172.864 15.772 174.232 14.922 175.711 14.2237L177.885 13.1403C178.622 12.8013 179.372 12.4955 180.116 12.1764C183.07 10.8871 186.131 9.90388 189.129 9.06965C190.649 8.71239 192.128 8.29574 193.624 8.04635C194.372 7.90825 195.106 7.76376 195.834 7.63953C196.569 7.53526 197.298 7.43785 198.02 7.33388C198.735 7.22337 199.457 7.15293 200.166 7.09619C200.876 7.03276 201.571 6.96294 202.268 6.91322C203.661 6.854 205.006 6.75566 206.321 6.76534C208.941 6.71784 211.406 6.86845 213.656 7.05086C218.158 7.46931 221.046 8.2539 223.549 8.8999C225.552 9.41668 226.495 9.87763 226.495 9.87763C226.495 9.87763 226.274 9.88947 224.19 9.95133C221.65 10.0238 218.036 10.3023 213.837 11.084C211.741 11.4948 209.493 11.9897 207.183 12.694C206.023 13.0093 204.86 13.4387 203.669 13.8286C203.077 14.0435 202.492 14.2784 201.894 14.507C201.296 14.7355 200.705 14.9638 200.114 15.2391C199.524 15.501 198.933 15.7628 198.336 16.0249C197.752 16.3134 197.169 16.6086 196.572 16.8975C195.385 17.4549 194.255 18.1585 193.096 18.7957C190.836 20.1896 188.624 21.6628 186.591 23.3464L185.071 24.5889L183.634 25.9167C182.654 26.7644 181.792 27.7368 180.908 28.6426C180.455 29.0823 180.044 29.568 179.64 30.0536C179.235 30.5324 178.83 31.0046 178.432 31.4766C177.636 32.4206 176.943 33.4427 176.22 34.385C174.851 36.355 173.609 38.2885 172.561 40.2175C172.297 40.6998 172.012 41.1424 171.782 41.6239C171.545 42.1056 171.315 42.5737 171.091 43.0416C170.65 43.9774 170.167 44.8202 169.826 45.7268C169.096 47.4942 168.254 49.9415 167.773 51.4348L179.505 56.5407L141.438 77.7866L141.418 77.7804Z" fill="#C99B36"/>
<path d="M136.772 76.6812L128.637 34.2103L141.495 39.8667C141.891 39.3143 142.3 38.7414 142.735 38.1277C143.857 36.472 145.331 34.7007 146.889 32.7733C147.637 31.7969 148.567 30.8564 149.456 29.8566C149.907 29.3633 150.365 28.8631 150.829 28.3493C151.286 27.8357 151.818 27.3605 152.323 26.8525C154.327 24.8275 156.588 22.8301 158.996 20.8896C160.249 19.9551 161.46 18.9679 162.78 18.0788C163.44 17.6409 164.107 17.1962 164.774 16.7515C165.434 16.3069 166.108 15.862 166.816 15.47C168.219 14.6661 169.587 13.8161 171.066 13.1178L173.24 12.0345C173.976 11.6954 174.727 11.3896 175.47 11.0705C178.424 9.78129 181.486 8.79803 184.484 7.9638C186.004 7.60654 187.483 7.18989 188.979 6.9405C189.727 6.8024 190.461 6.65791 191.189 6.53368C191.924 6.42941 192.653 6.33199 193.374 6.22803C194.089 6.11752 194.812 6.04707 195.521 5.99034C196.23 5.92691 196.926 5.85708 197.622 5.80737C199.015 5.74815 200.361 5.64981 201.675 5.65949C204.296 5.61199 206.76 5.7626 209.011 5.94501C213.513 6.36346 217.157 7.09693 219.666 7.73608C222.175 8.36182 223.548 8.88653 223.548 8.88653C223.548 8.88653 222.084 8.75962 219.544 8.83878C217.005 8.90452 213.391 9.18973 209.191 9.97142C207.095 10.3823 204.847 10.8705 202.537 11.5814C201.378 11.8968 200.214 12.3262 199.023 12.716C198.431 12.931 197.847 13.1659 197.249 13.3944C196.651 13.6229 196.059 13.8513 195.469 14.1265C194.878 14.3884 194.288 14.6503 193.69 14.9123C193.107 15.2008 192.524 15.4961 191.927 15.7849C190.74 16.3423 189.609 17.046 188.451 17.6832C186.19 19.077 183.978 20.5502 181.946 22.2339L180.426 23.4764L178.988 24.8042C178.009 25.6518 177.146 26.6242 176.262 27.53C175.81 27.9697 175.399 28.4555 174.994 28.941C174.59 29.4199 174.185 29.892 173.787 30.364C172.991 31.3081 172.297 32.3302 171.575 33.2724C170.206 35.2425 168.963 37.176 167.915 39.105C167.652 39.5873 167.367 40.0298 167.137 40.5113C166.9 40.993 166.669 41.4611 166.445 41.9291C166.005 42.8648 165.521 43.7077 165.18 44.6143C164.45 46.3816 163.749 47.9404 163.267 49.4338L175.773 54.9375L136.799 76.6739L136.772 76.6812Z" fill="#F7CA41"/>
</g>
<defs>
<clipPath id="clip0_415_9793">
<rect width="223" height="194" fill="white"/>
</clipPath>
</defs>
</svg>
