<svg width="39" height="33" viewBox="0 0 39 33" fill="none" xmlns="http://www.w3.org/2000/svg">
<path d="M19.5 25.2C22.3719 25.2 24.7 22.8719 24.7 20C24.7 17.1282 22.3719 14.8 19.5 14.8C16.6282 14.8 14.3 17.1282 14.3 20C14.3 22.8719 16.6282 25.2 19.5 25.2Z" fill="#045B62"/>
<path d="M14.625 3.75L11.6512 7H6.5C4.7125 7 3.25 8.4625 3.25 10.25V29.75C3.25 31.5375 4.7125 33 6.5 33H32.5C34.2875 33 35.75 31.5375 35.75 29.75V10.25C35.75 8.4625 34.2875 7 32.5 7H27.3487L24.375 3.75H14.625ZM19.5 28.125C15.015 28.125 11.375 24.485 11.375 20C11.375 15.515 15.015 11.875 19.5 11.875C23.985 11.875 27.625 15.515 27.625 20C27.625 24.485 23.985 28.125 19.5 28.125Z" fill="#045B62"/>
</svg>
