<svg width="277" height="206" viewBox="0 0 277 206" fill="none" xmlns="http://www.w3.org/2000/svg">
<g style="mix-blend-mode:luminosity" clip-path="url(#clip0_61_6800)">
<path d="M111.69 68.1973C110.991 50.3194 98.2626 43.2157 103.074 32.2827C111.817 12.4113 162.031 17.3799 170.225 18.1662C196.818 20.7838 239.955 25.0346 254.535 57.3765C261.253 72.2805 248.51 79.4378 250.08 115.814C251.01 137.404 255.195 140.426 252.05 149.594C242.546 177.265 192.857 183.367 185.735 184.244C132.704 190.755 68.8456 167.702 66.5784 140.522C64.568 116.21 113.079 103.643 111.69 68.1973Z" fill="#E3EEFF"/>
<path d="M82.4814 119.254C80.2288 112.734 68.7562 79.4759 84.4119 61.537C93.5066 51.1233 103.145 55.6553 123.845 45.0976C152.026 30.7224 149.975 14.2428 169.965 6.46465C196.559 -3.89907 237.945 10.6329 248.016 34.8205C257.752 58.2063 231.311 74.0542 239.595 107.941C245.845 133.441 263.922 137.159 261.999 153.041C259.219 175.945 218.365 195.102 183.223 194.693C135.35 194.139 95.5951 157.235 82.4814 119.254Z" fill="#C4DBFB"/>
<path d="M181.142 4.59723C179.848 4.46726 178.555 4.85249 177.548 5.66829C176.541 6.48409 175.903 7.66371 175.772 8.94798L174.912 17.4302L184.669 18.4198L185.529 9.93762C185.659 8.65335 185.27 7.36949 184.448 6.36813C183.625 5.36677 182.436 4.72982 181.142 4.59723ZM180.466 11.2636C180.06 11.2234 179.676 11.0648 179.361 10.8078C179.046 10.5507 178.815 10.2069 178.697 9.81967C178.578 9.43248 178.579 9.01938 178.697 8.63266C178.816 8.24594 179.047 7.90299 179.362 7.64722C179.678 7.39146 180.062 7.23437 180.468 7.19585C180.873 7.15734 181.282 7.23912 181.641 7.43084C182 7.62257 182.294 7.91562 182.485 8.2729C182.676 8.63019 182.757 9.03564 182.716 9.43793C182.69 9.70545 182.611 9.9652 182.484 10.2023C182.357 10.4394 182.184 10.6493 181.975 10.8198C181.766 10.9903 181.525 11.1181 181.266 11.196C181.007 11.2738 180.735 11.3001 180.465 11.2735L180.466 11.2636Z" fill="#3A81F3"/>
<path d="M246.449 21.8396L113.703 8.37518C111.073 8.10836 108.751 9.7473 108.518 12.0418L91.3689 181.118C91.1361 183.413 93.0808 185.49 95.7115 185.756L228.457 199.221C231.083 199.487 233.405 197.843 233.637 195.549L250.787 26.4722C251.02 24.1777 249.075 22.106 246.449 21.8396Z" fill="#403A7A"/>
<path d="M240.852 27.6331L118.023 15.1744C115.586 14.9273 113.44 16.4743 113.221 18.6257L97.1138 177.429C96.8951 179.585 98.7071 181.534 101.124 181.779L223.954 194.238C226.385 194.484 228.537 192.938 228.755 190.781L244.863 31.9782C245.096 29.8283 243.284 27.8798 240.852 27.6331Z" fill="white"/>
<path d="M211.313 20.7735L148.337 14.3858C147.798 14.3311 147.302 14.066 146.959 13.6488C146.616 13.2317 146.454 12.6966 146.508 12.1614C146.562 11.6261 146.829 11.1345 147.248 10.7947C147.668 10.4549 148.207 10.2948 148.747 10.3495L211.723 16.7372C212.26 16.7944 212.753 17.0603 213.094 17.477C213.435 17.8937 213.596 18.4271 213.542 18.9607C213.488 19.4942 213.223 19.9844 212.806 20.3242C212.388 20.6639 211.851 20.8255 211.313 20.7735Z" fill="#3A81F3"/>
<path d="M205.661 18.3556L204.903 25.8262C204.884 25.998 204.798 26.1553 204.662 26.2639C204.527 26.3725 204.354 26.4236 204.181 26.4061L183.32 24.2901C183.173 24.2762 183.027 24.3107 182.903 24.3883C182.778 24.4659 182.684 24.5822 182.633 24.719C182.359 25.4715 181.839 26.1111 181.156 26.5365C180.473 26.9619 179.666 27.1486 178.863 27.0672C178.06 26.9858 177.307 26.6408 176.724 26.087C176.14 25.5331 175.759 24.8021 175.641 24.0098C175.618 23.8651 175.548 23.732 175.441 23.631C175.334 23.53 175.197 23.4668 175.05 23.4513L154.164 21.3328C153.994 21.3117 153.838 21.2255 153.731 21.0927C153.623 20.9599 153.572 20.7908 153.588 20.6213L154.346 13.1507C154.362 12.9787 154.309 12.8072 154.198 12.6736C154.087 12.5401 153.928 12.4553 153.755 12.4377C153.582 12.4202 153.409 12.4715 153.275 12.5803C153.14 12.6891 153.055 12.8466 153.038 13.018L152.158 21.6877C152.147 21.7748 152.153 21.8634 152.177 21.948C152.201 22.0327 152.242 22.1116 152.297 22.1802C152.353 22.2487 152.422 22.3054 152.5 22.3468C152.578 22.3882 152.664 22.4134 152.752 22.421L174.031 24.5793C174.164 24.5942 174.29 24.6486 174.391 24.7354C174.492 24.8222 174.565 24.9373 174.6 25.0657C174.636 25.2087 174.681 25.3496 174.733 25.488C175.046 26.3118 175.584 27.0329 176.287 27.5701C176.99 28.1074 177.83 28.4394 178.712 28.5289C179.594 28.6184 180.484 28.4618 181.281 28.0766C182.077 27.6915 182.749 27.0932 183.221 26.349C183.3 26.2223 183.373 26.0951 183.441 25.9625C183.5 25.8428 183.594 25.7438 183.711 25.679C183.828 25.6142 183.963 25.5867 184.096 25.6002L205.37 27.758C205.543 27.7756 205.716 27.7245 205.852 27.6159C205.987 27.5073 206.073 27.3499 206.092 27.1782L206.973 18.4887C206.99 18.3167 206.936 18.1452 206.826 18.0117C206.715 17.8781 206.556 17.7933 206.383 17.7758C206.209 17.7582 206.036 17.8093 205.901 17.9179C205.766 18.0265 205.679 18.1838 205.661 18.3556Z" fill="#3A81F3"/>
<path d="M231.245 166.038L228.94 190.895C228.744 192.824 226.773 194.479 224.458 194.264L190.778 190.888C203.633 185.656 223.642 178.388 231.245 166.038Z" fill="#C5CBEB"/>
<path d="M231.245 166.039C225.902 181.319 208.401 191.848 190.778 190.888C198.747 186.028 205.362 176.679 206.793 166.44C206.874 165.863 207.082 165.31 207.402 164.822C207.722 164.334 208.147 163.923 208.646 163.616C209.146 163.31 209.707 163.117 210.29 163.05C210.873 162.984 211.465 163.045 212.022 163.231C218.928 165.577 225.7 167.56 231.245 166.039Z" fill="#D8DCF5"/>
<path d="M262.268 115.794C263.396 111.609 260.89 107.304 256.671 106.178C252.453 105.052 248.119 107.532 246.991 111.717C245.863 115.902 248.369 120.207 252.587 121.333C256.806 122.459 261.14 119.979 262.268 115.794Z" fill="#C4DBFB"/>
<path d="M267.54 97.9522C268.324 95.6951 267.116 93.2313 264.84 92.449C262.565 91.6667 260.084 92.8622 259.299 95.1192C258.515 97.3762 259.723 99.8401 261.999 100.622C264.274 101.405 266.755 100.209 267.54 97.9522Z" fill="#C4DBFB"/>
<path d="M254.884 132.942L256.685 131.484C256.881 131.325 257.005 131.095 257.03 130.845C257.055 130.594 256.978 130.344 256.818 130.149C256.657 129.955 256.425 129.831 256.172 129.806C255.92 129.781 255.668 129.856 255.472 130.015L253.671 131.473L252.2 129.683C252.037 129.497 251.808 129.381 251.561 129.359C251.313 129.338 251.067 129.413 250.875 129.568C250.682 129.724 250.559 129.948 250.53 130.193C250.502 130.438 250.571 130.684 250.722 130.88L252.194 132.669L250.393 134.126C250.295 134.205 250.214 134.301 250.155 134.411C250.095 134.52 250.058 134.64 250.045 134.764C250.033 134.888 250.045 135.013 250.082 135.132C250.118 135.252 250.178 135.363 250.258 135.459C250.336 135.556 250.434 135.637 250.544 135.696C250.655 135.755 250.776 135.791 250.901 135.803C251.027 135.816 251.153 135.805 251.274 135.769C251.395 135.734 251.508 135.674 251.605 135.595L253.401 134.142L254.873 135.927C255.033 136.121 255.264 136.245 255.516 136.271C255.768 136.296 256.019 136.221 256.215 136.063C256.313 135.985 256.394 135.888 256.453 135.779C256.513 135.669 256.55 135.549 256.563 135.425C256.575 135.301 256.563 135.176 256.527 135.057C256.49 134.938 256.43 134.827 256.35 134.731L254.884 132.942Z" fill="#3A81F3"/>
<path d="M231.91 12.9172L233.782 11.5517C233.966 11.3956 234.084 11.1759 234.112 10.9367C234.14 10.6975 234.075 10.4566 233.931 10.2626C233.787 10.0685 233.575 9.93568 233.336 9.89081C233.098 9.84593 232.851 9.89235 232.646 10.0207L230.774 11.3912L229.395 9.53143C229.32 9.43094 229.227 9.34591 229.12 9.28121C229.012 9.21651 228.893 9.1734 228.769 9.15434C228.645 9.13528 228.519 9.14064 228.397 9.17012C228.275 9.1996 228.16 9.25263 228.059 9.32616C227.958 9.3997 227.872 9.49231 227.807 9.59871C227.742 9.7051 227.699 9.8232 227.68 9.94626C227.661 10.0693 227.667 10.1949 227.697 10.3159C227.726 10.4369 227.78 10.5509 227.854 10.6514L229.233 12.5161L227.366 13.8771C227.265 13.9502 227.178 14.0426 227.113 14.1489C227.047 14.2553 227.004 14.3736 226.985 14.4969C226.966 14.6201 226.972 14.746 227.002 14.8671C227.032 14.9882 227.087 15.1021 227.162 15.2024C227.235 15.3035 227.328 15.389 227.436 15.4538C227.543 15.5186 227.662 15.5615 227.786 15.5798C227.911 15.5992 228.037 15.594 228.159 15.5644C228.281 15.5349 228.396 15.4816 228.497 15.4076L230.369 14.0421L231.743 15.9013C231.897 16.1021 232.122 16.2373 232.373 16.2793C232.56 16.3061 232.75 16.2777 232.921 16.1975C233.091 16.1174 233.234 15.9891 233.331 15.8287C233.429 15.6683 233.476 15.4829 233.467 15.2957C233.459 15.1086 233.395 14.9279 233.284 14.7765L231.91 12.9172Z" fill="#3A81F3"/>
<path d="M250.089 178.184C249.937 178.287 249.764 178.354 249.582 178.38C249.4 178.406 249.214 178.39 249.039 178.333C248.864 178.276 248.705 178.18 248.573 178.053C248.441 177.925 248.341 177.769 248.28 177.597L246.889 173.677C246.819 173.48 246.803 173.269 246.841 173.064C246.88 172.859 246.972 172.667 247.109 172.509C247.246 172.351 247.422 172.231 247.62 172.162C247.818 172.092 248.031 172.076 248.238 172.114L252.355 172.886C252.562 172.924 252.755 173.015 252.916 173.151C253.076 173.287 253.197 173.463 253.267 173.661C253.336 173.858 253.352 174.07 253.313 174.275C253.273 174.481 253.18 174.672 253.042 174.83L250.321 177.979C250.255 178.058 250.176 178.128 250.089 178.184ZM247.874 173.074L247.824 173.119C247.798 173.155 247.782 173.197 247.778 173.241C247.773 173.286 247.781 173.33 247.799 173.371L249.19 177.291C249.204 177.333 249.23 177.37 249.264 177.399C249.299 177.428 249.34 177.447 249.384 177.455C249.428 177.463 249.472 177.46 249.514 177.445C249.555 177.43 249.592 177.403 249.619 177.369L252.345 174.221C252.371 174.186 252.388 174.144 252.392 174.101C252.397 174.057 252.389 174.013 252.37 173.974C252.357 173.932 252.332 173.894 252.298 173.866C252.265 173.837 252.224 173.817 252.181 173.81L248.064 173.039C248.031 173.032 247.998 173.031 247.965 173.038C247.933 173.044 247.902 173.056 247.874 173.074Z" fill="#F9C067"/>
<path d="M260.584 73.3245C260.523 73.4697 260.433 73.601 260.319 73.7103C260.206 73.8196 260.07 73.9047 259.922 73.9602C259.727 74.0366 259.514 74.0601 259.307 74.0285C259.099 73.997 258.903 73.9114 258.74 73.7805L255.486 71.1872C255.322 71.0564 255.195 70.8851 255.118 70.6905C255.042 70.4959 255.018 70.2847 255.05 70.0783C255.081 69.8719 255.167 69.6775 255.298 69.5146C255.43 69.3516 255.602 69.2259 255.798 69.15L259.694 67.6359C259.891 67.5601 260.103 67.537 260.312 67.5688C260.52 67.6006 260.716 67.6862 260.881 67.8171C261.045 67.948 261.172 68.1195 261.249 68.3143C261.325 68.5092 261.349 68.7205 261.317 68.9271L260.69 73.0311C260.669 73.1336 260.634 73.2325 260.584 73.3245ZM255.983 70.1508C255.979 70.1737 255.977 70.1968 255.976 70.2199C255.97 70.2639 255.976 70.3087 255.993 70.3498C256.01 70.3909 256.037 70.4269 256.073 70.4541L259.326 73.0474C259.363 73.0734 259.405 73.0894 259.45 73.0939C259.494 73.0985 259.539 73.0913 259.58 73.0731C259.621 73.0581 259.658 73.0321 259.685 72.9979C259.712 72.9638 259.73 72.9228 259.735 72.8795L260.363 68.7706C260.369 68.7271 260.364 68.6829 260.348 68.642C260.332 68.6011 260.305 68.5649 260.271 68.5369C260.234 68.5118 260.192 68.4963 260.148 68.4918C260.103 68.4873 260.059 68.494 260.018 68.5112L256.122 70.0203C256.06 70.0443 256.01 70.0911 255.983 70.1508Z" fill="#F9C067"/>
<line x1="124.82" y1="59.4809" x2="201.427" y2="67.2512" stroke="#E5E5E5" stroke-width="6" stroke-linecap="round"/>
<line x1="123.095" y1="76.1564" x2="187.866" y2="81.9918" stroke="#E5E5E5" stroke-width="6" stroke-linecap="round"/>
<line x1="121.51" y1="92.1115" x2="167.276" y2="96.7535" stroke="#E5E5E5" stroke-width="6" stroke-linecap="round"/>
</g>
<g style="mix-blend-mode:luminosity" clip-path="url(#clip1_61_6800)">
<path d="M53.3824 81.5257C48.1934 64.4032 34.0836 60.7427 35.9796 48.9492C39.423 27.5144 89.2646 19.6465 97.3925 18.3387C123.785 14.1586 166.598 7.38251 188.87 34.9966C199.132 47.7221 188.608 57.8645 199.311 92.6664C205.661 113.323 210.473 115.19 209.743 124.855C207.533 154.029 160.994 172.476 154.323 175.123C104.653 194.81 37.0438 188.623 27.989 162.896C19.9065 139.879 63.6736 115.473 53.3824 81.5257Z" fill="#E3EEFF"/>
<path d="M38.0082 138.302C34.1827 132.562 14.6862 103.277 25.3065 81.9671C31.4779 69.5948 41.9484 71.5469 59.3126 56.1059C82.952 35.0824 76.8072 19.6543 94.1871 7.08174C117.303 -9.65937 161.017 -6.04516 176.868 14.8167C192.192 34.9875 170.608 56.9967 187.177 87.6949C199.663 110.791 218.092 109.826 220.241 125.679C223.332 148.543 188.637 177.392 154.53 185.867C108.068 197.416 60.2848 171.742 38.0082 138.302Z" fill="#C4DBFB"/>
<path d="M104.531 2.45351C103.245 2.6545 102.092 3.35356 101.323 4.39711C100.555 5.44066 100.235 6.74332 100.433 8.01888L101.742 16.4436L111.432 14.9382L110.124 6.51354C109.925 5.23798 109.225 4.09386 108.176 3.33258C107.128 2.57129 105.816 2.25511 104.531 2.45351ZM105.559 9.07465C105.157 9.13817 104.744 9.08177 104.375 8.91257C104.005 8.74337 103.695 8.469 103.483 8.12417C103.27 7.77934 103.166 7.37957 103.183 6.97545C103.2 6.57134 103.338 6.18105 103.578 5.854C103.819 5.52694 104.151 5.27782 104.534 5.13817C104.917 4.99853 105.332 4.97463 105.728 5.0695C106.124 5.16438 106.482 5.37376 106.758 5.67115C107.033 5.96854 107.213 6.34057 107.275 6.74013C107.318 7.0055 107.307 7.27673 107.244 7.53826C107.181 7.7998 107.066 8.04652 106.907 8.26429C106.748 8.48205 106.547 8.66659 106.316 8.80732C106.085 8.94806 105.828 9.04224 105.561 9.08445L105.559 9.07465Z" fill="#3A81F3"/>
<path d="M172.075 2.65183L40.2295 23.1328C37.6167 23.5386 35.7841 25.7105 36.1381 27.9895L62.2244 195.92C62.5785 198.199 64.9844 199.717 67.5972 199.311L199.443 178.83C202.05 178.425 203.882 176.248 203.528 173.969L177.442 6.03925C177.088 3.76032 174.683 2.24672 172.075 2.65183Z" fill="#403A7A"/>
<path d="M168.122 9.67043L46.1252 28.6215C43.705 28.9974 42.0187 31.0362 42.3506 33.173L66.8519 190.899C67.1846 193.041 69.4298 194.469 71.8302 194.096L193.827 175.145C196.242 174.77 197.933 172.731 197.601 170.589L173.099 12.8624C172.782 10.7233 170.537 9.29525 168.122 9.67043Z" fill="white"/>
<path d="M137.808 10.4896L75.2589 20.206C74.7232 20.2892 74.1765 20.1579 73.7393 19.8408C73.3021 19.5238 73.01 19.047 72.9275 18.5153C72.8449 17.9837 72.9785 17.4408 73.299 17.0061C73.6194 16.5713 74.1004 16.2803 74.6362 16.1971L137.185 6.48062C137.72 6.40025 138.264 6.53316 138.699 6.85027C139.134 7.16738 139.425 7.6429 139.507 8.17283C139.589 8.70275 139.457 9.24397 139.139 9.67812C138.82 10.1123 138.342 10.404 137.808 10.4896Z" fill="#3A81F3"/>
<path d="M131.728 9.5769L132.881 16.9969C132.906 17.1678 132.862 17.3419 132.758 17.4811C132.655 17.6203 132.5 17.7135 132.328 17.7402L111.609 20.9588C111.464 20.9823 111.33 21.0527 111.23 21.1591C111.129 21.2656 111.067 21.402 111.053 21.5471C110.977 22.3446 110.635 23.0947 110.082 23.6787C109.528 24.2627 108.795 24.6471 107.997 24.771C107.2 24.8948 106.384 24.7511 105.68 24.3625C104.975 23.9739 104.422 23.3628 104.108 22.6259C104.049 22.4917 103.948 22.3806 103.819 22.3099C103.69 22.2392 103.541 22.2128 103.395 22.2347L82.6505 25.4572C82.4804 25.4797 82.3083 25.4356 82.1708 25.3342C82.0332 25.2328 81.941 25.0822 81.9136 24.9141L80.761 17.4941C80.7331 17.3236 80.6385 17.1711 80.4977 17.0698C80.3569 16.9685 80.1813 16.9267 80.0093 16.9534C79.8377 16.9801 79.6836 17.0733 79.581 17.2125C79.4783 17.3518 79.4355 17.5257 79.462 17.6959L80.7996 26.3069C80.8104 26.394 80.8389 26.4781 80.8834 26.554C80.9279 26.6299 80.9874 26.6959 81.0585 26.7482C81.1295 26.8006 81.2105 26.838 81.2965 26.8583C81.3826 26.8786 81.472 26.8814 81.5593 26.8664L102.694 23.5834C102.826 23.5642 102.961 23.5852 103.082 23.6436C103.202 23.7019 103.301 23.795 103.367 23.9105C103.439 24.0395 103.517 24.1647 103.602 24.2855C104.113 25.0036 104.816 25.5655 105.632 25.9079C106.448 26.2502 107.344 26.3595 108.22 26.2234C109.097 26.0873 109.918 25.7112 110.591 25.1374C111.265 24.5637 111.764 23.815 112.033 22.9758C112.077 22.8335 112.116 22.692 112.149 22.5463C112.175 22.4157 112.241 22.2962 112.338 22.2039C112.435 22.1116 112.558 22.0511 112.691 22.0305L133.82 18.7482C133.992 18.7214 134.147 18.6283 134.25 18.4891C134.354 18.3498 134.398 18.1758 134.373 18.0049L133.032 9.37435C133.004 9.20383 132.909 9.05129 132.769 8.95C132.628 8.84871 132.452 8.80687 132.28 8.8336C132.108 8.86032 131.954 8.95345 131.85 9.09269C131.747 9.23192 131.703 9.40597 131.728 9.5769Z" fill="#3A81F3"/>
<path d="M81.8941 74.1204L78.4662 80.8716L74.973 78.5082L73.4957 81.1117L79.1995 83.704L84.7092 75.6355L81.8941 74.1204Z" fill="white"/>
<path d="M85.8749 99.7472L82.4478 106.503L78.9538 104.135L77.4766 106.739L83.1804 109.331L88.69 101.262L85.8749 99.7472Z" fill="white"/>
<path d="M34.27 40.4592C34.4596 38.0771 32.6683 35.9982 30.269 35.8156C27.8697 35.633 25.7711 37.4161 25.5815 39.7981C25.392 42.1801 27.1833 44.2591 29.5825 44.4416C31.9818 44.6242 34.0805 42.8412 34.27 40.4592Z" fill="#C4DBFB"/>
<path d="M28.2185 66.5225C32.5339 65.8521 35.493 61.8374 34.8278 57.5554C34.1626 53.2734 30.1251 50.3456 25.8097 51.0159C21.4943 51.6863 18.5352 55.701 19.2004 59.983C19.8655 64.265 23.9031 67.1928 28.2185 66.5225Z" fill="#C4DBFB"/>
<path d="M29.9688 46.3345C32.3474 45.965 33.9785 43.7521 33.6118 41.3918C33.2452 39.0316 31.0197 37.4178 28.641 37.7873C26.2624 38.1568 24.6313 40.3697 24.998 42.7299C25.3646 45.0901 27.5901 46.704 29.9688 46.3345Z" fill="#C4DBFB"/>
<path d="M51.1767 170.974C53.5553 170.604 55.1864 168.392 54.8197 166.031C54.4531 163.671 52.2276 162.057 49.8489 162.427C47.4703 162.796 45.8392 165.009 46.2059 167.369C46.5725 169.73 48.798 171.343 51.1767 170.974Z" fill="#C4DBFB"/>
<path d="M42.0083 143.864L43.3828 141.999C43.5237 141.796 43.5793 141.546 43.5379 141.303C43.4965 141.06 43.3613 140.843 43.161 140.698C42.9607 140.553 42.7111 140.491 42.4651 140.526C42.2192 140.56 41.9962 140.688 41.8437 140.883L40.4692 142.748L38.5937 141.388C38.3895 141.239 38.134 141.178 37.8834 141.216C37.6327 141.254 37.4075 141.39 37.2573 141.593C37.107 141.796 37.0441 142.05 37.0822 142.299C37.1204 142.547 37.2566 142.771 37.4608 142.919L39.3362 144.279L37.9666 146.143C37.892 146.244 37.838 146.358 37.808 146.478C37.7779 146.599 37.7722 146.725 37.7913 146.848C37.8104 146.971 37.8539 147.089 37.9193 147.195C37.9847 147.301 38.0706 147.394 38.1722 147.467C38.3763 147.614 38.6315 147.676 38.8815 147.637C39.1316 147.598 39.3561 147.462 39.5058 147.259L40.881 145.399L42.7508 146.755C42.8525 146.829 42.968 146.882 43.0906 146.911C43.2132 146.941 43.3405 146.945 43.4651 146.925C43.5893 146.907 43.7086 146.864 43.8158 146.799C43.923 146.734 44.016 146.649 44.0893 146.547C44.1639 146.447 44.2179 146.333 44.248 146.212C44.2781 146.091 44.2837 145.966 44.2646 145.843C44.2455 145.72 44.202 145.602 44.1366 145.495C44.0712 145.389 43.9853 145.297 43.8837 145.224L42.0083 143.864Z" fill="#3A81F3"/>
<path d="M36.9598 91.0133L38.3343 89.1485C38.4838 88.9449 38.5458 88.6909 38.5067 88.4424C38.4677 88.1938 38.3307 87.9711 38.1259 87.8232C37.9212 87.6753 37.6654 87.6143 37.4149 87.6537C37.1644 87.6931 36.9397 87.8296 36.7903 88.0332L35.4157 89.898L33.5395 88.5331C33.335 88.3937 33.0837 88.3391 32.8388 88.3808C32.594 88.4224 32.3749 88.5572 32.2281 88.7563C32.0813 88.9555 32.0183 89.2034 32.0526 89.4475C32.0868 89.6916 32.2156 89.9125 32.4115 90.0635L34.287 91.4235L32.9125 93.2883C32.7643 93.4918 32.7028 93.7448 32.7412 93.9925C32.7797 94.2403 32.9151 94.4627 33.118 94.6116C33.3231 94.7597 33.579 94.8209 33.8299 94.7819C34.0808 94.743 34.3061 94.6069 34.4565 94.4037L35.8269 92.5445L37.7015 93.8996C37.906 94.039 38.1574 94.0936 38.4023 94.0519C38.6471 94.0103 38.8662 93.8756 39.013 93.6764C39.1598 93.4772 39.2228 93.2293 39.1885 92.9852C39.1543 92.7412 39.0255 92.5202 38.8296 92.3692L36.9598 91.0133Z" fill="#3A81F3"/>
<path d="M26.1505 138.101C26.2533 138.22 26.3309 138.358 26.3784 138.508C26.426 138.658 26.4426 138.815 26.4273 138.972C26.4097 139.18 26.3367 139.38 26.2158 139.551C26.0949 139.722 25.9304 139.859 25.7391 139.947L21.9667 141.712C21.7762 141.801 21.5657 141.838 21.3564 141.82C21.1471 141.802 20.9464 141.73 20.7742 141.611C20.602 141.492 20.4645 141.33 20.3754 141.141C20.2863 140.952 20.2487 140.744 20.2665 140.536L20.6346 136.393C20.6526 136.184 20.7258 135.983 20.8468 135.811C20.9679 135.639 21.1325 135.502 21.324 135.413C21.5155 135.324 21.7272 135.287 21.9375 135.306C22.1479 135.324 22.3495 135.397 22.522 135.518L25.9509 137.891C26.0262 137.952 26.0933 138.023 26.1505 138.101ZM21.2484 140.8C21.2621 140.816 21.2779 140.831 21.2955 140.843C21.3312 140.869 21.3736 140.885 21.4179 140.889C21.4623 140.893 21.5069 140.884 21.5466 140.864L25.3198 139.103C25.3606 139.085 25.3956 139.055 25.4214 139.019C25.4472 138.982 25.4628 138.94 25.4667 138.895C25.4706 138.851 25.4626 138.806 25.4435 138.766C25.4244 138.726 25.3949 138.691 25.358 138.666L21.9298 136.297C21.8939 136.271 21.8516 136.255 21.8073 136.251C21.763 136.247 21.7183 136.254 21.6779 136.273C21.6375 136.291 21.6027 136.32 21.5773 136.357C21.5519 136.393 21.5366 136.435 21.5332 136.479L21.1643 140.617C21.1669 140.653 21.1775 140.688 21.1955 140.719C21.2134 140.75 21.2383 140.777 21.2681 140.797L21.2484 140.8Z" fill="#F9C067"/>
<path d="M62.9937 11.6814C63.0966 11.8014 63.1741 11.9407 63.2218 12.091C63.2695 12.2414 63.2863 12.3998 63.2713 12.5568C63.2555 12.7649 63.1838 12.965 63.0636 13.1364C62.9434 13.3078 62.7792 13.4442 62.5881 13.5313L58.8149 15.2919C58.6243 15.3802 58.4139 15.4173 58.2046 15.3995C57.9953 15.3817 57.7945 15.3096 57.6223 15.1905C57.4502 15.0714 57.3127 14.9094 57.2236 14.7207C57.1345 14.5321 57.0969 14.3234 57.1146 14.1155L57.4835 9.97761C57.5018 9.769 57.5749 9.56867 57.6955 9.39667C57.8161 9.22466 57.9801 9.08701 58.171 8.99749C58.3613 8.90726 58.5723 8.86902 58.7822 8.8867C58.9921 8.90438 59.1934 8.97735 59.3652 9.09807L62.7694 11.4754C62.8513 11.5361 62.9264 11.6051 62.9937 11.6814ZM58.0946 14.4C58.1088 14.419 58.1268 14.435 58.1475 14.447C58.1836 14.4723 58.2259 14.4876 58.2701 14.4913C58.3142 14.495 58.3585 14.4871 58.3986 14.4682L62.171 12.7027C62.2119 12.6847 62.2472 12.6562 62.2733 12.6201C62.2993 12.584 62.3152 12.5416 62.3191 12.4974C62.3231 12.4533 62.3151 12.4088 62.2959 12.3688C62.2767 12.3288 62.2471 12.2947 62.21 12.27L58.781 9.89652C58.7437 9.87181 58.7005 9.85697 58.6557 9.85339C58.6109 9.84981 58.5659 9.85762 58.5249 9.87607C58.4846 9.89518 58.45 9.92447 58.4246 9.96101C58.3992 9.99755 58.3839 10.0401 58.3802 10.0843L58.0114 14.2222C58.012 14.2559 58.0198 14.2892 58.0341 14.3198C58.0484 14.3504 58.069 14.3777 58.0946 14.4Z" fill="#F9C067"/>
<line x1="63.8871" y1="69.7771" x2="139.975" y2="57.9576" stroke="#E5E5E5" stroke-width="6" stroke-linecap="round"/>
<line x1="66.427" y1="86.3482" x2="130.573" y2="75.6442" stroke="#E5E5E5" stroke-width="6" stroke-linecap="round"/>
<line x1="68.9217" y1="102.187" x2="114.377" y2="95.1255" stroke="#E5E5E5" stroke-width="6" stroke-linecap="round"/>
</g>
<path d="M125.19 122.31C124.846 121.775 124.718 121.171 124.807 120.5C124.895 119.828 125.186 119.287 125.678 118.876L146.519 100.098L120.363 91.7271C118.958 91.306 118.171 90.3575 118.002 88.8815C117.835 87.4059 118.403 86.3207 119.706 85.6256L160.597 62.4053C161.199 62.0183 161.841 61.9129 162.524 62.0891C163.203 62.267 163.737 62.6572 164.124 63.2595C164.468 63.7949 164.595 64.3984 164.507 65.0699C164.418 65.7414 164.128 66.2826 163.635 66.6936L142.795 85.4713L168.95 93.8425C170.355 94.2635 171.141 95.2118 171.308 96.6873C171.478 98.1633 170.911 99.2489 169.608 99.9439L128.717 123.164C128.115 123.551 127.474 123.656 126.794 123.478C126.111 123.302 125.577 122.912 125.19 122.31Z" fill="#E5E5E5"/>
<defs>
<clipPath id="clip0_61_6800">
<rect width="100" height="192" fill="white" transform="translate(176.943 1.44446) rotate(5.79173)"/>
</clipPath>
<clipPath id="clip1_61_6800">
<rect width="100" height="192" fill="white" transform="translate(0.856567 15.8127) rotate(-8.82979)"/>
</clipPath>
</defs>
</svg>
