<svg width="24" height="25" viewBox="0 0 24 25" fill="none" xmlns="http://www.w3.org/2000/svg">
<path d="M14 23.25H10C4.57 23.25 2.25 20.93 2.25 15.5V9.5C2.25 4.07 4.57 1.75 10 1.75H14C19.43 1.75 21.75 4.07 21.75 9.5V15.5C21.75 20.93 19.43 23.25 14 23.25ZM10 3.25C5.39 3.25 3.75 4.89 3.75 9.5V15.5C3.75 20.11 5.39 21.75 10 21.75H14C18.61 21.75 20.25 20.11 20.25 15.5V9.5C20.25 4.89 18.61 3.25 14 3.25H10Z" fill="#1E1E1E"/>
<path d="M15 11.3301H9C7.76 11.3301 6.75 10.3201 6.75 9.08008V8.08008C6.75 6.84008 7.76 5.83008 9 5.83008H15C16.24 5.83008 17.25 6.84008 17.25 8.08008V9.08008C17.25 10.3201 16.24 11.3301 15 11.3301ZM9 7.33008C8.59 7.33008 8.25 7.67008 8.25 8.08008V9.08008C8.25 9.49008 8.59 9.83008 9 9.83008H15C15.41 9.83008 15.75 9.49008 15.75 9.08008V8.08008C15.75 7.67008 15.41 7.33008 15 7.33008H9Z" fill="#1E1E1E"/>
<path d="M8.14991 15.4201C8.01991 15.4201 7.88991 15.3901 7.76991 15.3401C7.64991 15.2901 7.53991 15.2201 7.44991 15.1301C7.25991 14.9401 7.15991 14.6901 7.15991 14.4201C7.15991 14.2901 7.17991 14.1601 7.22991 14.0401C7.27991 13.9101 7.34991 13.8101 7.44991 13.7101C7.48991 13.6701 7.53991 13.6201 7.59991 13.5901C7.64991 13.5501 7.70991 13.5201 7.76991 13.5001C7.82991 13.4701 7.89991 13.4501 7.95991 13.4401C8.27991 13.3701 8.62991 13.4801 8.85991 13.7101C8.94991 13.8001 9.02991 13.9101 9.07991 14.0401C9.12991 14.1601 9.15991 14.2901 9.15991 14.4201C9.15991 14.6901 9.04991 14.9401 8.85991 15.1301C8.66991 15.3201 8.41991 15.4201 8.14991 15.4201Z" fill="#1E1E1E"/>
<path d="M12.1599 15.4199C11.8899 15.4199 11.6399 15.3199 11.4499 15.1299C11.2599 14.9399 11.1599 14.6899 11.1599 14.4199C11.1599 14.2899 11.1799 14.1599 11.2299 14.0399C11.2799 13.9099 11.3499 13.8099 11.4499 13.7099C11.4899 13.6699 11.5399 13.6199 11.5999 13.5899C11.6499 13.5499 11.7099 13.5199 11.7699 13.4999C11.8299 13.4699 11.8999 13.4499 11.9599 13.4399C12.1499 13.3999 12.3499 13.4199 12.5399 13.4999C12.6599 13.5499 12.7699 13.6199 12.8599 13.7099C12.9499 13.8099 13.0299 13.9099 13.0799 14.0399C13.1299 14.1599 13.1599 14.2899 13.1599 14.4199C13.1599 14.6899 13.0499 14.9399 12.8599 15.1299C12.6699 15.3199 12.4199 15.4199 12.1599 15.4199Z" fill="#1E1E1E"/>
<path d="M16.1499 15.4201C16.0199 15.4201 15.8899 15.3901 15.7699 15.3401C15.6499 15.2901 15.5399 15.2201 15.4499 15.1301C15.3499 15.0301 15.2799 14.9201 15.2299 14.8001C15.1799 14.6801 15.1599 14.5501 15.1599 14.4201C15.1599 14.2901 15.1799 14.1601 15.2299 14.0401C15.2799 13.9101 15.3499 13.8101 15.4499 13.7101C15.8199 13.3401 16.4899 13.3401 16.8599 13.7101C17.0499 13.9001 17.1599 14.1601 17.1599 14.4201C17.1599 14.6901 17.0499 14.9401 16.8599 15.1301C16.6799 15.3101 16.4299 15.4201 16.1499 15.4201Z" fill="#1E1E1E"/>
<path d="M8.1599 19.4199C7.8899 19.4199 7.6399 19.3199 7.4499 19.1299C7.2599 18.9399 7.1499 18.6899 7.1499 18.4199C7.1499 18.1599 7.2599 17.8999 7.4499 17.7099C7.4899 17.6699 7.5499 17.6199 7.5999 17.5899C7.6499 17.5499 7.7099 17.5199 7.7699 17.4999C7.8299 17.4699 7.8999 17.4499 7.9599 17.4399C8.2899 17.3799 8.6299 17.4799 8.8599 17.7099C8.9099 17.7599 8.9499 17.8099 8.9899 17.8599C9.0199 17.9199 9.0499 17.9799 9.0799 18.0399C9.0999 18.0999 9.1199 18.1599 9.1399 18.2199C9.1499 18.2899 9.1599 18.3499 9.1599 18.4199C9.1599 18.6899 9.0499 18.9399 8.8599 19.1299C8.6699 19.3199 8.4199 19.4199 8.1599 19.4199Z" fill="#1E1E1E"/>
<path d="M12.1599 19.4199C11.8899 19.4199 11.6399 19.3199 11.4499 19.1299C11.2599 18.9399 11.1499 18.6899 11.1499 18.4199C11.1499 18.1599 11.2599 17.8999 11.4499 17.7099C11.6799 17.4799 12.0299 17.3799 12.3499 17.4399C12.4099 17.4499 12.4799 17.4699 12.5399 17.4999C12.5999 17.5199 12.6599 17.5499 12.7099 17.5899C12.7599 17.6199 12.8099 17.6699 12.8599 17.7099C13.0499 17.8999 13.1499 18.1599 13.1499 18.4199C13.1499 18.6899 13.0499 18.9399 12.8599 19.1299C12.6699 19.3199 12.4199 19.4199 12.1599 19.4199Z" fill="#1E1E1E"/>
<path d="M16.1499 19.42C15.8899 19.42 15.6399 19.32 15.4499 19.13C15.2599 18.94 15.1599 18.69 15.1599 18.42C15.1599 18.16 15.2599 17.9 15.4499 17.71C15.5399 17.62 15.6499 17.55 15.7699 17.5C16.1399 17.35 16.5899 17.43 16.8599 17.71C17.0499 17.9 17.1499 18.16 17.1499 18.42C17.1499 18.69 17.0499 18.94 16.8599 19.13C16.7699 19.22 16.6599 19.29 16.5399 19.34C16.4199 19.39 16.2899 19.42 16.1499 19.42Z" fill="#1E1E1E"/>
</svg>
