<svg width="24" height="25" viewBox="0 0 24 25" fill="none" xmlns="http://www.w3.org/2000/svg">
<path d="M11.9998 23.25C10.8298 23.25 9.73977 22.8 8.91977 21.98L2.52975 15.59C1.70975 14.77 1.25977 13.67 1.25977 12.51C1.25977 11.35 1.70975 10.25 2.52975 9.42999L8.91977 3.03998C9.73977 2.21998 10.8398 1.77002 11.9998 1.77002C13.1598 1.77002 14.2597 2.21998 15.0797 3.03998L21.4698 9.42999C22.2898 10.25 22.7397 11.35 22.7397 12.51C22.7397 13.67 22.2898 14.77 21.4698 15.59L15.0797 21.98C14.2597 22.8 13.1698 23.25 11.9998 23.25ZM11.9998 3.25C11.2298 3.25 10.5098 3.55002 9.97977 4.08002L3.58975 10.47C3.04975 11.01 2.75977 11.73 2.75977 12.49C2.75977 13.25 3.05975 13.98 3.58975 14.51L9.97977 20.9C11.0498 21.97 12.9497 21.97 14.0197 20.9L20.4098 14.51C20.9498 13.97 21.2397 13.26 21.2397 12.49C21.2397 11.72 20.9398 11 20.4098 10.47L14.0197 4.08002C13.4897 3.55002 12.7698 3.25 11.9998 3.25Z" fill="#1E1E1E"/>
<path d="M17.7499 19C17.5599 19 17.3699 18.93 17.2199 18.78L5.71994 7.28C5.42994 6.99 5.42994 6.50994 5.71994 6.21994C6.00994 5.92994 6.48994 5.92994 6.77994 6.21994L18.2799 17.7199C18.5699 18.0099 18.5699 18.49 18.2799 18.78C18.1299 18.93 17.9399 19 17.7499 19Z" fill="#1E1E1E"/>
<path d="M6.24994 19C6.05994 19 5.86994 18.93 5.71994 18.78C5.42994 18.49 5.42994 18.0099 5.71994 17.7199L17.2199 6.21994C17.5099 5.92994 17.9899 5.92994 18.2799 6.21994C18.5699 6.50994 18.5699 6.99 18.2799 7.28L6.77994 18.78C6.62994 18.93 6.43994 19 6.24994 19Z" fill="#1E1E1E"/>
</svg>
